<svg fill="none" height="30" viewBox="0 0 391 30" width="391" xmlns="http://www.w3.org/2000/svg"><g fill="#fff"><path clip-rule="evenodd" d="m7.69784 0h-7.69784v30h7.91116l6.82224-6.9023 6.6417 6.9023h8.0494v-30h-7.8418l-6.8493 7.11815zm7.03556 7.11815 6.8493 7.11815h-13.88486z" fill-rule="evenodd"/><path d="m42.4658 28.3095v-26.10796h7.0492l6.168 11.09586 5.14-11.09586h7.0981v26.10796h-7.0981v-12.2381l-3.5585 5.8743h-1.5815-1.8979l-4.2701-5.8743-.049 12.2381z"/><path d="m70.8579 28.3096 7.5436-26.27115h7.3559l7.5436 26.27115h-6.4177l-1.3136-5.1417h-7.2058l-1.351 5.1417zm8.8196-10.1332h4.6162l-2.2893-8.96968z"/><path d="m94.0288 28.3096 7.8812-13.6985-7.2432-12.57265h6.9432l3.79 6.94309 3.829-6.94309h6.68l-7.281 12.61015 7.919 13.661h-6.981l-4.428-8.0315-4.429 8.0315z"/><path d="m133.173 27.9699v-26.27117h10.021c1.876 0 3.503.3753 4.879 1.12591 1.401.7506 2.477 1.77643 3.227 3.07747.776 1.30105 1.164 2.78975 1.164 4.46609 0 1.5763-.388 3.0024-1.164 4.2784-.75 1.2761-1.826 2.2894-3.227 3.04-1.376.7506-3.003 1.1259-4.879 1.1259h-3.565v9.1574zm6.456-14.3366h2.439c1.301 0 2.264-.3127 2.89-.9382.65-.6505.976-1.4387.976-2.3644 0-.95079-.326-1.73892-.976-2.36443-.626-.6255-1.589-.93825-2.89-.93825h-2.439z"/><path d="m156.502 27.9699v-26.27117h6.456v20.86677h11.859v5.4044z"/><path d="m187.675 28.3827c-1.951 0-3.653-.4003-5.104-1.201-1.451-.8006-2.577-1.9265-3.377-3.3777-.801-1.4512-1.201-3.1525-1.201-5.1041v-17.00117h6.455v17.00117c0 1.1759.288 2.1267.863 2.8523.575.7006 1.364 1.0508 2.364 1.0508 1.001 0 1.789-.3502 2.365-1.0508.575-.7256.863-1.6764.863-2.8523v-17.00117h6.455v17.00117c0 1.9516-.4 3.6529-1.201 5.1041-.8 1.4512-1.926 2.5771-3.378 3.3777-1.426.8007-3.127 1.201-5.104 1.201z"/><path d="m201.247 27.9699v-26.27117h9.945c1.802 0 3.403.35028 4.804 1.05085 1.401.70056 2.49 1.67634 3.265 2.92735.801 1.25101 1.201 2.70217 1.201 4.35347 0 1.6764-.413 3.1526-1.238 4.4286-.826 1.251-1.939 2.2143-3.341 2.8898l5.555 10.6211h-6.793l-4.729-9.6078h-2.214v9.6078zm6.455-14.7119h2.89c1 0 1.801-.2877 2.402-.8632.625-.5754.938-1.326.938-2.2518 0-.95074-.313-1.70134-.938-2.25179-.601-.57546-1.402-.86319-2.402-.86319h-2.89z"/><path d="m221.836 27.9699 7.544-26.27117h7.356l7.543 26.27117h-6.418l-1.313-5.1417h-7.206l-1.351 5.1417zm8.82-10.1332h4.616l-2.289-8.9697z"/><path d="m247.267 27.9699v-26.27117h6.455v20.86677h11.86v5.4044z"/><path d="m300.137 20.9239h-10.321l-2.318 6.4297h-3.351l9.408-24.6357h2.843l9.424 24.6357h-3.333zm-9.34-2.6733h8.376l-4.197-11.52264z"/><path d="m309.138 27.3536v-24.6357h6.955c2.143 0 4.038.47376 5.685 1.42129 1.647.94752 2.916 2.29549 3.807 4.0439.902 1.74841 1.359 3.75631 1.37 6.02361v1.5735c0 2.3237-.451 4.3598-1.353 6.1082-.891 1.7484-2.172 3.0907-3.841 4.027-1.658.9362-3.593 1.4156-5.804 1.4382zm3.249-21.96233v19.30583h3.418c2.504 0 4.45-.7783 5.837-2.335 1.399-1.5566 2.099-3.7731 2.099-6.6496v-1.4382c0-2.7974-.66-4.96884-1.98-6.51421-1.309-1.55665-3.17-2.34626-5.584-2.36882z"/><path d="m336.075 2.7179 8.054 20.1011 8.054-20.1011h4.213v24.6357h-3.248v-9.5937l.304-10.35513-8.088 19.94883h-2.487l-8.071-19.89807.322 10.30437v9.5937h-3.249v-24.6357z"/><path d="m365.618 27.3536h-3.249v-24.6357h3.249z"/><path d="m390.507 27.3536h-3.265l-12.403-18.98439v18.98439h-3.265v-24.6357h3.265l12.437 19.069v-19.069h3.231z"/></g></svg>