<svg width="204" height="205" viewBox="0 0 204 205" fill="none" xmlns="http://www.w3.org/2000/svg">
<path fill-rule="evenodd" clip-rule="evenodd" d="M21 7H20C12.8203 7 7 12.8203 7 20V156V165.777C7.04439 165.743 7.08892 165.709 7.1336 165.675C11.1588 162.619 15.7857 162.095 18.3751 162.002C18.3948 162.002 18.4144 162.001 18.4341 162.001C18.4561 162 18.478 162 18.5 162V165.5C18.5 162 18.5002 162 18.5004 162H18.5009H18.5023H18.5065L18.5209 162L18.5726 162L18.64 162L18.7616 162.001C18.9231 162.002 19.1533 162.004 19.4335 162.008C19.9921 162.016 20.7577 162.033 21.5774 162.065C22.3903 162.098 23.2914 162.148 24.1106 162.227C24.8289 162.297 25.8145 162.415 26.6068 162.68C27.7273 163.053 30.9696 164.571 34 166.769V156V20C34 12.8203 28.1797 7 21 7ZM0 20V156V169V183C0 186.466 0.871197 191.827 3.93493 196.437C7.13485 201.253 12.5856 205 21 205H21.0854H21.1729H21.2625H21.3541H21.4477H21.5435H21.6412H21.741H21.8428H21.9467H22.0525H22.1604H22.2702H22.3821H22.4959H22.6118H22.7296H22.8494H22.9711H23.0948H23.2204H23.348H23.4776H23.609H23.7424H23.8777H24.0149H24.154H24.295H24.4379H24.5827H24.7294H24.8779H25.0283H25.1806H25.3347H25.4906H25.6484H25.8081H25.9695H26.1328H26.2979H26.4648H26.6335H26.804H26.9763H27.1503H27.3262H27.5038H27.6831H27.8643H28.0471H28.2317H28.4181H28.6062H28.796H28.9875H29.1807H29.3756H29.5723H29.7706H29.9706H30.1722H30.3756H30.5806H30.7873H30.9956H31.2055H31.4171H31.6304H31.8452H32.0617H32.2798H32.4995H32.7208H32.9437H33.1681H33.3942H33.6218H33.851H34.0817H34.3141H34.5479H34.7833H35.0202H35.2587H35.4986H35.7401H35.9831H36.2276H36.4736H36.7211H36.9701H37.2205H37.4724H37.7258H37.9806H38.2369H38.4946H38.7538H39.0144H39.2764H39.5398H39.8047H40.0709H40.3386H40.6076H40.878H41.1498H41.423H41.6975H41.9734H42.2506H42.5292H42.8092H43.0904H43.373H43.6569H43.9422H44.2287H44.5165H44.8056H45.0961H45.3877H45.6807H45.9749H46.2704H46.5672H46.8652H47.1644H47.4649H47.7666H48.0695H48.3737H48.679H48.9856H49.2933H49.6023H49.9124H50.2237H50.5362H50.8498H51.1646H51.4806H51.7976H52.1159H52.4352H52.7557H53.0773H53.4H53.7238H54.0488H54.3748H54.7019H55.03H55.3593H55.6896H56.021H56.3534H56.6869H57.0214H57.357H57.6935H58.0311H58.3697H58.7094H59.05H59.3916H59.7342H60.0778H60.4224H60.7679H61.1144H61.4619H61.8103H62.1596H62.5099H62.8611H63.2132H63.5663H63.9202H64.2751H64.6309H64.9875H65.3451H65.7035H66.0628H66.4229H66.7839H67.1458H67.5085H67.8721H68.2365H68.6017H68.9677H69.3345H69.7022H70.0706H70.4399H70.8099H71.1807H71.5523H71.9247H72.2978H72.6716H73.0462H73.4216H73.7977H74.1745H74.5521H74.9303H75.3093H75.689H76.0693H76.4504H76.8321H77.2146H77.5976H77.9814H78.3658H78.7509H79.1366H79.5229H79.9099H80.2975H80.6857H81.0745H81.464H81.854H82.2446H82.6358H83.0276H83.42H83.8129H84.2064H84.6004H84.995H85.3902H85.7858H86.182H86.5787H86.976H87.3737H87.7719H88.1707H88.5699H88.9696H89.3698H89.7704H90.1715H90.5731H90.9751H91.3775H91.7804H92.1838H92.5875H92.9917H93.3962H93.8012H94.2066H94.6124H95.0185H95.425H95.8319H96.2392H96.6468H97.0548H97.4631H97.8718H98.2808H98.6901H99.0997H99.5097H99.9199H100.33H100.741H101.152H101.564H101.976H102.388H102.8H103.212H103.625H104.038H104.451H104.865H105.278H105.692H106.106H106.52H106.935H107.35H107.764H108.179H108.595H109.01H109.425H109.841H110.257H110.673H111.089H111.505H111.922H112.338H112.754H113.171H113.588H114.005H114.422H114.839H115.256H115.673H116.09H116.507H116.924H117.341H117.759H118.176H118.593H119.011H119.428H119.845H120.263H120.68H121.097H121.515H121.932H122.349H122.766H123.183H123.6H124.017H124.434H124.851H125.267H125.684H126.1H126.517H126.933H127.349H127.765H128.181H128.597H129.012H129.428H129.843H130.258H130.673H131.088H131.502H131.917H132.331H132.745H133.158H133.572H133.985H134.398H134.811H135.224H135.636H136.048H136.46H136.871H137.283H137.694H138.104H138.515H138.925H139.334H139.744H140.153H140.562H140.97H141.378H141.786H142.193H142.6H143.007H143.413H143.819H144.225H144.63H145.035H145.439H145.843H146.246H146.65H147.052H147.454H147.856H148.257H148.658H149.059H149.458H149.858H150.257H150.655H151.053H151.45H151.847H152.244H152.64H153.035H153.43H153.824H154.218H154.611H155.003H155.395H155.787H156.178H156.568H156.958H157.347H157.735H158.123H158.51H158.897H159.283H159.668H160.053H160.437H160.82H161.203H161.585H161.966H162.347H162.727H163.106H163.484H163.862H164.239H164.616H164.991H165.366H165.74H166.114H166.486H166.858H167.229H167.6H167.969H168.338H168.706H169.073H169.439H169.805H170.17H170.534H170.897H171.259H171.62H171.981H172.34H172.699H173.057H173.414H173.77H174.125H174.48H174.833H175.185H175.537H175.888H176.237H176.586H176.934H177.281H177.627H177.972H178.316H178.659H179.001H179.342H179.682H180.021H180.359H180.695H181.031H181.366H181.7H182.033H182.365H182.696H183.025H183.354H183.681H184.008H184.333H184.657H184.98H185.302H185.623H185.943H186.262H186.579H186.896H187.211H187.525H187.838H188.15H188.46H188.77H189.078H189.385H189.691H189.995H190.299H190.601H190.902H191.202H191.5C193.477 205 196.364 204.436 198.858 202.64C201.53 200.716 203.5 197.541 203.5 193V192.959V192.916V192.87V192.823V192.773V192.721V192.666V192.61V192.551V192.49V192.427V192.362V192.295V192.225V192.153V192.079V192.003V191.925V191.845V191.762V191.678V191.591V191.503V191.412V191.319V191.224V191.127V191.028V190.927V190.823V190.718V190.611V190.502V190.39V190.277V190.161V190.044V189.925V189.803V189.68V189.554V189.427V189.298V189.167V189.033V188.898V188.761V188.622V188.481V188.339V188.194V188.047V187.899V187.748V187.596V187.442V187.286V187.128V186.968V186.806V186.643V186.477V186.31V186.141V185.971V185.798V185.624V185.448V185.27V185.09V184.908V184.725V184.54V184.353V184.165V183.974V183.782V183.589V183.393V183.196V182.997V182.797V182.594V182.39V182.185V181.977V181.768V181.558V181.345V181.132V180.916V180.699V180.48V180.259V180.037V179.814V179.589V179.362V179.133V178.903V178.672V178.438V178.204V177.968V177.73V177.49V177.25V177.007V176.763V176.518V176.271V176.023V175.773V175.521V175.268V175.014V174.758V174.501V174.242V173.982V173.721V173.458V173.193V172.927V172.66V172.391V172.121V171.85V171.577V171.303V171.027V170.751V170.472V170.193V169.912V169.629V169.346V169.061V168.775V168.487V168.198V167.908V167.617V167.324V167.03V166.735V166.438V166.14V165.841V165.541V165.24V164.937V164.633V164.328V164.022V163.714V163.405V163.096V162.784V162.472V162.159V161.844V161.528V161.212V160.894V160.574V160.254V159.933V159.61V159.287V158.962V158.636V158.309V157.981V157.652V157.322V156.991V156.659V156.326V155.992V155.656V155.32V154.983V154.644V154.305V153.965V153.623V153.281V152.938V152.594V152.248V151.902V151.555V151.207V150.858V150.508V150.158V149.806V149.453V149.1V148.745V148.39V148.034V147.677V147.319V146.96V146.6V146.24V145.879V145.516V145.153V144.79V144.425V144.06V143.693V143.326V142.959V142.59V142.221V141.851V141.48V141.108V140.736V140.363V139.989V139.614V139.239V138.863V138.486V138.109V137.731V137.352V136.973V136.593V136.212V135.83V135.448V135.066V134.682V134.298V133.914V133.529V133.143V132.756V132.369V131.982V131.594V131.205V130.816V130.426V130.035V129.644V129.253V128.861V128.468V128.075V127.681V127.287V126.893V126.498V126.102V125.706V125.309V124.912V124.515V124.117V123.718V123.32V122.92V122.521V122.121V121.72V121.319V120.918V120.516V120.114V119.712V119.309V118.906V118.502V118.098V117.694V117.289V116.884V116.479V116.074V115.668V115.262V114.855V114.448V114.041V113.634V113.226V112.819V112.41V112.002V111.594V111.185V110.776V110.366V109.957V109.547V109.137V108.727V108.317V107.906V107.496V107.085V106.674V106.263V105.852V105.44V105.029V104.617V104.205V103.793V103.381V102.969V102.557V102.145V101.732V101.32V100.907V100.495V100.082V99.6693V99.2566V98.8438V98.4311V98.0183V97.6055V97.1926V96.7798V96.367V95.9543V95.5415V95.1288V94.7161V94.3034V93.8908V93.4782V93.0658V92.6533V92.241V91.8287V91.4166V91.0045V90.5925V90.1807V89.7689V89.3573V88.9458V88.5344V88.1232V87.7122V87.3013V86.8905V86.48V86.0696V85.6594V85.2494V84.8396V84.4299V84.0206V83.6114V83.2024V82.7937V82.3852V81.977V81.569V81.1613V80.7538V80.3466V79.9397V79.5331V79.1268V78.7207V78.315V77.9096V77.5045V77.0998V76.6953V76.2912V75.8875V75.4841V75.0811V74.6784V74.2761V73.8742V73.4727V73.0716V72.6709V72.2706V71.8707V71.4712V71.0722V70.6736V70.2754V69.8777V69.4804V69.0836V68.6873V68.2914V67.896V67.5012V67.1068V66.7129V66.3195V65.9267V65.5343V65.1425V64.7513V64.3605V63.9704V63.5807V63.1917V62.8032V62.4153V62.028V61.6413V61.2551V60.8696V60.4847V60.1004V59.7167V59.3337V58.9513V58.5696V58.1885V57.808V57.4282V57.0491V56.6707V56.293V55.9159V55.5396V55.1639V54.789V54.4148V54.0413V53.6686V53.2966V52.9253V52.5548V52.1851V51.8161V51.4479V51.0805V50.7138V50.348V49.983V49.6187V49.2553V48.8927V48.531V48.17V47.8099V47.4507V47.0923V46.7348V46.3781V46.0224V45.6675V45.3135V44.9604V44.6082V44.2569V43.9065V43.557V43.2085V42.8609V42.5143V42.1686V41.8238V41.4801V41.1372V40.7954V40.4546V40.1147V39.7759V39.438V39.1012V38.7654V38.4306V38.0968V37.7641V37.4324V37.1018V36.7722V36.4437V36.1163V35.7899V35.4647V35.1405V34.8174V34.4955V34.1746V33.8549V33.5363V33.2188V32.9025V32.5873V32.2733V31.9604V31.6487V31.3381V31.0288V30.7206V30.4137V30.1079V29.8033V29.5C203.5 27.9399 203.061 25.6777 201.64 23.7049C200.091 21.5537 197.541 20 194 20H193.972H193.943H193.915H193.886H193.857H193.828H193.799H193.77H193.74H193.71H193.681H193.65H193.62H193.59H193.559H193.529H193.498H193.467H193.436H193.404H193.373H193.341H193.31H193.278H193.246H193.213H193.181H193.148H193.116H193.083H193.05H193.017H192.983H192.95H192.916H192.883H192.849H192.815H192.781H192.746H192.712H192.677H192.642H192.607H192.572H192.537H192.502H192.467H192.431H192.395H192.359H192.323H192.287H192.251H192.214H192.178H192.141H192.104H192.067H192.03H191.993H191.956H191.918H191.881H191.843H191.805H191.767H191.729H191.691H191.652H191.614H191.575H191.536H191.498H191.459H191.419H191.38H191.341H191.301H191.262H191.222H191.182H191.142H191.102H191.062H191.022H190.981H190.941H190.9H190.859H190.818H190.778H190.736H190.695H190.654H190.612H190.571H190.529H190.488H190.446H190.404H190.362H190.319H190.277H190.235H190.192H190.15H190.107H190.064H190.021H189.978H189.935H189.892H189.849H189.805H189.762H189.718H189.675H189.631H189.587H189.543H189.499H189.455H189.411H189.366H189.322H189.277H189.233H189.188H189.143H189.098H189.054H189.009H188.963H188.918H188.873H188.828H188.782H188.737H188.691H188.645H188.599H188.554H188.508H188.462H188.416H188.369H188.323H188.277H188.23H188.184H188.137H188.091H188.044H187.997H187.95H187.903H187.857H187.809H187.762H187.715H187.668H187.621H187.573H187.526H187.478H187.431H187.383H187.335H187.287H187.24H187.192H187.144H187.096H187.048H186.999H186.951H186.903H186.855H186.806H186.758H186.709H186.661H186.612H186.564H186.515H186.466H186.417H186.369H186.32H186.271H186.222H186.173H186.124H186.074H186.025H185.976H185.927H185.877H185.828H185.779H185.729H185.68H185.63H185.58H185.531H185.481H185.432H185.382H185.332H185.282H185.232H185.182H185.133H185.083H185.033H184.983H184.932H184.882H184.832H184.782H184.732H184.682H184.632H184.581H184.531H184.481H184.43H184.38H184.33H184.279H184.229H184.178H184.128H184.077H184.027H183.976H183.926H183.875H183.824H183.774H183.723H183.672H183.622H183.571H183.52H183.47H183.419H183.368H183.317H183.267H183.216H183.165H183.114H183.063H183.012H182.962H182.911H182.86H182.809H182.758H182.707H182.657H182.606H182.555H182.504H182.453H182.402H182.351H182.3H182.249H182.199H182.148H182.097H182.046H181.995H181.944H181.893H181.843H181.792H181.741H181.69H181.639H181.588H181.538H181.487H181.436H181.385H181.335H181.284H181.233H181.182H181.132H181.081H181.03H180.98H180.929H180.878H180.828H180.777H180.727H180.676H180.626H180.575H180.525H180.474H180.424H180.373H180.323H180.273H180.222H180.172H180.122H180.071H180.021H179.971H179.921H179.871H179.821H179.771H179.72H179.67H179.62H179.571H179.521H179.471H179.421H179.371H179.321H179.272H179.222H179.172H179.123H179.073H179.024H178.974H178.925H178.875H178.826H178.777H178.728H178.678H178.629H178.58H178.531H178.482H178.433H178.384H178.335H178.286H178.238H178.189H178.14H178.092H178.043H177.994H177.946H177.898H177.849H177.801H177.753H177.705H177.657H177.608H177.56H177.513H177.465H177.417H177.369H177.321H177.274H177.226H177.179H177.131H177.084H177.037H176.99H176.942H176.895H176.848H176.801H176.754H176.708H176.661H176.614H176.568H176.521H176.475H176.428H176.382H176.336H176.29H176.244H176.198H176.152H176.106H176.06H176.015H175.969H175.924H175.878H175.833H175.788H175.742H175.697H175.652H175.608H175.563H175.518H175.473H175.429H175.384H175.34H175.296H175.252H175.207H175.163H175.12H175.076H175.032H174.988H174.945H174.901H174.858H174.815H174.772H174.729H174.686H174.643H174.6H174.558H174.515H174.473H174.43H174.388H174.346H174.304H174.262H174.22H174.179H174.137H174.096H174.054H174.013H173.972H173.931H173.89H173.849H173.808H173.768H173.727H173.687H173.647H173.607H173.567H173.527H173.487H173.447H173.408H173.368H173.329H173.29H173.251H173.212H173.173H173.134H173.096H173.057H173.019H172.981H172.943H172.905H172.867H172.83H172.792H172.755H172.717H172.68H172.643H172.606H172.57H172.533H172.496H172.46H172.424H172.388H172.352H172.316H172.28H172.245H172.21H172.174H172.139H172.104H172.069H172.035H172H171.966H171.932H171.898H171.864H171.83H171.796H171.763H171.729H171.696H171.663H171.63H171.597H171.565H171.532H171.5C169.567 20 168 21.567 168 23.5C168 25.433 169.567 27 171.5 27H171.532H171.565H171.597H171.63H171.663H171.696H171.729H171.763H171.796H171.83H171.864H171.898H171.932H171.966H172H172.035H172.069H172.104H172.139H172.174H172.21H172.245H172.28H172.316H172.352H172.388H172.424H172.46H172.496H172.533H172.57H172.606H172.643H172.68H172.717H172.755H172.792H172.83H172.867H172.905H172.943H172.981H173.019H173.057H173.096H173.134H173.173H173.212H173.251H173.29H173.329H173.368H173.408H173.447H173.487H173.527H173.567H173.607H173.647H173.687H173.727H173.768H173.808H173.849H173.89H173.931H173.972H174.013H174.054H174.096H174.137H174.179H174.22H174.262H174.304H174.346H174.388H174.43H174.473H174.515H174.558H174.6H174.643H174.686H174.729H174.772H174.815H174.858H174.901H174.945H174.988H175.032H175.076H175.12H175.163H175.207H175.252H175.296H175.34H175.384H175.429H175.473H175.518H175.563H175.608H175.652H175.697H175.742H175.788H175.833H175.878H175.924H175.969H176.015H176.06H176.106H176.152H176.198H176.244H176.29H176.336H176.382H176.428H176.475H176.521H176.568H176.614H176.661H176.708H176.754H176.801H176.848H176.895H176.942H176.99H177.037H177.084H177.131H177.179H177.226H177.274H177.321H177.369H177.417H177.465H177.513H177.56H177.608H177.657H177.705H177.753H177.801H177.849H177.898H177.946H177.994H178.043H178.092H178.14H178.189H178.238H178.286H178.335H178.384H178.433H178.482H178.531H178.58H178.629H178.678H178.728H178.777H178.826H178.875H178.925H178.974H179.024H179.073H179.123H179.172H179.222H179.272H179.321H179.371H179.421H179.471H179.521H179.571H179.62H179.67H179.72H179.771H179.821H179.871H179.921H179.971H180.021H180.071H180.122H180.172H180.222H180.273H180.323H180.373H180.424H180.474H180.525H180.575H180.626H180.676H180.727H180.777H180.828H180.878H180.929H180.98H181.03H181.081H181.132H181.182H181.233H181.284H181.335H181.385H181.436H181.487H181.538H181.588H181.639H181.69H181.741H181.792H181.843H181.893H181.944H181.995H182.046H182.097H182.148H182.199H182.249H182.3H182.351H182.402H182.453H182.504H182.555H182.606H182.657H182.707H182.758H182.809H182.86H182.911H182.962H183.012H183.063H183.114H183.165H183.216H183.267H183.317H183.368H183.419H183.47H183.52H183.571H183.622H183.672H183.723H183.774H183.824H183.875H183.926H183.976H184.027H184.077H184.128H184.178H184.229H184.279H184.33H184.38H184.43H184.481H184.531H184.581H184.632H184.682H184.732H184.782H184.832H184.882H184.932H184.983H185.033H185.083H185.133H185.182H185.232H185.282H185.332H185.382H185.432H185.481H185.531H185.58H185.63H185.68H185.729H185.779H185.828H185.877H185.927H185.976H186.025H186.074H186.124H186.173H186.222H186.271H186.32H186.369H186.417H186.466H186.515H186.564H186.612H186.661H186.709H186.758H186.806H186.855H186.903H186.951H186.999H187.048H187.096H187.144H187.192H187.24H187.287H187.335H187.383H187.431H187.478H187.526H187.573H187.621H187.668H187.715H187.762H187.809H187.857H187.903H187.95H187.997H188.044H188.091H188.137H188.184H188.23H188.277H188.323H188.369H188.416H188.462H188.508H188.554H188.599H188.645H188.691H188.737H188.782H188.828H188.873H188.918H188.963H189.009H189.054H189.098H189.143H189.188H189.233H189.277H189.322H189.366H189.411H189.455H189.499H189.543H189.587H189.631H189.675H189.718H189.762H189.805H189.849H189.892H189.935H189.978H190.021H190.064H190.107H190.15H190.192H190.235H190.277H190.319H190.362H190.404H190.446H190.488H190.529H190.571H190.612H190.654H190.695H190.736H190.778H190.818H190.859H190.9H190.941H190.981H191.022H191.062H191.102H191.142H191.182H191.222H191.262H191.301H191.341H191.38H191.419H191.459H191.498H191.536H191.575H191.614H191.652H191.691H191.729H191.767H191.805H191.843H191.881H191.918H191.956H191.993H192.03H192.067H192.104H192.141H192.178H192.214H192.251H192.287H192.323H192.359H192.395H192.431H192.467H192.502H192.537H192.572H192.607H192.642H192.677H192.712H192.746H192.781H192.815H192.849H192.883H192.916H192.95H192.983H193.017H193.05H193.083H193.116H193.148H193.181H193.213H193.246H193.278H193.31H193.341H193.373H193.404H193.436H193.467H193.498H193.529H193.559H193.59H193.62H193.65H193.681H193.71H193.74H193.77H193.799H193.828H193.857H193.886H193.915H193.943H193.972H194C194.7 27 195.116 27.142 195.358 27.2667C195.602 27.3929 195.795 27.5667 195.96 27.7951C196.339 28.3223 196.5 29.0601 196.5 29.5V29.8033V30.1079V30.4137V30.7206V31.0288V31.3381V31.6487V31.9604V32.2733V32.5873V32.9025V33.2188V33.5363V33.8549V34.1746V34.4955V34.8174V35.1405V35.4647V35.7899V36.1163V36.4437V36.7722V37.1018V37.4324V37.7641V38.0968V38.4306V38.7654V39.1012V39.438V39.7759V40.1147V40.4546V40.7954V41.1372V41.4801V41.8238V42.1686V42.5143V42.8609V43.2085V43.557V43.9065V44.2569V44.6082V44.9604V45.3135V45.6675V46.0224V46.3781V46.7348V47.0923V47.4507V47.8099V48.17V48.531V48.8927V49.2553V49.6187V49.983V50.348V50.7138V51.0805V51.4479V51.8161V52.1851V52.5548V52.9253V53.2966V53.6686V54.0413V54.4148V54.789V55.1639V55.5396V55.9159V56.293V56.6707V57.0491V57.4282V57.808V58.1885V58.5696V58.9513V59.3337V59.7167V60.1004V60.4847V60.8696V61.2551V61.6413V62.028V62.4153V62.8032V63.1917V63.5807V63.9704V64.3605V64.7513V65.1425V65.5343V65.9267V66.3195V66.7129V67.1068V67.5012V67.896V68.2914V68.6873V69.0836V69.4804V69.8777V70.2754V70.6736V71.0722V71.4712V71.8707V72.2706V72.6709V73.0716V73.4727V73.8742V74.2761V74.6784V75.0811V75.4841V75.8875V76.2912V76.6953V77.0998V77.5045V77.9096V78.315V78.7207V79.1268V79.5331V79.9397V80.3466V80.7538V81.1613V81.569V81.977V82.3852V82.7937V83.2024V83.6114V84.0206V84.4299V84.8396V85.2494V85.6594V86.0696V86.48V86.8905V87.3013V87.7122V88.1232V88.5344V88.9458V89.3573V89.7689V90.1807V90.5925V91.0045V91.4166V91.8287V92.241V92.6533V93.0658V93.4782V93.8908V94.3034V94.7161V95.1288V95.5415V95.9543V96.367V96.7798V97.1926V97.6055V98.0183V98.4311V98.8438V99.2566V99.6693V100.082V100.495V100.907V101.32V101.732V102.145V102.557V102.969V103.381V103.793V104.205V104.617V105.029V105.44V105.852V106.263V106.674V107.085V107.496V107.906V108.317V108.727V109.137V109.547V109.957V110.366V110.776V111.185V111.594V112.002V112.41V112.819V113.226V113.634V114.041V114.448V114.855V115.262V115.668V116.074V116.479V116.884V117.289V117.694V118.098V118.502V118.906V119.309V119.712V120.114V120.516V120.918V121.319V121.72V122.121V122.521V122.92V123.32V123.718V124.117V124.515V124.912V125.309V125.706V126.102V126.498V126.893V127.287V127.681V128.075V128.468V128.861V129.253V129.644V130.035V130.426V130.816V131.205V131.594V131.982V132.369V132.756V133.143V133.529V133.914V134.298V134.682V135.066V135.448V135.83V136.212V136.593V136.973V137.352V137.731V138.109V138.486V138.863V139.239V139.614V139.989V140.363V140.736V141.108V141.48V141.851V142.221V142.59V142.959V143.326V143.693V144.06V144.425V144.79V145.153V145.516V145.879V146.24V146.6V146.96V147.319V147.677V148.034V148.39V148.745V149.1V149.453V149.806V150.158V150.508V150.858V151.207V151.555V151.902V152.248V152.594V152.938V153.281V153.623V153.965V154.305V154.644V154.983V155.32V155.656V155.992V156.326V156.659V156.991V157.322V157.652V157.981V158.309V158.636V158.962V159.287V159.61V159.933V160.254V160.574V160.894V161.212V161.528V161.844V162.159V162.472V162.784V163.096V163.405V163.714V164.022V164.328V164.633V164.937V165.24V165.541V165.841V166.14V166.438V166.735V167.03V167.324V167.617V167.908V168.198V168.487V168.775V169.061V169.346V169.629V169.912V170.193V170.472V170.751V171.027V171.303V171.577V171.85V172.121V172.391V172.66V172.927V173.193V173.458V173.721V173.982V174.242V174.501V174.758V175.014V175.268V175.521V175.773V176.023V176.271V176.518V176.763V177.007V177.25V177.49V177.73V177.968V178.204V178.438V178.672V178.903V179.133V179.362V179.589V179.814V180.037V180.259V180.48V180.699V180.916V181.132V181.345V181.558V181.768V181.977V182.185V182.39V182.594V182.797V182.997V183.196V183.393V183.589V183.782V183.974V184.165V184.353V184.54V184.725V184.908V185.09V185.27V185.448V185.624V185.798V185.971V186.141V186.31V186.477V186.643V186.806V186.968V187.128V187.286V187.442V187.596V187.748V187.899V188.047V188.194V188.339V188.481V188.622V188.761V188.898V189.033V189.167V189.298V189.427V189.554V189.68V189.803V189.925V190.044V190.161V190.277V190.39V190.502V190.611V190.718V190.823V190.927V191.028V191.127V191.224V191.319V191.412V191.503V191.591V191.678V191.762V191.845V191.925V192.003V192.079V192.153V192.225V192.295V192.362V192.427V192.49V192.551V192.61V192.666V192.721V192.773V192.823V192.87V192.916V192.959V193C196.5 195.259 195.637 196.334 194.767 196.96C193.719 197.714 192.357 198 191.5 198H191.202H190.902H190.601H190.299H189.995H189.691H189.385H189.078H188.77H188.46H188.15H187.838H187.525H187.211H186.896H186.579H186.262H185.943H185.623H185.302H184.98H184.657H184.333H184.008H183.681H183.354H183.025H182.696H182.365H182.033H181.7H181.366H181.031H180.695H180.359H180.021H179.682H179.342H179.001H178.659H178.316H177.972H177.627H177.281H176.934H176.586H176.237H175.888H175.537H175.185H174.833H174.48H174.125H173.77H173.414H173.057H172.699H172.34H171.981H171.62H171.259H170.897H170.534H170.17H169.805H169.439H169.073H168.706H168.338H167.969H167.6H167.229H166.858H166.486H166.114H165.74H165.366H164.991H164.616H164.239H163.862H163.484H163.106H162.727H162.347H161.966H161.585H161.203H160.82H160.437H160.053H159.668H159.283H158.897H158.51H158.123H157.735H157.347H156.958H156.568H156.178H155.787H155.395H155.003H154.611H154.218H153.824H153.43H153.035H152.64H152.244H151.847H151.45H151.053H150.655H150.257H149.858H149.458H149.059H148.658H148.257H147.856H147.454H147.052H146.65H146.246H145.843H145.439H145.035H144.63H144.225H143.819H143.413H143.007H142.6H142.193H141.786H141.378H140.97H140.562H140.153H139.744H139.334H138.925H138.515H138.104H137.694H137.283H136.871H136.46H136.048H135.636H135.224H134.811H134.398H133.985H133.572H133.158H132.745H132.331H131.917H131.502H131.088H130.673H130.258H129.843H129.428H129.012H128.597H128.181H127.765H127.349H126.933H126.517H126.1H125.684H125.267H124.851H124.434H124.017H123.6H123.183H122.766H122.349H121.932H121.515H121.097H120.68H120.263H119.845H119.428H119.011H118.593H118.176H117.759H117.341H116.924H116.507H116.09H115.673H115.256H114.839H114.422H114.005H113.588H113.171H112.754H112.338H111.922H111.505H111.089H110.673H110.257H109.841H109.425H109.01H108.595H108.179H107.764H107.35H106.935H106.52H106.106H105.692H105.278H104.865H104.451H104.038H103.625H103.212H102.8H102.388H101.976H101.564H101.152H100.741H100.33H99.9199H99.5097H99.0997H98.6901H98.2808H97.8718H97.4631H97.0548H96.6468H96.2392H95.8319H95.425H95.0185H94.6124H94.2066H93.8012H93.3962H92.9917H92.5875H92.1838H91.7804H91.3775H90.9751H90.5731H90.1715H89.7704H89.3698H88.9696H88.5699H88.1707H87.7719H87.3737H86.976H86.5787H86.182H85.7858H85.3902H84.995H84.6004H84.2064H83.8129H83.42H83.0276H82.6358H82.2446H81.854H81.464H81.0745H80.6857H80.2975H79.9099H79.5229H79.1366H78.7509H78.3658H77.9814H77.5976H77.2146H76.8321H76.4504H76.0693H75.689H75.3093H74.9303H74.5521H74.1745H73.7977H73.4216H73.0462H72.6716H72.2978H71.9247H71.5523H71.1807H70.8099H70.4399H70.0706H69.7022H69.3345H68.9677H68.6017H68.2365H67.8721H67.5085H67.1458H66.7839H66.4229H66.0628H65.7035H65.3451H64.9875H64.6309H64.2751H63.9202H63.5663H63.2132H62.8611H62.5099H62.1596H61.8103H61.4619H61.1144H60.7679H60.4224H60.0778H59.7342H59.3916H59.05H58.7094H58.3697H58.0311H57.6935H57.357H57.0214H56.6869H56.3534H56.021H55.6896H55.3593H55.03H54.7019H54.3748H54.0488H53.7238H53.4H53.0773H52.7557H52.4352H52.1159H51.7976H51.4806H51.1646H50.8498H50.5362H50.2237H49.9124H49.6023H49.2933H48.9856H48.679H48.3737H48.0695H47.7666H47.4649H47.1644H46.8652H46.5672H46.2704H45.9749H45.6807H45.3877H45.0961H44.8056H44.5165H44.2287H43.9422H43.6569H43.373H43.0904H42.8092H42.5292H42.2506H41.9734H41.6975H41.423H41.1498H40.878H40.6076H40.3386H40.0709H39.8047H39.5398H39.2764H39.0144H38.7538H38.4946H38.2369H37.9806H37.7258H37.4724H37.2205H36.9701H36.7211H36.4736H36.2276H35.9831H35.7401H35.4986H35.2587H35.0202H34.7833H34.5479H34.3141H34.0817H33.851H33.6218H33.3942H33.1681H32.9437H32.7208H32.4995H32.2798H32.0617H31.8452H31.6304H31.4171H31.2055H30.9956H30.7873H30.5806H30.3756H30.1722H29.9706H29.7706H29.5723H29.3756H29.1807H28.9875H28.796H28.6062H28.4181H28.2317H28.0471H27.8643H27.6831H27.5038H27.3262H27.1503H26.9763H26.804H26.6335H26.4648H26.2979H26.1328H25.9695H25.8081H25.6484H25.4906H25.3347H25.1806H25.0283H24.8779H24.7294H24.5827H24.4379H24.295H24.154H24.0149H23.8777H23.7424H23.609H23.4776H23.348H23.2204H23.0948H22.9711H22.8494H22.7296H22.6118H22.4959H22.3821H22.2702H22.1604H22.0525H21.9467H21.8428H21.741H21.6412H21.5435H21.4477H21.3541H21.2625H21.1729H21.0854H21C15.0144 198 11.7151 195.497 9.76507 192.563C7.6788 189.423 7 185.534 7 183C7 176.05 9.2491 172.858 11.3664 171.25C13.6511 169.516 16.4895 169.081 18.5615 169L18.717 169.001C18.8621 169.002 19.0732 169.004 19.3321 169.007C19.8517 169.015 20.5548 169.03 21.2976 169.06C22.0472 169.09 22.8024 169.133 23.4363 169.195C23.993 169.249 24.2797 169.301 24.3676 169.317L24.3678 169.317L24.368 169.317L24.3685 169.317L24.3686 169.317L24.3702 169.318L24.389 169.321C24.3952 169.322 24.398 169.323 24.3975 169.322C24.4138 169.328 24.4628 169.346 24.5501 169.382C24.6627 169.429 24.812 169.493 24.9947 169.576C25.3601 169.743 25.8312 169.972 26.3702 170.257C27.4548 170.831 28.7558 171.603 29.9927 172.51C31.2475 173.43 32.3218 174.407 33.0538 175.366C33.7943 176.336 34 177.04 34 177.5C34 179.433 35.567 181 37.5 181C39.433 181 41 179.433 41 177.5V169V156V27H154.5C156.433 27 158 25.433 158 23.5C158 21.567 156.433 20 154.5 20H41C41 8.95431 32.0457 0 21 0H20C8.95431 0 0 8.9543 0 20ZM48 42.5C46.067 42.5 44.5 44.067 44.5 46C44.5 47.933 46.067 49.5 48 49.5H71C72.933 49.5 74.5 47.933 74.5 46C74.5 44.067 72.933 42.5 71 42.5H48ZM48 81.5C46.067 81.5 44.5 83.067 44.5 85C44.5 86.933 46.067 88.5 48 88.5H71C72.933 88.5 74.5 86.933 74.5 85C74.5 83.067 72.933 81.5 71 81.5H48ZM48 112C46.067 112 44.5 113.567 44.5 115.5C44.5 117.433 46.067 119 48 119H71C72.933 119 74.5 117.433 74.5 115.5C74.5 113.567 72.933 112 71 112H48ZM48 141C46.067 141 44.5 142.567 44.5 144.5C44.5 146.433 46.067 148 48 148H71C72.933 148 74.5 146.433 74.5 144.5C74.5 142.567 72.933 141 71 141H48ZM44.5 175.5C44.5 173.567 46.067 172 48 172H178.5C180.433 172 182 173.567 182 175.5C182 177.433 180.433 179 178.5 179H48C46.067 179 44.5 177.433 44.5 175.5ZM126.356 43.2339C127.591 42.2763 129.311 42.2537 130.571 43.1785L177.571 77.6785C178.791 78.5739 179.297 80.1518 178.826 81.5897C178.355 83.0276 177.013 84 175.5 84H170V137C170 142.523 165.523 147 160 147H143H136H122H115H100C94.4772 147 90 142.523 90 137V84H84.0002C82.504 84 81.1732 83.0489 80.6888 81.6333C80.2043 80.2177 80.6733 78.6507 81.8557 77.7339L126.356 43.2339ZM97 84H163V137C163 138.657 161.657 140 160 140H143V109C143 103.477 138.523 99 133 99H125C119.477 99 115 103.477 115 109V140H100C98.3431 140 97 138.657 97 137V84ZM128.558 50.384L164.817 77H163H97H94.227L128.558 50.384ZM122 140H136V109C136 107.343 134.657 106 133 106H125C123.343 106 122 107.343 122 109V140Z" fill="black"/>
</svg>
