<svg fill="none" height="205" viewBox="0 0 204 205" width="204" xmlns="http://www.w3.org/2000/svg"><path clip-rule="evenodd" d="m21 7h-1c-7.1797 0-13 5.8203-13 13v136 9.777c.04439-.034.08892-.068.1336-.102 4.0252-3.056 8.6521-3.58 11.2415-3.673.0197 0 .0393-.001.059-.001.022-.001.0439-.001.0659-.001v3.5c0-3.5.0002-3.5.0004-3.5h.0005.0014.0042.0144.0517.0674l.1216.001c.1615.001.3917.003.6719.007.5586.008 1.3242.025 2.1439.057.8129.033 1.714.083 2.5332.162.7183.07 1.7039.188 2.4962.453 1.1205.373 4.3628 1.891 7.3932 4.089v-10.769-136c0-7.1797-5.8203-13-13-13zm-21 13v136 13 14c0 3.466.871197 8.827 3.93493 13.437 3.19992 4.816 8.65067 8.563 17.06507 8.563h.0854.0875.0896.0916.0936.0958.0977.0998.1018.1039.1058.1079.1098.1119.1138.1159.1178.1198.1217.1237.1256.1276.1296.1314.1334.1353.1372.1391.141.1429.1448.1467.1485.1504.1523.1541.1559.1578.1597.1614.1633.1651.1669.1687.1705.1723.174.1759.1776.1793.1812.1828.1846.1864.1881.1898.1915.1932.1949.1967.1983.2.2016.2034.205.2067.2083.2099.2116.2133.2148.2165.2181.2197.2213.2229.2244.2261.2276.2292.2307.2324.2338.2354.2369.2385.2399.2415.243.2445.246.2475.249.2504.2519.2534.2548.2563.2577.2592.2606.262.2634.2649.2662.2677.269.2704.2718.2732.2745.2759.2772.2786.28.2812.2826.2839.2853.2865.2878.2891.2905.2916.293.2942.2955.2968.298.2992.3005.3017.3029.3042.3053.3066.3077.309.3101.3113.3125.3136.3148.316.317.3183.3193.3205.3216.3227.3238.325.326.3271.3281.3293.3303.3314.3324.3335.3345.3356.3365.3376.3386.3397.3406.3416.3426.3436.3446.3455.3465.3475.3484.3493.3503.3512.3521.3531.3539.3549.3558.3566.3576.3584.3593.3601.361.3619.3627.3636.3644.3652.366.3668.3677.3684.3693.37.3708.3716.3724.3731.3738.3746.3754.3761.3768.3776.3782.379.3797.3803.3811.3817.3825.383.3838.3844.3851.3857.3863.387.3876.3882.3888.3895.39.3906.3912.3918.3924.3929.3935.394.3946.3952.3956.3962.3967.3973.3977.3982.3988.3992.3997.4002.4006.4011.4016.402.4024.4029.4034.4037.4042.4045.405.4054.4058.4061.4065.4069.4073.4076.408.4083.4087.409.4093.4096.41.4102.4101.411.411.412.412.412.412.412.413.413.413.414.413.414.414.414.415.415.414.415.416.415.415.416.416.416.416.416.417.416.416.417.417.417.417.417.417.417.417.417.417.417.418.417.417.418.417.417.418.417.417.418.417.417.417.417.417.417.417.417.416.417.416.417.416.416.416.416.416.415.416.415.415.415.415.414.415.414.414.413.414.413.413.413.413.412.412.412.411.412.411.41.411.41.409.41.409.409.408.408.408.407.407.407.406.406.406.405.405.404.404.403.404.402.402.402.401.401.401.399.4.399.398.398.397.397.397.396.395.395.394.394.393.392.392.392.391.39.39.389.388.388.387.387.386.385.385.384.383.383.382.381.381.38.379.378.378.377.377.375.375.374.374.372.372.371.371.369.369.368.367.366.366.365.364.363.362.361.361.359.359.358.357.356.355.355.353.352.352.351.349.349.348.347.346.345.344.343.342.341.34.339.338.336.336.335.334.333.332.331.329.329.327.327.325.324.323.322.321.32.319.317.317.315.314.313.312.31.31.308.307.306.304.304.302.301.3.298c1.977 0 4.864-.564 7.358-2.36 2.672-1.924 4.642-5.099 4.642-9.64v-.041-.043-.046-.047-.05-.052-.055-.056-.059-.061-.063-.065-.067-.07-.072-.074-.076-.078-.08-.083-.084-.087-.088-.091-.093-.095-.097-.099-.101-.104-.105-.107-.109-.112-.113-.116-.117-.119-.122-.123-.126-.127-.129-.131-.134-.135-.137-.139-.141-.142-.145-.147-.148-.151-.152-.154-.156-.158-.16-.162-.163-.166-.167-.169-.17-.173-.174-.176-.178-.18-.182-.183-.185-.187-.188-.191-.192-.193-.196-.197-.199-.2-.203-.204-.205-.208-.209-.21-.213-.213-.216-.217-.219-.221-.222-.223-.225-.227-.229-.23-.231-.234-.234-.236-.238-.24-.24-.243-.244-.245-.247-.248-.25-.252-.253-.254-.256-.257-.259-.26-.261-.263-.265-.266-.267-.269-.27-.271-.273-.274-.276-.276-.279-.279-.281-.283-.283-.285-.286-.288-.289-.29-.291-.293-.294-.295-.297-.298-.299-.3-.301-.303-.304-.305-.306-.308-.309-.309-.312-.312-.313-.315-.316-.316-.318-.32-.32-.321-.323-.323-.325-.326-.327-.328-.329-.33-.331-.332-.333-.334-.336-.336-.337-.339-.339-.34-.342-.342-.343-.344-.346-.346-.347-.348-.349-.35-.35-.352-.353-.353-.355-.355-.356-.357-.358-.359-.36-.36-.361-.363-.363-.363-.365-.365-.367-.367-.367-.369-.369-.37-.371-.372-.372-.373-.374-.375-.375-.376-.377-.377-.378-.379-.379-.38-.381-.382-.382-.382-.384-.384-.384-.385-.386-.387-.387-.387-.388-.389-.389-.39-.391-.391-.391-.392-.393-.393-.394-.394-.394-.395-.396-.396-.397-.397-.397-.398-.399-.398-.4-.399-.4-.401-.401-.401-.402-.402-.402-.403-.403-.404-.404-.404-.405-.405-.405-.405-.406-.406-.407-.407-.407-.407-.408-.407-.409-.408-.408-.409-.409-.41-.409-.41-.41-.41-.41-.411-.41-.411-.411-.411-.411-.412-.411-.412-.412-.412-.412-.412-.412-.412-.413-.412-.413-.412-.413-.4127-.4127-.4128-.4127-.4128-.4128-.4129-.4128-.4128-.4127-.4128-.4127-.4127-.4127-.4126-.4126-.4124-.4125-.4123-.4123-.4121-.4121-.412-.4118-.4118-.4116-.4115-.4114-.4112-.411-.4109-.4108-.4105-.4104-.4102-.41-.4098-.4097-.4093-.4092-.409-.4087-.4085-.4082-.408-.4077-.4075-.4072-.4069-.4066-.4063-.4061-.4057-.4054-.4051-.4047-.4045-.4041-.4037-.4034-.403-.4027-.4023-.4019-.4015-.4011-.4007-.4003-.3999-.3995-.399-.3986-.3982-.3977-.3973-.3968-.3963-.3959-.3954-.3948-.3944-.3939-.3934-.3928-.3924-.3918-.3912-.3908-.3901-.3897-.389-.3885-.3879-.3873-.3867-.3862-.3855-.3849-.3843-.3837-.383-.3824-.3817-.3811-.3805-.3798-.3791-.3784-.3777-.3771-.3763-.3757-.3749-.3742-.3735-.3727-.372-.3713-.3705-.3697-.369-.3682-.3674-.3667-.3658-.365-.3643-.3634-.3626-.3617-.361-.3601-.3592-.3584-.3575-.3567-.3557-.3549-.354-.3531-.3522-.3513-.3504-.3495-.3485-.3476-.3466-.3457-.3448-.3437-.3429-.3418-.3408-.3399-.3388-.3379-.3368-.3358-.3348-.3338-.3327-.3317-.3306-.3296-.3285-.3274-.3264-.3252-.3242-.3231-.3219-.3209-.3197-.3186-.3175-.3163-.3152-.314-.3129-.3117-.3106-.3093-.3082-.3069-.3058-.3046-.3033c0-1.5601-.439-3.8223-1.86-5.7951-1.549-2.1512-4.099-3.7049-7.64-3.7049h-.028-.029-.028-.029-.029-.029-.029-.029-.03-.03-.029-.031-.03-.03-.031-.03-.031-.031-.031-.032-.031-.032-.031-.032-.032-.033-.032-.033-.032-.033-.033-.033-.034-.033-.034-.033-.034-.034-.034-.035-.034-.035-.035-.035-.035-.035-.035-.035-.036-.036-.036-.036-.036-.036-.037-.036-.037-.037-.037-.037-.037-.037-.038-.037-.038-.038-.038-.038-.038-.039-.038-.039-.039-.038-.039-.04-.039-.039-.04-.039-.04-.04-.04-.04-.04-.04-.041-.04-.041-.041-.041-.04-.042-.041-.041-.042-.041-.042-.041-.042-.042-.042-.043-.042-.042-.043-.042-.043-.043-.043-.043-.043-.043-.043-.044-.043-.044-.043-.044-.044-.044-.044-.044-.044-.045-.044-.045-.044-.045-.045-.045-.044-.045-.046-.045-.045-.045-.046-.045-.046-.046-.046-.045-.046-.046-.046-.047-.046-.046-.047-.046-.047-.046-.047-.047-.047-.047-.046-.048-.047-.047-.047-.047-.048-.047-.048-.047-.048-.048-.048-.047-.048-.048-.048-.048-.049-.048-.048-.048-.049-.048-.049-.048-.049-.048-.049-.049-.049-.048-.049-.049-.049-.049-.049-.05-.049-.049-.049-.05-.049-.049-.05-.049-.05-.05-.049-.05-.049-.05-.05-.05-.05-.05-.049-.05-.05-.05-.051-.05-.05-.05-.05-.05-.05-.051-.05-.05-.051-.05-.05-.051-.05-.051-.05-.051-.05-.051-.05-.051-.051-.05-.051-.051-.05-.051-.051-.05-.051-.051-.051-.05-.051-.051-.051-.051-.051-.05-.051-.051-.051-.051-.051-.05-.051-.051-.051-.051-.051-.051-.051-.051-.05-.051-.051-.051-.051-.051-.051-.05-.051-.051-.051-.051-.051-.05-.051-.051-.051-.05-.051-.051-.051-.05-.051-.051-.05-.051-.051-.05-.051-.05-.051-.05-.051-.05-.051-.05-.051-.05-.05-.051-.05-.05-.051-.05-.05-.05-.05-.05-.05-.051-.05-.05-.049-.05-.05-.05-.05-.05-.049-.05-.05-.049-.05-.049-.05-.049-.05-.049-.049-.049-.05-.049-.049-.049-.049-.049-.049-.049-.049-.048-.049-.049-.048-.049-.049-.048-.048-.049-.048-.048-.048-.048-.049-.048-.047-.048-.048-.048-.048-.047-.048-.047-.048-.047-.047-.047-.048-.047-.047-.047-.047-.046-.047-.047-.046-.047-.046-.047-.046-.046-.046-.046-.046-.046-.046-.046-.045-.046-.045-.046-.045-.045-.046-.045-.045-.044-.045-.045-.045-.044-.045-.044-.044-.044-.045-.044-.043-.044-.044-.044-.043-.044-.043-.043-.043-.043-.043-.043-.043-.042-.043-.042-.043-.042-.042-.042-.042-.042-.041-.042-.041-.042-.041-.041-.041-.041-.041-.041-.04-.041-.04-.04-.04-.04-.04-.04-.04-.039-.04-.039-.039-.039-.039-.039-.039-.038-.039-.038-.038-.038-.038-.038-.037-.038-.037-.038-.037-.037-.037-.036-.037-.037-.036-.036-.036-.036-.036-.036-.035-.035-.036-.035-.035-.035-.034-.035-.034-.034-.034-.034-.034-.034-.033-.034-.033-.033-.033-.033-.032-.033-.032c-1.933 0-3.5 1.567-3.5 3.5s1.567 3.5 3.5 3.5h.032.033.032.033.033.033.033.034.033.034.034.034.034.034.034.035.034.035.035.035.036.035.035.036.036.036.036.036.036.037.037.036.037.037.037.038.037.038.037.038.038.038.038.038.039.038.039.039.039.039.039.039.04.039.04.04.04.04.04.04.04.041.04.041.041.041.041.041.041.042.041.042.041.042.042.042.042.042.043.042.043.042.043.043.043.043.043.043.043.044.043.044.044.044.043.044.045.044.044.044.045.044.045.045.045.044.045.045.046.045.045.046.045.046.045.046.046.046.046.046.046.046.046.047.046.047.046.047.047.046.047.047.047.047.048.047.047.047.048.047.048.047.048.048.048.048.047.048.049.048.048.048.048.049.048.048.049.049.048.049.049.048.049.049.049.049.049.049.049.049.05.049.049.049.05.049.05.049.05.049.05.05.049.05.05.05.05.05.049.05.05.051.05.05.05.05.05.05.051.05.05.051.05.05.051.05.051.05.051.05.051.05.051.05.051.051.05.051.051.05.051.051.051.05.051.051.051.05.051.051.051.051.051.05.051.051.051.051.051.051.05.051.051.051.051.051.051.051.051.05.051.051.051.051.051.05.051.051.051.051.051.05.051.051.051.05.051.051.05.051.051.05.051.051.05.051.05.051.05.051.05.051.05.05.051.05.05.051.05.05.05.05.05.05.051.05.05.05.049.05.05.05.05.05.049.05.049.05.05.049.05.049.049.05.049.049.049.05.049.049.049.049.049.048.049.049.049.048.049.048.049.048.049.048.048.048.049.048.048.048.048.047.048.048.048.047.048.047.048.047.047.047.047.048.046.047.047.047.047.046.047.046.047.046.046.047.046.046.046.045.046.046.046.045.046.045.045.045.046.045.044.045.045.045.044.045.044.045.044.044.044.044.044.044.043.044.043.044.043.043.043.043.043.043.043.042.043.042.042.043.042.042.042.041.042.041.042.041.041.042.04.041.041.041.04.041.04.04.04.04.04.04.039.04.039.039.04.039.038.039.039.038.039.038.038.038.038.038.037.038.037.037.037.037.037.037.036.037.036.036.036.036.036.036.035.035.035.035.035.035.035.034.035.034.034.034.033.034.033.034.033.033.033.032.033.032.033.032.032.031.032.031.032.031.031.031.03.031.03.03.031.029.03.03.029.029.029.029.029.028.029.028c.7 0 1.116.142 1.358.2667.244.1262.437.3.602.5284.379.5272.54 1.265.54 1.7049v.3033.3046.3058.3069.3082.3093.3106.3117.3129.314.3152.3163.3175.3186.3197.3209.3219.3231.3242.3252.3264.3274.3285.3296.3306.3317.3327.3338.3348.3358.3368.3379.3388.3399.3408.3418.3429.3437.3448.3457.3466.3476.3485.3495.3504.3513.3522.3531.354.3549.3557.3567.3575.3584.3592.3601.361.3617.3626.3634.3643.365.3658.3667.3674.3682.369.3697.3705.3713.372.3727.3735.3742.3749.3757.3763.3771.3777.3784.3791.3798.3805.3811.3817.3824.383.3837.3843.3849.3855.3862.3867.3873.3879.3885.389.3897.3901.3908.3912.3918.3924.3928.3934.3939.3944.3948.3954.3959.3963.3968.3973.3977.3982.3986.399.3995.3999.4003.4007.4011.4015.4019.4023.4027.403.4034.4037.4041.4045.4047.4051.4054.4057.4061.4063.4066.4069.4072.4075.4077.408.4082.4085.4087.409.4092.4093.4097.4098.41.4102.4104.4105.4108.4109.411.4112.4114.4115.4116.4118.4118.412.4121.4121.4123.4123.4125.4124.4126.4126.4127.4127.4127.4128.4127.4128.4128.4129.4128.4128.4127.4128.4127.4127.413.412.413.412.413.412.412.412.412.412.412.412.411.412.411.411.411.411.41.411.41.41.41.41.409.41.409.409.408.408.409.407.408.407.407.407.407.406.406.405.405.405.405.404.404.404.403.403.402.402.402.401.401.401.4.399.4.398.399.398.397.397.397.396.396.395.394.394.394.393.393.392.391.391.391.39.389.389.388.387.387.387.386.385.384.384.384.382.382.382.381.38.379.379.378.377.377.376.375.375.374.373.372.372.371.37.369.369.367.367.367.365.365.363.363.363.361.36.36.359.358.357.356.355.355.353.353.352.35.35.349.348.347.346.346.344.343.342.342.34.339.339.337.336.336.334.333.332.331.33.329.328.327.326.325.323.323.321.32.32.318.316.316.315.313.312.312.309.309.308.306.305.304.303.301.3.299.298.297.295.294.293.291.29.289.288.286.285.283.283.281.279.279.276.276.274.273.271.27.269.267.266.265.263.261.26.259.257.256.254.253.252.25.248.247.245.244.243.24.24.238.236.234.234.231.23.229.227.225.223.222.221.219.217.216.213.213.21.209.208.205.204.203.2.199.197.196.193.192.191.188.187.185.183.182.18.178.176.174.173.17.169.167.166.163.162.16.158.156.154.152.151.148.147.145.142.141.139.137.135.134.131.129.127.126.123.122.119.117.116.113.112.109.107.105.104.101.099.097.095.093.091.088.087.084.083.08.078.076.074.072.07.067.065.063.061.059.056.055.052.05.047.046.043.041c0 2.259-.863 3.334-1.733 3.96-1.048.754-2.41 1.04-3.267 1.04h-.298-.3-.301-.302-.304-.304-.306-.307-.308-.31-.31-.312-.313-.314-.315-.317-.317-.319-.32-.321-.322-.323-.324-.325-.327-.327-.329-.329-.331-.332-.333-.334-.335-.336-.336-.338-.339-.34-.341-.342-.343-.344-.345-.346-.347-.348-.349-.349-.351-.352-.352-.353-.355-.355-.356-.357-.358-.359-.359-.361-.361-.362-.363-.364-.365-.366-.366-.367-.368-.369-.369-.371-.371-.372-.372-.374-.374-.375-.375-.377-.377-.378-.378-.379-.38-.381-.381-.382-.383-.383-.384-.385-.385-.386-.387-.387-.388-.388-.389-.39-.39-.391-.392-.392-.392-.393-.394-.394-.395-.395-.396-.397-.397-.397-.398-.398-.399-.4-.399-.401-.401-.401-.402-.402-.402-.404-.403-.404-.404-.405-.405-.406-.406-.406-.407-.407-.407-.408-.408-.408-.409-.409-.41-.409-.41-.411-.41-.411-.412-.411-.412-.412-.412-.413-.413-.413-.413-.414-.413-.414-.414-.415-.414-.415-.415-.415-.415-.416-.415-.416-.416-.416-.416-.416-.417-.416-.417-.416-.417-.417-.417-.417-.417-.417-.417-.417-.418-.417-.417-.418-.417-.417-.418-.417-.417-.418-.417-.417-.417-.417-.417-.417-.417-.417-.417-.417-.417-.416-.416-.417-.416-.416-.416-.416-.416-.415-.415-.416-.415-.414-.415-.415-.414-.414-.414-.413-.414-.413-.413-.413-.412-.412-.412-.412-.412-.411-.411-.4101-.4102-.41-.4096-.4093-.409-.4087-.4083-.408-.4076-.4073-.4069-.4065-.4061-.4058-.4054-.405-.4045-.4042-.4037-.4034-.4029-.4024-.402-.4016-.4011-.4006-.4002-.3997-.3992-.3988-.3982-.3977-.3973-.3967-.3962-.3956-.3952-.3946-.394-.3935-.3929-.3924-.3918-.3912-.3906-.39-.3895-.3888-.3882-.3876-.387-.3863-.3857-.3851-.3844-.3838-.383-.3825-.3817-.3811-.3803-.3797-.379-.3782-.3776-.3768-.3761-.3754-.3746-.3738-.3731-.3724-.3716-.3708-.37-.3693-.3684-.3677-.3668-.366-.3652-.3644-.3636-.3627-.3619-.361-.3601-.3593-.3584-.3576-.3566-.3558-.3549-.3539-.3531-.3521-.3512-.3503-.3493-.3484-.3475-.3465-.3455-.3446-.3436-.3426-.3416-.3406-.3397-.3386-.3376-.3365-.3356-.3345-.3335-.3324-.3314-.3303-.3293-.3281-.3271-.326-.325-.3238-.3227-.3216-.3205-.3193-.3183-.317-.316-.3148-.3136-.3125-.3113-.3101-.309-.3077-.3066-.3053-.3042-.3029-.3017-.3005-.2992-.298-.2968-.2955-.2942-.293-.2916-.2905-.2891-.2878-.2865-.2853-.2839-.2826-.2812-.28-.2786-.2772-.2759-.2745-.2732-.2718-.2704-.269-.2677-.2662-.2649-.2634-.262-.2606-.2592-.2577-.2563-.2548-.2534-.2519-.2504-.249-.2475-.246-.2445-.243-.2415-.2399-.2385-.2369-.2354-.2338-.2324-.2307-.2292-.2276-.2261-.2244-.2229-.2213-.2197-.2181-.2165-.2148-.2133-.2116-.2099-.2083-.2067-.205-.2034-.2016-.2-.1983-.1967-.1949-.1932-.1915-.1898-.1881-.1864-.1846-.1828-.1812-.1793-.1776-.1759-.174-.1723-.1705-.1687-.1669-.1651-.1633-.1614-.1597-.1578-.1559-.1541-.1523-.1504-.1485-.1467-.1448-.1429-.141-.1391-.1372-.1353-.1334-.1314-.1296-.1276-.1256-.1237-.1217-.1198-.1178-.1159-.1138-.1119-.1098-.1079-.1058-.1039-.1018-.0998-.0977-.0958-.0936-.0916-.0896-.0875-.0854c-5.9856 0-9.2849-2.503-11.23493-5.437-2.08627-3.14-2.76507-7.029-2.76507-9.563 0-6.95 2.2491-10.142 4.3664-11.75 2.2847-1.734 5.1231-2.169 7.1951-2.25l.1555.001c.1451.001.3562.003.6151.006.5196.008 1.2227.023 1.9655.053.7496.03 1.5048.073 2.1387.135.5567.054.8434.106.9313.122h.0002.0002.0005.0001l.0016.001.0188.003c.0062.001.009.002.0085.001.0163.006.0653.024.1526.06.1126.047.2619.111.4446.194.3654.167.8365.396 1.3755.681 1.0846.574 2.3856 1.346 3.6225 2.253 1.2548.92 2.3291 1.897 3.0611 2.856.7405.97.9462 1.674.9462 2.134 0 1.933 1.567 3.5 3.5 3.5s3.5-1.567 3.5-3.5v-8.5-13-129h113.5c1.933 0 3.5-1.567 3.5-3.5s-1.567-3.5-3.5-3.5h-113.5c0-11.04569-8.9543-20-20-20h-1c-11.04569 0-20 8.9543-20 20zm48 22.5c-1.933 0-3.5 1.567-3.5 3.5s1.567 3.5 3.5 3.5h23c1.933 0 3.5-1.567 3.5-3.5s-1.567-3.5-3.5-3.5zm0 39c-1.933 0-3.5 1.567-3.5 3.5s1.567 3.5 3.5 3.5h23c1.933 0 3.5-1.567 3.5-3.5s-1.567-3.5-3.5-3.5zm0 30.5c-1.933 0-3.5 1.567-3.5 3.5s1.567 3.5 3.5 3.5h23c1.933 0 3.5-1.567 3.5-3.5s-1.567-3.5-3.5-3.5zm0 29c-1.933 0-3.5 1.567-3.5 3.5s1.567 3.5 3.5 3.5h23c1.933 0 3.5-1.567 3.5-3.5s-1.567-3.5-3.5-3.5zm-3.5 34.5c0-1.933 1.567-3.5 3.5-3.5h130.5c1.933 0 3.5 1.567 3.5 3.5s-1.567 3.5-3.5 3.5h-130.5c-1.933 0-3.5-1.567-3.5-3.5zm81.856-132.2661c1.235-.9576 2.955-.9802 4.215-.0554l47 34.5c1.22.8954 1.726 2.4733 1.255 3.9112s-1.813 2.4103-3.326 2.4103h-5.5v53c0 5.523-4.477 10-10 10h-17-7-14-7-15c-5.5228 0-10-4.477-10-10v-53h-5.9998c-1.4962 0-2.827-.9511-3.3114-2.3667-.4845-1.4156-.0155-2.9826 1.1669-3.8994zm-29.356 40.7661h66v53c0 1.657-1.343 3-3 3h-17v-31c0-5.523-4.477-10-10-10h-8c-5.523 0-10 4.477-10 10v31h-15c-1.6569 0-3-1.343-3-3zm31.558-33.616 36.259 26.616h-1.817-66-2.773zm-6.558 89.616h14v-31c0-1.657-1.343-3-3-3h-8c-1.657 0-3 1.343-3 3z" fill="#000" fill-rule="evenodd"/></svg>