<svg fill="none" height="168" viewBox="0 0 205 168" width="205" xmlns="http://www.w3.org/2000/svg"><path clip-rule="evenodd" d="m7 7h57v24h-57zm-6.99999991 0c0-3.86599 3.13400991-7 6.99999991-7h57 3 4 3 26.5c2 0 3.5 1.567 3.5 3.5s-1.5 3.5-3.5 3.5-26.5 0-26.5 0v24h57v-24s-12.5 0-14.5 0-3.5-1.567-3.5-3.5 1.5-3.5 3.5-3.5h14.5c3.866 0 7 3.13401 7 7v24 1h25c3.866 0 7 3.134 7 7v24 2h28c3.866 0 7 3.134 7 7v24c0 3.866-3.134 7-7 7h-26v1 24 2h26c3.866 0 7 3.134 7 7v24c0 3.866-3.134 7-7 7h-57-4-3-4-57-2-5-2-57c-3.86599 0-6.99999991-3.134-6.99999991-7v-24-2-5-2s-.00000009-1.5 0-3.5 1.56699991-3.5 3.49999991-3.5 3.5 1.5 3.5 3.5v3.5h26v-24h-26v7.5c0 2-1.567 3.5-3.5 3.5s-3.49999991-1.5-3.49999991-3.5 0-7.5 0-7.5v-1-6-1-24-2-5-2-24-1-6-1zm96.99999991 56h-57v-24h57zm-90-24h26v24h-26zm156 0h-57v24h57zm-22 33h57v24h-57zm24 32h-57v24h57zm-122 0h57v24h-57zm88-32h-58v24h58zm-124 0h58.5v24h-58.5zm66 65h57v24h-57zm125 0h-57v24h57zm-191 0h57v24h-57z" fill="#000" fill-rule="evenodd"/></svg>