<svg fill="none" height="191" viewBox="0 0 190 191" width="190" xmlns="http://www.w3.org/2000/svg"><path clip-rule="evenodd" d="m58.9238 58.9016 39.584-50.07568c.6182-.70116 1.7712-1.53265 3.0652-1.7623 1.077-.19128 2.699-.05983 4.764 2.00377l1.024 1.02511-18.5241 18.5251c-2.3408 2.3408-4.1162 4.647-4.6035 6.9312-.2793 1.3109-.165 2.7834.6855 4.0984.7979 1.2334 1.9629 1.8881 2.9161 2.2405 1.8115.6699 3.9951.6679 5.7656.5265 1.8935-.1511 3.8652-.514 5.5381-.9209.2549-.0621.5029-.1528.7383-.2703 1.21-.6053 3.276-1.3512 5.317-1.5614 2.117-.2178 3.435.1983 4.143.9058.546.5467.77.9936.87 1.304.1.3133.115.6224.063.9462-.12.7335-.58 1.4461-.933 1.8l-9 9c-.052.0519-.103.1053-.151.1603l-.063.074c-1.1542 1.385-2.496 3.7174-2.9003 6.4855-.4278 2.9355.2255 6.3419 3.1143 9.23 2.954 2.9542 6.559 3.5161 9.558 3.12 2.889-.3817 5.42-1.6537 6.951-2.7468.109-.0778.214-.1618.312-.2515.052-.0467.102-.0948.151-.1445l24.525-24.9795 20.003 20.0023c1.366 1.3668 3.582 1.3668 4.949 0s1.367-3.5829 0-4.9498l-55.5-55.49996c-3.536-3.536411-7.414-4.571628-10.936-3.946246-3.2797.582168-5.8041 2.520046-7.1957 4.143336l-.0889.10733-41.5 52.50004c-.0517.0656-.1015.1331-.1484.2023l-8.5 12.5c-.1357.1995-.25.4124-.3418.6355-5.4102 13.1379-5.9561 22.0626-3.7129 28.866 1.8399 5.5801 5.5361 9.3681 8.3945 12.2971.5313.545 1.0342 1.06 1.4903 1.551 2.0127 2.167 2.0176 3.58 1.8896 4.25-.1689.883-.7988 1.632-1.3174 1.991-.1611.112-.3134.237-.4541.375l-44.49996 43.5c-.10742.104-.20801.216-.30078.334-1.54883 1.962-3.364262 5.276-3.906254 9.118-.561523 3.989.267578 8.614 4.178714 12.525 7.64848 7.649 19.31148 5.531 25.31538.127l.1211-.114c.045-.044.0889-.09.1309-.136l39-43c.0811-.09.1582-.184.2295-.282.5195-.709 1.5791-1.578 2.8564-1.816 1.0586-.198 2.8858-.083 5.4278 2.3 4.5976 4.31 11.1728 7.204 17.7314 8.102 6.4166.878 13.3826-.094 18.6036-4.225l13.711-7.345c.229-.123.443-.271.64-.441l60-51.9996c.734-.6363 1.17-1.5492 1.206-2.5201.034-.971-.336-1.9127-1.024-2.5997l-9-9c-1.367-1.3668-3.583-1.3668-4.949 0-1.367 1.3669-1.367 3.5829 0 4.9498l6.342 6.342-54.613 47.3306zm34.8623-25.3342 18.5259-18.5251 24.572 24.5728-24.331 24.7821c-.835.5435-2.181 1.1663-3.574 1.3504-1.418.1872-2.647-.0842-3.693-1.13-1.111-1.1119-1.292-2.2055-1.137-3.27.17-1.1649.769-2.2724 1.266-2.9094l8.871-8.8708c1.147-1.1461 2.486-3.1335 2.893-5.625.44-2.7086-.286-5.7182-2.893-8.3248-2.892-2.8925-6.824-3.2264-9.808-2.9192-2.848.2932-5.5454 1.2276-7.3481 2.0773-1.3194.3055-2.7705.5557-4.086.6607-.3564.0285-.6904.0452-1 .0507.4239-.5323.9922-1.1695 1.7422-1.9197zm26.3599 101.0896-6.004 3.216c-.358-.608-.758-1.217-1.177-1.814-1.901-2.712-4.793-6.051-8.013-9.522-4.9559-5.343-10.9764-11.306-15.9676-16.249l-.0381-.038c-1.499-1.485-2.9053-2.877-4.1602-4.132-4.33-4.331-9.7978-10.3937-15.2324-16.4197l-.1611-.1775c-2.2637-2.5119-4.5215-5.0143-6.6875-7.3792-3.6543-3.9922-7.0635-7.6105-9.711-10.0919-.6962-.6527-1.3808-1.266-2.0351-1.8035l3.7851-5.5653zm-71.939-57.4998c-.205-.1921-.4004-.3722-.5859-.5407-3.6387 10.1164-3.4609 16.2218-2.1104 20.3177 1.2911 3.9168 3.6934 6.4068 6.5059 9.3228.6035.625 1.2256 1.271 1.8604 1.954 3.1875 3.433 4.2666 7.02 3.6357 10.325-.5586 2.926-2.3516 5.053-3.9395 6.24l-44.1396 43.149c-.92774 1.232-2.02442 3.33-2.34375 5.593-.3125 2.219.1084 4.511 2.19726 6.6 4.30669 4.306 11.53809 3.486 15.55959-.018l38.7627-42.738c1.3428-1.756 3.7851-3.78 7.0976-4.398 3.6338-.677 7.6397.458 11.4981 4.075 3.4023 3.19 8.5761 5.546 13.8935 6.273 4.5854.628 8.8424-.003 12.0114-1.886-.218-.371-.506-.82-.878-1.35-1.611-2.3-4.231-5.349-7.4117-8.778-4.8408-5.219-10.6963-11.019-15.6719-15.947l-.0088-.009-.1142-.114c-1.4951-1.48-2.9092-2.881-4.1885-4.161-4.4648-4.464-10.1445-10.762-15.6377-16.8525-2.2851-2.5333-4.5371-5.0309-6.6572-7.3461-3.6572-3.9953-6.9043-7.4332-9.335-9.7112zm-27.3955 100.4348c3.8662 0 7-3.134 7-7 0-3.865-3.1338-7-7-7s-7 3.135-7 7c0 3.866 3.1338 7 7 7zm87.8715-34.942c-.003-.002-.015-.039-.027-.104.024.074.03.106.027.104z" fill="#000" fill-rule="evenodd"/></svg>