<svg fill="none" height="78" viewBox="0 0 206 78" width="206" xmlns="http://www.w3.org/2000/svg"><path clip-rule="evenodd" d="m61.193 8.22621-4.3595 13.27379h8.1665c1.933 0 3.5 1.567 3.5 3.5s-1.567 3.5-3.5 3.5h-13c-.8166 0-1.6075-.2855-2.2358-.8072l-10.8578-9.0148-.0543.0421c-.2397.1852-.4784.3697-.7181.5541-3.9886 3.0681-9.3594 4.4198-14.1653 5.0693-4.8588.6566-9.676.6565-12.9064.6565h-.0001-.0622c-1.29138 0-2.1232.5519-2.78485 1.4256-.68547.9051-1.07579 2.0526-1.21515 2.84v.0188.0211.0212.0214.0215.0215.0217.0218.0219.022.0221.0222.0223.0224.0225.0227.0227.0228.023.023.0231.0233.0233.0235.0235.0237.0237.0239.0239.0241.0242.0242.0244.0244.0246.0246.0248.0248.025.025.0251.0253.0253.0254.0256.0256.0257.0258.0259.026.0261.0262.0262.0264.0265.0265.0267.0267.0268.0269.027.0271.0272.0273.0274.0274.0276.0276.0277.0279.0279.0279.0281.0282.0282.0284.0284.0285.0286.0287.0287.0289.0289.029.0291.0292.0292.0294.0294.0295.0296.0297.0297.0299.0299.03.03.0302.0302.0303.0304.0305.0305.0307.0307.0307.0309.0309.031.0311.0312.0312.0313.0314.0314.0316.0316.0317.0317.0318.0229h3.5c1.933 0 3.5 1.567 3.5 3.5s-1.567 3.5-3.5 3.5h-3.5v.0316.0402.0402.0402.0402.0402.0402.0403.0402.0403.0403.0403.0403.0403.0403.0404.0403.0404.0403.0404.0404.0404.0404.0404.0404.0404.0405.0404.0404.0405.0404.0405.0405.0404.0405.0405.0405.0405.0404.0405.0405.0405.0405.0405.0405.0405.0405.0405.0405.0405.0405.0405.0405.0405.0405.0405.0405.0405.0405.0405.0404.0405.0405.0405.0404.0405.0404.0405.0404.0405.0404.0404.0404.0404.0404.0404.0404.0404.0403.0404.0404.0403.0403.0403.0403.0403.0403.0403.0402.0403.0402.0402.0402.0402.0402.0402.0401.0402.0401.0401.0401.0401.04.0401.04.04.04.04.0399.04.0399.0399.0399.0398.0399.0398.0398.0397.0398.0397.0397.0397.0397.0397.0396.0396.0396.0395.0395.0395.0395.0395.0394.0394.0394.0393.0394.0393.0392.0393.0392.0392.0391.0392.0391.039.0391.039.039.0389.0389.0389.0389.0388.0388.0388.0387.0387.0386.0387.0386.0385.0385.0385.0385.0384.0384.0383.0384.0382.0383.0382.0381.0382.0381.038.038.038.0379.0379.0379.0378.0377.0378.0377.0376.0376.0376.0375c0 4.242 3.288 6.5425 5.0391 7.1565l10.5095 2.9558c.7117-10.122 9.1484-18.1123 19.4514-18.1123 10.7696 0 19.5 8.7304 19.5 19.5 0 .847-.054 1.6814-.1588 2.5h86.3178c-.105-.8186-.159-1.653-.159-2.5 0-10.7696 8.73-19.5 19.5-19.5s19.5 8.7304 19.5 19.5-8.73 19.5-19.5 19.5c-7.32 0-13.699-4.0338-17.033-10h-90.9336c-3.3346 5.9662-9.7129 10-17.0334 10-8.6213 0-15.9358-5.5948-18.5109-13.3517l-13.4367-3.779c-.05345-.0151-.10653-.0314-.1592-.0489-3.26749-1.0892-9.8932-5.3176-9.8932-13.8204v-.0375-.0376-.0376-.0376-.0377-.0378-.0377-.0378-.0379-.0379-.0379-.038-.038-.038-.0381-.0382-.0381-.0382-.0383-.0382-.0384-.0383-.0384-.0384-.0385-.0385-.0385-.0385-.0386-.0387-.0386-.0387-.0387-.0388-.0388-.0388-.0389-.0389-.0389-.0389-.039-.039-.0391-.039-.0391-.0392-.0391-.0392-.0392-.0393-.0392-.0393-.0394-.0393-.0394-.0394-.0394-.0395-.0395-.0395-.0395-.0395-.0396-.0396-.0396-.0397-.0397-.0397-.0397-.0397-.0398-.0397-.0398-.0398-.0399-.0398-.0399-.0399-.0399-.04-.0399-.04-.04-.04-.04-.0401-.04-.0401-.0401-.0401-.0401-.0402-.0401-.0402-.0402-.0402-.0402-.0402-.0402-.0403-.0402-.0403-.0403-.0403-.0403-.0403-.0403-.0403-.0404-.0404-.0403-.0404-.0404-.0404-.0404-.0404-.0404-.0404-.0404-.0405-.0404-.0405-.0404-.0405-.0404-.0405-.0405-.0405-.0404-.0405-.0405-.0405-.0405-.0405-.0405-.0405-.0405-.0405-.0405-.0405-.0405-.0405-.0405-.0405-.0405-.0405-.0405-.0405-.0405-.0405-.0404-.0405-.0405-.0405-.0405-.0404-.0405-.0405-.0404-.0405-.0404-.0404-.0405-.0404-.0404-.0404-.0404-.0404-.0404-.0404-.0403-.0404-.0403-.0404-.0403-.0403-.0403-.0403-.0403-.0403-.0402-.0403-.0402-.0402-.0402-.0402-.0402-.0402-.0401-.0402-.0401-.0401-.0401-.0401-.04-.0401-.04-.04-.04-.04-.0399-.04-.0399-.0399-.0399-.0398-.0399-.0398-.0398-.0398-.0397-.0398-.0397-.0397-.0397-.0396-.0396-.0396-.0396-.0396-.0395-.0395-.0395-.0394-.0395-.0394-.0394-.0393-.0393-.0393-.0393-.0393-.0392-.0392-.0391-.0392-.0391-.039-.0391-.039-.039-.0389-.0389-.0389-.0389-.0388-.0388-.0388-.0387-.0387-.0387-.0386-.0386-.0386-.0385-.0385-.0385-.0384-.0384-.0383-.0383-.0383-.0383-.0382-.0381-.0382-.0381-.038-.038-.038-.0379-.0379-.0379-.0378-.0378-.0377-.0377-.0377-.0376-.0375-.0376-.0374-.0375-.0374-.0373-.0373-.0373-.0372-.0372-.0371-.0371-.0371-.0369-.037-.0369-.0368-.0368-.0368-.0367-.0367-.0366-.0366-.0365-.0364-.0365-.0363-.0363-.0363-.0362-.0362-.0361-.0361-.036-.0359-.0359-.0359-.0358-.0357-.0357-.0356-.0356-.0355-.0355-.0354-.0354-.0353-.0352-.0352-.0352-.035-.0351-.0349-.0349-.0349-.0348-.0347-.0346-.0347-.0345-.0345-.0344-.0344-.0343-.0342-.0342-.0341-.0341-.034-.0339-.0339-.0338-.0337-.0337-.0336-.0335-.0335-.0334-.0334-.0333-.0332-.0331-.0331-.033-.033-.0329-.0328-.0327-.0327-.0326-.0325-.0325-.0324-.0323-.0323-.0321-.0322-.032-.032-.0319-.0318-.0317-.0317-.0316-.0316-.0314-.0314-.0313-.0312-.0312-.0311-.031-.0309-.0309-.0307-.0307-.0307-.0305-.0305-.0304-.0303-.0302-.0302-.03-.03-.0299-.0299-.0297-.0297-.0296-.0295-.0294-.0294-.0292-.0292-.0291-.029-.0289-.0289-.0287-.0287-.0286-.0285-.0284-.0284-.0282-.0282-.0281-.0279-.0279-.0279-.0277-.0276-.0276-.0274-.0274-.0273-.0272-.0271-.027-.0269-.0268-.0267-.0267-.0265-.0265-.0264-.0262-.0262-.0261-.026-.0259-.0258-.0257-.0256-.0256-.0254-.0253-.0253-.0251-.025-.025-.0248-.0248-.0246-.0246-.0244-.0244-.0242-.0242-.0241-.0239-.0239-.0237-.0237-.0235-.0235-.0233-.0233-.0231-.023-.023-.0228-.0227-.0227-.0225-.0224-.0223-.0222-.0221-.022-.0219-.0218-.0217-.0215-.0215-.0214-.0212-.0211-.0211-.0209-.0208-.0207-.0206-.0205-.0203-.0203-.0201-.0201-.0199-.0198-.0197-.0196c0-.1547.0102565-.3092.0307024-.4626.2289446-1.7171.9825776-4.1968 2.6041476-6.338 1.70502-2.2513 4.45653-4.1994 8.36515-4.1994 3.2694 0 7.6714-.0043 12.0313-.5935 4.4441-.6005 8.3233-1.7488 10.8347-3.6807.2149-.1653.4378-.3375.6677-.5152.7302-.5644 1.5319-1.1841 2.379-1.8134 4.5788-3.40197 10.8417-7.36229 20.8205-9.603 4.97-1.115999 10.81-1.7942 17.7668-1.7942h.0348.0349.0348.0347.0348.0347.0347.0346.0346.0347.0345.0346.0345.0345.0345.0344.0344.0344.0344.0343.0343.0343.0343.0342.0342.0342.0341.0341.0341.0341.034.034.034.034.0339.0339.0339.0339.0338.0338.0338.0337.0337.0337.0337.0336.0337.0335.0336.0335.0336.0334.0335.0334.0334.0334.0333.0334.0333.0332.0333.0332.0332.0331.0332.0331.0331.033.0331.033.033.0329.0329.0329.0329.0329.0328.0328.0327.0328.0327.0327.0326.0327.0326.0326.0325.0326.0325.0325.0324.0324.0324.0324.0324.0323.0323.0322.0323.0322.0322.0322.0321.0321.0321.0321.032.032.032.0319.032.0319.0319.0318.0318.0318.0318.0318.0317.0317.0316.0317.0316.0316.0316.0315.0315.0315.0315.0314.0314.0314.0314.0313.0313.0313.0312.0313.0312.0312.0311.0311.0311.0311.0311.031.031.031.0309.0309.0309.0309.0308.0308.0308.0308.0308.0307.0307.0306.0307.0306.0306.0305.0306.0305.0305.0304.0304.0305.0303.0304.0303.0303.0303.0303.0302.0302.0302.0301.0302.0301.03.0301.03.03.03.0299.03.0299.0298.0299.0298.0298.0298.0297.0297.0297.0297.0296.0297.0296.0295.0296.0295.0295.0295.0294.0294.0294.0294.0293.0293.0293.0293.0292.0293.0292.0291.0292.0291.0291.029.0291.029.029.0289.029.0289.0289.0289.0288.0288.0288.0288.0287.0287.0287.0287.0286.0286.0286.0286.0285.0285.0285.0285.0284.0284.0284.0284.0283.0284.0282.0283.0283.0282.0282.0281.0282.0281.0281.0281.028.028.028.028.0279.0279.0279.0279.0278.0279.0278.0277.0278.0277.0277.0277.0276.0276.0276.0276.0276.0275.0275.0275.0274.0274.0274.0274.0274.0273.0273.0273.0272.0273.0272.0272.0271.0272.0271.027.0271.027.027.027.027.0269.0269.0269.0269.0268.0268.0268.0268.0267.0268.0267.0266.0267.0266.0266.0266.0265.0265.0265.0265.0265.0264.0264.0264.0263.0263.0263.0263.0263.0262.0262.0262.0262.0261.0261.0261.0261.026.026.026.026.0259.026.0259.0258.0259.0258.0258.0258.0257.0257.0258.0256.0257.0256.0256.0256.0256.0255.0255.0255.0255.0254.0254.0254.0254.0253.0254.0253.0252.0253.0252.0252.0252.0251.0252.0251.0251.025.0251.025.025.0249.025.0249.0249.0249.0248.0248.0248.0248.0248.0247.0247.0247.0246.0247.0246.0246.0245.0246.0245.0245.0244.0245.0244.0244.0244.0243.0243.0244.0242.0243.0242.0242.0242.0242.0241.0241.0241.0241.0241.024.024.024.0239.0239.0239.0239.0239.0238.0238.0238.0238.0237.0238.0237.0236.0237.0236.0236.0236.0235.0236.0235.0235.0234.0235.0234.0234.0234.0233.0234.0233.0232.0233.0232.0232.0232.0232.0231.0231.0231.0231.0231.023.023.023.0229.023.0229.0229.0228.0229.0228.0228.0228.0227.0227.0227.0227.0227.0226.0226.0226.0226.0225.0226.0225.0224.0225.0224.0224.0224.0224.0223.0223.0223.0223.0222.0223.0222.0221.0222.0478.0477.0475.0475.0474.0472.0472.047.0469.0469.0467.0466.0466.0464.0463.0462.0461.046.0459.0458.0456.0456.0455.0454.0452.0452.0451.0449.0449.0447.0447.0445.0444.0444.0442.0441.0441.0439.0438.0437.0437.0435.0434.0433.0432.0431.043.0429.0428.0427.0426.0425.0424.0423.0422.0421.042.0418.0418.0417.0416.0415.0414.0413.0411.0411.041.0409.0408.0406.0406.0405.0404.0403.0402.04.04.0399.0398.0397.0396.0394.0394.0393.0392.0391.039.0389.0388.0387.0386.0385.0384.0383.0382.0381.038.0379.0379.0377.0376.0375.0375.0373.0372.0371.0371.0369.0369.0367.0367.0365.0365.0363.0363.0362.0361.0359.0359.0358.0357.0356.0355.0354.0353.0352.0351.0351.0349.0348.0347.0347.0345.0345.0344.0342.0342.0341.0339.0339.0338.0337.0336.0335.0335.0333.0332.0331.0331.0329.0329.0328.0326.0326.0325.0324.0323.0322.0321.032.032.0318.0317.0317.0315.0315.0314.0313.0312.0311.031.0309.0308.0308.0306.0306.0304.0304.0303.0302.0301.03.0299.0298.0298.0296.0296.0294.0294.0293.0292.0291.029.0289.0289.0287.0287.0285.0285.0284.0283.0282.0282.028.0279.0279.0278.0277.0276.0275.0274.0273.0272.0272.0271.0269.0269.0268.0267.0267.0265.0265.0263.0263.0262.0261.026.026.0258.0257.0257.0256.0255.0254.0253.0253.0251.0251.025.0249.0248.0247.0247.0245.0245.0244.0243.0242.0241.024.024.0239.0238.0237.0236.0235.0235.0234.0232.0232.0232.023.0229.0229.0228.0227.0226.0225.0225.0223.0223.0222.0221.0221.0219.0219.0218.0217.0216.0215.0215.0213.0213.0212.0212.021.021.0208.0208.0208.0206.0205.0205.0204.0203.0203.0201.0201.02.0199.0198.0194.02.02.019.02.019.019.019.019.019.019.019.019.019.018.019.018.019.018.018.018.019.018.017.018.018.018.017.018.017.018.017.017.017.017.017.017.017.017.017.016.017.016.016.017.016.016.016.016.016.016.016.015.016.015.016.015.015.016.015.015.015.015.015.014.015.015.014.015.014.014.015.014.014.014.014.014.014.013.014.014.013.013.014.013.013.013.014.013.012.013.013.013.012.013.012.013.012.012.013.012.012.012.012.012.011.012.012.011.012.011.011.012.011.011.011.011.011.011.01.011.011.01.011.01.011.01.01.01.01.01.01.01.01.01.009.01.009.01.009.009.01.009.009.009.009.009.009.008.009.009.008.009.008.008.009.008.008.008.008.008.008.008.008.007.008.007.008.007.008.007.007.007.007.007.007.007.007.007.007.006.007.006.007.006.006.007.006.006.006.006.006.006.005.006.006.005.006.005.006.005.005.006.005.005.005.005.005.005.004.005c.097 0 .194.00403333.291.0120897 2.223.1853113 5.822.7506663 9.668 1.8469903 3.816 1.08751 8.136 2.77068 11.611 5.3185 5.606 4.11142 17.734 11.90652 23.926 15.81342 6.358-.0295 15.929.4119 25.352 1.8358 9.731 1.4705 20.073 4.0903 26.261 8.8794 2.375 1.7563 3.631 4.7349 4.372 7.335 1.644 5.7701 1.747 13.4433 1.514 17.6529-.022.3962-.112.7858-.264 1.1521-.603 1.4477-1.827 3.3998-3.682 5.0316-1.899 1.6706-4.606 3.1222-8.049 3.1222-1.933 0-3.5-1.567-3.5-3.5s1.567-3.5 3.5-3.5c1.357 0 2.483-.5484 3.426-1.3778.752-.6618 1.295-1.428 1.612-1.9995.136-3.28.024-8.0795-.709-12.1227h-6.829c-1.933 0-3.5-1.567-3.5-3.5s1.567-3.5 3.5-3.5h3.284c-4.818-3.179-12.971-5.3902-21.982-6.7518-9.513-1.4375-19.244-1.8297-25.255-1.7485-.009.0001-.019.0002-.028.0003h-.019-57-14.5c-1.933 0-3.5-1.567-3.5-3.5s1.567-3.5 3.5-3.5h11v-16h-.0051-.0256-.0256-.0256-.0257-.0256-.0258-.0257-.0257-.0258-.0258-.0258-.0259-.0258-.0259-.026-.0259-.026-.026-.026-.026-.0261-.0261-.0261-.0261-.0262-.0262-.0262-.0262-.0263-.0263-.0263-.0263-.0263-.0264-.0264-.0264-.0265-.0265-.0265-.0265-.0265-.0266-.0266-.0266-.0267-.0266-.0267-.0268-.0267-.0268-.0268-.0268-.0268-.0269-.0269-.0269-.0269-.027-.027-.027-.027-.0271-.027-.0271-.0272-.0271-.0272-.0272-.0273-.0272-.0273-.0273-.0273-.0274-.0274-.0274-.0274-.0274-.0275-.0275-.0275-.0276-.0276-.0276-.0276-.0276-.0277-.0277-.0277-.0278-.0277-.0278-.0279-.0278-.0279-.0279-.0279-.0279-.028-.028-.028-.028-.0281-.0281-.0281-.0282-.0281-.0282-.0282-.0283-.0283-.0282-.0284-.0283-.0284-.0284-.0284-.0284-.0285-.0285-.0285-.0285-.0286-.0286-.0286-.0286-.0287-.0287-.0287-.0287-.0288-.0288-.0288-.0288-.0289-.0289-.0289-.029-.0289-.029-.029-.0291-.029-.0291-.0291-.0292-.0291-.0292-.0293-.0292-.0293-.0293-.0293-.0293-.0294-.0294-.0294-.0294-.0295-.0295-.0295-.0296-.0295-.0296-.0297-.0296-.0297-.0297-.0297-.0297-.0298-.0298-.0298-.0299-.0298-.0299-.03-.0299-.03-.03-.03-.0301-.03-.0301-.0302-.0301-.0302-.0302-.0302-.0303-.0303-.0303-.0303-.0304-.0303-.0305-.0304-.0304-.0305-.0305-.0306-.0305-.0306-.0306-.0307-.0306-.0307-.0307-.0308-.0308-.0308-.0308-.0308-.0309-.0309-.0309-.0309-.031-.031-.031-.0311-.0311-.0311-.0311-.0311-.0312-.0312-.0313-.0312-.0313-.0313-.0313-.0314-.0314-.0314-.0314-.0315-.0315-.0315-.0315-.0316-.0316-.0316-.0317-.0316-.0317-.0317-.0318-.0318-.0318-.0318-.0318-.0319-.0319-.032-.0319-.032-.032-.032-.0321-.0321-.0321-.0321-.0322-.0322-.0322-.0323-.0322-.0323-.0323-.0324-.0324-.0324-.0324-.0324-.0325-.0325-.0326-.0325-.0326-.0326-.0327-.0326-.0327-.0327-.0328-.0327-.0328-.0328-.0329-.0329-.0329-.0329-.0329-.033-.033-.0331-.033-.0331-.0331-.0332-.0331-.0332-.0332-.0333-.0332-.0333-.0334-.0333-.0334-.0334-.0334-.0335-.0334-.0336-.0335-.0336-.0335-.0337-.0336-.0337-.0337-.0337-.0337-.0338-.0338-.0338-.0339-.0339-.0339-.0339-.034-.034-.034-.034-.0341-.0341-.0341-.0341-.0342-.0342-.0342-.0343-.0343-.0343-.0343-.0344-.0344-.0344-.0344-.0345-.0345-.0345-.0346-.0345-.0347-.0346-.0346-.0347-.0347-.0348-.0347-.0348-.0349-.0348c-5.5809 0-10.293.46696-14.307 1.22621zm-30.8237 54.72139c-.0076.0271-.0156.0541-.0238.0808 1.814 4.6651 6.3481 7.9716 11.6545 7.9716 4.7531 0 8.8865-2.6528 11.0005-6.5587.0151-.9219.3868-1.7572.9831-2.3739.336-1.1304.5164-2.3278.5164-3.5674 0-6.9036-5.5964-12.5-12.5-12.5s-12.5 5.5964-12.5 12.5c0 .3704.0161.7371.0477 1.0994.8133.8648 1.1664 2.1221.8216 3.3482zm63.1307-55.9476v16h41.522c-5.532-3.5867-11.527-7.5632-15.092-10.1776-2.525-1.8522-5.955-3.25232-9.389-4.23148-3.317-.94539-6.393-1.42974-8.192-1.59092h-.005-.006-.007-.006-.007-.007-.007-.007-.007-.007-.007-.007-.007-.007-.008-.007-.008-.007-.008-.007-.008-.008-.008-.008-.008-.008-.008-.008-.009-.008-.008-.009-.008-.009-.009-.008-.009-.009-.009-.009-.009-.009-.01-.009-.009-.01-.009-.01-.009-.01-.01-.01-.01-.01-.01-.01-.01-.01-.011-.01-.011-.01-.011-.011-.01-.011-.011-.011-.011-.011-.011-.012-.011-.011-.012-.011-.012-.012-.011-.012-.012-.012-.012-.012-.013-.012-.012-.013-.012-.013-.012-.013-.013-.013-.012-.013-.014-.013-.013-.013-.014-.013-.013-.014-.014-.013-.014-.014-.014-.014-.014-.014-.015-.014-.014-.015-.014-.015-.015-.014-.015-.015-.015-.015-.015-.016-.015-.015-.016-.015-.016-.015-.016-.016-.016-.016-.016-.016-.016-.017-.016-.016-.017-.016-.017-.017-.017-.017-.017-.017-.017-.017-.017-.018-.017-.018-.017-.018-.018-.018-.017-.018-.019-.018-.018-.018-.019-.018-.019-.018-.019-.019-.019-.019-.019-.019-.019-.019-.019-.02-.019-.02-.02-.0194-.0198-.0199-.02-.0201-.0201-.0203-.0203-.0204-.0205-.0205-.0206-.0208-.0208-.0208-.021-.021-.0212-.0212-.0213-.0213-.0215-.0215-.0216-.0217-.0218-.0219-.0219-.0221-.0221-.0222-.0223-.0223-.0225-.0225-.0226-.0227-.0228-.0229-.0229-.023-.0232-.0232-.0232-.0234-.0235-.0235-.0236-.0237-.0238-.0239-.024-.024-.0241-.0242-.0243-.0244-.0245-.0245-.0247-.0247-.0248-.0249-.025-.0251-.0251-.0253-.0253-.0254-.0255-.0256-.0257-.0257-.0258-.026-.026-.0261-.0262-.0263-.0263-.0265-.0265-.0267-.0267-.0268-.0269-.0269-.0271-.0272-.0272-.0273-.0274-.0275-.0276-.0277-.0278-.0279-.0279-.028-.0282-.0282-.0283-.0284-.0285-.0285-.0287-.0287-.0289-.0289-.029-.0291-.0292-.0293-.0294-.0294-.0296-.0296-.0298-.0298-.0299-.03-.0301-.0302-.0303-.0304-.0304-.0306-.0306-.0308-.0308-.0309-.031-.0311-.0312-.0313-.0314-.0315-.0315-.0317-.0317-.0318-.032-.032-.0321-.0322-.0323-.0324-.0325-.0326-.0326-.0328-.0329-.0329-.0331-.0331-.0332-.0333-.0335-.0335-.0336-.0337-.0338-.0339-.0339-.0341-.0342-.0342-.0344-.0345-.0345-.0347-.0347-.0348-.0349-.0351-.0351-.0352-.0353-.0354-.0355-.0356-.0357-.0358-.0359-.0359-.0361-.0362-.0363-.0363-.0365-.0365-.0367-.0367-.0369-.0369-.0371-.0371-.0372-.0373-.0375-.0375-.0376-.0377-.0379-.0379-.038-.0381-.0382-.0383-.0384-.0385-.0386-.0387-.0388-.0389-.039-.0391-.0392-.0393-.0394-.0394zm-48.7073 7.467 5.4866 4.5553 2.828-8.6105c-3.3123 1.2028-6.0148 2.6153-8.3146 4.0552zm22.7073 37.033c0-1.933 1.567-3.5 3.5-3.5h66c1.933 0 3.5 1.567 3.5 3.5s-1.567 3.5-3.5 3.5h-66c-1.933 0-3.5-1.567-3.5-3.5zm-20.5251 2.0251c1.3668 1.3669 1.3668 3.5829 0 4.9498l-4.5 4.5c-1.3669 1.3668-3.5829 1.3668-4.9498 0-1.3668-1.3669-1.3668-3.5829 0-4.9498l4.5-4.5c1.3669-1.3668 3.5829-1.3668 4.9498 0zm115.0501 0c1.367-1.3668 3.583-1.3668 4.95 0l4.5 4.5c1.367 1.3669 1.367 3.5829 0 4.9498-1.367 1.3668-3.583 1.3668-4.95 0l-4.5-4.5c-1.367-1.3669-1.367-3.5829 0-4.9498zm17.475 4.9749c0 6.9036-5.596 12.5-12.5 12.5s-12.5-5.5964-12.5-12.5 5.596-12.5 12.5-12.5 12.5 5.5964 12.5 12.5z" fill="#000" fill-rule="evenodd"/></svg>