<svg width="206" height="78" viewBox="0 0 206 78" fill="none" xmlns="http://www.w3.org/2000/svg">
<path fill-rule="evenodd" clip-rule="evenodd" d="M61.193 8.22621L56.8335 21.5H65C66.933 21.5 68.5 23.067 68.5 25C68.5 26.933 66.933 28.5 65 28.5H52C51.1834 28.5 50.3925 28.2145 49.7642 27.6928L38.9064 18.678L38.8521 18.7201C38.6124 18.9053 38.3737 19.0898 38.134 19.2742C34.1454 22.3423 28.7746 23.694 23.9687 24.3435C19.1099 25.0001 14.2927 25 11.0623 25H11.0622H11C9.70862 25 8.8768 25.5519 8.21515 26.4256C7.52968 27.3307 7.13936 28.4782 7 29.2656V29.2844V29.3055V29.3267V29.3481V29.3696V29.3911V29.4128V29.4346V29.4565V29.4785V29.5006V29.5228V29.5451V29.5675V29.59V29.6127V29.6354V29.6582V29.6812V29.7042V29.7273V29.7506V29.7739V29.7974V29.8209V29.8446V29.8683V29.8922V29.9161V29.9402V29.9644V29.9886V30.013V30.0374V30.062V30.0866V30.1114V30.1362V30.1612V30.1862V30.2113V30.2366V30.2619V30.2873V30.3129V30.3385V30.3642V30.39V30.4159V30.4419V30.468V30.4942V30.5204V30.5468V30.5733V30.5998V30.6265V30.6532V30.68V30.7069V30.7339V30.761V30.7882V30.8155V30.8429V30.8703V30.8979V30.9255V30.9532V30.9811V31.009V31.0369V31.065V31.0932V31.1214V31.1498V31.1782V31.2067V31.2353V31.264V31.2927V31.3216V31.3505V31.3795V31.4086V31.4378V31.467V31.4964V31.5258V31.5553V31.5849V31.6146V31.6443V31.6742V31.7041V31.7341V31.7641V31.7943V31.8245V31.8548V31.8852V31.9157V31.9462V31.9769V32.0076V32.0383V32.0692V32.1001V32.1311V32.1622V32.1934V32.2246V32.2559V32.2873V32.3187V32.3503V32.3819V32.4136V32.4453V32.4771V32.5H10.5C12.433 32.5 14 34.067 14 36C14 37.933 12.433 39.5 10.5 39.5H7V39.5316V39.5718V39.612V39.6522V39.6924V39.7326V39.7728V39.8131V39.8533V39.8936V39.9339V39.9742V40.0145V40.0548V40.0951V40.1355V40.1758V40.2162V40.2565V40.2969V40.3373V40.3777V40.4181V40.4585V40.4989V40.5393V40.5798V40.6202V40.6606V40.7011V40.7415V40.782V40.8225V40.8629V40.9034V40.9439V40.9844V41.0249V41.0653V41.1058V41.1463V41.1868V41.2273V41.2678V41.3083V41.3488V41.3893V41.4298V41.4703V41.5108V41.5513V41.5918V41.6323V41.6728V41.7133V41.7538V41.7943V41.8348V41.8753V41.9158V41.9562V41.9967V42.0372V42.0777V42.1181V42.1586V42.199V42.2395V42.2799V42.3204V42.3608V42.4012V42.4416V42.482V42.5224V42.5628V42.6032V42.6436V42.6839V42.7243V42.7647V42.805V42.8453V42.8856V42.9259V42.9662V43.0065V43.0468V43.087V43.1273V43.1675V43.2077V43.2479V43.2881V43.3283V43.3685V43.4086V43.4488V43.4889V43.529V43.5691V43.6092V43.6492V43.6893V43.7293V43.7693V43.8093V43.8493V43.8892V43.9292V43.9691V44.009V44.0489V44.0887V44.1286V44.1684V44.2082V44.2479V44.2877V44.3274V44.3671V44.4068V44.4465V44.4862V44.5258V44.5654V44.605V44.6445V44.684V44.7235V44.763V44.8025V44.8419V44.8813V44.9207V44.96V44.9994V45.0387V45.0779V45.1172V45.1564V45.1956V45.2347V45.2739V45.313V45.352V45.3911V45.4301V45.4691V45.508V45.5469V45.5858V45.6247V45.6635V45.7023V45.7411V45.7798V45.8185V45.8571V45.8958V45.9344V45.9729V46.0114V46.0499V46.0884V46.1268V46.1652V46.2035V46.2419V46.2801V46.3184V46.3566V46.3947V46.4329V46.471V46.509V46.547V46.585V46.6229V46.6608V46.6987V46.7365V46.7742V46.812V46.8497V46.8873V46.9249V46.9625V47C7 51.242 10.288 53.5425 12.0391 54.1565L22.5486 57.1123C23.2603 46.9903 31.697 39 42 39C52.7696 39 61.5 47.7304 61.5 58.5C61.5 59.347 61.446 60.1814 61.3412 61H147.659C147.554 60.1814 147.5 59.347 147.5 58.5C147.5 47.7304 156.23 39 167 39C177.77 39 186.5 47.7304 186.5 58.5C186.5 69.2696 177.77 78 167 78C159.68 78 153.301 73.9662 149.967 68H59.0334C55.6988 73.9662 49.3205 78 42 78C33.3787 78 26.0642 72.4052 23.4891 64.6483L10.0524 60.8693C9.99895 60.8542 9.94587 60.8379 9.8932 60.8204C6.62571 59.7312 0 55.5028 0 47V46.9625V46.9249V46.8873V46.8497V46.812V46.7742V46.7365V46.6987V46.6608V46.6229V46.585V46.547V46.509V46.471V46.4329V46.3947V46.3566V46.3184V46.2801V46.2419V46.2035V46.1652V46.1268V46.0884V46.0499V46.0114V45.9729V45.9344V45.8958V45.8571V45.8185V45.7798V45.7411V45.7023V45.6635V45.6247V45.5858V45.5469V45.508V45.4691V45.4301V45.3911V45.352V45.313V45.2739V45.2347V45.1956V45.1564V45.1172V45.0779V45.0387V44.9994V44.96V44.9207V44.8813V44.8419V44.8025V44.763V44.7235V44.684V44.6445V44.605V44.5654V44.5258V44.4862V44.4465V44.4068V44.3671V44.3274V44.2877V44.2479V44.2082V44.1684V44.1286V44.0887V44.0489V44.009V43.9691V43.9292V43.8892V43.8493V43.8093V43.7693V43.7293V43.6893V43.6492V43.6092V43.5691V43.529V43.4889V43.4488V43.4086V43.3685V43.3283V43.2881V43.2479V43.2077V43.1675V43.1273V43.087V43.0468V43.0065V42.9662V42.9259V42.8856V42.8453V42.805V42.7647V42.7243V42.6839V42.6436V42.6032V42.5628V42.5224V42.482V42.4416V42.4012V42.3608V42.3204V42.2799V42.2395V42.199V42.1586V42.1181V42.0777V42.0372V41.9967V41.9562V41.9158V41.8753V41.8348V41.7943V41.7538V41.7133V41.6728V41.6323V41.5918V41.5513V41.5108V41.4703V41.4298V41.3893V41.3488V41.3083V41.2678V41.2273V41.1868V41.1463V41.1058V41.0653V41.0249V40.9844V40.9439V40.9034V40.8629V40.8225V40.782V40.7415V40.7011V40.6606V40.6202V40.5798V40.5393V40.4989V40.4585V40.4181V40.3777V40.3373V40.2969V40.2565V40.2162V40.1758V40.1355V40.0951V40.0548V40.0145V39.9742V39.9339V39.8936V39.8533V39.8131V39.7728V39.7326V39.6924V39.6522V39.612V39.5718V39.5316V39.4915V39.4513V39.4112V39.3711V39.331V39.2909V39.2509V39.2108V39.1708V39.1308V39.0908V39.0508V39.0109V38.9709V38.931V38.8911V38.8512V38.8114V38.7715V38.7317V38.6919V38.6521V38.6124V38.5726V38.5329V38.4932V38.4535V38.4139V38.3743V38.3347V38.2951V38.2555V38.216V38.1765V38.137V38.0976V38.0581V38.0187V37.9793V37.94V37.9007V37.8614V37.8221V37.7828V37.7436V37.7044V37.6653V37.6261V37.587V37.548V37.5089V37.4699V37.4309V37.392V37.3531V37.3142V37.2753V37.2365V37.1977V37.1589V37.1202V37.0815V37.0428V37.0042V36.9656V36.927V36.8885V36.85V36.8115V36.7731V36.7347V36.6964V36.6581V36.6198V36.5815V36.5433V36.5052V36.467V36.4289V36.3909V36.3529V36.3149V36.277V36.2391V36.2012V36.1634V36.1256V36.0879V36.0502V36.0125V35.9749V35.9374V35.8998V35.8624V35.8249V35.7875V35.7502V35.7129V35.6756V35.6384V35.6012V35.5641V35.527V35.4899V35.453V35.416V35.3791V35.3423V35.3055V35.2687V35.232V35.1953V35.1587V35.1221V35.0856V35.0492V35.0127V34.9764V34.9401V34.9038V34.8676V34.8314V34.7953V34.7592V34.7232V34.6873V34.6514V34.6155V34.5797V34.544V34.5083V34.4727V34.4371V34.4016V34.3661V34.3307V34.2953V34.26V34.2248V34.1896V34.1544V34.1194V34.0843V34.0494V34.0145V33.9796V33.9448V33.9101V33.8755V33.8408V33.8063V33.7718V33.7374V33.703V33.6687V33.6345V33.6003V33.5662V33.5321V33.4981V33.4642V33.4303V33.3965V33.3628V33.3291V33.2955V33.262V33.2285V33.1951V33.1617V33.1284V33.0952V33.0621V33.029V32.996V32.963V32.9301V32.8973V32.8646V32.8319V32.7993V32.7668V32.7343V32.7019V32.6696V32.6373V32.6052V32.573V32.541V32.509V32.4771V32.4453V32.4136V32.3819V32.3503V32.3187V32.2873V32.2559V32.2246V32.1934V32.1622V32.1311V32.1001V32.0692V32.0383V32.0076V31.9769V31.9462V31.9157V31.8852V31.8548V31.8245V31.7943V31.7641V31.7341V31.7041V31.6742V31.6443V31.6146V31.5849V31.5553V31.5258V31.4964V31.467V31.4378V31.4086V31.3795V31.3505V31.3216V31.2927V31.264V31.2353V31.2067V31.1782V31.1498V31.1214V31.0932V31.065V31.0369V31.009V30.9811V30.9532V30.9255V30.8979V30.8703V30.8429V30.8155V30.7882V30.761V30.7339V30.7069V30.68V30.6532V30.6265V30.5998V30.5733V30.5468V30.5204V30.4942V30.468V30.4419V30.4159V30.39V30.3642V30.3385V30.3129V30.2873V30.2619V30.2366V30.2113V30.1862V30.1612V30.1362V30.1114V30.0866V30.062V30.0374V30.013V29.9886V29.9644V29.9402V29.9161V29.8922V29.8683V29.8446V29.8209V29.7974V29.7739V29.7506V29.7273V29.7042V29.6812V29.6582V29.6354V29.6127V29.59V29.5675V29.5451V29.5228V29.5006V29.4785V29.4565V29.4346V29.4128V29.3911V29.3696V29.3481V29.3267V29.3055V29.2844V29.2633V29.2424V29.2216V29.2009V29.1803V29.1598V29.1395V29.1192V29.0991V29.079V29.0591V29.0393V29.0196V29C0 28.8453 0.0102565 28.6908 0.0307024 28.5374C0.259647 26.8203 1.01328 24.3406 2.63485 22.1994C4.33987 19.9481 7.09138 18 11 18C14.2694 18 18.6714 17.9957 23.0313 17.4065C27.4754 16.806 31.3546 15.6577 33.866 13.7258C34.0809 13.5605 34.3038 13.3883 34.5337 13.2106C35.2639 12.6462 36.0656 12.0265 36.9127 11.3972C41.4915 7.99523 47.7544 4.03491 57.7332 1.7942C62.7032 0.678201 68.5432 0 75.5 0H75.5348H75.5697H75.6045H75.6392H75.674H75.7087H75.7434H75.778H75.8126H75.8473H75.8818H75.9164H75.9509H75.9854H76.0199H76.0543H76.0887H76.1231H76.1575H76.1918H76.2261H76.2604H76.2947H76.3289H76.3631H76.3973H76.4314H76.4655H76.4996H76.5337H76.5677H76.6017H76.6357H76.6697H76.7036H76.7375H76.7714H76.8053H76.8391H76.8729H76.9067H76.9404H76.9741H77.0078H77.0415H77.0751H77.1088H77.1423H77.1759H77.2094H77.243H77.2764H77.3099H77.3433H77.3767H77.4101H77.4434H77.4768H77.5101H77.5433H77.5766H77.6098H77.643H77.6761H77.7093H77.7424H77.7755H77.8085H77.8416H77.8746H77.9076H77.9405H77.9734H78.0063H78.0392H78.0721H78.1049H78.1377H78.1704H78.2032H78.2359H78.2686H78.3012H78.3339H78.3665H78.3991H78.4316H78.4642H78.4967H78.5292H78.5616H78.594H78.6264H78.6588H78.6912H78.7235H78.7558H78.788H78.8203H78.8525H78.8847H78.9169H78.949H78.9811H79.0132H79.0453H79.0773H79.1093H79.1413H79.1732H79.2052H79.2371H79.269H79.3008H79.3326H79.3644H79.3962H79.428H79.4597H79.4914H79.523H79.5547H79.5863H79.6179H79.6495H79.681H79.7125H79.744H79.7755H79.8069H79.8383H79.8697H79.9011H79.9324H79.9637H79.995H80.0262H80.0575H80.0887H80.1199H80.151H80.1821H80.2132H80.2443H80.2754H80.3064H80.3374H80.3684H80.3993H80.4302H80.4611H80.492H80.5228H80.5536H80.5844H80.6152H80.646H80.6767H80.7074H80.738H80.7687H80.7993H80.8299H80.8604H80.891H80.9215H80.952H80.9824H81.0128H81.0433H81.0736H81.104H81.1343H81.1646H81.1949H81.2252H81.2554H81.2856H81.3158H81.3459H81.3761H81.4062H81.4362H81.4663H81.4963H81.5263H81.5563H81.5862H81.6162H81.6461H81.6759H81.7058H81.7356H81.7654H81.7952H81.8249H81.8546H81.8843H81.914H81.9436H81.9733H82.0029H82.0324H82.062H82.0915H82.121H82.1505H82.1799H82.2093H82.2387H82.2681H82.2974H82.3267H82.356H82.3853H82.4145H82.4438H82.473H82.5021H82.5313H82.5604H82.5895H82.6185H82.6476H82.6766H82.7056H82.7345H82.7635H82.7924H82.8213H82.8502H82.879H82.9078H82.9366H82.9654H82.9941H83.0228H83.0515H83.0802H83.1088H83.1374H83.166H83.1946H83.2231H83.2516H83.2801H83.3086H83.337H83.3654H83.3938H83.4222H83.4505H83.4789H83.5071H83.5354H83.5637H83.5919H83.6201H83.6482H83.6764H83.7045H83.7326H83.7607H83.7887H83.8167H83.8447H83.8727H83.9006H83.9285H83.9564H83.9843H84.0121H84.04H84.0678H84.0955H84.1233H84.151H84.1787H84.2064H84.234H84.2616H84.2892H84.3168H84.3444H84.3719H84.3994H84.4269H84.4543H84.4817H84.5091H84.5365H84.5639H84.5912H84.6185H84.6458H84.673H84.7003H84.7275H84.7547H84.7818H84.809H84.8361H84.8631H84.8902H84.9172H84.9442H84.9712H84.9982H85.0251H85.052H85.0789H85.1058H85.1326H85.1594H85.1862H85.213H85.2397H85.2665H85.2932H85.3198H85.3465H85.3731H85.3997H85.4263H85.4528H85.4793H85.5058H85.5323H85.5588H85.5852H85.6116H85.638H85.6643H85.6906H85.7169H85.7432H85.7695H85.7957H85.8219H85.8481H85.8743H85.9004H85.9265H85.9526H85.9787H86.0047H86.0307H86.0567H86.0827H86.1086H86.1346H86.1605H86.1863H86.2122H86.238H86.2638H86.2896H86.3153H86.341H86.3668H86.3924H86.4181H86.4437H86.4693H86.4949H86.5205H86.546H86.5715H86.597H86.6225H86.6479H86.6733H86.6987H86.7241H86.7494H86.7748H86.8001H86.8253H86.8506H86.8758H86.901H86.9262H86.9513H86.9765H87.0016H87.0267H87.0517H87.0768H87.1018H87.1268H87.1517H87.1767H87.2016H87.2265H87.2514H87.2762H87.301H87.3258H87.3506H87.3754H87.4001H87.4248H87.4495H87.4741H87.4988H87.5234H87.548H87.5725H87.5971H87.6216H87.6461H87.6705H87.695H87.7194H87.7438H87.7682H87.7925H87.8168H87.8412H87.8654H87.8897H87.9139H87.9381H87.9623H87.9865H88.0106H88.0347H88.0588H88.0829H88.107H88.131H88.155H88.179H88.2029H88.2268H88.2507H88.2746H88.2985H88.3223H88.3461H88.3699H88.3937H88.4174H88.4412H88.4649H88.4885H88.5122H88.5358H88.5594H88.583H88.6065H88.6301H88.6536H88.6771H88.7005H88.724H88.7474H88.7708H88.7942H88.8175H88.8409H88.8642H88.8874H88.9107H88.9339H88.9571H88.9803H89.0035H89.0266H89.0497H89.0728H89.0959H89.119H89.142H89.165H89.188H89.2109H89.2339H89.2568H89.2797H89.3025H89.3254H89.3482H89.371H89.3938H89.4165H89.4392H89.4619H89.4846H89.5073H89.5299H89.5525H89.5751H89.5977H89.6202H89.6428H89.6653H89.6877H89.7102H89.7326H89.755H89.7774H89.7998H89.8221H89.8444H89.8667H89.889H89.9112H89.9335H89.9557H89.9778H90H90.0478H90.0955H90.143H90.1905H90.2379H90.2851H90.3323H90.3793H90.4262H90.4731H90.5198H90.5664H90.613H90.6594H90.7057H90.7519H90.798H90.844H90.8899H90.9357H90.9813H91.0269H91.0724H91.1178H91.163H91.2082H91.2533H91.2982H91.3431H91.3878H91.4325H91.477H91.5214H91.5658H91.61H91.6541H91.6982H91.7421H91.7859H91.8296H91.8733H91.9168H91.9602H92.0035H92.0467H92.0898H92.1328H92.1757H92.2185H92.2612H92.3038H92.3463H92.3887H92.431H92.4732H92.5153H92.5573H92.5991H92.6409H92.6826H92.7242H92.7657H92.8071H92.8484H92.8895H92.9306H92.9716H93.0125H93.0533H93.0939H93.1345H93.175H93.2154H93.2557H93.2959H93.3359H93.3759H93.4158H93.4556H93.4953H93.5349H93.5743H93.6137H93.653H93.6922H93.7313H93.7703H93.8092H93.848H93.8867H93.9253H93.9638H94.0022H94.0405H94.0787H94.1168H94.1548H94.1927H94.2306H94.2683H94.3059H94.3434H94.3809H94.4182H94.4554H94.4925H94.5296H94.5665H94.6034H94.6401H94.6768H94.7133H94.7498H94.7861H94.8224H94.8586H94.8947H94.9306H94.9665H95.0023H95.038H95.0736H95.1091H95.1445H95.1798H95.215H95.2501H95.2852H95.3201H95.3549H95.3896H95.4243H95.4588H95.4933H95.5277H95.5619H95.5961H95.6302H95.6641H95.698H95.7318H95.7655H95.7991H95.8326H95.8661H95.8994H95.9326H95.9657H95.9988H96.0317H96.0646H96.0974H96.13H96.1626H96.1951H96.2275H96.2598H96.292H96.3241H96.3561H96.3881H96.4199H96.4516H96.4833H96.5148H96.5463H96.5777H96.609H96.6402H96.6713H96.7023H96.7332H96.764H96.7948H96.8254H96.856H96.8864H96.9168H96.9471H96.9773H97.0074H97.0374H97.0673H97.0971H97.1269H97.1565H97.1861H97.2155H97.2449H97.2742H97.3034H97.3325H97.3615H97.3904H97.4193H97.448H97.4767H97.5052H97.5337H97.5621H97.5904H97.6186H97.6468H97.6748H97.7027H97.7306H97.7584H97.7861H97.8137H97.8412H97.8686H97.8959H97.9231H97.9503H97.9774H98.0043H98.0312H98.058H98.0847H98.1114H98.1379H98.1644H98.1907H98.217H98.2432H98.2693H98.2953H98.3213H98.3471H98.3728H98.3985H98.4241H98.4496H98.475H98.5003H98.5256H98.5507H98.5758H98.6008H98.6257H98.6505H98.6752H98.6999H98.7244H98.7489H98.7733H98.7976H98.8218H98.8459H98.8699H98.8939H98.9178H98.9416H98.9653H98.9889H99.0124H99.0359H99.0593H99.0825H99.1057H99.1289H99.1519H99.1748H99.1977H99.2205H99.2432H99.2658H99.2883H99.3108H99.3331H99.3554H99.3776H99.3997H99.4218H99.4437H99.4656H99.4874H99.5091H99.5307H99.5522H99.5737H99.595H99.6163H99.6375H99.6587H99.6797H99.7007H99.7215H99.7423H99.7631H99.7837H99.8042H99.8247H99.8451H99.8654H99.8857H99.9058H99.9259H99.9459H99.9658H99.9856H100.005H100.025H100.045H100.064H100.084H100.103H100.122H100.141H100.16H100.179H100.198H100.217H100.236H100.255H100.273H100.292H100.31H100.329H100.347H100.365H100.383H100.402H100.42H100.437H100.455H100.473H100.491H100.508H100.526H100.543H100.561H100.578H100.595H100.612H100.629H100.646H100.663H100.68H100.697H100.714H100.73H100.747H100.763H100.779H100.796H100.812H100.828H100.844H100.86H100.876H100.892H100.908H100.923H100.939H100.954H100.97H100.985H101H101.016H101.031H101.046H101.061H101.076H101.091H101.105H101.12H101.135H101.149H101.164H101.178H101.192H101.207H101.221H101.235H101.249H101.263H101.277H101.291H101.304H101.318H101.332H101.345H101.358H101.372H101.385H101.398H101.411H101.425H101.438H101.45H101.463H101.476H101.489H101.501H101.514H101.526H101.539H101.551H101.563H101.576H101.588H101.6H101.612H101.624H101.636H101.647H101.659H101.671H101.682H101.694H101.705H101.716H101.728H101.739H101.75H101.761H101.772H101.783H101.794H101.804H101.815H101.826H101.836H101.847H101.857H101.868H101.878H101.888H101.898H101.908H101.918H101.928H101.938H101.948H101.958H101.967H101.977H101.986H101.996H102.005H102.014H102.024H102.033H102.042H102.051H102.06H102.069H102.078H102.086H102.095H102.104H102.112H102.121H102.129H102.137H102.146H102.154H102.162H102.17H102.178H102.186H102.194H102.202H102.21H102.217H102.225H102.232H102.24H102.247H102.255H102.262H102.269H102.276H102.283H102.29H102.297H102.304H102.311H102.318H102.325H102.331H102.338H102.344H102.351H102.357H102.363H102.37H102.376H102.382H102.388H102.394H102.4H102.406H102.411H102.417H102.423H102.428H102.434H102.439H102.445H102.45H102.455H102.461H102.466H102.471H102.476H102.481H102.486H102.491H102.495H102.5C102.597 0 102.694 0.00403333 102.791 0.0120897C105.014 0.197401 108.613 0.762756 112.459 1.85908C116.275 2.94659 120.595 4.62976 124.07 7.17758C129.676 11.289 141.804 19.0841 147.996 22.991C154.354 22.9615 163.925 23.4029 173.348 24.8268C183.079 26.2973 193.421 28.9171 199.609 33.7062C201.984 35.4625 203.24 38.4411 203.981 41.0412C205.625 46.8113 205.728 54.4845 205.495 58.6941C205.473 59.0903 205.383 59.4799 205.231 59.8462C204.628 61.2939 203.404 63.246 201.549 64.8778C199.65 66.5484 196.943 68 193.5 68C191.567 68 190 66.433 190 64.5C190 62.567 191.567 61 193.5 61C194.857 61 195.983 60.4516 196.926 59.6222C197.678 58.9604 198.221 58.1942 198.538 57.6227C198.674 54.3427 198.562 49.5432 197.829 45.5H191C189.067 45.5 187.5 43.933 187.5 42C187.5 40.067 189.067 38.5 191 38.5H194.284C189.466 35.321 181.313 33.1098 172.302 31.7482C162.789 30.3107 153.058 29.9185 147.047 29.9997C147.038 29.9998 147.028 29.9999 147.019 30L147 30H90H75.5C73.567 30 72 28.433 72 26.5C72 24.567 73.567 23 75.5 23H86.5V7H86.4949H86.4693H86.4437H86.4181H86.3924H86.3668H86.341H86.3153H86.2896H86.2638H86.238H86.2122H86.1863H86.1605H86.1346H86.1086H86.0827H86.0567H86.0307H86.0047H85.9787H85.9526H85.9265H85.9004H85.8743H85.8481H85.8219H85.7957H85.7695H85.7432H85.7169H85.6906H85.6643H85.638H85.6116H85.5852H85.5588H85.5323H85.5058H85.4793H85.4528H85.4263H85.3997H85.3731H85.3465H85.3198H85.2932H85.2665H85.2397H85.213H85.1862H85.1594H85.1326H85.1058H85.0789H85.052H85.0251H84.9982H84.9712H84.9442H84.9172H84.8902H84.8631H84.8361H84.809H84.7818H84.7547H84.7275H84.7003H84.673H84.6458H84.6185H84.5912H84.5639H84.5365H84.5091H84.4817H84.4543H84.4269H84.3994H84.3719H84.3444H84.3168H84.2892H84.2616H84.234H84.2064H84.1787H84.151H84.1233H84.0955H84.0678H84.04H84.0121H83.9843H83.9564H83.9285H83.9006H83.8727H83.8447H83.8167H83.7887H83.7607H83.7326H83.7045H83.6764H83.6482H83.6201H83.5919H83.5637H83.5354H83.5071H83.4789H83.4505H83.4222H83.3938H83.3654H83.337H83.3086H83.2801H83.2516H83.2231H83.1946H83.166H83.1374H83.1088H83.0802H83.0515H83.0228H82.9941H82.9654H82.9366H82.9078H82.879H82.8502H82.8213H82.7924H82.7635H82.7345H82.7056H82.6766H82.6476H82.6185H82.5895H82.5604H82.5313H82.5021H82.473H82.4438H82.4145H82.3853H82.356H82.3267H82.2974H82.2681H82.2387H82.2093H82.1799H82.1505H82.121H82.0915H82.062H82.0324H82.0029H81.9733H81.9436H81.914H81.8843H81.8546H81.8249H81.7952H81.7654H81.7356H81.7058H81.6759H81.6461H81.6162H81.5862H81.5563H81.5263H81.4963H81.4663H81.4362H81.4062H81.3761H81.3459H81.3158H81.2856H81.2554H81.2252H81.1949H81.1646H81.1343H81.104H81.0736H81.0433H81.0128H80.9824H80.952H80.9215H80.891H80.8604H80.8299H80.7993H80.7687H80.738H80.7074H80.6767H80.646H80.6152H80.5844H80.5536H80.5228H80.492H80.4611H80.4302H80.3993H80.3684H80.3374H80.3064H80.2754H80.2443H80.2132H80.1821H80.151H80.1199H80.0887H80.0575H80.0262H79.995H79.9637H79.9324H79.9011H79.8697H79.8383H79.8069H79.7755H79.744H79.7125H79.681H79.6495H79.6179H79.5863H79.5547H79.523H79.4914H79.4597H79.428H79.3962H79.3644H79.3326H79.3008H79.269H79.2371H79.2052H79.1732H79.1413H79.1093H79.0773H79.0453H79.0132H78.9811H78.949H78.9169H78.8847H78.8525H78.8203H78.788H78.7558H78.7235H78.6912H78.6588H78.6264H78.594H78.5616H78.5292H78.4967H78.4642H78.4316H78.3991H78.3665H78.3339H78.3012H78.2686H78.2359H78.2032H78.1704H78.1377H78.1049H78.0721H78.0392H78.0063H77.9734H77.9405H77.9076H77.8746H77.8416H77.8085H77.7755H77.7424H77.7093H77.6761H77.643H77.6098H77.5766H77.5433H77.5101H77.4768H77.4434H77.4101H77.3767H77.3433H77.3099H77.2764H77.243H77.2094H77.1759H77.1423H77.1088H77.0751H77.0415H77.0078H76.9741H76.9404H76.9067H76.8729H76.8391H76.8053H76.7714H76.7375H76.7036H76.6697H76.6357H76.6017H76.5677H76.5337H76.4996H76.4655H76.4314H76.3973H76.3631H76.3289H76.2947H76.2604H76.2261H76.1918H76.1575H76.1231H76.0887H76.0543H76.0199H75.9854H75.9509H75.9164H75.8818H75.8473H75.8126H75.778H75.7434H75.7087H75.674H75.6392H75.6045H75.5697H75.5348H75.5C69.9191 7 65.207 7.46696 61.193 8.22621ZM30.3693 62.9476C30.3617 62.9747 30.3537 63.0017 30.3455 63.0284C32.1595 67.6935 36.6936 71 42 71C46.7531 71 50.8865 68.3472 53.0005 64.4413C53.0156 63.5194 53.3873 62.6841 53.9836 62.0674C54.3196 60.937 54.5 59.7396 54.5 58.5C54.5 51.5964 48.9036 46 42 46C35.0964 46 29.5 51.5964 29.5 58.5C29.5 58.8704 29.5161 59.2371 29.5477 59.5994C30.361 60.4642 30.7141 61.7215 30.3693 62.9476ZM93.5 7V23H135.022C129.49 19.4133 123.495 15.4368 119.93 12.8224C117.405 10.9702 113.975 9.57008 110.541 8.59092C107.224 7.64553 104.148 7.16118 102.349 7H102.344H102.338H102.331H102.325H102.318H102.311H102.304H102.297H102.29H102.283H102.276H102.269H102.262H102.255H102.247H102.24H102.232H102.225H102.217H102.21H102.202H102.194H102.186H102.178H102.17H102.162H102.154H102.146H102.137H102.129H102.121H102.112H102.104H102.095H102.086H102.078H102.069H102.06H102.051H102.042H102.033H102.024H102.014H102.005H101.996H101.986H101.977H101.967H101.958H101.948H101.938H101.928H101.918H101.908H101.898H101.888H101.878H101.868H101.857H101.847H101.836H101.826H101.815H101.804H101.794H101.783H101.772H101.761H101.75H101.739H101.728H101.716H101.705H101.694H101.682H101.671H101.659H101.647H101.636H101.624H101.612H101.6H101.588H101.576H101.563H101.551H101.539H101.526H101.514H101.501H101.489H101.476H101.463H101.45H101.438H101.425H101.411H101.398H101.385H101.372H101.358H101.345H101.332H101.318H101.304H101.291H101.277H101.263H101.249H101.235H101.221H101.207H101.192H101.178H101.164H101.149H101.135H101.12H101.105H101.091H101.076H101.061H101.046H101.031H101.016H101H100.985H100.97H100.954H100.939H100.923H100.908H100.892H100.876H100.86H100.844H100.828H100.812H100.796H100.779H100.763H100.747H100.73H100.714H100.697H100.68H100.663H100.646H100.629H100.612H100.595H100.578H100.561H100.543H100.526H100.508H100.491H100.473H100.455H100.437H100.42H100.402H100.383H100.365H100.347H100.329H100.31H100.292H100.273H100.255H100.236H100.217H100.198H100.179H100.16H100.141H100.122H100.103H100.084H100.064H100.045H100.025H100.005H99.9856H99.9658H99.9459H99.9259H99.9058H99.8857H99.8654H99.8451H99.8247H99.8042H99.7837H99.7631H99.7423H99.7215H99.7007H99.6797H99.6587H99.6375H99.6163H99.595H99.5737H99.5522H99.5307H99.5091H99.4874H99.4656H99.4437H99.4218H99.3997H99.3776H99.3554H99.3331H99.3108H99.2883H99.2658H99.2432H99.2205H99.1977H99.1748H99.1519H99.1289H99.1057H99.0825H99.0593H99.0359H99.0124H98.9889H98.9653H98.9416H98.9178H98.8939H98.8699H98.8459H98.8218H98.7976H98.7733H98.7489H98.7244H98.6999H98.6752H98.6505H98.6257H98.6008H98.5758H98.5507H98.5256H98.5003H98.475H98.4496H98.4241H98.3985H98.3728H98.3471H98.3213H98.2953H98.2693H98.2432H98.217H98.1907H98.1644H98.1379H98.1114H98.0847H98.058H98.0312H98.0043H97.9774H97.9503H97.9231H97.8959H97.8686H97.8412H97.8137H97.7861H97.7584H97.7306H97.7027H97.6748H97.6468H97.6186H97.5904H97.5621H97.5337H97.5052H97.4767H97.448H97.4193H97.3904H97.3615H97.3325H97.3034H97.2742H97.2449H97.2155H97.1861H97.1565H97.1269H97.0971H97.0673H97.0374H97.0074H96.9773H96.9471H96.9168H96.8864H96.856H96.8254H96.7948H96.764H96.7332H96.7023H96.6713H96.6402H96.609H96.5777H96.5463H96.5148H96.4833H96.4516H96.4199H96.3881H96.3561H96.3241H96.292H96.2598H96.2275H96.1951H96.1626H96.13H96.0974H96.0646H96.0317H95.9988H95.9657H95.9326H95.8994H95.8661H95.8326H95.7991H95.7655H95.7318H95.698H95.6641H95.6302H95.5961H95.5619H95.5277H95.4933H95.4588H95.4243H95.3896H95.3549H95.3201H95.2852H95.2501H95.215H95.1798H95.1445H95.1091H95.0736H95.038H95.0023H94.9665H94.9306H94.8947H94.8586H94.8224H94.7861H94.7498H94.7133H94.6768H94.6401H94.6034H94.5665H94.5296H94.4925H94.4554H94.4182H94.3809H94.3434H94.3059H94.2683H94.2306H94.1927H94.1548H94.1168H94.0787H94.0405H94.0022H93.9638H93.9253H93.8867H93.848H93.8092H93.7703H93.7313H93.6922H93.653H93.6137H93.5743H93.5349H93.5ZM44.7927 14.467L50.2793 19.0223L53.1073 10.4118C49.795 11.6146 47.0925 13.0271 44.7927 14.467ZM67.5 51.5C67.5 49.567 69.067 48 71 48H137C138.933 48 140.5 49.567 140.5 51.5C140.5 53.433 138.933 55 137 55H71C69.067 55 67.5 53.433 67.5 51.5ZM46.9749 53.5251C48.3417 54.892 48.3417 57.108 46.9749 58.4749L42.4749 62.9749C41.108 64.3417 38.892 64.3417 37.5251 62.9749C36.1583 61.608 36.1583 59.392 37.5251 58.0251L42.0251 53.5251C43.392 52.1583 45.608 52.1583 46.9749 53.5251ZM162.025 53.5251C163.392 52.1583 165.608 52.1583 166.975 53.5251L171.475 58.0251C172.842 59.392 172.842 61.608 171.475 62.9749C170.108 64.3417 167.892 64.3417 166.525 62.9749L162.025 58.4749C160.658 57.108 160.658 54.892 162.025 53.5251ZM179.5 58.5C179.5 65.4036 173.904 71 167 71C160.096 71 154.5 65.4036 154.5 58.5C154.5 51.5964 160.096 46 167 46C173.904 46 179.5 51.5964 179.5 58.5Z" fill="black"/>
</svg>
