<svg fill="none" height="41" viewBox="0 0 40 41" width="40" xmlns="http://www.w3.org/2000/svg"><path clip-rule="evenodd" d="m10.8586.0100505c.0468-.0066919.0941-.0100505.1414-.0100505h24c1.6658 0 2.8324.608852 3.5657 1.48181.7006.83398.9343 1.82352.9343 2.51819v17c0 1.5259-.6582 2.5761-1.5407 3.2115-.8315.5987-1.7993.7885-2.4593.7885h-4c-.011 0-.0347-.0001-.0886.0396-.0676.0498-.17.1546-.2905.3535-.2458.4058-.4669 1.0337-.6453 1.8264-.353 1.5691-.4756 3.4892-.4756 4.7805 0 .4107-.2512.7797-.6333.9303-.3821.1507-.8175.0523-1.0978-.248l-6.7035-7.1823h-1.0654v5.5c0 1.1259-.4915 1.9261-1.1657 2.4115-.6232.4487-1.3409.5885-1.8343.5885h-6.0076l-4.69978 6.1097c-.26107.3394-.70925.4749-1.11463.337-.40538-.1378-.67799-.5185-.67799-.9467 0-2.1775-.08259-3.769-.18284-4.8036-.02679-.2765-.05434-.5078-.08096-.6964h-1.7362c-1.12592 0-1.92614-.4915-2.411534-1.1657-.448685-.6232-.588466-1.3409-.588466-1.8343v-10.5c0-1.242.424658-2.1526 1.08104-2.7433.62435-.5619 1.37299-.7567 1.91896-.7567h3.5v-11.5c0-1.87075.69316-3.21386 1.61783-4.10683.89632-.865585 1.97197-1.273293 2.74077-1.3831195zm-4.3586 18.9899495h-3.5c-.1207 0-.37206.0552-.58104.2433-.17695.1593-.41896.4987-.41896 1.2567v10.5c0 .1733.06022.4555.21153.6657.11461.1592.31439.3343.78847.3343h2.5c.53468 0 .80756.3876.84944.4471l.00105.0015c.08225.1167.12945.2313.15373.2953.05323.1402.09257.3002.12367.4513.06484.315.12626.7543.17995 1.3084.05497.5673.10374 1.2751.13839 2.1262l3.26117-4.2395c.1893-.2461.4821-.3903.7926-.3903h6.5c.1733 0 .4555-.0602.6657-.2115.1592-.1146.3343-.3144.3343-.7885v-5.5h-6.5c-2.07908 0-3.49842-.7858-4.37706-1.8706-.84433-1.0424-1.12294-2.2769-1.12294-3.1294zm4.579-17c-.4033.07204-1.0382.3165-1.57183.83183-.53367.51537-1.00717 1.33892-1.00717 2.66817v15c0 .4808.17139 1.2463.67706 1.8706.47136.5819 1.30204 1.1294 2.82294 1.1294h10c.2772 0 .5419.115.7311.3177l5.3783 5.7625c.0812-.9255.2133-1.9033.415-2.7997.1966-.8739.4755-1.7461.8859-2.4236.4027-.6647 1.0742-1.3569 2.0897-1.3569h4c.34 0 .8722-.1102 1.2907-.4115.3675-.2646.7093-.7144.7093-1.5885v-17c0-.30533-.1163-.81579-.4657-1.23181-.3167-.37704-.9001-.76819-2.0343-.76819zm.921 7c0-.55228.4477-1 1-1h12.5c.5523 0 1 .44772 1 1 0 .55229-.4477 1-1 1h-12.5c-.5523 0-1-.44771-1-1zm0 6.5c0-.5523.4477-1 1-1h20.5c.5523 0 1 .4477 1 1s-.4477 1-1 1h-20.5c-.5523 0-1-.4477-1-1z" fill="#000" fill-rule="evenodd"/></svg>