<svg fill="none" height="135" viewBox="0 0 130 135" width="130" xmlns="http://www.w3.org/2000/svg"><path clip-rule="evenodd" d="m64.6515 81.9031c-.7668 1.0688-1.6304 2.0895-2.591 3.05l-47.5225 47.5229c-3.2837 3.283-8.60768 3.283-11.89138 0-3.283708-3.284-3.283709-8.608 0-11.892l47.52258-47.5222c2.9553-2.9553 2.9553-7.7469 0-10.7022l-47.52258-47.5226c-3.283709-3.2837-3.283708-8.60761 0-11.89131 3.2837-3.283705 8.60768-3.283707 11.89138 0l47.5225 47.52251c.9606.9606 1.8242 1.9813 2.591 3.0501.7668-1.0688 1.6304-2.0895 2.5909-3.0501l47.5226-47.52251c3.284-3.283707 8.608-3.283705 11.891 0 3.284 3.2837 3.284 8.60761 0 11.89131l-47.5222 47.5226c-2.9553 2.9553-2.9553 7.7469 0 10.7022l47.5222 47.5222c3.284 3.284 3.284 8.608 0 11.892-3.283 3.283-8.607 3.283-11.891 0l-47.5226-47.5229c-.9605-.9605-1.8241-1.9812-2.5909-3.05z" fill="#fff" fill-rule="evenodd"/></svg>