<svg fill="none" height="135" viewBox="0 0 129 135" width="129" xmlns="http://www.w3.org/2000/svg"><path clip-rule="evenodd" d="m64.4676 81.4202c-.7667 1.0688-1.6304 2.0895-2.5909 3.05l-47.5226 47.5228c-3.2837 3.283-8.60762 3.283-11.89132 0-3.283705-3.284-3.283707-8.608 0-11.892l47.52252-47.5221c2.9554-2.9553 2.9554-7.7469 0-10.7022l-47.52252-47.5226c-3.283707-3.2837-3.283705-8.60762 0-11.89132 3.2837-3.283705 8.60762-3.283707 11.89132 0l47.5226 47.52252c.9605.9606 1.8242 1.9813 2.5909 3.0501.7668-1.0688 1.6305-2.0895 2.591-3.0501l47.5224-47.52252c3.284-3.283707 8.608-3.283705 11.892 0 3.283 3.2837 3.283 8.60762 0 11.89132l-47.523 47.5226c-2.9554 2.9553-2.9554 7.7469 0 10.7022l47.523 47.5221c3.283 3.284 3.283 8.608 0 11.892-3.284 3.283-8.608 3.283-11.892 0l-47.5224-47.5228c-.9605-.9605-1.8242-1.9812-2.591-3.05z" fill="#1c1c1c" fill-rule="evenodd"/></svg>