<svg fill="none" height="42" viewBox="0 0 42 42" width="42" xmlns="http://www.w3.org/2000/svg"><path clip-rule="evenodd" d="m7.27941 2.48376c-.23816.22052-.27941.45116-.27941.51624v20.0809c3.2175.3128 6.0831 1.0213 8.2146 1.791.8832.319 1.6569.6543 2.2854.9854v-20.61615c-.1187-.11096-.3168-.26268-.6033-.44685-.5973-.38402-1.4525-.82878-2.4225-1.25314-1.9824-.86729-4.1951-1.54116-5.4742-1.54116-1.0118 0-1.49742.27712-1.72059.48376zm12.22059 2.75421v20.54653c.2311-.1065.4702-.2046.7088-.2948 1.2214-.462 2.6598-.8004 3.6123-.9736.5434-.0988 1.064.2616 1.1628.805s-.2616 1.064-.805 1.1628c-.8809.1601-2.1924.4717-3.2627.8764-.5412.2047-.965.4128-1.2355.6049-.104.0739-.16.1267-.1881.1571-.0603.4946-.4817.8777-.9926.8777h-15c-.61848 0-1.48679-.213-2.21628-.8433-.765673-.6616-1.28372-1.7009-1.28372-3.1567v-18.5c0-.49336.139781-1.21113.588466-1.8343.485394-.67417 1.285614-1.1657 2.411534-1.1657h2v-.5c0-.60159.25875-1.37094.92059-1.98376.67683-.626689 1.69121-1.01624 3.07941-1.01624 1.7209 0 4.2582.826126 6.2758 1.70884 1.03.45064 1.9873.94338 2.7025 1.40311.1823.1172.3576.23779.5191.36045.1609-.12268.3358-.24325.5181-.36045.7176-.46133 1.6838-.95503 2.7419-1.40667 2.0873-.890908 4.7376-1.70528 6.7426-1.70528.5974 0 1.5073.114272 2.3077.498477.8237.395367 1.6923 1.176233 1.6923 2.501523v.61932c.5151-.15918 1.1037-.3259 1.6652-.4464.5801-.1245 1.2387-.22498 1.7922-.17049.2732.0269.6391.10145.9583.3345.3757.27423.5843.6937.5843 1.16307v12.5c0 .5523-.4477 1-1 1s-1-.4477-1-1v-12.00939c-.2302.0125-.5391.05707-.9152.13778-.7181.15413-1.4951.39638-2.0848.59095v11.28066c0 .5523-.4477 1-1 1s-1-.4477-1-1v-14c0-.27471-.1314-.49384-.5577-.69848-.4496-.21579-1.0397-.30152-1.4423-.30152-1.595 0-3.9447.68563-5.9574 1.54472-.9919.42336-1.8507.86716-2.4456 1.24958-.2849.18314-.4804.33395-.597.44367zm-14.5.26203h-2c-.47408 0-.67386.17513-.78847.3343-.15131.21016-.21153.49239-.21153.6657v18.5c0 .9442.31529 1.4049.59128 1.6433.31218.2697.69386.3567.90872.3567h11.6867c-.206-.0821-.4232-.1646-.6513-.2469-2.1655-.782-5.20025-1.5123-8.60665-1.7556-.5233-.0374-.92875-.4729-.92875-.9975zm12.5889 22.8219c-.0007 0-.0061-.0063-.0138-.0186.0107.0125.0146.0187.0138.0186zm11.4111-5.3176v8.9957c0 .5523-.4477 1-1 1h-3.0858l6.5858 6.5858 6.5858-6.5858h-3.0858c-.5523 0-1-.4477-1-1v-8.9995c-.0001 0 .0001 0 0 0l-.0043-.0005h-4.9952zm-1.6115-1.2136c.3354-.4658.8856-.7907 1.6115-.7907h5c.3267 0 .7945.0898 1.2093.3885.4658.3354.7907.8856.7907 1.6115v8h4.5c.4045 0 .7691.2436.9239.6173s.0692.8038-.2168 1.0898l-9 9c-.3905.3905-1.0237.3905-1.4142 0l-9-9c-.286-.286-.3716-.7161-.2168-1.0898s.5194-.6173.9239-.6173h4.5v-8c0-.3267.0898-.7945.3885-1.2093z" fill="#000" fill-rule="evenodd"/></svg>