<svg fill="none" height="44" viewBox="0 0 50 44" width="50" xmlns="http://www.w3.org/2000/svg"><g clip-rule="evenodd" fill-rule="evenodd"><path d="m21.6751 3.67541c11.7367-4.372816 19.1483-2.14746 21.4877-.32682.1183.09204.1875.23351.1875.38337v24.15274c0 .2683-.2175.4858-.4858.4858-2.5318 0-6.5742.2835-10.6002.8226-4.0359.5404-7.9978 1.3304-10.4004 2.3252-.001.0004-.0019.0007-.0028.0011-.1057.0438-.2218.0484-.3284.0157-.0157-.0048-.0311-.0104-.0463-.0168-2.4005-.9939-6.3602-1.7531-10.3968-2.2625-4.0254-.508-8.06934-.7608-10.603818-.7608-.128837 0-.252397-.0512-.3435-.1423-.0911022-.0911-.142282-.2147-.142282-.3435l.00000282-24.27724c0-.14986.06916588-.29133.18742918-.38337 2.339418-1.82064 9.751028-4.045995 21.487668.32682z" fill="#000"/><path d="m21.5327 31.5351c.1066.0327.2227.0281.3284-.0157l.0017-.0007.0011-.0004c2.4027-.9948 6.3645-1.7848 10.4004-2.3252 4.026-.5391 8.0684-.8226 10.6002-.8226.2683 0 .4858-.2175.4858-.4858v-24.15274c0-.14986-.0692-.29133-.1875-.38337-2.3394-1.82064-9.751-4.045996-21.4877.32682-11.73664-4.372815-19.14825-2.14746-21.487668-.32682-.1182633.09204-.18742918.23351-.18742918.38337l-.00000282 24.27724c0 .1288.0511798.2524.142282.3435.091103.0911.214663.1423.3435.1423 2.534478 0 6.578418.2528 10.603818.7608 4.0366.5094 7.9963 1.2686 10.3968 2.2625.0152.0064.0306.012.0463.0168zm.7562-26.21225c-.3959.1475-.8317.1475-1.2276 0-10.5043-3.91368-17.02247-2.22924-19.30323-.91209v22.34354c2.58153.066 6.07957.3191 9.55163.7573 3.8081.4806 7.7199 1.1994 10.365 2.1916 2.6397-.9937 6.5465-1.7425 10.3563-2.2526 3.4721-.4649 6.9742-.7454 9.5612-.8188v-22.22104c-2.2808-1.31715-8.7989-3.00159-19.3033.91209z" fill="#fff"/><path d="m21.675 2.61694c-9.5114-4.51761-15.57225-2.216379-17.50745-.2853-.09132.09113-.14265.21485-.14265.34387v22.02979c0 .2683.21749.4858.48578.4858.9674 0 2.25646.2501 3.73419.6771 1.46987.4248 3.09463 1.015 4.72223 1.6743 3.2545 1.3184 6.4931 2.9018 8.4786 3.9564.0005.0003.0009.0005.0014.0008.143.0759.3138.0754.4558 0 .0005-.0003.0009-.0005.0014-.0008 1.9855-1.0546 5.2241-2.638 8.4785-3.9564 1.6276-.6593 3.2524-1.2495 4.7223-1.6743 1.4777-.427 2.7668-.6771 3.7342-.6771.2683 0 .4858-.2175.4858-.4858v-22.02979c0-.12902-.0514-.25274-.1427-.34387-1.9352-1.931079-7.996-4.23231-17.5074.2853z" fill="#000"/><path d="m22.4293 4.20499c-.4773.2267-1.0313.2267-1.5086 0-8.3502-3.966062-13.4116-2.21907-15.13773-.94535v20.26556c.91816.1222 1.92301.3573 2.94998.654 1.54785.4473 3.23325 1.0611 4.89425 1.7339 3.0133 1.2207 6.0045 2.6597 8.0478 3.7206 2.0433-1.0609 5.0344-2.4999 8.0478-3.7206 1.661-.6728 3.3464-1.2866 4.8942-1.7339 1.027-.2967 2.0318-.5318 2.95-.654v-20.26556c-1.7261-1.27372-6.7876-3.020712-15.1377.94535zm-1.3494 25.74111c.0001 0 .0002-.0001.0003-.0001-.0001 0-.0002.0001-.0003.0001zm.3658 1.5528c-1.9855-1.0546-5.2241-2.638-8.4786-3.9564-1.6276-.6593-3.25236-1.2495-4.72223-1.6743-1.47773-.427-2.76679-.6771-3.73419-.6771-.26829 0-.48578-.2175-.48578-.4858v-22.02979c0-.12902.05133-.25274.14265-.34387 1.9352-1.931079 7.99605-4.23231 17.50745.2853 9.5114-4.51761 15.5722-2.216379 17.5074-.2853.0913.09113.1427.21485.1427.34387v22.02979c0 .2683-.2175.4858-.4858.4858-.9674 0-2.2565.2501-3.7342.6771-1.4699.4248-3.0947 1.015-4.7223 1.6743-3.2544 1.3184-6.493 2.9018-8.4785 3.9564l-.0014.0008c-.142.0754-.3128.0759-.4558 0z" fill="#fff"/><path d="m20.7266 30.997v-27.4351h1.758v27.4351z" fill="#fff"/><path d="m47.8144 29.5397c1.7803 0 2.9524 3.2069 1.5949 4.2658l-12.1682 9.4917c-.2994.2335-1.5168.2927-1.8175.0605l-12.2862-9.4885c-1.3666-1.0554-.1339-4.2138 1.6511-4.2138h2.3397c.4448 0 .8053-.8866.8053-1.2955v-12.8848c0-.4088.3605-1.2491.8053-1.2491h12.645s.9242-.0437 1.4574.5089c.5143.5331.5089 1.388.5089 1.388v11.7281c0 .4088.3196 1.6887.7643 1.6887z" fill="#000"/><path d="m46.6589 31.9381c.3527 0 .5055.4463.2269.6625l-10.2963 7.9901c-.1328.1031-.3185.1037-.452.0015l-10.431-7.9902c-.2808-.2151-.1287-.6639.2251-.6639h4.2296c.2045 0 .3702-.1657.3702-.3701v-13.9799c0-.2044.1657-.3701.3701-.3701h9.3886c.2045 0 .3702.1657.3702.3701v13.9799c0 .2044.1657.3701.3701.3701z" fill="#000"/><path d="m46.6587 31.221c1.0358 0 1.4849 1.3111.6665 1.9461l-10.2963 7.9902c-.3902.3028-.9356.3045-1.3277.0041l-10.431-7.9901c-.825-.632-.3781-1.9503.6611-1.9503h3.8827v-13.6329c0-.6005.4868-1.0872 1.0872-1.0872h9.3887c.6004 0 1.0872.4867 1.0872 1.0872v13.6329zm-1.0131 1.4342h-4.6155c-.6004 0-1.0872-.4868-1.0872-1.0872v-13.6329h-8.6947v13.6329c0 .6004-.4867 1.0872-1.0872 1.0872h-3.2061l9.4061 7.205z" fill="#fff"/></g></svg>