<svg fill="none" height="206" viewBox="0 0 205 206" width="205" xmlns="http://www.w3.org/2000/svg"><path clip-rule="evenodd" d="m47.5925.565447c.5678-.369028 1.2304-.565447 1.9075-.565447h34c.6197 0 1.2283.164529 1.7635.476774l16.3255 9.523226h14.911c2.792 0 5.203 1.6351 6.326 4h23.674c3.866 0 7 3.134 7 7v1h10c3.171 0 5.85 2.1085 6.71 5h10.29c3.866 0 7 3.134 7 7h14c1.933 0 3.5 1.567 3.5 3.5s-1.567 3.5-3.5 3.5h-14c0 3.866-3.134 7-7 7h-10.29c-.86 2.8915-3.539 5-6.71 5h-10v1c0 3.866-3.134 7-7 7h-23.674c-1.123 2.3649-3.534 4-6.326 4h-13.044l-2.975 4.8343c-.6062.9848-1.6595 1.6067-2.8145 1.6617l-10.5.5c-.0328.0016-.0656.0027-.0984.0033-.0227.0005-.0454.0007-.0681.0007-.5399 0-.9159.169-1.351.7513-.5342.7149-1.0328 1.952-1.3374 3.7185-.6041 3.5033-.2336 7.8049.5336 10.4987.3991 1.2211.8552 3.1973.6917 5.0837-.0836.9648-.362 2.3087-1.2911 3.4737-1.0586 1.3276-2.5992 1.9741-4.2458 1.9741-7.1739 0-9.6666 4.781-10.0751 6.721-.0196.093-.0429.185-.07.276l-10.9344 36.78c-.2526 1.678-.2688 3.959.2694 5.677.2694.859.6077 1.354.9034 1.617.2127.189.5481.396 1.235.425l.2029.004h28.4688c3.1871 0 9.4609 2.079 15.559 8.612 5.719 6.128 10.548 12.416 12.289 14.854.424.593.652 1.305.652 2.034v16c0 .873-.326 1.715-.915 2.36l-10.5 11.5c-.663.726-1.602 1.14-2.585 1.14h-78.5c-.4364 0-.869-.082-1.2754-.241-2.1794-.852-5.4006-2.5-8.1467-4.778-2.6236-2.176-5.5779-5.573-5.5779-9.981v-32.5c0-.765.2506-1.509.7134-2.118l8.6745-11.414c-.9103-10.694-.9211-34.21 5.7984-53.5949.1298-.3893.257-.7679.381-1.1367l.0016-.0048.0004-.0012c1.1639-3.4628 2.0377-6.0626 1.9938-8.4793-.0218-1.2004-.2848-2.2708-.8894-3.3051-.6182-1.0577-1.6993-2.2566-3.6152-3.5338-3.4829-2.322-6.068-3.7221-7.8348-4.5273-.8848-.4032-1.5353-.6438-1.9686-.7772-.2409-.0741-.3739-.1024-.4181-.1115-.3209-.015-.6385-.0741-.9438-.1758-4.41683-1.4723-12.8932-7.2364-12.8932-18.8204v-29.5c0-.1656.0117552-.331.0351768-.495.3156682-2.2097 1.3207332-5.4287 3.4157532-8.1853 2.17406-2.86059 5.62872-5.3197 10.54907-5.3197h24.4625zm4.8543 148.273553c-.9363-3.159-.7753-6.657-.3992-8.914.0238-.143.0563-.284.0975-.422l10.1972-34.3c-1.1495-.976-2.1776-2.31-3.0111-3.915-1.6925-3.2603-2.8312-8.0296-2.8312-14.788 0-7.5716 3.363-12.9099 7.6162-16.3377 4.1302-3.3285 9.0647-4.8478 12.5849-5.1495.0994-.0085.1991-.0128.2989-.0128h9.9167l8.571-.4081 2.5123-4.0825v-44.4991l-15.4462-9.0103h-32.0163l-9.13 5.9346c-.5678.369-1.2304.5654-1.9075.5654h-25.5c-2.2796 0-3.825 1.0409-4.97593 2.5553-1.16136 1.5281-1.80113 3.424-2.02407 4.717v29.2277c0 7.2981 5.0721 11.0026 7.7686 12.0569.5361.0746 1.0682.2136 1.5451.3604.7854.2416 1.7224.601 2.8126 1.0978 2.1832.9948 5.0981 2.5947 8.8152 5.0727 2.5841 1.7228 4.503 3.6489 5.7754 5.8256 1.2861 2.2001 1.8043 4.4734 1.845 6.7105.0677 3.722-1.2394 7.562-2.3366 10.7852l-.0016.0047-.0011.0033c-.1385.4069-.2736.804-.4022 1.1897l-.0138.0404c-6.5643 18.9208-6.299 42.5788-5.3252 51.9928.0915.884-.1569 1.77-.6948 2.478l-.574.755zm-31.4842 6.442 40.1816.713c.1178.004.2364.006.3558.006h28.5c.8129 0 5.3391.921 10.441 6.388 4.863 5.21 9.062 10.556 11.059 13.252v3.86h-93.5v-20.321zm-2.9626 31.219v4c0 1.192.879 2.795 3.0471 4.594 1.8174 1.507 4.0163 2.704 5.6441 3.406h76.2648l8.544-9.357v-2.643zm60.252-114.5h-1.0916c-2.3153.2287-5.7976 1.3125-8.6516 3.6127-2.7884 2.2472-5.0088 5.6589-5.0088 10.8873 0 5.6663.9042 9.1533 1.8546 11.1788 2.3447-3.4043 6.5218-6.7016 13.1629-7.1315-.0086-.0616-.0183-.1252-.0293-.1907-.077-.4625-.1953-.9099-.3086-1.2498-.0069-.0208-.0136-.0416-.0202-.0625-.0074-.0236-.0145-.0473-.0214-.0711-1.0547-3.6437-1.5244-9.055-.7246-13.693.1872-1.0857.4559-2.2008.8386-3.2802zm.2921 19.5789s.0011-.0079.0052-.022c-.0029.0152-.0052.022-.0052.022zm-57.0441-64.5789h9c.5523 0 1 .4477 1 1v20.0557c0 .7434-.7823 1.2269-1.4472.8945l-9-4.5c-.3388-.1694-.5528-.5157-.5528-.8945v-15.5557c0-.5523.4477-1 1-1zm-8 1c0-4.4183 3.5817-8 8-8h9c4.4183 0 8 3.5817 8 8v20.0557c0 5.9471-6.2585 9.8151-11.5777 7.1554l-9-4.5c-2.7103-1.3551-4.4223-4.1252-4.4223-7.1554zm38-7.5c-1.933 0-3.5 1.567-3.5 3.5s1.567 3.5 3.5 3.5h34.5c1.933 0 3.5-1.567 3.5-3.5s-1.567-3.5-3.5-3.5zm0 13.5c-1.933 0-3.5 1.567-3.5 3.5s1.567 3.5 3.5 3.5h34.5c1.933 0 3.5-1.567 3.5-3.5s-1.567-3.5-3.5-3.5zm0 13.5c-1.933 0-3.5 1.567-3.5 3.5s1.567 3.5 3.5 3.5h34.5c1.933 0 3.5-1.567 3.5-3.5s-1.567-3.5-3.5-3.5zm54-30.5h7.5c3.866 0 7 3.134 7 7v27c0 3.866-3.134 7-7 7h-7.5v-7h4.5c1.933 0 3.5-1.567 3.5-3.5s-1.567-3.5-3.5-3.5h-4.5v-13.5h4.5c1.933 0 3.5-1.567 3.5-3.5s-1.567-3.5-3.5-3.5h-4.5zm75 17v1.6962 1.8038 1.8038 1.6962h-10v-7zm-17 12v-17h-10v17zm-17-25v1 31 1h-20v-20h11c1.933 0 3.5-1.567 3.5-3.5s-1.567-3.5-3.5-3.5h-11v-6z" fill="#000" fill-rule="evenodd"/></svg>