<svg fill="none" height="32" viewBox="0 0 32 32" width="32" xmlns="http://www.w3.org/2000/svg"><circle cx="16" cy="16" fill="#ff765c" r="16"/><path clip-rule="evenodd" d="m6.58579 6.58579c.78104-.78105 2.04738-.78105 2.82842 0l6.33579 6.33581 6.3358-6.33581c.781-.78105 2.0474-.78105 2.8284 0 .7811.78104.7811 2.04738 0 2.82842l-6.3358 6.33579 6.3358 6.3358c.7811.781.7811 2.0474 0 2.8284-.781.7811-2.0474.7811-2.8284 0l-6.3358-6.3358-6.33579 6.3358c-.78104.7811-2.04738.7811-2.82842 0-.78105-.781-.78105-2.0474 0-2.8284l6.33581-6.3358-6.33581-6.33579c-.78105-.78104-.78105-2.04738 0-2.82842z" fill="#fff" fill-rule="evenodd"/></svg>