<svg fill="none" height="140" viewBox="0 0 207 140" width="207" xmlns="http://www.w3.org/2000/svg"><path clip-rule="evenodd" d="m43.5 41.9466v-24.2459c.2293-1.8488 1.0571-4.6101 2.7375-6.8507 1.6387-2.18496 4.0386-3.85 7.7625-3.85h36c-.0003 0 .0029 0 .0095.00029.0067.00028.0162.00084.0284.00188.0248.0021.0585.00597.1001.01278.0842.01379.1901.03784.3104.07683.2419.07848.5101.20694.7672.40117.4502.33998 1.0738 1.03301 1.332 2.58245.1053.6319.2521 1.6316.4313 2.9246h-24.4789c-2.1434 0-5.2806.6142-7.9826 2.5596-2.8804 2.0739-5.0174 5.4997-5.0174 10.4404v16.6903zm25-21.9466h25.4044c.9813 7.6452 2.2221 17.8006 3.1206 25.2638l-34.525-2.1397v-17.1241c0-2.6593 1.0296-3.9835 2.1076-4.7596 1.2564-.9046 2.8692-1.2404 3.8924-1.2404zm31.95-3.9549c1.08 8.2341 2.651 21.1068 3.678 29.6589l29.088 1.8027c1.408.0872 2.625 1.0102 3.089 2.3415l16.195 46.4724v-6.8206c0-3.4464 1.642-5.8948 3.662-7.3965 1.88-1.3977 4.043-1.966 5.547-2.0914.213-.0177.427-.016.639.0053 1.326.1326 3.177.6443 4.892 1.7657 1.781 1.164 3.537 3.0801 4.177 5.9576.008.0363.015.0727.022.1092.007.0392.014.0785.02.1179 1.477 9.5968 6.692 19.2232 12.859 27.4892 5.717 7.664 12.061 13.902 16.43 17.543h2.252c1.933 0 3.5 1.567 3.5 3.5s-1.567 3.5-3.5 3.5h-39c-4.341 0-7.391-1.887-9.24-4.455-1.721-2.389-2.26-5.152-2.26-7.045v-5h-5.5c-1.358 0-2.593-.785-3.169-2.015l-25.113-53.6064-11.931-.6628.481 6.4589 4.025.3375c1.813.1521 3.207 1.6682 3.207 3.4878v6.0115c9.774 4.8058 16.5 14.8616 16.5 26.4885 0 16.292-13.208 29.5-29.5 29.5-14.9357 0-27.279-11.1-29.2311-25.5h-13.5378c-1.9521 14.4-14.2954 25.5-29.2311 25.5-16.2924 0-29.5-13.208-29.5-29.5 0-2.337.271743-4.61.785356-6.791-.49681-.609-.79207786-1.389-.78523977-2.237l.49999977-62.0002c.0155-1.9219 1.577904-3.4718 3.499884-3.4718h23c1.6644 0 3.0986 1.1722 3.43 2.8033l.5828 2.8694 5.4872.3401v-24.0128c0-.1246.0067-.249.0199-.3729.3022-2.8204 1.476-6.955 4.1176-10.4771 2.7363-3.64837 7.0864-6.65 13.3625-6.65h36c3.0241 0 8.3167 2.11059 9.4524 8.9246.2198 1.3192.5756 3.8973.9976 7.1205zm-93.36782 74.7788c5.41052-6.3192 13.44652-10.3239 22.41782-10.3239 15.2797 0 27.8461 11.6167 29.3493 26.5h13.3014c1.5032-14.8833 14.0696-26.5 29.3493-26.5 2.056 0 4.063.2103 6 .6106v-.3919l-74.2925-6.2309c-1.5498-.13-2.8279-1.267-3.1375-2.7911l-5.9305-29.1967h-16.66761zm123.37882-36.4746 21.658 62.1507h-2.894l-25.056-53.4848c-.546-1.1664-1.689-1.9384-2.975-2.0098l-17.928-.996-69.7969-6.7441-1.0135-4.9897zm-87.3224 6.8829 56.5903 5.468.4761 6.3821-56.8166-4.7652zm-7.0283-.6791.2438 6.9151-1.4279-7.0295zm142.5967 59.0899c3.842 5.15 7.952 9.701 11.663 13.357h-26.37c-2.059 0-3.009-.78-3.56-1.545-.679-.944-.94-2.182-.94-2.955v-39c0-.5482.119-.8898.239-1.1131.127-.2361.32-.4579.599-.6654.497-.3695 1.134-.5916 1.623-.6864.386.0863.941.2747 1.449.6068.578.3782.979.8541 1.152 1.5297 1.752 11.1524 7.681 21.8064 14.145 30.4714zm-149.207 12.857c12.4264 0 22.5-10.074 22.5-22.5 0-12.4264-10.0736-22.5-22.5-22.5s-22.5 10.0736-22.5 22.5c0 12.426 10.0736 22.5 22.5 22.5zm72 0c12.426 0 22.5-10.074 22.5-22.5 0-12.4264-10.074-22.5-22.5-22.5-12.4264 0-22.5 10.0736-22.5 22.5 0 12.426 10.0736 22.5 22.5 22.5zm6.5-22.5c0 3.59-2.91 6.5-6.5 6.5-3.5899 0-6.5-2.91-6.5-6.5s2.9101-6.5 6.5-6.5c3.59 0 6.5 2.91 6.5 6.5zm7 0c0 7.456-6.044 13.5-13.5 13.5-7.4558 0-13.5-6.044-13.5-13.5s6.0442-13.5 13.5-13.5c7.456 0 13.5 6.044 13.5 13.5zm-85.5 6.5c3.5898 0 6.5-2.91 6.5-6.5s-2.9102-6.5-6.5-6.5-6.5 2.91-6.5 6.5 2.9102 6.5 6.5 6.5zm0 7c7.4558 0 13.5-6.044 13.5-13.5s-6.0442-13.5-13.5-13.5-13.5 6.044-13.5 13.5 6.0442 13.5 13.5 13.5z" fill="#000" fill-rule="evenodd"/></svg>