<svg fill="none" height="55" viewBox="0 0 65 55" width="65" xmlns="http://www.w3.org/2000/svg"><path clip-rule="evenodd" d="m51.354.5c-3.5386 0-6.5279 2.34641-7.4991 5.56762h-41.09108c-1.25027 0-2.26382 1.01355-2.26382 2.26383s1.01355 2.26385 2.26382 2.26385h41.09108c.9712 3.2212 3.9605 5.5676 7.4991 5.5676s6.5279-2.3464 7.4991-5.5676h3.3831c1.2502 0 2.2638-1.01357 2.2638-2.26385s-1.0136-2.26383-2.2638-2.26383h-3.3831c-.9712-3.22121-3.9605-5.56762-7.4991-5.56762zm-3.8099 7.83145c0-2.10418 1.7057-3.80995 3.8099-3.80995s3.8099 1.70577 3.8099 3.80995c0 2.10415-1.7057 3.80995-3.8099 3.80995s-3.8099-1.7058-3.8099-3.80995zm-32.8858 11.14905c-3.5386 0-6.52793 2.3465-7.49914 5.5677h-4.39534c-1.25027 0-2.26382 1.0135-2.26382 2.2638s1.01355 2.2638 2.26382 2.2638h4.39534c.97121 3.2212 3.96054 5.5676 7.49914 5.5676 3.5385 0 6.5279-2.3464 7.4991-5.5676h40.0788c1.2502 0 2.2638-1.0135 2.2638-2.2638s-1.0136-2.2638-2.2638-2.2638h-40.0788c-.9712-3.2212-3.9606-5.5677-7.4991-5.5677zm-3.81 7.8315c0-2.1042 1.7058-3.81 3.81-3.81s3.8099 1.7058 3.8099 3.81-1.7057 3.8099-3.8099 3.8099-3.81-1.7057-3.81-3.8099zm27.3459 11.1491c-3.5386 0-6.528 2.3464-7.4992 5.5676h-27.93118c-1.25027 0-2.26382 1.0136-2.26382 2.2638 0 1.2503 1.01355 2.2639 2.26382 2.2639h27.93118c.9712 3.2212 3.9606 5.5676 7.4992 5.5676 3.5385 0 6.5279-2.3464 7.4991-5.5676h16.5429c1.2502 0 2.2638-1.0136 2.2638-2.2639 0-1.2502-1.0136-2.2638-2.2638-2.2638h-16.5429c-.9712-3.2212-3.9606-5.5676-7.4991-5.5676zm-3.81 7.8314c0-2.1042 1.7058-3.8099 3.81-3.8099 2.1041 0 3.8099 1.7057 3.8099 3.8099s-1.7058 3.81-3.8099 3.81c-2.1042 0-3.81-1.7058-3.81-3.81z" fill="#000" fill-rule="evenodd"/></svg>