<svg fill="none" height="42" viewBox="0 0 66 42" width="66" xmlns="http://www.w3.org/2000/svg"><path clip-rule="evenodd" d="m20.7747 7.40548c4.398-.27955 6.5758 1.72238 8.2199 3.23372l.1511.1388 4.3106-4.70244c-.0568-.05204-.1156-.10621-.1765-.16229-1.8885-1.73892-5.7851-5.326961-12.9097-4.8741-8.7212.55441-13.76352 4.74043-16.4689 9.48773-2.58411 4.5344-2.9012 9.3147-2.9012 11.2381 0 2.1655.73585 6.8232 3.4914 11.0413 2.88477 4.4159 7.9393 8.2412 16.081 8.2412 7.5098 0 12.4803-3.1322 15.4362-7.3353 2.8332-4.0287 3.6409-8.7746 3.5552-12.0311l-.0817-3.1057h-18.9097v6.3792h12.3296c-.3384 1.6882-.9992 3.5065-2.1114 5.088-1.7343 2.4661-4.7377 4.6257-10.2182 4.6257-5.7765 0-8.9133-2.5539-10.74042-5.3508-1.95634-2.9947-2.45282-6.3835-2.45282-7.5525 0-1.4112.26283-4.9184 2.06439-8.0797 1.68025-2.9485 4.82945-5.8665 11.33115-6.27982zm29.4372 17.11422v8.2639h6.3792v-8.2639h8.4089v-6.3791h-8.4089v-8.40892h-6.3792v8.40892h-8.4088v6.3791z" fill="#000" fill-rule="evenodd" stroke="#000"/></svg>