<svg fill="none" height="185" viewBox="0 0 196 185" width="196" xmlns="http://www.w3.org/2000/svg"><path clip-rule="evenodd" d="m90.591 10.0015c-.6419-.02052-1.2873.1612-1.8511.5701l-77.5002 56.1893c-1.34101.9722-1.64028 2.8477-.6674 4.1895.9717 1.3405 2.8474 1.6408 4.1892.6681l75.9886-55.0937 75.9899 55.0937c1.341.9727 3.217.6732 4.188-.6674.973-1.3417.675-3.218-.666-4.1902l-77.5005-56.1891c-.5643-.4092-1.209-.5908-1.8504-.5703l-.16.0052zm.1601-9.99897374c-2.7287-.05377916-5.5054.75050174-7.8815 2.47340374l-77.49967 56.18887c-5.813035 4.2145-7.10773 12.3429-2.8938 18.1551 3.79335 5.2334 10.75917 6.8053 16.35197 3.9926v68.7085c-2.4126-.021-5.1245.256-7.6229 1.102-2.06586.7-4.18178 1.857-5.79384 3.753-1.66136 1.955-2.58324 4.458-2.58324 7.425 0 3.629.81719 6.656 3.18643 8.467 2.03571 1.557 4.50725 1.541 5.62075 1.534.0698-.001.1342-.001.1928-.001h100.9649c.957.192 1.974.211 3.015.022l14.008-2.541c.069-.014.141.016.18.074l8.108 11.703c3.181 4.592 9.971 4.592 13.151 0l8.109-11.703c.039-.057.109-.087.178-.074l14.009 2.542c5.496.997 10.297-3.803 9.3-9.3l-2.542-14.008c-.013-.069.017-.141.075-.18l11.702-8.108c4.592-3.182 4.592-9.971 0-13.152l-11.702-8.108c-.058-.04-.087-.111-.074-.18l2.542-14.008c.997-5.4967-3.804-10.2973-9.3-9.2998l-10.266 1.8627c.028-.1767.042-.3578.042-.5422v-15.6814c5.472 2.3787 12.05.7316 15.697-4.2994 4.214-5.8123 2.919-13.9406-2.894-18.155l-77.4995-56.18897c-2.3756-1.722587-5.1513-2.5271948-7.8804-2.47340374zm65.5769 76.41897374-65.5779-47.5449-64.922 47.0701v73.8543h12.5v-57.5003c0-4.8077 2.1919-8.152 4.9902-10.208 2.6427-1.9417 5.7162-2.6761 7.8259-2.7871.0612-.0033.1226-.0049.1839-.0049h25c4.2202 0 7.1826 1.9525 9.0043 4.4226 1.7106 2.3194 2.3731 5.0063 2.4889 6.8591.0046.0727.0068.1455.0068.2183v59.0003h3.5c1.933 0 3.5 1.567 3.5 3.5s-1.567 3.5-3.5 3.5h-69c-.1809 0-.3615-.014-.5403-.042-2.3456-.367-5.7266-.39-8.3367.494-1.2675.43-2.1516 1.004-2.7062 1.657-.5053.594-.91678 1.457-.91678 2.891 0 1.998.33098 2.714.44968 2.901.037.011.098.026.1909.041.3107.05.6855.058 1.3594.058h94.5899c-.076-.736-.051-1.5.09-2.277l2.541-14.008c.013-.07-.016-.141-.074-.181l-11.7032-8.107c-4.5918-3.182-4.5918-9.971 0-13.152l11.7032-8.108c.058-.04.086-.111.074-.18l-2.542-14.008c-.997-5.4969 3.803-10.2975 9.3-9.3001l14.008 2.5419.001.0003c.07.0125.14-.0171.18-.0749l8.108-11.7024c3.181-4.5921 9.971-4.5921 13.152 0l5.072 7.3207zm-27.767 85.9735-13.364 2.425c-.121-.013-.244-.019-.369-.019h-.978c-.33-.207-.532-.6-.454-1.027v-.001l2.534-13.971.006-.035.001-.002c.496-2.732-.629-5.562-2.982-7.188l-11.697-8.103c-.573-.398-.573-1.247 0-1.644l11.697-8.104c2.394-1.654 3.46-4.499 2.986-7.164l-.002-.012-.002-.012-2.542-14.008c-.125-.688.476-1.287 1.162-1.163l14.008 2.542.009.002h.001.001c2.812.507 5.581-.703 7.154-2.948l.01-.015.01-.014 8.108-11.7026v-.0003c.398-.5738 1.246-.5739 1.644 0v.0003l8.102 11.6946c1.599 2.316 4.412 3.491 7.195 2.982l14.003-2.54c.686-.125 1.287.475 1.162 1.162v.001l-2.535 13.971-.006.03c-.498 2.733.625 5.566 2.979 7.194l11.698 8.104c.574.398.574 1.246 0 1.644l-11.697 8.104c-2.293 1.585-3.494 4.387-2.98 7.197l2.54 13.998v.001c.125.687-.476 1.287-1.162 1.162l-13.998-2.54c-2.814-.516-5.616.69-7.198 2.981l-8.104 11.695v.001c-.397.572-1.245.574-1.643-.001l-8.101-11.693c-1.619-2.347-4.449-3.485-7.196-2.984zm-118.2581 2.343c.0118.012.0165.019.0165.019s-.0063-.005-.0165-.019zm70.5252-14.937v-25.5h-9.5c-1.933 0-3.5-1.567-3.5-3.5v-8c0-1.933 1.567-3.5 3.5-3.5h9.5v-18.3741c-.0695-.8183-.4091-2.0723-1.1293-3.0488-.6366-.8632-1.5909-1.5774-3.3707-1.5774h-24.8962c-1.0602.0719-2.6861.4905-3.9689 1.433-1.1601.8524-2.1349 2.1747-2.1349 4.567v57.5003zm80.9999-16c0 9.389-7.611 17-17 17s-17-7.611-17-17 7.611-17 17-17 17 7.611 17 17zm8 0c0 13.807-11.193 25-25 25s-25-11.193-25-25 11.193-25 25-25 25 11.193 25 25z" fill="#000" fill-rule="evenodd"/></svg>