<svg fill="none" height="62" viewBox="0 0 62 62" width="62" xmlns="http://www.w3.org/2000/svg"><g fill="#fff"><path clip-rule="evenodd" d="m14 0c-7.73193 0-14 6.26807-14 14v34c0 7.7319 6.26807 14 14 14h34c7.7319 0 14-6.2681 14-14v-34c0-7.73193-6.2681-14-14-14zm0 6c-3.866 0-7 3.13403-7 7v35c0 3.866 3.134 7 7 7h35c3.866 0 7-3.134 7-7v-35c0-3.86597-3.134-7-7-7z" fill-rule="evenodd"/><path clip-rule="evenodd" d="m31 47c8.8367 0 16-7.1635 16-16s-7.1633-16-16-16-16 7.1635-16 16 7.1633 16 16 16zm0-6c5.5229 0 10-4.4772 10-10s-4.4771-10-10-10-10 4.4772-10 10 4.4771 10 10 10z" fill-rule="evenodd"/><circle cx="47.5" cy="15.5" r="4.5"/></g></svg>