<svg fill="none" height="25" viewBox="0 0 20 25" width="20" xmlns="http://www.w3.org/2000/svg"><path d="m6.23228.00806057c6.14252.25417343 11.64962 6.67203943 13.76772 12.70863943-2.3828 7.6782-12.0203 11.8614-13.76772 11.9673-1.74741.1059-5.08348.3707-5.87777-4.448-.635433-3.855 1.92395-6.9368 3.28307-7.9959-4.130309-3.38893-5.08344-12.549756 2.5947-12.23203943z" fill="#df491d"/><path d="m5.74943.00805664c7.10197 0 12.50307 7.03465336 13.76767 12.70864336-2.3828 7.6782-5.236.5744-6.9835.6803-.4365.0265-.6681.2682-.7824.5409-.2712.6473.1188 1.4692 0 0-.0315-.3895-.0988-.9401-.2237-1.6978-.6354-3.85492-6.83087 1.1569-8.37277 0-4.130313-3.38894-5.09002-12.23204336 2.5947-12.23204336z" fill="#50b7a6"/><path d="m15.446 4.92462c-4.7128.21181-10.09634 5.06581-11.91438 7.51928 3.30425 4.8293 8.93138 7.1486 11.33188 7.5722 1.6415-1.0061 5.1364-5.56 5.1364-7.3604 0-1.0061-2.8594-6.30135-4.5539-7.73108z" fill="#63a531"/><path d="m11.4216 6.03662c-1.398.25417-6.08959 3.9185-7.88998 6.35428 2.38287 3.8126 6.63678 6.0896 8.10178 6.5662-.1412-4.1656-.2118-12.92048-.2118-12.92048z" fill="#d4cc2c"/></svg>