<svg fill="none" height="89" viewBox="0 0 179 89" width="179" xmlns="http://www.w3.org/2000/svg"><g fill="#fff"><path clip-rule="evenodd" d="m22.6587 0h-22.6587v88.3056h23.2867l20.0812-20.3171 19.55 20.3171h23.6936v-88.3056h-23.0823l-20.1613 20.9524zm20.7092 20.9524 20.1613 20.9524h-40.8705z" fill-rule="evenodd"/><path d="m93.082 87.9879v-17.047h6.5022c1.2178 0 2.2728.2435 3.1658.7306.909.4871 1.607 1.1527 2.094 1.9969.504.8443.755 1.8103.755 2.898 0 1.0229-.251 1.9483-.755 2.7763-.487.828-1.185 1.4855-2.094 1.9725-.893.4871-1.948.7306-3.1658.7306h-2.3135v5.9421zm4.1887-9.3028h1.583c.8442 0 1.4693-.2029 1.8753-.6088.422-.4221.633-.9335.633-1.5342 0-.617-.211-1.1284-.633-1.5343-.406-.4058-1.0311-.6088-1.8753-.6088h-1.583z"/><path d="m108.22 87.9879v-17.047h4.189v13.5402h7.695v3.5068z"/><path d="m128.448 88.2558c-1.267 0-2.371-.2598-3.312-.7793-.942-.5195-1.673-1.2501-2.192-2.1917-.52-.9417-.779-2.0457-.779-3.312v-11.0319h4.188v11.0319c0 .763.187 1.38.56 1.8508.374.4546.885.6819 1.535.6819.649 0 1.161-.2273 1.534-.6819.373-.4708.56-1.0878.56-1.8508v-11.0319h4.189v11.0319c0 1.2663-.26 2.3703-.78 3.312-.519.9416-1.25 1.6722-2.191 2.1917-.926.5195-2.03.7793-3.312.7793z"/><path d="m137.254 87.9879v-17.047h6.453c1.169 0 2.208.2273 3.118.6819.909.4546 1.615 1.0878 2.118 1.8995.52.8118.78 1.7534.78 2.825 0 1.0877-.268 2.0456-.804 2.8736-.536.8118-1.258 1.4368-2.167 1.8752l3.604 6.8918h-4.408l-3.069-6.2343h-1.436v6.2343zm4.189-9.5463h1.875c.649 0 1.169-.1867 1.558-.5601.406-.3734.609-.8605.609-1.4612 0-.6169-.203-1.104-.609-1.4612-.389-.3734-.909-.5601-1.558-.5601h-1.875z"/><path d="m150.614 87.9879 4.895-17.047h4.773l4.895 17.047h-4.164l-.853-3.3363h-4.675l-.877 3.3363zm5.723-6.5753h2.995l-1.485-5.8203z"/><path d="m167.116 87.9879v-17.047h4.189v13.5402h7.695v3.5068z"/><path d="m92.7527 68.9292v-16.9412h4.5741l4.0022 7.2 3.335-7.2h4.606v16.9412h-4.606v-7.9412l-2.309 3.8118h-1.026-1.231l-2.7712-3.8118-.0318 7.9412z"/><path d="m111.176 68.9291 4.895-17.047h4.773l4.895 17.047h-4.164l-.852-3.3364h-4.676l-.877 3.3364zm5.723-6.5753h2.996l-1.486-5.8203z"/><path d="m126.211 68.9291 5.115-8.8888-4.701-8.1582h4.506l2.459 4.5053 2.484-4.5053h4.335l-4.724 8.1825 5.138 8.8645h-4.529l-2.874-5.2115-2.874 5.2115z"/></g></svg>