<svg fill="none" height="64" viewBox="0 0 51 64" width="51" xmlns="http://www.w3.org/2000/svg"><path d="m10.7911 49.7301c-.7383 3.0102-.1656 10.7675.213 14.2699 2.6126-2.0445 5.5376-7.7148 6.6735-10.2944l2.9817-11.0751c1.2306 1.7039 4.9128 4.9838 9.7973 4.4727 15.4483-1.4199 19.4997-16.3049 19.5944-23.5699.9229-9.9395-8.0224-24.325278-25.203-23.4992553-22.53329 1.0833753-24.848 18.8135553-24.848 23.9251553s2.41381 10.2942 4.82761 12.708c2.41381 2.4138 3.54972 2.4138 3.83369 2.4138.28398 0 .56796-.355 1.06492-2.7688.68158-2.3854.61528-3.171.49698-3.2657-1.13593-1.0886-3.35095-4.5152-3.12377-9.5132 1.06491-13.205 11.00407-16.61271 17.74857-16.61271s16.2577 3.76271 16.2577 15.90271-6.3895 17.8906-12.211 17.8906c-4.6572 0-5.9635-3.6444-6.0345-5.4666 0-2.4138 3.5497-11.5721 3.4077-14.2698l-.0013-.0255c-.0795-1.5128-.3083-5.8671-4.8263-5.8671-4.5437 0-7.0285 5.1116-7.0995 8.4484-.0709 3.3367.5207 5.9161 1.136 6.9574-1.2543 5.1589-3.9473 16.2293-4.6857 19.2394z" fill="#000"/></svg>