<svg fill="none" height="206" viewBox="0 0 124 206" width="124" xmlns="http://www.w3.org/2000/svg"><path clip-rule="evenodd" d="m11 8h102c1.657 0 3 1.34314 3 3 0 1.6569-1.343 3-3 3h-102c-1.65685 0-3-1.3431-3-3 0-1.65685 1.34315-3 3-3zm-11 3c0-6.07513 4.92487-11 11-11h102c6.075 0 11 4.92487 11 11 0 4.664-2.903 8.65-7 10.2501v57.7499c0 6.0751-4.925 11-11 11h-3v6h4.5c.173 0 .346.0112.517.0336 2.692.351 6.208 1.788 9.084 3.9639 2.85 2.1565 5.899 5.6955 5.899 10.5025 0 1.932-.847 3.554-1.488 4.511-.205.308-.427.602-.657.876-.975 10.012-4.796 24.124-13.41 36.077-5.057 7.017-11.7677 13.276-20.445 17.493v32.543c0 2.209-1.7909 4-4 4h-42c-2.2091 0-4-1.791-4-4v-32.109c-12.1959-5.673-20.3675-15.337-25.6088-25.406-5.03793-9.679-7.46729-19.904-8.20615-27.827-.49588-.398-.92341-.863-1.27448-1.364-1.012452-1.447-1.41057-3.176-1.41057-4.794 0-4.135 2.56562-7.768 5.32089-10.15 2.8144-2.4345 6.70751-4.35 10.67911-4.35h4.5v-6h-3c-6.0751 0-11-4.9249-11-11v-57.7499c-4.09736-1.6001-7-5.5861-7-10.2501zm29 79h66v5h-66zm77-8h-3-82-3c-1.6569 0-3-1.3431-3-3v-56h94v56c0 1.6569-1.343 3-3 3zm-87.5126 58.791c-4.074-7.827-6.243-16.1-7.105-22.791h101.1556c-1.272 8.626-4.75 19.806-11.583 29.286-7.9107 10.977-20.3091 19.714-39.455 19.714-7.3612 0-13.6443-1.29-19.0081-3.446-11.3766-4.573-19.0426-13.231-24.0045-22.763zm93.7866-34.414c1.678 1.27 2.492 2.533 2.682 3.623h-106.39483c.20428-.912.93948-2.256 2.49293-3.6 1.8106-1.565 3.9175-2.4 5.4459-2.4h90.698c1.191.214 3.275 1.015 5.076 2.377zm-67.274 91.623v-25.161c4.9895 1.395 10.4789 2.161 16.5 2.161 6.4474 0 12.265-.877 17.5-2.438v25.438zm-17-160c1.6569 0 3-1.3431 3-3s-1.3431-3-3-3-3 1.3431-3 3 1.3431 3 3 3zm10.2501 1c-1.6001 4.0974-5.5861 7-10.2501 7-6.0751 0-11-4.9249-11-11s4.9249-11 11-11c4.664 0 8.65 2.9026 10.2501 7h10.7499c2.2091 0 4 1.7909 4 4s-1.7909 4-4 4z" fill="#000" fill-rule="evenodd"/></svg>