<svg fill="none" height="53" viewBox="0 0 64 53" width="64" xmlns="http://www.w3.org/2000/svg"><path d="m2.52536 9.09132c0-3.40564 1.25066-5.89252 1.87599-6.71026 9.06245 11.14044 21.95865 13.87754 27.27395 13.85344-.1443-.6494-.4329-2.1357-.4329-2.8861 0-8.58628 6.5659-13.3484 13.0597-13.3484 5.1951 0 8.6103 2.74183 9.6686 4.11274 1.9722-.43292 6.4072-1.65953 8.3698-3.10259-1.4431 3.92514-4.4495 6.44569-5.7723 7.21533 3.3912-.43292 4.5457-.86584 7.4318-2.02029-1.7317 3.00158-5.0507 5.72421-6.4938 6.71021 0 5.4115-.5051 17.9662-10.823 28.4285-10.3179 10.4622-23.5941 10.823-26.2638 10.823s-11.47239-.0722-20.4194-5.9166c9.35107 1.1544 16.6915-3.1748 19.1928-5.4837-7.7926-.404-11.32809-6.2773-12.12177-9.1634.86584.3367 3.24687.7648 5.84437-.2165-9.45205-2.5975-10.6065-10.6065-10.39004-13.0598 1.50079 1.0968 4.56971 1.6115 5.91657 1.7317-3.3912-2.5253-5.91657-6.7102-5.91657-10.96728z" fill="#000"/></svg>