<svg fill="none" height="45" viewBox="0 0 64 45" width="64" xmlns="http://www.w3.org/2000/svg"><path clip-rule="evenodd" d="m1.33145 7.12726c-1.2591935 4.86704-1.2864482 12.23924-1.2864482 14.76354 0 .1974-.0058865.4933-.0134016.8711-.0764659 3.8444-.3215352 16.1652 3.7502398 19.3446 2.70191 2.7019 17.09316 2.6625 25.92166 2.6383.7795-.0022 1.5156-.0042 2.1965-.0042v.1838c11.1492 0 25.7189-.1225 28.0569-2.7567 3.3692-3.1242 4.0431-10.7816 4.0431-20.3994 0-3.5462 0-16.23379-3.9206-18.99047-.9031-1.02466-2.7417-1.64558-5.1458-2.021904-5.3556-.8382958-16.8803-.7696687-21.5938-.7416007-.6342.0037764-1.1451.0068186-1.5011.0068189-2.3994 0-16.7851-.0000016-24.01373.7963838-2.07473.346432-3.75431 1.657892-4.22691 2.082822-.70438.63332-1.75691 2.25684-2.26661 4.22691zm22.80485 4.26704v20.7057l19.8481-10.4141z" fill="#fff" fill-rule="evenodd"/></svg>