<svg fill="none" height="64" viewBox="0 0 64 64" width="64" xmlns="http://www.w3.org/2000/svg"><g fill="#fff"><path d="m34.6667 21.3333v5.3334c0-1.3334 1.2085-2.8174 2.6666-4 0 0 5.1589-2.6667 10.6667-2.6667s11.4014 1.8834 13.3333 5.3333c1.826 3.2607 2.6667 9.5313 2.6667 12v26.6667h-13.3333v-17.3333c0-1.5313-.3593-10.2607-1.3334-12-.868-1.5501-2.0411-2.6667-4-2.6667h-2.6666c-1.4728 0-2.8357.169-4 1.3333-.3145.3145-.8985 1.5866-1.3334 2.6667-.9915 2.4629-1.3333 5.3333-1.3333 6.6667v21.3333h-12v-42.6667h5.3333z"/><circle cx="8" cy="8" r="8"/><path clip-rule="evenodd" d="m1.33337 64v-42.6666h13.33333v42.6666z" fill-rule="evenodd"/></g></svg>