<svg fill="none" height="18" viewBox="0 0 12 18" width="12" xmlns="http://www.w3.org/2000/svg"><path clip-rule="evenodd" d="m11.8625 5.93126c0 .02676-.0002.05347-.0005.08015.0007.06378-.0011.13562-.0067.21553-.0298.60706-.5856 3.29108-1.3553 5.27306-.70104 1.8052-1.85889 3.5813-2.63846 4.7772-.26206.402-.48136.7384-.6262.9883-.57571.9933-1.99917.9749-2.55511-.0296-.14989-.2708-.38016-.64-.65544-1.0814-.74572-1.1957-1.82172-2.9209-2.52479-4.6545-.741557-1.82845-1.379193-4.21723-1.4554649-4.83827-.04634607-.22955-.04507173-.41573-.04408549-.55981.00022092-.03228.00042739-.06244.00008089-.09051-.00035329-.02668-.0005305-.05339-.0005305-.08015 0-3.27575 2.65551-5.93126 5.93126-5.93126 3.27574 0 5.93124 2.65551 5.93124 5.93126zm-5.8625-2.43128c-1.10457 0-2 .89543-2 2s.89543 2 2 2 2-.89543 2-2-.89543-2-2-2z" fill="#6b6b6b" fill-rule="evenodd"/></svg>