<svg fill="none" height="98" viewBox="0 0 96 98" width="96" xmlns="http://www.w3.org/2000/svg" xmlns:xlink="http://www.w3.org/1999/xlink"><mask id="a" fill="#000" height="98" maskUnits="userSpaceOnUse" width="96" x="0" y="0"><path d="m0 0h96v98h-96z" fill="#fff"/><path clip-rule="evenodd" d="m60.4298 69.1152c-6.1589 4.4157-13.7082 7.0152-21.8646 7.0152-20.7467 0-37.5652-16.8185-37.5652-37.5652s16.8185-37.5652 37.5652-37.5652 37.5652 16.8185 37.5652 37.5652c0 9.5795-3.5856 18.3214-9.488 24.957l26.3525 26.3525c1.63 1.63 1.63 4.2728 0 5.9028s-4.2728 1.63-5.9028 0zm8.0788-30.55c0 16.5372-13.4061 29.9433-29.9433 29.9433-16.5373 0-29.94332-13.4061-29.94332-29.9433s13.40602-29.94327 29.94332-29.94327c16.5372 0 29.9433 13.40607 29.9433 29.94327z" fill="#000" fill-rule="evenodd"/></mask><g fill="#fff"><path clip-rule="evenodd" d="m60.4298 69.1152c-6.1589 4.4157-13.7082 7.0152-21.8646 7.0152-20.7467 0-37.5652-16.8185-37.5652-37.5652s16.8185-37.5652 37.5652-37.5652 37.5652 16.8185 37.5652 37.5652c0 9.5795-3.5856 18.3214-9.488 24.957l26.3525 26.3525c1.63 1.63 1.63 4.2728 0 5.9028s-4.2728 1.63-5.9028 0zm8.0788-30.55c0 16.5372-13.4061 29.9433-29.9433 29.9433-16.5373 0-29.94332-13.4061-29.94332-29.9433s13.40602-29.94327 29.94332-29.94327c16.5372 0 29.9433 13.40607 29.9433 29.94327z" fill-rule="evenodd"/><path d="m60.4298 69.1152.7071-.7071-.6001-.6001-.6897.4945zm6.2126-5.593-.7472-.6647-.6269.7048.667.667zm26.3525 26.3525-.7071.7071zm-54.4297-12.7443c8.3723 0 16.1242-2.669 22.4473-7.2025l-1.1654-1.6254c-5.9946 4.298-13.3413 6.8279-21.2819 6.8279zm-38.5652-38.5652c0 21.299 17.2662 38.5652 38.5652 38.5652v-2c-20.1944 0-36.5652-16.3708-36.5652-36.5652zm38.5652-38.5652c-21.299 0-38.5652 17.2662-38.5652 38.5652h2c0-20.1944 16.3708-36.5652 36.5652-36.5652zm38.5652 38.5652c0-21.299-17.2662-38.5652-38.5652-38.5652v2c20.1944 0 36.5652 16.3708 36.5652 36.5652zm-9.7409 25.6216c6.059-6.8116 9.7409-15.7878 9.7409-25.6216h-2c0 9.3251-3.4894 17.8328-9.2352 24.2923zm-1.4542.0425 26.3525 26.3525 1.4142-1.4142-26.3525-26.3525zm26.3525 26.3525c1.2395 1.2395 1.2395 3.2491 0 4.4886l1.4142 1.4142c2.0205-2.0205 2.0205-5.2965 0-7.317zm0 4.4886c-1.2395 1.2395-3.2491 1.2395-4.4886 0l-1.4142 1.4142c2.0205 2.0205 5.2965 2.0205 7.317 0zm-4.4886 0-26.6623-26.6623-1.4142 1.4142 26.6623 26.6623zm-49.2339-25.5619c17.0895 0 30.9433-13.8538 30.9433-30.9433h-2c0 15.985-12.9584 28.9433-28.9433 28.9433zm-30.94332-30.9433c0 17.0895 13.85382 30.9433 30.94332 30.9433v-2c-15.985 0-28.94332-12.9583-28.94332-28.9433zm30.94332-30.94327c-17.0895 0-30.94332 13.85377-30.94332 30.94327h2c0-15.9849 12.95832-28.94327 28.94332-28.94327zm30.9433 30.94327c0-17.0895-13.8538-30.94327-30.9433-30.94327v2c15.9849 0 28.9433 12.95837 28.9433 28.94327z" mask="url(#a)"/></g></svg>