<svg fill="none" height="168" viewBox="0 0 168 168" width="168" xmlns="http://www.w3.org/2000/svg"><path clip-rule="evenodd" d="m108.341 15.7975c-8.114-6.69476-17.8903-8.86068-24.3115-8.79765l-.0295.00015c-18.6599 0-28.7109 7.3741-34.0045 16.1717-4.9784 8.274-5.9762 18.1978-5.264 25.4671 1.1259.0111 2.2201.0918 3.256.2219.2624-5.8491 1.852-13.1711 5.937-19.5425 5.1573-8.0437 14.1485-14.3182 28.5755-14.3182 14.4095 0 23.833 6.2502 29.6 14.1716 4.723 6.4857 6.936 13.993 7.646 19.9117 1.014-.083 2.084-.117 3.183-.086-.737-16.718-7.078-27.0029-14.588-33.1998zm20.624 34.0843c-.558-18.9109-7.68-31.182-16.806-38.7122-9.38-7.74022-20.595-10.240574-28.1735-10.169603-20.5313.003913-32.6428 8.295113-39.131 19.078303-5.8267 9.6836-6.903 21.0103-6.0861 29.2254-.9018.2249-1.7951.5134-2.6672.8749-2.7789 1.152-5.3633 3.0596-7.2288 6.0027-1.8573 2.9301-2.8724 6.6808-2.8724 11.3186 0 4.6745 1.0949 8.4536 3.0862 11.3945 1.9924 2.9426 4.7313 4.8231 7.6409 5.9523 4.4059 1.7099 9.3368 1.7591 13.3135 1.1902 1.2298 4.9779 4.237 9.3 7.4557 12.7004 3.3091 3.4957 7.0603 6.2517 10.0037 8.0117v5.251h-18.5c-15.0975 0-27.0496 9.073-35.1796 19.814-8.10752 10.713-12.86333 23.651-13.316499 32.533-.041893.821.255046 1.624.821409 2.22.56636.596 1.35251.933 2.17469.933h66c1.6569 0 3-1.343 3-3s-1.3431-3-3-3h-62.65693c1.1945-7.374 5.21853-17.42 11.76153-26.065 7.187-9.495 17.0008-16.781 28.7861-17.393l18.0872 28.082c.4986.775 1.3251 1.277 2.2418 1.363.9168.086 1.8223-.254 2.4562-.922l13.3584-14.074 13.8228 14.108c.6476.661 1.5639.987 2.4831.882.9198-.105 1.7388-.629 2.2208-1.418l17.097-28.021c18.875.961 40.64 18.132 42.247 43.458h-66.405c-1.6568 0-3 1.343-3 3s1.3432 3 3 3h69.5c.796 0 1.559-.316 2.121-.879.563-.562.879-1.325.879-2.121 0-31.275-26.964-52.5-50-52.5h-18.5v-5.142c2.931-1.55 6.404-3.831 9.616-6.643 3.845-3.3671 7.562-7.7095 9.34-12.7098.189-.533.357-1.075.501-1.6254 3.825.3525 8.559.0829 12.777-1.7054 2.77-1.1748 5.384-3.0364 7.291-5.859 1.912-2.8295 2.975-6.4197 2.975-10.8155 0-5.7816-1.771-10.1236-4.748-13.1637-2.249-2.2961-5.014-3.6744-7.787-4.4544zm-9.877 30.0314c3.079.2741 6.747.033 9.803-1.2628 1.917-.8127 3.523-2.0073 4.662-3.6941 1.135-1.6798 1.947-4.0522 1.947-7.4564 0-4.4873-1.335-7.2293-3.035-8.9656-1.757-1.7936-4.214-2.8284-6.953-3.2805-1.922-.317-3.872-.3273-5.597-.1622zm-5.09-27.4173c-.171-5.2859-1.973-13.234-6.748-19.7926-4.699-6.4535-12.3595-11.7033-24.75-11.7033-12.3729 0-19.4651 5.2254-23.5245 11.5567-3.7317 5.8202-5.0141 12.7799-5.0285 17.9744 3.5984 1.5029 8.691 3.0183 13.8217 3.3501 6.0145.3891 11.4626-.867 14.9792-4.8631l.0099-.0112c3.2399-3.6449 5.6014-5.7197 7.3721-6.704.8223-.4571 2.0154-.9668 3.3278-.7649.7431.1143 1.4948.4582 2.0847 1.0903.5673.6077.8212 1.3049.9168 1.8785.0186.1116.0309.2241.0367.337.0839 1.6093.9965 4.2208 3.7371 6.1555 2.447 1.7277 6.675 3.1346 13.736 2.3721zm-.23 6.9235c-7.654.6804-13.181-.8253-16.9957-3.5185-2.8525-2.0138-4.5806-4.5787-5.4836-7.0334-.9815.8606-2.3072 2.1692-4.0411 4.1196-5.2834 5.9995-12.9995 7.3258-19.8662 6.8816-4.7466-.307-9.3838-1.4692-13.1493-2.802l1.2623 25.2457c.3378 4.4051 2.899 8.6446 6.3593 12.3002 3.4392 3.6333 7.4671 6.3684 10.05 7.7364.0893.047.1763.099.2604.155 9.4065 6.271 18.6886 2.606 22.0359.096.1678-.126.3483-.234.5386-.322 2.714-1.258 6.4864-3.567 9.9244-6.577 2.174-1.9034 4.117-4.0024 5.583-6.201h-15.3586c-.7406 2.0795-2.0569 3.7363-3.7141 4.9279-2.2529 1.6199-5.0068 2.2984-7.5937 2.2592-2.5798-.039-5.2536-.7957-7.36-2.3701-2.1746-1.6253-3.7196-4.1291-3.7196-7.317 0-3.2115 1.5695-5.675 3.7851-7.2396 2.1228-1.4991 4.7836-2.1595 7.2945-2.1976 2.5187-.0381 5.189.544 7.3947 1.8779 1.5561.9411 2.9242 2.2948 3.75 4.0593h18.1217c.073-.3905.126-.7803.158-1.1691zm-24.3001 27.1448c-.1834-.7748-.6907-1.4404-1.5985-1.9893-1.0755-.6504-2.5927-1.0371-4.1989-1.0128-1.6142.0245-3.0159.4578-3.9243 1.0994-.8157.576-1.2462 1.3-1.2462 2.3385 0 1.0621.455 1.8708 1.3117 2.5111.9248.6912 2.3135 1.1533 3.8588 1.1767 1.5381.0233 2.9717-.3919 4-1.1313.8862-.6373 1.5701-1.5754 1.7974-2.9923zm-40.0931-6.4929-1.2565-25.1308c-3.0409-.5029-6.7086-.4674-9.7195.7808-1.8044.748-3.3451 1.9154-4.4587 3.6723-1.1219 1.7699-1.9401 4.3442-1.9401 8.1063 0 3.7256.8634 6.2715 2.0545 8.0306 1.1899 1.7574 2.8572 2.9518 4.8434 3.7227 3.2583 1.2645 7.1999 1.3109 10.4769.8181zm43.9114-32.6396c-.0004.0009-.0132.0063-.0376.0135.0257-.0107.0379-.0143.0376-.0135zm-.2862 62.6093v3.762l-9.5423 10.053-9.9577-10.087v-3.754c7.4834 3.146 14.5729 2.029 19.5.026zm-23.754 7.959h-14.7454l13.9532 21.664 10.8712-11.453zm18.4216 10.137 11.2786 11.511 13.2088-21.648h-14.8663zm-9.6676 36.363c0-1.657 1.3432-3 3-3h5c1.6569 0 3 1.343 3 3s-1.3431 3-3 3h-5c-1.6568 0-3-1.343-3-3z" fill="#000" fill-rule="evenodd"/></svg>