<svg fill="none" height="129" viewBox="0 0 530 129" width="530" xmlns="http://www.w3.org/2000/svg"><g fill="#fff"><g clip-rule="evenodd" fill-rule="evenodd"><path d="m237 3.5c0-1.38071 1.119-2.5 2.5-2.5h30.5c1.381 0 2.5 1.11929 2.5 2.5s-1.119 2.5-2.5 2.5h-28v28.5c0 1.3807-1.119 2.5-2.5 2.5s-2.5-1.1193-2.5-2.5z"/><path d="m237 118.5c0 1.381 1.119 2.5 2.5 2.5h30.5c1.381 0 2.5-1.119 2.5-2.5s-1.119-2.5-2.5-2.5h-28v-28.5c0-1.3807-1.119-2.5-2.5-2.5s-2.5 1.1193-2.5 2.5z"/><path d="m527.25 120.75c1.381 0 2.5-1.119 2.5-2.5v-30.5c0-1.3807-1.119-2.5-2.5-2.5s-2.5 1.1193-2.5 2.5v28h-28.5c-1.381 0-2.5 1.119-2.5 2.5s1.119 2.5 2.5 2.5z"/><path d="m529.5 3.25c0-1.38071-1.119-2.5-2.5-2.5l-30.5.000003c-1.381 0-2.5 1.119287-2.5 2.499997 0 1.38072 1.119 2.5 2.5 2.5h28v28.5c0 1.3807 1.119 2.5 2.5 2.5s2.5-1.1193 2.5-2.5z"/></g><path d="m204.825 17.7632-15.476 28.7765-14.271-28.7619-.138-.2778h-.31-15.63-.5v.5 12.1428.122l.056.1083 15.123 29.1422-9.972 20.7932-5.04 10.509-.049.1026v.1137 11.9662.5h.5 13.927.301l.141-.265 15.319-28.8034 15.491 28.8054.142.263h.298 17.263.5v-.5-12.6286-.1338l-.067-.116-18.064-31.3176 18.061-30.3483.07-.1182v-.1375-10.2-.5h-.5-16.734-.299z" stroke="#fff"/><path d="m162.177 103.5h.675l-.197-.646-25.677-84.0002-.108-.3538h-.37-29.191-.38l-.102.3663-23.3088 83.9997-.1758.634h.6576 20.926.369l.109-.352 6.082-19.648h21.946l6.713 19.662.116.338h.358zm-47.503-36.8909 7.212-28.4851 7.967 28.4851z" stroke="#fff"/><path d="m61 16.5h-.3357l-.1271.3107-16.6762 40.7737-16.6884-40.7738-.1271-.3106h-.3356-25.7099-.5v.5 86 .5h.5 19.5.5v-.5-53.6391l16.8659 38.0323.1318.2973h.3252 11.0765.3196l.1342-.29 17.6468-38.1297v53.7292.5h.5 19.5.5v-.5-86-.5h-.5z" stroke="#fff"/><path d="m291.424 115.126c0 .48-.102.918-.306 1.314-.192.384-.498.714-.918.99.72.24 1.284.618 1.692 1.134s.612 1.17.612 1.962c0 .504-.09.978-.27 1.422s-.456.834-.828 1.17-.834.606-1.386.81c-.552.192-1.2.288-1.944.288-.66 0-1.302-.024-1.926-.072-.624-.036-1.146-.084-1.566-.144v-11.88c.132-.012.318-.018.558-.018.24-.012.498-.024.774-.036s.552-.018.828-.018c.276-.012.522-.018.738-.018 1.272 0 2.244.264 2.916.792.684.516 1.026 1.284 1.026 2.304zm-3.438 3.276c-.228 0-.456.006-.684.018-.228 0-.444.006-.648.018v4.014c.216.024.438.036.666.036h.702c.732 0 1.302-.18 1.71-.54s.612-.882.612-1.566c0-.612-.186-1.092-.558-1.44-.372-.36-.972-.54-1.8-.54zm-.162-4.68c-.24 0-.456.012-.648.036-.18.012-.354.03-.522.054v3.078c.144.012.288.018.432.018h.468c.528 0 .942-.174 1.242-.522.3-.36.45-.828.45-1.404 0-.36-.126-.66-.378-.9-.24-.24-.588-.36-1.044-.36zm24.72-1.692c.936 0 1.764.162 2.484.486s1.326.768 1.818 1.332c.492.552.864 1.194 1.116 1.926s.378 1.5.378 2.304c0 .792-.126 1.56-.378 2.304-.24.732-.612 1.386-1.116 1.962-.492.564-1.11 1.02-1.854 1.368-.732.336-1.59.504-2.574.504-.96 0-1.794-.162-2.502-.486s-1.296-.762-1.764-1.314-.822-1.188-1.062-1.908c-.228-.732-.342-1.5-.342-2.304 0-.852.126-1.65.378-2.394.264-.756.642-1.41 1.134-1.962.492-.564 1.098-1.008 1.818-1.332s1.542-.486 2.466-.486zm-.09 10.422c.66 0 1.218-.108 1.674-.324.468-.228.852-.534 1.152-.918.3-.396.516-.858.648-1.386.144-.528.216-1.092.216-1.692 0-.648-.072-1.236-.216-1.764s-.366-.984-.666-1.368-.684-.678-1.152-.882c-.456-.216-.996-.324-1.62-.324-.636 0-1.182.108-1.638.324-.444.204-.81.492-1.098.864-.276.372-.48.816-.612 1.332-.12.516-.18 1.086-.18 1.71 0 1.464.3 2.568.9 3.312s1.464 1.116 2.592 1.116zm22.899-3.06c0 1.092.252 1.878.756 2.358.504.468 1.206.702 2.106.702s1.602-.234 2.106-.702c.516-.48.774-1.266.774-2.358v-7.272h1.98v7.704c0 .588-.096 1.146-.288 1.674s-.492.996-.9 1.404c-.396.396-.912.714-1.548.954-.624.228-1.368.342-2.232.342s-1.602-.114-2.214-.342c-.612-.24-1.116-.558-1.512-.954-.384-.408-.666-.876-.846-1.404-.168-.528-.252-1.086-.252-1.674v-7.704h2.07zm25.417 2.808h4.95v1.8h-7.02v-11.88h2.07zm25.148-3.6h-3.6v3.6h5.166v1.8h-7.236v-11.88h6.876v1.8h-4.806v2.88h3.6zm14.657-6.48h2.25l3.78 9.36 3.42-9.36h2.16l-4.752 11.88h-1.638zm35.111 11.88h-2.25l-1.35-3.456h-4.482l-1.224 3.456h-2.16l4.608-11.88h1.782zm-7.506-5.076h3.258l-1.71-4.374zm24.407 0c-.132 0-.27 0-.414 0-.132 0-.276-.006-.432-.018v5.094h-2.07v-11.88c.192-.012.408-.024.648-.036.252-.012.504-.018.756-.018.252-.012.486-.018.702-.018.228-.012.408-.018.54-.018 1.536 0 2.706.294 3.51.882.804.576 1.206 1.422 1.206 2.538 0 .708-.174 1.344-.522 1.908s-.93.984-1.746 1.26l4.356 5.382h-2.394zm-.09-5.166c-.096 0-.21 0-.342 0s-.27.006-.414.018v3.42h1.116c.648 0 1.14-.162 1.476-.486s.504-.786.504-1.386c0-.54-.168-.936-.504-1.188-.324-.252-.936-.378-1.836-.378zm20.69-1.638c.156-.012.402-.024.738-.036s.69-.018 1.062-.018c.372-.012.726-.018 1.062-.018.348-.012.618-.018.81-.018 1.164 0 2.118.12 2.862.36.756.24 1.38.57 1.872.99.636.552 1.098 1.254 1.386 2.106s.432 1.794.432 2.826c0 .78-.102 1.53-.306 2.25-.192.708-.546 1.332-1.062 1.872-.504.54-1.206.972-2.106 1.296-.888.312-2.028.468-3.42.468-.504 0-1.044-.018-1.62-.054s-1.146-.084-1.71-.144zm3.834 10.368c1.452 0 2.508-.348 3.168-1.044.672-.696 1.008-1.83 1.008-3.402 0-.708-.072-1.326-.216-1.854-.132-.54-.366-.99-.702-1.35s-.786-.63-1.35-.81-1.266-.27-2.106-.27c-.168 0-.396 0-.684 0-.276 0-.57.006-.882.018v8.64c.336.024.66.042.972.054s.576.018.792.018z"/><path d="m291.118 116.44-.445-.229-.002.005zm-.918.99-.275-.418-.861.566.978.326zm1.692 1.134.392-.31zm-.486 4.554-.335-.371zm-1.386.81.164.472.009-.003zm-3.87.216.038-.499h-.009zm-1.566-.144h-.5v.434l.429.061zm0-11.88-.045-.498-.455.041v.457zm.558-.018v.5h.012l.013-.001zm.774-.036-.022-.5zm.828-.018v.5h.011.011zm3.654.774-.309.393.008.006zm-3.096 5.598v.5h.013l.013-.001zm-.648.018-.029-.499-.471.028v.471zm0 4.014h-.5v.448l.445.049zm3.132-3.51-.348.359.006.006zm-2.61-5.184.033.499.015-.001.014-.002zm-.522.054-.071-.495-.429.061v.434zm0 3.078h-.5v.46l.458.038zm2.142-.504.379.327.005-.007zm.072-2.304-.354.354.009.008zm2.056 1.044c0 .407-.086.765-.25 1.085l.888.458c.244-.472.362-.99.362-1.543zm-.253 1.09c-.147.293-.387.56-.746.796l.55.836c.481-.316.853-.709 1.09-1.184zm-.629 1.688c.642.214 1.119.542 1.458.97l.784-.62c-.477-.604-1.128-1.032-1.926-1.298zm1.458.97c.325.411.504.949.504 1.652h1c0-.881-.229-1.651-.72-2.272zm.504 1.652c0 .443-.079.853-.233 1.234l.926.376c.206-.507.307-1.045.307-1.61zm-.233 1.234c-.151.371-.382.699-.7.987l.67.742c.426-.384.747-.836.956-1.353zm-.7.987c-.317.287-.722.526-1.224.712l.346.938c.602-.222 1.121-.523 1.548-.908zm-1.215.709c-.487.169-1.077.26-1.78.26v1c.785 0 1.491-.101 2.108-.316zm-1.78.26c-.648 0-1.277-.024-1.888-.071l-.076.998c.637.049 1.292.073 1.964.073zm-1.897-.071c-.616-.036-1.123-.083-1.524-.14l-.142.99c.439.063.976.112 1.608.148zm-1.095.355v-11.88h-1v11.88zm-.455-11.382c.11-.01.278-.016.513-.016v-1c-.245 0-.449.006-.603.02zm.538-.017c.239-.012.496-.024.771-.035l-.044-1c-.277.013-.536.025-.777.037zm.771-.035c.268-.012.537-.018.806-.018v-1c-.283 0-.566.006-.85.018zm.828-.018c.27-.012.509-.018.716-.018v-1c-.225 0-.478.006-.76.018zm.716-.018c1.212 0 2.057.253 2.607.685l.618-.786c-.794-.624-1.893-.899-3.225-.899zm2.615.691c.534.403.827 1.008.827 1.905h1c0-1.143-.391-2.074-1.225-2.703zm-2.111 4.681c-.237 0-.474.006-.71.019l.052.998c.22-.011.439-.017.658-.017zm-.684.018c-.237 0-.463.006-.677.019l.058.998c.194-.011.4-.017.619-.017zm-1.148.518v4.014h1v-4.014zm.445 4.511c.235.026.475.039.721.039v-1c-.21 0-.414-.011-.611-.033zm.721.039h.001.002.001.001.002.001.001.002.001.001.002.001.001.002.001.001.002.001.001.002.001.001.002.001.001.002.001.001.002.001.001.002.001.002.001.001.002.001.001.002.001.001.002.001.001.002.001.001.002.001.001.002.001.001.002.001.001.002.001.001.002.001.001.002.001.001.002.001.002.001.001.002.001.001.002.001.001.002.001.001.002.001.001.002.001.001.002.001.001.002.001.001.002.001.002.001.001.002.001.001.002.001.001.002.001.001.002.001.001.002.001.001.002.001.002.001.001.002.001.001.002.001.001.002.001.001.002.001.001.002.001.002.001.001.002.001.001.002.001.001.002.001.001.002.001.002.001.001.002.001.001.002.001.001.002.001.001.002.001.002.001.001.002.001.001.002.001.001.002.001.001.002.001.002.001.001.002.001.001.002.001.001.002.001.001.002.001.002.001.001.002.001.001.002.001.001.002.001.002.001.001.002.001.001.002.001.001.002.001.002.001.001.002.001.001.002.001.001.002.001.002.001.001.002.001.001.002.001.002.001.001.002.001.001.002.001.001.002.001.002.001.001.002.001.001.002.001.002.001.001.002.001.001.002.001.002.001.001.002.001.001.002.001.001.002.001.002.001.001.002.001.001.002.001.002.001.001.002.001.001.002.001.002.001.001.002.001.001.002.001.002.001.001.002.001.001.002.001.002.001.001.002.001.001.002.001.002.001.001.002.001.001.002.001.002.001.001.002.001.002.001.001.002.001.001.002.001.002.001.001.002.001.001.002.001.002.001.001.002.001.002.001.001.002.001.001.002.001.002.001.001.002.001.002.001.001.002.001.001.002.001.002.001.001.002.001.002.001.001.002.001.001.002.001.002.001.001.002.001.002.001.001.002.001.002.001.001.002.001.001.002.001.002.001.001.002.001.002.001.001.002.001.002.001.001.002.001.001.002.001.002.001.001.002.001.002.001.001.002.001.002.001.001.002.001.002.001.001.002.001.002.001.001.002.001.002.001.001.002.001.002.001.001.002.001.001.002.001.002.001.001.002.001.002.001.001.002.001.002.001.001.002.001.002.001.001.002.001.002.001.001.002.001.002.001.001.002.001.002.001.001.002.001.002.001.001.002.001.002.001.001.002.001.002.001.002.001.001.002.001.002.001.001.002.001.002.001.001.002.001.002.001v-1h-.001c-.001 0-.001 0-.002 0h-.001c-.001 0-.001 0-.002 0h-.001-.001c-.001 0-.001 0-.002 0h-.001c-.001 0-.001 0-.002 0h-.001c-.001 0-.001 0-.001 0-.001 0-.001 0-.002 0h-.001c-.001 0-.001 0-.002 0h-.001c-.001 0-.001 0-.001 0-.001 0-.001 0-.002 0h-.001c-.001 0-.001 0-.002 0h-.001c-.001 0-.001 0-.002 0 0 0 0 0-.001 0h-.001c-.001 0-.001 0-.002 0h-.001c-.001 0-.001 0-.002 0 0 0 0 0-.001 0h-.001c-.001 0-.001 0-.002 0h-.001c-.001 0-.001 0-.002 0 0 0 0 0-.001 0h-.001c-.001 0-.001 0-.002 0h-.001c-.001 0-.001 0-.002 0 0 0 0 0-.001 0h-.001c-.001 0-.001 0-.002 0h-.001c-.001 0-.001 0-.002 0 0 0 0 0-.001 0h-.001c-.001 0-.001 0-.002 0h-.001c-.001 0-.001 0-.002 0 0 0 0 0-.001 0h-.001c-.001 0-.001 0-.002 0h-.001c-.001 0-.001 0-.002 0 0 0 0 0-.001 0h-.001c-.001 0-.001 0-.002 0h-.001c-.001 0-.001 0-.002 0 0 0 0 0-.001 0h-.001c-.001 0-.001 0-.002 0h-.001c-.001 0-.001 0-.002 0 0 0 0 0-.001 0h-.001c-.001 0-.001 0-.002 0h-.001c-.001 0-.001 0-.002 0 0 0 0 0-.001 0h-.001c-.001 0-.001 0-.002 0h-.001c-.001 0-.001 0-.001 0-.001 0-.001 0-.002 0h-.001c-.001 0-.001 0-.002 0h-.001c-.001 0-.001 0-.001 0-.001 0-.001 0-.002 0h-.001c-.001 0-.001 0-.002 0h-.001c-.001 0-.001 0-.001 0-.001 0-.001 0-.002 0h-.001c-.001 0-.001 0-.002 0h-.001-.001c-.001 0-.001 0-.002 0h-.001c-.001 0-.001 0-.002 0h-.001-.001c-.001 0-.001 0-.002 0h-.001c-.001 0-.001 0-.002 0h-.001-.001c-.001 0-.001 0-.002 0h-.001c-.001 0-.001 0-.002 0 0 0 0 0-.001 0h-.001c-.001 0-.001 0-.002 0h-.001c-.001 0-.001 0-.002 0 0 0 0 0-.001 0h-.001c-.001 0-.001 0-.002 0h-.001c-.001 0-.001 0-.001 0-.001 0-.001 0-.002 0h-.001c-.001 0-.001 0-.002 0h-.001-.001c-.001 0-.001 0-.002 0h-.001c-.001 0-.001 0-.002 0h-.001-.001c-.001 0-.001 0-.002 0h-.001c-.001 0-.001 0-.002 0 0 0 0 0-.001 0h-.001c-.001 0-.001 0-.002 0h-.001c-.001 0-.001 0-.001 0-.001 0-.001 0-.002 0h-.001c-.001 0-.001 0-.002 0h-.001c-.001 0-.001 0-.001 0-.001 0-.001 0-.002 0h-.001c-.001 0-.001 0-.002 0h-.001-.001c-.001 0-.001 0-.002 0h-.001c-.001 0-.001 0-.002 0 0 0 0 0-.001 0h-.001c-.001 0-.001 0-.002 0h-.001c-.001 0-.001 0-.001 0-.001 0-.001 0-.002 0h-.001c-.001 0-.001 0-.002 0h-.001-.001c-.001 0-.001 0-.002 0h-.001c-.001 0-.001 0-.002 0 0 0 0 0-.001 0h-.001c-.001 0-.001 0-.002 0h-.001c-.001 0-.001 0-.001 0-.001 0-.001 0-.002 0h-.001c-.001 0-.001 0-.002 0h-.001-.001c-.001 0-.001 0-.002 0h-.001c-.001 0-.001 0-.002 0 0 0 0 0-.001 0h-.001c-.001 0-.001 0-.002 0h-.001c-.001 0-.001 0-.001 0-.001 0-.001 0-.002 0h-.001c-.001 0-.001 0-.002 0h-.001-.001c-.001 0-.001 0-.002 0h-.001c-.001 0-.001 0-.002 0 0 0 0 0-.001 0h-.001c-.001 0-.001 0-.002 0h-.001c-.001 0-.001 0-.001 0-.001 0-.001 0-.002 0h-.001c-.001 0-.001 0-.002 0 0 0 0 0-.001 0h-.001c-.001 0-.001 0-.002 0h-.001c-.001 0-.001 0-.001 0-.001 0-.001 0-.002 0h-.001c-.001 0-.001 0-.002 0h-.001-.001c-.001 0-.001 0-.002 0h-.001c-.001 0-.001 0-.002 0 0 0 0 0-.001 0h-.001c-.001 0-.001 0-.002 0h-.001-.001c-.001 0-.001 0-.002 0h-.001c-.001 0-.001 0-.002 0 0 0 0 0-.001 0h-.001c-.001 0-.001 0-.002 0h-.001-.001c-.001 0-.001 0-.002 0h-.001c-.001 0-.001 0-.002 0 0 0 0 0-.001 0h-.001c-.001 0-.001 0-.002 0h-.001c-.001 0-.001 0-.001 0-.001 0-.001 0-.002 0h-.001c-.001 0-.001 0-.002 0 0 0 0 0-.001 0h-.001c-.001 0-.001 0-.002 0h-.001c-.001 0-.001 0-.001 0-.001 0-.001 0-.002 0h-.001c-.001 0-.001 0-.002 0 0 0 0 0-.001 0h-.001c-.001 0-.001 0-.002 0h-.001c-.001 0-.001 0-.001 0-.001 0-.001 0-.002 0h-.001c-.001 0-.001 0-.002 0 0 0 0 0-.001 0h-.001c-.001 0-.001 0-.002 0h-.001-.001c-.001 0-.001 0-.002 0h-.001c-.001 0-.001 0-.002 0 0 0 0 0-.001 0h-.001c-.001 0-.001 0-.002 0h-.001-.001c-.001 0-.001 0-.002 0h-.001c-.001 0-.001 0-.001 0-.001 0-.001 0-.002 0h-.001c-.001 0-.001 0-.002 0h-.001-.001c-.001 0-.001 0-.002 0h-.001c-.001 0-.001 0-.001 0-.001 0-.001 0-.002 0h-.001c-.001 0-.001 0-.002 0 0 0 0 0-.001 0h-.001c-.001 0-.001 0-.002 0h-.001c-.001 0-.001 0-.001 0-.001 0-.001 0-.002 0h-.001c-.001 0-.001 0-.002 0 0 0 0 0-.001 0h-.001c-.001 0-.001 0-.002 0h-.001-.001c-.001 0-.001 0-.002 0h-.001c-.001 0-.001 0-.001 0-.001 0-.001 0-.002 0h-.001c-.001 0-.001 0-.002 0 0 0 0 0-.001 0h-.001c-.001 0-.001 0-.002 0h-.001-.001c-.001 0-.001 0-.002 0h-.001c-.001 0-.001 0-.002 0 0 0 0 0-.001 0h-.001c-.001 0-.001 0-.002 0h-.001-.001c-.001 0-.001 0-.002 0h-.001c-.001 0-.001 0-.001 0-.001 0-.001 0-.002 0h-.001c-.001 0-.001 0-.002 0 0 0 0 0-.001 0h-.001c-.001 0-.001 0-.002 0h-.001-.001c-.001 0-.001 0-.002 0h-.001c-.001 0-.001 0-.001 0-.001 0-.001 0-.002 0h-.001c-.001 0-.001 0-.002 0 0 0 0 0-.001 0h-.001c-.001 0-.001 0-.002 0h-.001-.001c-.001 0-.001 0-.002 0h-.001c-.001 0-.001 0-.001 0-.001 0-.001 0-.002 0h-.001c-.001 0-.001 0-.002 0 0 0 0 0-.001 0h-.001c-.001 0-.001 0-.002 0 0 0 0 0-.001 0h-.001c-.001 0-.001 0-.002 0h-.001-.001c-.001 0-.001 0-.002 0h-.001c-.001 0-.001 0-.001 0-.001 0-.001 0-.002 0h-.001c-.001 0-.001 0-.002 0 0 0 0 0-.001 0h-.001c-.001 0-.001 0-.002 0h-.001-.001c-.001 0-.001 0-.002 0h-.001c-.001 0-.001 0-.001 0-.001 0-.001 0-.002 0h-.001c-.001 0-.001 0-.001 0-.001 0-.001 0-.002 0h-.001c-.001 0-.001 0-.002 0 0 0 0 0-.001 0h-.001c-.001 0-.001 0-.002 0h-.001-.001c-.001 0-.001 0-.002 0h-.001c-.001 0-.001 0-.001 0-.001 0-.001 0-.002 0h-.001c-.001 0-.001 0-.001 0-.001 0-.001 0-.002 0h-.001c-.001 0-.001 0-.002 0 0 0 0 0-.001 0h-.001c-.001 0-.001 0-.002 0h-.001-.001c-.001 0-.001 0-.002 0h-.001-.001c-.001 0-.001 0-.002 0h-.001c-.001 0-.001 0-.001 0-.001 0-.001 0-.002 0h-.001c-.001 0-.001 0-.002 0 0 0 0 0-.001 0h-.001c-.001 0-.001 0-.002 0 0 0 0 0-.001 0h-.001c-.001 0-.001 0-.002 0h-.001-.001c-.001 0-.001 0-.002 0h-.001c-.001 0-.001 0-.001 0-.001 0-.001 0-.002 0h-.001c-.001 0-.001 0-.001 0-.001 0-.001 0-.002 0h-.001c-.001 0-.001 0-.002 0 0 0 0 0-.001 0h-.001c-.001 0-.001 0-.002 0 0 0 0 0-.001 0h-.001c-.001 0-.001 0-.002 0h-.001-.001c-.001 0-.001 0-.002 0h-.001-.001c-.001 0-.001 0-.002 0h-.001c-.001 0-.001 0-.001 0-.001 0-.001 0-.002 0h-.001c-.001 0-.001 0-.001 0-.001 0-.001 0-.002 0h-.001c-.001 0-.001 0-.002 0 0 0 0 0-.001 0h-.001c-.001 0-.001 0-.002 0 0 0 0 0-.001 0h-.001c-.001 0-.001 0-.002 0 0 0 0 0-.001 0h-.001c-.001 0-.001 0-.002 0h-.001-.001c-.001 0-.001 0-.002 0h-.001-.001c-.001 0-.001 0-.002 0h-.001c-.001 0-.001 0-.001 0-.001 0-.001 0-.002 0h-.001c-.001 0-.001 0-.001 0-.001 0-.001 0-.002 0h-.001c-.001 0-.001 0-.001 0-.001 0-.001 0-.002 0h-.001c-.001 0-.001 0-.002 0 0 0 0 0-.001 0h-.001c-.001 0-.001 0-.002 0 0 0 0 0-.001 0h-.001c-.001 0-.001 0-.002 0 0 0 0 0-.001 0h-.001c-.001 0-.001 0-.002 0h-.001-.001c-.001 0-.001 0-.002 0h-.001-.001c-.001 0-.001 0-.002 0h-.001-.001c-.001 0-.001 0-.002 0h-.001c-.001 0-.001 0-.001 0-.001 0-.001 0-.002 0h-.001c-.001 0-.001 0-.001 0-.001 0-.001 0-.002 0h-.001c-.001 0-.001 0-.001 0-.001 0-.001 0-.002 0h-.001c-.001 0-.001 0-.001 0-.001 0-.001 0-.002 0h-.001c-.001 0-.001 0-.001 0-.001 0-.001 0-.002 0h-.001c-.001 0-.001 0-.002 0 0 0 0 0-.001 0h-.001c-.001 0-.001 0-.002 0 0 0 0 0-.001 0h-.001c-.001 0-.001 0-.002 0 0 0 0 0-.001 0h-.001c-.001 0-.001 0-.002 0 0 0 0 0-.001 0h-.001c-.001 0-.001 0-.002 0 0 0 0 0-.001 0h-.001c-.001 0-.001 0-.002 0 0 0 0 0-.001 0h-.001c-.001 0-.001 0-.002 0h-.001-.001c-.001 0-.001 0-.002 0h-.001-.001c-.001 0-.001 0-.002 0h-.001-.001c-.001 0-.001 0-.002 0h-.001-.001c-.001 0-.001 0-.002 0h-.001zm.702 0c.811 0 1.514-.2 2.041-.665l-.662-.75c-.289.255-.726.415-1.379.415zm2.041-.665c.542-.478.781-1.153.781-1.941h-1c0 .58-.169.949-.443 1.191zm.781-1.941c0-.72-.223-1.344-.716-1.805l-.684.73c.251.235.4.571.4 1.075zm-.71-1.799c-.508-.492-1.265-.681-2.148-.681v1c.773 0 1.216.171 1.452.399zm-2.31-5.361c-.256 0-.493.013-.71.04l.124.992c.167-.021.362-.032.586-.032zm-.681.037c-.192.013-.379.032-.56.058l.142.99c.155-.022.316-.039.484-.05zm-.989.553v3.078h1v-3.078zm.458 3.576c.158.013.316.02.474.02v-1c-.13 0-.26-.005-.39-.016zm.474.02h.001.001.001.001.001.001.001.001.001.001.001.001.001.001.001.001.001.001.001.001.001.001.001.001.001.001.001.001.001.001.001.001.001.001.001.001.001.001.001.001.001.001.001.001.001.001.001.001.001.001.001.001.001.001.001.001.001.001.001.001.001.001.001.001.001.001.001.001.001.001.001.001.001.001.001.001.001.001.001.001.001.001.001.001.001.001.001.001.001.001.001.001.001.001.001.001.001.001.001.001.001.001.001.001.001.001.001.001.001.001.001.001.001.001.001.001.001.001.001.001.001.001.001.001.001.001.001.001.001.001.001.001.001.001.001.001.001.001.001.001.001.001.001.001.001.001.001.001.001.001.001.001.001.001.001.001.001.001.001.001.001.001.001.001.001.001.001.001.001.001.001.001.001.001.001.001.001.001.001.001.001.001.001.001.001.001.001.001.001.001.001.001.001.001.001.001.001.001.001.001.001.001.001.001.001.001.001.001.001.001.001.001.001.001.001.001.001.001.001.001.001.001.001.001.001.001.001.001.001.001.001.001.001.001.001.001.001.001.001.001.001.001.001.001.001.001.001.001.001.001.001.001.001.001.001.001.001.001.001.001.001.001.001.001.001.001.001.001.001.001.001.001.001.001.001.001.001.001.001.001.001.001.001.001.001.001.001.001.001.001.001.001.001.001.001.001.001.001.001.001.001.001.001.001.001.001.001.001.001.001.001.001.001.001.001.001.001.001.001.001.001.001.001.001.001.001.001.001.001.001.001.001.001.001.001.001.001.001.001.001.001.001.001.001.001.001.001.001.001.001.001.001.001.001.001.001.001.001.001.001.001.001.001.001.001.001.001.001.001.001.001.001.001.001.001.001.001.001.001.001.001.001.001.001.001.001.001.001.001.001.001.001.001.001.001.001.001.001.001.001.001.001.001.001.001.001.001.001.001.001.001.001.001.001.001.001.001.001.001.001.001.001.001.001.001.001.001.001.001.001.001.001.001.001.001.001.001.001.001.001.001.001.001.001.001.001.001.001.001.001.001.001.001.001.001.001.001.001.001.001.001.001.001.001.001.001.001.001v-1h-.001-.001s0 0-.001 0c0 0 0 0-.001 0 0 0 0 0-.001 0-.001 0-.001 0-.001 0-.001 0-.001 0-.001 0-.001 0-.001 0-.001 0-.001 0-.001 0-.001 0h-.001-.001-.001s0 0-.001 0c0 0 0 0-.001 0 0 0 0 0-.001 0 0 0 0 0-.001 0-.001 0-.001 0-.001 0-.001 0-.001 0-.001 0-.001 0-.001 0-.001 0h-.001-.001-.001-.001s0 0-.001 0c0 0 0 0-.001 0 0 0 0 0-.001 0 0 0 0 0-.001 0-.001 0-.001 0-.001 0-.001 0-.001 0-.001 0-.001 0-.001 0-.001 0h-.001-.001-.001-.001s0 0-.001 0c0 0 0 0-.001 0 0 0 0 0-.001 0-.001 0-.001 0-.001 0-.001 0-.001 0-.001 0-.001 0-.001 0-.001 0-.001 0-.001 0-.001 0h-.001-.001-.001s0 0-.001 0c0 0 0 0-.001 0 0 0 0 0-.001 0 0 0 0 0-.001 0-.001 0-.001 0-.001 0-.001 0-.001 0-.001 0-.001 0-.001 0-.001 0h-.001-.001-.001-.001s0 0-.001 0c0 0 0 0-.001 0 0 0 0 0-.001 0-.001 0-.001 0-.001 0-.001 0-.001 0-.001 0-.001 0-.001 0-.001 0-.001 0-.001 0-.001 0h-.001-.001-.001-.001s0 0-.001 0c0 0 0 0-.001 0 0 0 0 0-.001 0-.001 0-.001 0-.001 0-.001 0-.001 0-.001 0-.001 0-.001 0-.001 0-.001 0-.001 0-.001 0h-.001-.001-.001s0 0-.001 0c0 0 0 0-.001 0 0 0 0 0-.001 0 0 0 0 0-.001 0-.001 0-.001 0-.001 0-.001 0-.001 0-.001 0-.001 0-.001 0-.001 0h-.001-.001-.001-.001s0 0-.001 0c0 0 0 0-.001 0 0 0 0 0-.001 0-.001 0-.001 0-.001 0-.001 0-.001 0-.001 0-.001 0-.001 0-.001 0-.001 0-.001 0-.001 0h-.001-.001-.001s0 0-.001 0c0 0 0 0-.001 0 0 0 0 0-.001 0 0 0 0 0-.001 0-.001 0-.001 0-.001 0-.001 0-.001 0-.001 0-.001 0-.001 0-.001 0-.001 0-.001 0-.001 0h-.001-.001-.001s0 0-.001 0c0 0 0 0-.001 0 0 0 0 0-.001 0 0 0 0 0-.001 0-.001 0-.001 0-.001 0-.001 0-.001 0-.001 0-.001 0-.001 0-.001 0h-.001-.001-.001-.001s0 0-.001 0c0 0 0 0-.001 0 0 0 0 0-.001 0-.001 0-.001 0-.001 0-.001 0-.001 0-.001 0-.001 0-.001 0-.001 0-.001 0-.001 0-.001 0h-.001-.001-.001s0 0-.001 0c0 0 0 0-.001 0 0 0 0 0-.001 0 0 0 0 0-.001 0-.001 0-.001 0-.001 0-.001 0-.001 0-.001 0-.001 0-.001 0-.001 0h-.001-.001-.001-.001s0 0-.001 0c0 0 0 0-.001 0 0 0 0 0-.001 0 0 0 0 0-.001 0-.001 0-.001 0-.001 0-.001 0-.001 0-.001 0-.001 0-.001 0-.001 0h-.001-.001-.001-.001s0 0-.001 0c0 0 0 0-.001 0 0 0 0 0-.001 0-.001 0-.001 0-.001 0-.001 0-.001 0-.001 0-.001 0-.001 0-.001 0-.001 0-.001 0-.001 0h-.001-.001-.001s0 0-.001 0c0 0 0 0-.001 0 0 0 0 0-.001 0 0 0 0 0-.001 0-.001 0-.001 0-.001 0-.001 0-.001 0-.001 0-.001 0-.001 0-.001 0h-.001-.001-.001-.001s0 0-.001 0c0 0 0 0-.001 0 0 0 0 0-.001 0-.001 0-.001 0-.001 0-.001 0-.001 0-.001 0-.001 0-.001 0-.001 0-.001 0-.001 0-.001 0h-.001-.001-.001-.001s0 0-.001 0c0 0 0 0-.001 0 0 0 0 0-.001 0-.001 0-.001 0-.001 0-.001 0-.001 0-.001 0-.001 0-.001 0-.001 0-.001 0-.001 0-.001 0h-.001-.001-.001s0 0-.001 0c0 0 0 0-.001 0 0 0 0 0-.001 0 0 0 0 0-.001 0-.001 0-.001 0-.001 0-.001 0-.001 0-.001 0-.001 0-.001 0-.001 0h-.001-.001-.001-.001s0 0-.001 0c0 0 0 0-.001 0 0 0 0 0-.001 0-.001 0-.001 0-.001 0-.001 0-.001 0-.001 0-.001 0-.001 0-.001 0-.001 0-.001 0-.001 0h-.001-.001-.001s0 0-.001 0c0 0 0 0-.001 0 0 0 0 0-.001 0 0 0 0 0-.001 0-.001 0-.001 0-.001 0-.001 0-.001 0-.001 0-.001 0-.001 0-.001 0-.001 0-.001 0-.001 0h-.001-.001-.001s0 0-.001 0c0 0 0 0-.001 0 0 0 0 0-.001 0 0 0 0 0-.001 0-.001 0-.001 0-.001 0-.001 0-.001 0-.001 0-.001 0-.001 0-.001 0h-.001-.001-.001-.001s0 0-.001 0c0 0 0 0-.001 0 0 0 0 0-.001 0-.001 0-.001 0-.001 0-.001 0-.001 0-.001 0-.001 0-.001 0-.001 0-.001 0-.001 0-.001 0h-.001-.001-.001s0 0-.001 0c0 0 0 0-.001 0 0 0 0 0-.001 0 0 0 0 0-.001 0-.001 0-.001 0-.001 0-.001 0-.001 0-.001 0-.001 0-.001 0-.001 0h-.001-.001-.001-.001s0 0-.001 0c0 0 0 0-.001 0 0 0 0 0-.001 0 0 0 0 0-.001 0-.001 0-.001 0-.001 0-.001 0-.001 0-.001 0-.001 0-.001 0-.001 0h-.001-.001-.001-.001s0 0-.001 0c0 0 0 0-.001 0 0 0 0 0-.001 0-.001 0-.001 0-.001 0-.001 0-.001 0-.001 0-.001 0-.001 0-.001 0-.001 0-.001 0-.001 0h-.001-.001-.001s0 0-.001 0c0 0 0 0-.001 0 0 0 0 0-.001 0 0 0 0 0-.001 0-.001 0-.001 0-.001 0-.001 0-.001 0-.001 0-.001 0-.001 0-.001 0h-.001-.001-.001-.001s0 0-.001 0c0 0 0 0-.001 0 0 0 0 0-.001 0-.001 0-.001 0-.001 0-.001 0-.001 0-.001 0-.001 0-.001 0-.001 0-.001 0-.001 0-.001 0h-.001-.001-.001-.001s0 0-.001 0c0 0 0 0-.001 0 0 0 0 0-.001 0-.001 0-.001 0-.001 0-.001 0-.001 0-.001 0-.001 0-.001 0-.001 0-.001 0-.001 0-.001 0h-.001-.001-.001s0 0-.001 0c0 0 0 0-.001 0 0 0 0 0-.001 0 0 0 0 0-.001 0-.001 0-.001 0-.001 0-.001 0-.001 0-.001 0-.001 0-.001 0-.001 0h-.001-.001-.001-.001s0 0-.001 0c0 0 0 0-.001 0 0 0 0 0-.001 0-.001 0-.001 0-.001 0-.001 0-.001 0-.001 0-.001 0-.001 0-.001 0-.001 0-.001 0-.001 0h-.001-.001-.001s0 0-.001 0c0 0 0 0-.001 0 0 0 0 0-.001 0 0 0 0 0-.001 0-.001 0-.001 0-.001 0-.001 0-.001 0-.001 0-.001 0-.001 0-.001 0-.001 0-.001 0-.001 0h-.001-.001-.001s0 0-.001 0c0 0 0 0-.001 0 0 0 0 0-.001 0 0 0 0 0-.001 0-.001 0-.001 0-.001 0-.001 0-.001 0-.001 0-.001 0-.001 0-.001 0h-.001-.001-.001-.001s0 0-.001 0c0 0 0 0-.001 0 0 0 0 0-.001 0-.001 0-.001 0-.001 0-.001 0-.001 0-.001 0-.001 0-.001 0-.001 0-.001 0-.001 0-.001 0h-.001-.001-.001s0 0-.001 0c0 0 0 0-.001 0 0 0 0 0-.001 0 0 0 0 0-.001 0-.001 0-.001 0-.001 0-.001 0-.001 0-.001 0-.001 0-.001 0-.001 0h-.001-.001-.001-.001s0 0-.001 0c0 0 0 0-.001 0 0 0 0 0-.001 0 0 0 0 0-.001 0-.001 0-.001 0-.001 0-.001 0-.001 0-.001 0-.001 0-.001 0-.001 0h-.001-.001-.001-.001s0 0-.001 0c0 0 0 0-.001 0 0 0 0 0-.001 0-.001 0-.001 0-.001 0-.001 0-.001 0-.001 0-.001 0-.001 0-.001 0-.001 0-.001 0-.001 0h-.001-.001-.001s0 0-.001 0c0 0 0 0-.001 0 0 0 0 0-.001 0 0 0 0 0-.001 0-.001 0-.001 0-.001 0-.001 0-.001 0-.001 0-.001 0-.001 0-.001 0h-.001-.001-.001-.001s0 0-.001 0c0 0 0 0-.001 0 0 0 0 0-.001 0-.001 0-.001 0-.001 0-.001 0-.001 0-.001 0-.001 0-.001 0-.001 0-.001 0-.001 0-.001 0h-.001-.001-.001-.001s0 0-.001 0c0 0 0 0-.001 0 0 0 0 0-.001 0-.001 0-.001 0-.001 0-.001 0-.001 0-.001 0-.001 0-.001 0-.001 0-.001 0-.001 0-.001 0h-.001-.001-.001s0 0-.001 0c0 0 0 0-.001 0 0 0 0 0-.001 0 0 0 0 0-.001 0-.001 0-.001 0-.001 0-.001 0-.001 0-.001 0-.001 0-.001 0-.001 0h-.001-.001-.001-.001s0 0-.001 0c0 0 0 0-.001 0 0 0 0 0-.001 0-.001 0-.001 0-.001 0-.001 0-.001 0-.001 0-.001 0-.001 0-.001 0-.001 0-.001 0-.001 0h-.001-.001-.001s0 0-.001 0c0 0 0 0-.001 0 0 0 0 0-.001 0 0 0 0 0-.001 0-.001 0-.001 0-.001 0-.001 0-.001 0-.001 0-.001 0-.001 0-.001 0-.001 0-.001 0-.001 0h-.001-.001-.001s0 0-.001 0c0 0 0 0-.001 0 0 0 0 0-.001 0 0 0 0 0-.001 0-.001 0-.001 0-.001 0-.001 0-.001 0-.001 0-.001 0-.001 0-.001 0h-.001-.001zm.468 0c.649 0 1.211-.22 1.621-.696l-.758-.652c-.19.22-.456.348-.863.348zm1.626-.702c.391-.469.566-1.059.566-1.724h-1c0 .487-.125.833-.334 1.084zm.566-1.724c0-.492-.178-.924-.533-1.262l-.69.724c.149.142.223.31.223.538zm-.524-1.254c-.363-.362-.856-.506-1.398-.506v1c.37 0 .573.096.69.214zm25.806-1.212-.206.456zm1.818 1.332-.377.329.003.004zm1.116 1.926.472-.163zm0 4.608-.474-.16-.001.004zm-1.116 1.962-.377-.329zm-1.854 1.368.208.454.003-.001zm-5.076.018-.208.455zm-1.764-1.314-.382.323zm-1.062-1.908-.478.149.003.009zm.036-4.698-.472-.165-.002.005zm1.134-1.962.373.333.003-.004zm1.818-1.332.205.456zm4.05 9.612.214.452.005-.003zm1.152-.918.394.308.004-.006zm.648-1.386-.483-.132-.002.011zm0-3.456-.483.132zm-.666-1.368-.394.308zm-1.152-.882-.214.452.007.003.007.003zm-3.258 0 .208.454.006-.002zm-1.098.864-.396-.306-.006.008zm-.612 1.332-.485-.124-.002.011zm.72 5.022.389-.314zm2.682-8.806c.878 0 1.634.152 2.278.442l.411-.912c-.796-.358-1.696-.53-2.689-.53zm2.278.442c.658.296 1.205.698 1.647 1.205l.753-.658c-.542-.621-1.207-1.107-1.989-1.459zm1.65 1.209c.446.5.785 1.083 1.017 1.756l.945-.326c-.272-.791-.677-1.492-1.215-2.096zm1.017 1.756c.233.677.351 1.39.351 2.141h1c0-.857-.135-1.68-.406-2.467zm.351 2.141c0 .738-.118 1.452-.352 2.144l.947.32c.27-.796.405-1.618.405-2.464zm-.353 2.148c-.22.669-.558 1.264-1.018 1.789l.753.658c.548-.627.954-1.34 1.215-2.135zm-1.018 1.789c-.442.507-1.002.923-1.689 1.244l.423.906c.801-.375 1.477-.871 2.019-1.492zm-1.686 1.243c-.654.3-1.438.458-2.365.458v1c1.04 0 1.972-.178 2.782-.55zm-2.365.458c-.905 0-1.665-.153-2.294-.441l-.416.91c.786.36 1.694.531 2.71.531zm-2.294-.441c-.647-.295-1.174-.69-1.591-1.182l-.763.646c.519.612 1.168 1.093 1.938 1.446zm-1.591-1.182c-.425-.501-.748-1.081-.969-1.743l-.949.316c.259.778.644 1.47 1.155 2.073zm-.966-1.734c-.212-.681-.319-1.399-.319-2.155h-1c0 .852.121 1.67.364 2.453zm-.319-2.155c0-.802.118-1.545.351-2.234l-.947-.32c-.271.799-.404 1.652-.404 2.554zm.35-2.229c.244-.699.59-1.295 1.035-1.794l-.747-.666c-.539.605-.949 1.317-1.232 2.13zm1.038-1.798c.442-.507.989-.909 1.647-1.205l-.411-.912c-.782.352-1.447.838-1.989 1.459zm1.647-1.205c.645-.29 1.395-.442 2.261-.442v-1c-.983 0-1.877.172-2.672.53zm2.171 9.98c.712 0 1.347-.116 1.888-.372l-.428-.904c-.372.176-.853.276-1.46.276zm1.893-.375c.531-.258.977-.611 1.327-1.059l-.788-.616c-.25.32-.573.579-.977.777zm1.331-1.065c.345-.455.588-.98.735-1.567l-.97-.242c-.118.469-.306.868-.562 1.205zm.732-1.556c.157-.575.234-1.184.234-1.824h-1c0 .56-.068 1.079-.199 1.56zm.234-1.824c0-.685-.076-1.318-.234-1.896l-.965.264c.131.478.199 1.021.199 1.632zm-.234-1.896c-.159-.584-.409-1.101-.754-1.544l-.788.616c.254.325.449.72.577 1.192zm-.754-1.544c-.354-.453-.806-.797-1.347-1.032l-.399.916c.395.173.711.417.958.732zm-1.332-1.026c-.537-.254-1.153-.372-1.834-.372v1c.567 0 1.03.098 1.406.276zm-1.834-.372c-.692 0-1.314.117-1.852.372l.428.904c.374-.177.843-.276 1.424-.276zm-1.847.37c-.514.236-.945.574-1.285 1.012l.791.612c.237-.306.538-.544.911-.716zm-1.291 1.02c-.32.431-.549.937-.695 1.506l.969.248c.118-.463.297-.845.529-1.158zm-.697 1.517c-.13.559-.193 1.167-.193 1.823h1c0-.592.057-1.124.167-1.597zm-.193 1.823c0 1.52.309 2.757 1.01 3.626l.779-.628c-.499-.619-.789-1.59-.789-2.998zm1.01 3.626c.713.883 1.733 1.302 2.982 1.302v-1c-1.008 0-1.716-.325-2.203-.93zm26.637.1-.345.362.005.004zm4.212 0 .34.366h.001zm.774-9.63v-.5h-.5v.5zm1.98 0h.5v-.5h-.5zm-.288 9.378-.47-.171zm-.9 1.404-.354-.354zm-1.548.954.172.47.005-.002zm-4.446 0-.183.466.008.003zm-1.512-.954-.364.343.005.005.005.006zm-.846-1.404-.477.152.004.009zm-.252-9.378v-.5h-.5v.5zm2.07 0h.5v-.5h-.5zm-.5 7.272c0 1.153.264 2.104.911 2.72l.69-.724c-.361-.344-.601-.965-.601-1.996zm.916 2.724c.622.578 1.46.836 2.446.836v-1c-.814 0-1.38-.21-1.766-.568zm2.446.836c.986 0 1.824-.258 2.446-.836l-.68-.732c-.386.358-.952.568-1.766.568zm2.447-.836c.662-.616.933-1.568.933-2.724h-1c0 1.028-.245 1.648-.615 1.992zm.933-2.724v-7.272h-1v7.272zm-.5-6.772h1.98v-1h-1.98zm1.48-.5v7.704h1v-7.704zm0 7.704c0 .532-.087 1.032-.258 1.503l.94.342c.213-.585.318-1.201.318-1.845zm-.258 1.503c-.166.458-.426.864-.784 1.221l.708.708c.458-.459.798-.989 1.016-1.587zm-.784 1.221c-.336.337-.787.62-1.371.84l.354.936c.688-.26 1.269-.613 1.725-1.068zm-1.366.838c-.555.203-1.238.312-2.06.312v1c.906 0 1.711-.119 2.404-.372zm-2.06.312c-.823 0-1.498-.109-2.039-.311l-.35.938c.683.254 1.484.373 2.389.373zm-2.031-.307c-.559-.22-1.002-.503-1.341-.843l-.708.708c.453.452 1.018.805 1.683 1.065zm-1.331-.832c-.335-.356-.58-.762-.737-1.222l-.946.322c.203.596.522 1.126.955 1.586zm-.734-1.213c-.151-.476-.228-.982-.228-1.522h-1c0 .636.091 1.246.276 1.826zm-.228-1.522v-7.704h-1v7.704zm-.5-7.204h2.07v-1h-2.07zm1.57-.5v7.272h1v-7.272zm25.917 10.08h-.5v.5h.5zm4.95 0h.5v-.5h-.5zm0 1.8v.5h.5v-.5zm-7.02 0h-.5v.5h.5zm0-11.88v-.5h-.5v.5zm2.07 0h.5v-.5h-.5zm0 10.58h4.95v-1h-4.95zm4.45-.5v1.8h1v-1.8zm.5 1.3h-7.02v1h7.02zm-6.52.5v-11.88h-1v11.88zm-.5-11.38h2.07v-1h-2.07zm1.57-.5v10.08h1v-10.08zm25.648 6.48v.5h.5v-.5zm-3.6 0v-.5h-.5v.5zm0 3.6h-.5v.5h.5zm5.166 0h.5v-.5h-.5zm0 1.8v.5h.5v-.5zm-7.236 0h-.5v.5h.5zm0-11.88v-.5h-.5v.5zm6.876 0h.5v-.5h-.5zm0 1.8v.5h.5v-.5zm-4.806 0v-.5h-.5v.5zm0 2.88h-.5v.5h.5zm3.6 0h.5v-.5h-.5zm0 1.3h-3.6v1h3.6zm-4.1.5v3.6h1v-3.6zm.5 4.1h5.166v-1h-5.166zm4.666-.5v1.8h1v-1.8zm.5 1.3h-7.236v1h7.236zm-6.736.5v-11.88h-1v11.88zm-.5-11.38h6.876v-1h-6.876zm6.376-.5v1.8h1v-1.8zm.5 1.3h-4.806v1h4.806zm-5.306.5v2.88h1v-2.88zm.5 3.38h3.6v-1h-3.6zm3.1-.5v1.8h1v-1.8zm15.157-4.68v-.5h-.766l.308.701zm2.25 0 .464-.187-.127-.313h-.337zm3.78 9.36-.464.187.487 1.206.447-1.221zm3.42-9.36v-.5h-.35l-.12.328zm2.16 0 .464.186.275-.686h-.739zm-4.752 11.88v.5h.339l.125-.314zm-1.638 0-.458.201.132.299h.326zm-5.22-11.38h2.25v-1h-2.25zm1.786-.313 3.78 9.36.928-.374-3.78-9.36zm4.714 9.345 3.42-9.36-.94-.344-3.42 9.36zm2.95-9.032h2.16v-1h-2.16zm1.696-.686-4.752 11.88.928.372 4.752-11.88zm-4.288 11.566h-1.638v1h1.638zm-1.18.299-5.22-11.88-.916.402 5.22 11.88zm29.433.201v.5h.757l-.297-.696zm-2.25 0-.466.182.125.318h.341zm-1.35-3.456.466-.182-.125-.318h-.341zm-4.482 0v-.5h-.353l-.118.333zm-1.224 3.456v.5h.353l.118-.333zm-2.16 0-.466-.181-.264.681h.73zm4.608-11.88v-.5h-.342l-.124.319zm1.782 0 .46-.196-.13-.304h-.33zm-2.43 6.804-.471-.167-.236.667h.707zm3.258 0v.5h.732l-.266-.682zm-1.71-4.374.466-.182-.489-1.251-.448 1.266zm5.958 8.95h-2.25v1h2.25zm-1.784.318-1.35-3.456-.932.364 1.35 3.456zm-1.816-3.774h-4.482v1h4.482zm-4.953.333-1.224 3.456.942.334 1.224-3.456zm-.753 3.123h-2.16v1h2.16zm-1.694.681 4.608-11.88-.932-.362-4.608 11.88zm4.142-11.561h1.782v-1h-1.782zm1.322-.304 5.076 11.88.92-.392-5.076-11.88zm-1.97 7.108h3.258v-1h-3.258zm3.724-.682-1.71-4.374-.932.364 1.71 4.374zm-2.647-4.359-1.548 4.374.942.334 1.548-4.374zm23.33 4.541.387-.316-.15-.184h-.237zm-.846-.018.038-.499-.538-.041v.54zm0 5.094v.5h.5v-.5zm-2.07 0h-.5v.5h.5zm0-11.88-.031-.499-.469.029v.47zm.648-.036-.024-.499h-.001zm.756-.018v.5h.012l.011-.001zm.702-.018v.5h.013l.013-.001zm4.05.864-.295.404.004.002zm.684 4.446.425.263zm-1.746 1.26-.16-.474-.681.23.452.559zm4.356 5.382v.5h1.048l-.66-.815zm-2.394 0-.388.316.15.184h.238zm-4.986-10.224-.042-.498-.458.038v.46zm0 3.42h-.5v.5h.5zm2.592-.486-.347-.36zm0-2.574-.307.395.007.005zm-1.746 4.288c-.001 0-.001 0-.001 0h-.001s0 0-.001 0c-.001 0-.001 0-.001 0h-.001s0 0-.001 0c-.001 0-.001 0-.001 0-.001 0-.001 0-.001 0h-.001s0 0-.001 0c-.001 0-.001 0-.001 0h-.001s0 0-.001 0c-.001 0-.001 0-.001 0h-.001-.001s0 0-.001 0c-.001 0-.001 0-.001 0h-.001s0 0-.001 0c-.001 0-.001 0-.001 0h-.001-.001s0 0-.001 0c-.001 0-.001 0-.001 0h-.001s0 0-.001 0c-.001 0-.001 0-.001 0h-.001-.001s0 0-.001 0c-.001 0-.001 0-.001 0h-.001s0 0-.001 0c-.001 0-.001 0-.001 0h-.001-.001s0 0-.001 0c-.001 0-.001 0-.001 0h-.001s0 0-.001 0c-.001 0-.001 0-.001 0-.001 0-.001 0-.001 0h-.001s0 0-.001 0c-.001 0-.001 0-.001 0h-.001s0 0-.001 0c0 0 0 0-.001 0-.001 0-.001 0-.001 0h-.001s0 0-.001 0c-.001 0-.001 0-.001 0h-.001-.001s0 0-.001 0c-.001 0-.001 0-.001 0h-.001s0 0-.001 0c-.001 0-.001 0-.001 0-.001 0-.001 0-.001 0h-.001s0 0-.001 0c-.001 0-.001 0-.001 0h-.001s0 0-.001 0c0 0 0 0-.001 0-.001 0-.001 0-.001 0h-.001s0 0-.001 0c-.001 0-.001 0-.001 0h-.001-.001s0 0-.001 0c-.001 0-.001 0-.001 0h-.001s0 0-.001 0c0 0 0 0-.001 0-.001 0-.001 0-.001 0h-.001s0 0-.001 0c-.001 0-.001 0-.001 0-.001 0-.001 0-.001 0h-.001s0 0-.001 0c-.001 0-.001 0-.001 0h-.001-.001s0 0-.001 0c-.001 0-.001 0-.001 0h-.001s0 0-.001 0c0 0 0 0-.001 0-.001 0-.001 0-.001 0h-.001s0 0-.001 0c-.001 0-.001 0-.001 0-.001 0-.001 0-.001 0h-.001s0 0-.001 0c-.001 0-.001 0-.001 0h-.001-.001s0 0-.001 0c-.001 0-.001 0-.001 0h-.001s0 0-.001 0c0 0 0 0-.001 0-.001 0-.001 0-.001 0h-.001s0 0-.001 0c-.001 0-.001 0-.001 0-.001 0-.001 0-.001 0h-.001s0 0-.001 0c-.001 0-.001 0-.001 0-.001 0-.001 0-.001 0h-.001s0 0-.001 0c-.001 0-.001 0-.001 0h-.001-.001s0 0-.001 0c-.001 0-.001 0-.001 0h-.001-.001s0 0-.001 0c-.001 0-.001 0-.001 0h-.001-.001s0 0-.001 0c-.001 0-.001 0-.001 0h-.001s0 0-.001 0c0 0 0 0-.001 0-.001 0-.001 0-.001 0h-.001s0 0-.001 0c0 0 0 0-.001 0-.001 0-.001 0-.001 0h-.001s0 0-.001 0c0 0 0 0-.001 0-.001 0-.001 0-.001 0h-.001s0 0-.001 0c0 0 0 0-.001 0-.001 0-.001 0-.001 0h-.001s0 0-.001 0c0 0 0 0-.001 0-.001 0-.001 0-.001 0h-.001s0 0-.001 0c0 0 0 0-.001 0-.001 0-.001 0-.001 0h-.001s0 0-.001 0c0 0 0 0-.001 0-.001 0-.001 0-.001 0h-.001s0 0-.001 0c0 0 0 0-.001 0-.001 0-.001 0-.001 0h-.001s0 0-.001 0c0 0 0 0-.001 0-.001 0-.001 0-.001 0h-.001s0 0-.001 0c0 0 0 0-.001 0-.001 0-.001 0-.001 0h-.001s0 0-.001 0c0 0 0 0-.001 0-.001 0-.001 0-.001 0h-.001-.001s0 0-.001 0c-.001 0-.001 0-.001 0h-.001-.001s0 0-.001 0c-.001 0-.001 0-.001 0h-.001-.001s0 0-.001 0c-.001 0-.001 0-.001 0-.001 0-.001 0-.001 0h-.001s0 0-.001 0c-.001 0-.001 0-.001 0-.001 0-.001 0-.001 0h-.001s0 0-.001 0c0 0 0 0-.001 0-.001 0-.001 0-.001 0h-.001s0 0-.001 0c0 0 0 0-.001 0-.001 0-.001 0-.001 0h-.001-.001s0 0-.001 0c-.001 0-.001 0-.001 0h-.001-.001s0 0-.001 0c-.001 0-.001 0-.001 0-.001 0-.001 0-.001 0h-.001s0 0-.001 0c-.001 0-.001 0-.001 0-.001 0-.001 0-.001 0h-.001s0 0-.001 0c0 0 0 0-.001 0-.001 0-.001 0-.001 0h-.001-.001s0 0-.001 0c-.001 0-.001 0-.001 0-.001 0-.001 0-.001 0h-.001s0 0-.001 0c-.001 0-.001 0-.001 0-.001 0-.001 0-.001 0h-.001s0 0-.001 0c0 0 0 0-.001 0-.001 0-.001 0-.001 0h-.001-.001s0 0-.001 0c-.001 0-.001 0-.001 0-.001 0-.001 0-.001 0h-.001s0 0-.001 0c-.001 0-.001 0-.001 0-.001 0-.001 0-.001 0h-.001s0 0-.001 0c0 0 0 0-.001 0-.001 0-.001 0-.001 0h-.001-.001s0 0-.001 0c-.001 0-.001 0-.001 0-.001 0-.001 0-.001 0h-.001s0 0-.001 0c0 0 0 0-.001 0-.001 0-.001 0-.001 0h-.001-.001s0 0-.001 0c-.001 0-.001 0-.001 0-.001 0-.001 0-.001 0h-.001s0 0-.001 0c0 0 0 0-.001 0-.001 0-.001 0-.001 0h-.001-.001s0 0-.001 0c-.001 0-.001 0-.001 0-.001 0-.001 0-.001 0h-.001s0 0-.001 0c0 0 0 0-.001 0-.001 0-.001 0-.001 0h-.001-.001s0 0-.001 0c-.001 0-.001 0-.001 0-.001 0-.001 0-.001 0h-.001s0 0-.001 0c0 0 0 0-.001 0-.001 0-.001 0-.001 0h-.001-.001s0 0-.001 0c0 0 0 0-.001 0-.001 0-.001 0-.001 0h-.001-.001s0 0-.001 0c-.001 0-.001 0-.001 0-.001 0-.001 0-.001 0h-.001s0 0-.001 0c0 0 0 0-.001 0-.001 0-.001 0-.001 0h-.001-.001s0 0-.001 0c0 0 0 0-.001 0-.001 0-.001 0-.001 0h-.001-.001s0 0-.001 0c-.001 0-.001 0-.001 0-.001 0-.001 0-.001 0h-.001s0 0-.001 0c0 0 0 0-.001 0-.001 0-.001 0-.001 0-.001 0-.001 0-.001 0h-.001s0 0-.001 0c0 0 0 0-.001 0-.001 0-.001 0-.001 0h-.001-.001s0 0-.001 0c0 0 0 0-.001 0-.001 0-.001 0-.001 0h-.001-.001s0 0-.001 0c-.001 0-.001 0-.001 0-.001 0-.001 0-.001 0h-.001-.001s0 0-.001 0c-.001 0-.001 0-.001 0-.001 0-.001 0-.001 0h-.001s0 0-.001 0c0 0 0 0-.001 0-.001 0-.001 0-.001 0-.001 0-.001 0-.001 0h-.001s0 0-.001 0c0 0 0 0-.001 0-.001 0-.001 0-.001 0-.001 0-.001 0-.001 0h-.001s0 0-.001 0c0 0 0 0-.001 0-.001 0-.001 0-.001 0-.001 0-.001 0-.001 0h-.001s0 0-.001 0c0 0 0 0-.001 0-.001 0-.001 0-.001 0-.001 0-.001 0-.001 0h-.001s0 0-.001 0c0 0 0 0-.001 0-.001 0-.001 0-.001 0-.001 0-.001 0-.001 0h-.001s0 0-.001 0c0 0 0 0-.001 0-.001 0-.001 0-.001 0-.001 0-.001 0-.001 0h-.001s0 0-.001 0c0 0 0 0-.001 0-.001 0-.001 0-.001 0-.001 0-.001 0-.001 0h-.001s0 0-.001 0c0 0 0 0-.001 0-.001 0-.001 0-.001 0-.001 0-.001 0-.001 0h-.001s0 0-.001 0c0 0 0 0-.001 0-.001 0-.001 0-.001 0-.001 0-.001 0-.001 0h-.001-.001s0 0-.001 0c-.001 0-.001 0-.001 0-.001 0-.001 0-.001 0h-.001-.001s0 0-.001 0c-.001 0-.001 0-.001 0-.001 0-.001 0-.001 0h-.001-.001s0 0-.001 0c0 0 0 0-.001 0-.001 0-.001 0-.001 0h-.001-.001s0 0-.001 0c0 0 0 0-.001 0-.001 0-.001 0-.001 0-.001 0-.001 0-.001 0h-.001s0 0-.001 0c0 0 0 0-.001 0-.001 0-.001 0-.001 0-.001 0-.001 0-.001 0h-.001-.001s0 0-.001 0c-.001 0-.001 0-.001 0-.001 0-.001 0-.001 0h-.001-.001s0 0-.001 0c0 0 0 0-.001 0-.001 0-.001 0-.001 0-.001 0-.001 0-.001 0h-.001s0 0-.001 0c0 0 0 0-.001 0-.001 0-.001 0-.001 0v1h.001.001.001.001.001.001.001.001.001.001.001.001.001.001.001.001.001.001.001.001.001.001.001.001.001.001.001.001.001.001.001.001.001.001.001.001.001.001.001.001.001.001.001.001.001.001.001.001.001.001.001.001.001.001.001.001.001.001.001.001.001.001.001.001.001.001.001.001.001.001.001.001.001.001.001.001.001.001.001.001.001.001.001.001.001.001.001.001.001.001.001.001.001.001.001.001.001.001.001.001.001.001.001.001.001.001.001.001.001.001.001.001.001.001.001.001.001.001.001.001.001.001.001.001.001.001.001.001.001.001.001.001.001.001.001.001.001.001.001.001.001.001.001.001.001.001.001.001.001.001.001.001.001.001.001.001.001.001.001.001.001.001.001.001.001.001.001.001.001.001.001.001.001.001.001.001.001.001.001.001.001.001.001.001.001.001.001.001.001.001.001.001.001.001.001.001.001.001.001.001.001.001.001.001.001.001.001.001.001.001.001.001.001.001.001.001.001.001.001.001.001.001.001.001.001.001.001.001.001.001.001.001.001.001.001.001.001.001.001.001.001.001.001.001.001.001.001.001.001.001.001.001.001.001.001.001.001.001.001.001.001.001.001.001.001.001.001.001.001.001.001.001.001.001.001.001.001.001.001.001.001.001.001.001.001.001.001.001.001.001.001.001.001.001.001.001.001.001.001.001.001.001.001.001.001.001.001.001.001.001.001.001.001.001.001.001.001.001.001.001.001.001.001.001.001.001.001.001.001.001.001.001.001.001.001.001.001.001.001.001.001.001.001.001.001.001.001.001.001.001.001.001.001.001.001.001.001.001.001.001.001.001.001.001.001.001.001.001.001.001.001.001.001.001.001.001.001.001.001.001.001.001.001.001.001.001.001.001.001.001.001.001.001.001.001.001.001.001.001.001.001.001.001.001.001.001.001.001.001.001.001.001.001.001zm-.414 0c-.117 0-.248-.005-.394-.017l-.077.998c.167.012.324.019.471.019zm-.932.482v5.094h1v-5.094zm.5 4.594h-2.07v1h2.07zm-1.57.5v-11.88h-1v11.88zm-.469-11.381c.189-.012.403-.024.642-.036l-.05-.998c-.242.012-.46.024-.654.036zm.64-.036c.245-.011.489-.017.733-.017v-1c-.26 0-.52.006-.78.019zm.756-.018c.246-.011.472-.017.679-.017v-1c-.225 0-.467.006-.726.019zm.705-.018c.225-.012.395-.017.514-.017v-1c-.145 0-.335.007-.567.019zm.514-.017c1.484 0 2.531.286 3.215.786l.59-.808c-.925-.676-2.217-.978-3.805-.978zm3.219.788c.654.469.997 1.153.997 2.132h1c0-1.253-.462-2.261-1.415-2.944zm.997 2.132c0 .622-.152 1.166-.448 1.645l.851.526c.4-.649.597-1.377.597-2.171zm-.448 1.645c-.27.439-.741.799-1.48 1.049l.32.948c.893-.302 1.586-.782 2.011-1.471zm-1.709 1.838 4.356 5.382.777-.63-4.356-5.382zm4.745 4.567h-2.394v1h2.394zm-2.007.184-4.14-5.076-.775.632 4.14 5.076zm-4.617-10.426h-.001c-.001 0-.001 0-.001 0s0 0-.001 0 0 0-.001 0h-.001c-.001 0-.001 0-.001 0-.001 0-.001 0-.001 0s0 0-.001 0h-.001c-.001 0-.001 0-.001 0-.001 0-.001 0-.001 0s0 0-.001 0h-.001c-.001 0-.001 0-.001 0-.001 0-.001 0-.001 0s0 0-.001 0h-.001c-.001 0-.001 0-.001 0-.001 0-.001 0-.001 0s0 0-.001 0h-.001c-.001 0-.001 0-.001 0s0 0-.001 0 0 0-.001 0h-.001c-.001 0-.001 0-.001 0s0 0-.001 0h-.001c-.001 0-.001 0-.001 0s0 0-.001 0 0 0-.001 0h-.001c-.001 0-.001 0-.001 0s0 0-.001 0h-.001c-.001 0-.001 0-.001 0s0 0-.001 0h-.001c-.001 0-.001 0-.001 0-.001 0-.001 0-.001 0s0 0-.001 0h-.001c-.001 0-.001 0-.001 0s0 0-.001 0h-.001c-.001 0-.001 0-.001 0s0 0-.001 0h-.001c-.001 0-.001 0-.001 0s0 0-.001 0h-.001c-.001 0-.001 0-.001 0s0 0-.001 0h-.001c-.001 0-.001 0-.001 0s0 0-.001 0h-.001c-.001 0-.001 0-.001 0s0 0-.001 0h-.001c-.001 0-.001 0-.001 0s0 0-.001 0h-.001c-.001 0-.001 0-.001 0s0 0-.001 0h-.001c-.001 0-.001 0-.001 0s0 0-.001 0c-.001 0-.001 0-.001 0s0 0-.001 0h-.001c-.001 0-.001 0-.001 0s0 0-.001 0h-.001c-.001 0-.001 0-.001 0s0 0-.001 0h-.001s0 0-.001 0h-.001c-.001 0-.001 0-.001 0s0 0-.001 0h-.001c-.001 0-.001 0-.001 0s0 0-.001 0c-.001 0-.001 0-.001 0s0 0-.001 0h-.001c-.001 0-.001 0-.001 0s0 0-.001 0c-.001 0-.001 0-.001 0s0 0-.001 0h-.001c-.001 0-.001 0-.001 0s0 0-.001 0c-.001 0-.001 0-.001 0s0 0-.001 0h-.001c-.001 0-.001 0-.001 0s0 0-.001 0c-.001 0-.001 0-.001 0s0 0-.001 0h-.001c-.001 0-.001 0-.001 0h-.001c-.001 0-.001 0-.001 0s0 0-.001 0c-.001 0-.001 0-.001 0s0 0-.001 0h-.001c-.001 0-.001 0-.001 0h-.001c-.001 0-.001 0-.001 0s0 0-.001 0c-.001 0-.001 0-.001 0s0 0-.001 0h-.001s0 0-.001 0h-.001c-.001 0-.001 0-.001 0h-.001c-.001 0-.001 0-.001 0s0 0-.001 0c-.001 0-.001 0-.001 0s0 0-.001 0h-.001s0 0-.001 0h-.001c-.001 0-.001 0-.001 0h-.001c-.001 0-.001 0-.001 0h-.001c-.001 0-.001 0-.001 0s0 0-.001 0c-.001 0-.001 0-.001 0s0 0-.001 0c-.001 0-.001 0-.001 0s0 0-.001 0h-.001s0 0-.001 0h-.001s0 0-.001 0h-.001s0 0-.001 0h-.001s0 0-.001 0h-.001c-.001 0-.001 0-.001 0h-.001c-.001 0-.001 0-.001 0h-.001c-.001 0-.001 0-.001 0h-.001c-.001 0-.001 0-.001 0h-.001c-.001 0-.001 0-.001 0h-.001c-.001 0-.001 0-.001 0h-.001c-.001 0-.001 0-.001 0h-.001c-.001 0-.001 0-.001 0h-.001c-.001 0-.001 0-.001 0h-.001c-.001 0-.001 0-.001 0h-.001s0 0-.001 0h-.001s0 0-.001 0h-.001s0 0-.001 0h-.001s0 0-.001 0h-.001s0 0-.001 0c-.001 0-.001 0-.001 0s0 0-.001 0c-.001 0-.001 0-.001 0s0 0-.001 0c-.001 0-.001 0-.001 0h-.001c-.001 0-.001 0-.001 0h-.001c-.001 0-.001 0-.001 0h-.001s0 0-.001 0h-.001s0 0-.001 0h-.001s0 0-.001 0c-.001 0-.001 0-.001 0s0 0-.001 0c-.001 0-.001 0-.001 0h-.001c-.001 0-.001 0-.001 0h-.001s0 0-.001 0h-.001s0 0-.001 0c-.001 0-.001 0-.001 0s0 0-.001 0c-.001 0-.001 0-.001 0h-.001c-.001 0-.001 0-.001 0h-.001s0 0-.001 0h-.001s0 0-.001 0c-.001 0-.001 0-.001 0h-.001c-.001 0-.001 0-.001 0h-.001s0 0-.001 0h-.001s0 0-.001 0c-.001 0-.001 0-.001 0h-.001c-.001 0-.001 0-.001 0h-.001s0 0-.001 0c-.001 0-.001 0-.001 0s0 0-.001 0c-.001 0-.001 0-.001 0h-.001s0 0-.001 0h-.001s0 0-.001 0c-.001 0-.001 0-.001 0h-.001c-.001 0-.001 0-.001 0h-.001s0 0-.001 0c-.001 0-.001 0-.001 0h-.001c-.001 0-.001 0-.001 0h-.001s0 0-.001 0c-.001 0-.001 0-.001 0h-.001c-.001 0-.001 0-.001 0h-.001s0 0-.001 0c-.001 0-.001 0-.001 0h-.001c-.001 0-.001 0-.001 0h-.001s0 0-.001 0c-.001 0-.001 0-.001 0h-.001s0 0-.001 0c-.001 0-.001 0-.001 0s0 0-.001 0c-.001 0-.001 0-.001 0h-.001s0 0-.001 0c-.001 0-.001 0-.001 0h-.001s0 0-.001 0h-.001s0 0-.001 0c-.001 0-.001 0-.001 0h-.001s0 0-.001 0c-.001 0-.001 0-.001 0h-.001s0 0-.001 0c-.001 0-.001 0-.001 0s0 0-.001 0c-.001 0-.001 0-.001 0h-.001s0 0-.001 0c-.001 0-.001 0-.001 0h-.001s0 0-.001 0c-.001 0-.001 0-.001 0h-.001s0 0-.001 0c-.001 0-.001 0-.001 0h-.001s0 0-.001 0h-.001s0 0-.001 0c-.001 0-.001 0-.001 0h-.001s0 0-.001 0c-.001 0-.001 0-.001 0h-.001s0 0-.001 0c-.001 0-.001 0-.001 0h-.001s0 0-.001 0c-.001 0-.001 0-.001 0h-.001s0 0-.001 0c-.001 0-.001 0-.001 0h-.001s0 0-.001 0c-.001 0-.001 0-.001 0h-.001s0 0-.001 0c-.001 0-.001 0-.001 0h-.001s0 0-.001 0c-.001 0-.001 0-.001 0h-.001s0 0-.001 0c-.001 0-.001 0-.001 0h-.001s0 0-.001 0c-.001 0-.001 0-.001 0h-.001s0 0-.001 0c-.001 0-.001 0-.001 0h-.001s0 0-.001 0c-.001 0-.001 0-.001 0h-.001s0 0-.001 0c0 0 0 0-.001 0-.001 0-.001 0-.001 0h-.001s0 0-.001 0c-.001 0-.001 0-.001 0h-.001s0 0-.001 0c-.001 0-.001 0-.001 0h-.001s0 0-.001 0c-.001 0-.001 0-.001 0h-.001s0 0-.001 0c-.001 0-.001 0-.001 0-.001 0-.001 0-.001 0h-.001s0 0-.001 0c-.001 0-.001 0-.001 0h-.001s0 0-.001 0c-.001 0-.001 0-.001 0h-.001s0 0-.001 0c0 0 0 0-.001 0v1h.001.001.001.001.001.001.001.001.001.001.001.001.001.001.001.001.001.001.001.001.001.001.001.001.001.001.001.001.001.001.001.001.001.001.001.001.001.001.001.001.001.001.001.001.001.001.001.001.001.001.001.001.001.001.001.001.001.001.001.001.001.001.001.001.001.001.001.001.001.001.001.001.001.001.001.001.001.001.001.001.001.001.001.001.001.001.001.001.001.001.001.001.001.001.001.001.001.001.001.001.001.001.001.001.001.001.001.001.001.001.001.001.001.001.001.001.001.001.001.001.001.001.001.001.001.001.001.001.001.001.001.001.001.001.001.001.001.001.001.001.001.001.001.001.001.001.001.001.001.001.001.001.001.001.001.001.001.001.001.001.001.001.001.001.001.001.001.001.001.001.001.001.001.001.001.001.001.001.001.001.001.001.001.001.001.001.001.001.001.001.001.001.001.001.001.001.001.001.001.001.001.001.001.001.001.001.001.001.001.001.001.001.001.001.001.001.001.001.001.001.001.001.001.001.001.001.001.001.001.001.001.001.001.001.001.001.001.001.001.001.001.001.001.001.001.001.001.001.001.001.001.001.001.001.001.001.001.001.001.001.001.001.001.001.001.001.001.001.001.001.001.001.001.001.001.001.001.001.001.001.001.001.001.001.001.001.001.001.001.001.001.001.001.001.001.001.001.001.001.001.001.001.001.001.001.001.001.001.001.001.001.001.001.001.001.001.001.001.001.001.001.001.001.001.001.001.001.001.001.001.001.001.001.001.001.001.001.001.001.001.001.001zm-.342 0c-.147 0-.299.007-.456.02l.083.996c.132-.011.256-.016.373-.016zm-.914.518v3.42h1v-3.42zm.5 3.92h1.116v-1h-1.116zm1.116 0c.726 0 1.362-.182 1.823-.626l-.694-.72c-.212.204-.56.346-1.129.346zm1.823-.626c.459-.443.657-1.051.657-1.746h-1c0 .505-.139.821-.351 1.026zm.657-1.746c0-.648-.208-1.215-.704-1.588l-.6.8c.175.131.304.356.304.788zm-.697-1.583c-.246-.191-.563-.307-.908-.378-.351-.072-.765-.105-1.235-.105v1c.429 0 .771.03 1.033.084.266.055.418.128.496.189zm18.547-1.621-.039-.499-.461.036v.463zm.738-.036-.018-.5zm1.062-.018v.5h.008.008zm1.062-.018v.5h.008.009zm3.672.342-.154.476.002.001zm1.872.99.327-.378-.003-.002zm1.512 7.182-.481-.136-.002.005zm-1.062 1.872-.362-.345-.004.004zm-2.106 1.296.165.472.004-.002zm-5.04.414.031-.499zm-1.71-.144h-.5v.45l.447.047zm7.002-2.556-.36-.347-.003.003zm.792-5.256-.486.119.003.013zm-.702-1.35-.366.341zm-1.35-.81-.152.476zm-3.672-.252-.019-.5-.481.019v.481zm0 8.64h-.5v.466l.464.033zm.972.054-.019.5zm-3.004-9.851c.145-.012.383-.023.718-.035l-.036-1c-.337.012-.592.025-.759.037zm.718-.035c.329-.012.677-.018 1.044-.018v-1c-.378 0-.738.006-1.08.018zm1.06-.018c.367-.012.716-.018 1.046-.018v-1c-.342 0-.702.006-1.078.018zm1.063-.018c.346-.012.609-.018.793-.018v-1c-.201 0-.478.006-.827.018zm.793-.018c1.135 0 2.032.118 2.708.336l.307-.952c-.811-.262-1.822-.384-3.015-.384zm2.71.337c.707.224 1.268.525 1.699.893l.649-.76c-.552-.472-1.239-.831-2.045-1.087zm1.696.891c.564.489.979 1.114 1.24 1.888l.947-.32c-.314-.93-.824-1.709-1.532-2.324zm1.24 1.888c.268.794.406 1.681.406 2.666h1c0-1.079-.151-2.076-.459-2.986zm.406 2.666c0 .736-.096 1.44-.287 2.114l.962.272c.217-.766.325-1.562.325-2.386zm-.289 2.119c-.17.626-.481 1.177-.941 1.658l.723.69c.573-.599.969-1.296 1.183-2.086zm-.945 1.662c-.436.467-1.063.862-1.91 1.167l.339.94c.954-.343 1.73-.812 2.302-1.425zm-1.906 1.165c-.816.287-1.894.44-3.254.44v1c1.424 0 2.625-.159 3.585-.496zm-3.254.44c-.492 0-1.022-.018-1.589-.053l-.062.998c.584.037 1.135.055 1.651.055zm-1.589-.053c-.569-.036-1.132-.083-1.688-.142l-.106.994c.571.061 1.148.11 1.732.146zm-1.241.355v-11.88h-1v11.88zm3.334-1.012c1.519 0 2.737-.363 3.531-1.2l-.726-.688c-.526.555-1.42.888-2.805.888zm3.527-1.197c.805-.833 1.149-2.124 1.149-3.749h-1c0 1.519-.328 2.496-.868 3.055zm1.149-3.749c0-.74-.075-1.404-.234-1.986l-.965.264c.13.474.199 1.046.199 1.722zm-.231-1.973c-.149-.612-.42-1.142-.822-1.572l-.731.682c.271.29.468.66.582 1.128zm-.822-1.572c-.405-.434-.934-.745-1.563-.945l-.304.952c.499.16.869.389 1.136.675zm-1.563-.945c-.629-.201-1.386-.294-2.258-.294v1c.808 0 1.455.087 1.954.246zm-2.258-.294c-.001 0-.001 0-.001 0-.001 0-.001 0-.001 0-.001 0-.001 0-.001 0-.001 0-.001 0-.001 0-.001 0-.001 0-.001 0-.001 0-.001 0-.001 0-.001 0-.001 0-.001 0-.001 0-.001 0-.001 0-.001 0-.001 0-.001 0-.001 0-.001 0-.001 0-.001 0-.001 0-.001 0-.001 0-.001 0-.001 0-.001 0-.001 0-.001 0-.001 0-.001 0-.001 0-.001 0-.001 0-.001 0-.001 0-.001 0-.001 0-.001 0-.001 0-.001 0-.001 0-.001 0-.001 0-.001 0-.001 0-.001 0-.001 0-.001 0-.001 0-.001 0-.001 0-.001 0-.001 0-.001 0-.001 0-.001 0-.001 0-.001 0-.001 0-.001 0-.001 0-.001 0-.001 0-.001 0-.001 0-.001 0-.001 0-.001 0-.001 0-.001 0-.001 0-.001 0-.001 0-.001 0-.001 0-.001 0-.001 0-.001 0-.001 0-.001 0-.001 0-.001 0-.001 0-.001 0-.001 0-.001 0-.001 0-.001 0-.001 0-.001 0-.002 0 0 0 0 0-.001 0 0 0 0 0-.001 0 0 0 0 0-.001 0 0 0 0 0-.001 0 0 0 0 0-.001 0 0 0 0 0-.001 0 0 0 0 0-.001 0 0 0 0 0-.001 0h-.001-.001-.001-.001-.001-.001-.001-.001c-.001 0-.001 0-.001 0-.001 0-.001 0-.001 0-.001 0-.001 0-.001 0-.001 0-.001 0-.001 0-.001 0-.001 0-.001 0-.001 0-.001 0-.002 0 0 0 0 0-.001 0 0 0 0 0-.001 0 0 0 0 0-.001 0 0 0 0 0-.001 0h-.001-.001-.001-.001-.001c-.001 0-.001 0-.001 0-.001 0-.001 0-.001 0-.001 0-.001 0-.001 0-.001 0-.001 0-.001 0-.001 0-.001 0-.002 0 0 0 0 0-.001 0 0 0 0 0-.001 0 0 0 0 0-.001 0h-.001-.001-.001-.001-.001c-.001 0-.001 0-.001 0-.001 0-.001 0-.001 0-.001 0-.001 0-.002 0 0 0 0 0-.001 0 0 0 0 0-.001 0 0 0 0 0-.001 0h-.001-.001-.001-.001c-.001 0-.001 0-.001 0-.001 0-.001 0-.001 0-.001 0-.001 0-.002 0 0 0 0 0-.001 0 0 0 0 0-.001 0 0 0 0 0-.001 0h-.001-.001-.001c-.001 0-.001 0-.001 0-.001 0-.001 0-.001 0-.001 0-.001 0-.002 0 0 0 0 0-.001 0 0 0 0 0-.001 0h-.001-.001-.001c-.001 0-.001 0-.001 0-.001 0-.001 0-.001 0-.001 0-.001 0-.002 0 0 0 0 0-.001 0 0 0 0 0-.001 0h-.001-.001c-.001 0-.001 0-.001 0-.001 0-.001 0-.001 0-.001 0-.001 0-.002 0 0 0 0 0-.001 0 0 0 0 0-.001 0h-.001-.001c-.001 0-.001 0-.001 0-.001 0-.001 0-.001 0-.001 0-.001 0-.002 0 0 0 0 0-.001 0 0 0 0 0-.001 0h-.001-.001c-.001 0-.001 0-.001 0-.001 0-.001 0-.002 0 0 0 0 0-.001 0 0 0 0 0-.001 0h-.001-.001c-.001 0-.001 0-.001 0-.001 0-.001 0-.001 0-.001 0-.001 0-.002 0 0 0 0 0-.001 0h-.001-.001c-.001 0-.001 0-.001 0-.001 0-.001 0-.002 0 0 0 0 0-.001 0 0 0 0 0-.001 0h-.001-.001c-.001 0-.001 0-.001 0-.001 0-.001 0-.002 0 0 0 0 0-.001 0h-.001-.001c-.001 0-.001 0-.001 0-.001 0-.001 0-.002 0 0 0 0 0-.001 0h-.001-.001c-.001 0-.001 0-.001 0-.001 0-.001 0-.002 0 0 0 0 0-.001 0h-.001-.001c-.001 0-.001 0-.001 0-.001 0-.001 0-.002 0 0 0 0 0-.001 0h-.001-.001c-.001 0-.001 0-.001 0-.001 0-.001 0-.002 0 0 0 0 0-.001 0h-.001-.001c-.001 0-.001 0-.001 0-.001 0-.001 0-.002 0 0 0 0 0-.001 0h-.001c-.001 0-.001 0-.001 0-.001 0-.001 0-.002 0 0 0 0 0-.001 0h-.001-.001c-.001 0-.001 0-.001 0-.001 0-.001 0-.002 0h-.001-.001c-.001 0-.001 0-.001 0-.001 0-.001 0-.002 0 0 0 0 0-.001 0h-.001c-.001 0-.001 0-.001 0-.001 0-.001 0-.002 0 0 0 0 0-.001 0h-.001-.001c-.001 0-.001 0-.002 0 0 0 0 0-.001 0h-.001-.001c-.001 0-.001 0-.002 0 0 0 0 0-.001 0h-.001c-.001 0-.001 0-.001 0-.001 0-.001 0-.002 0 0 0 0 0-.001 0h-.001c-.001 0-.001 0-.001 0-.001 0-.001 0-.002 0 0 0 0 0-.001 0h-.001c-.001 0-.001 0-.001 0-.001 0-.001 0-.002 0h-.001-.001c-.001 0-.001 0-.002 0 0 0 0 0-.001 0h-.001c-.001 0-.001 0-.001 0-.001 0-.001 0-.002 0 0 0 0 0-.001 0h-.001c-.001 0-.001 0-.001 0-.001 0-.001 0-.002 0h-.001-.001c-.001 0-.001 0-.002 0 0 0 0 0-.001 0h-.001c-.001 0-.001 0-.002 0 0 0 0 0-.001 0h-.001c-.001 0-.001 0-.001 0-.001 0-.001 0-.002 0h-.001-.001c-.001 0-.001 0-.002 0 0 0 0 0-.001 0h-.001c-.001 0-.001 0-.002 0 0 0 0 0-.001 0h-.001c-.001 0-.001 0-.001 0-.001 0-.001 0-.002 0h-.001c-.001 0-.001 0-.001 0-.001 0-.001 0-.002 0h-.001-.001c-.001 0-.001 0-.002 0h-.001-.001c-.001 0-.001 0-.002 0h-.001-.001c-.001 0-.001 0-.002 0 0 0 0 0-.001 0h-.001c-.001 0-.001 0-.002 0 0 0 0 0-.001 0h-.001c-.001 0-.001 0-.002 0 0 0 0 0-.001 0h-.001c-.001 0-.001 0-.002 0h-.001-.001c-.001 0-.001 0-.002 0h-.001-.001c-.001 0-.001 0-.002 0h-.001-.001c-.001 0-.001 0-.002 0h-.001c-.001 0-.001 0-.001 0-.001 0-.001 0-.002 0h-.001c-.001 0-.001 0-.002 0 0 0 0 0-.001 0h-.001c-.001 0-.001 0-.002 0h-.001-.001c-.001 0-.001 0-.002 0h-.001c-.001 0-.001 0-.001 0-.001 0-.001 0-.002 0h-.001c-.001 0-.001 0-.002 0 0 0 0 0-.001 0h-.001c-.001 0-.001 0-.002 0h-.001c-.001 0-.001 0-.001 0-.001 0-.001 0-.002 0h-.001c-.001 0-.001 0-.002 0h-.001-.001c-.001 0-.001 0-.002 0h-.001c-.001 0-.001 0-.002 0h-.001-.001c-.001 0-.001 0-.002 0h-.001c-.001 0-.001 0-.002 0h-.001-.001c-.001 0-.001 0-.002 0h-.001c-.001 0-.001 0-.002 0h-.001-.001c-.001 0-.001 0-.002 0h-.001c-.001 0-.001 0-.002 0h-.001c-.001 0-.001 0-.001 0-.001 0-.001 0-.002 0h-.001c-.001 0-.001 0-.002 0h-.001c-.001 0-.001 0-.002 0h-.001-.001c-.001 0-.001 0-.002 0h-.001c-.001 0-.001 0-.002 0h-.001c-.001 0-.001 0-.002 0h-.001-.001c-.001 0-.001 0-.002 0h-.001c-.001 0-.001 0-.002 0h-.001c-.001 0-.001 0-.002 0h-.001c-.001 0-.001 0-.002 0 0 0 0 0-.001 0h-.001c-.001 0-.001 0-.002 0h-.001c-.001 0-.001 0-.002 0h-.001c-.001 0-.001 0-.002 0h-.001c-.001 0-.001 0-.002 0h-.001c-.001 0-.001 0-.002 0 0 0 0 0-.001 0h-.001c-.001 0-.001 0-.002 0h-.001c-.001 0-.001 0-.002 0h-.001c-.001 0-.001 0-.002 0h-.001c-.001 0-.001 0-.002 0h-.001c-.001 0-.001 0-.002 0h-.001c-.001 0-.001 0-.002 0h-.001c-.001 0-.001 0-.002 0h-.001c-.001 0-.001 0-.002 0h-.001c-.001 0-.001 0-.002 0h-.001c-.001 0-.001 0-.002 0 0 0 0 0-.001 0h-.001c-.001 0-.001 0-.002 0h-.001c-.001 0-.001 0-.002 0h-.001c-.001 0-.001 0-.002 0h-.001c-.001 0-.001 0-.002 0h-.001c-.001 0-.001 0-.002 0h-.001c-.001 0-.001 0-.002 0h-.001c-.001 0-.001 0-.002 0s-.001 0-.002 0h-.001c-.001 0-.001 0-.002 0h-.001c-.001 0-.001 0-.002 0h-.001c-.001 0-.001 0-.002 0h-.001c-.001 0-.001 0-.002 0h-.001c-.001 0-.001 0-.002 0h-.001c-.001 0-.001 0-.002 0h-.001c-.001 0-.001 0-.002 0h-.001c-.001 0-.001 0-.002 0h-.001c-.001 0-.001 0-.002 0h-.001c-.001 0-.002 0-.002 0-.001 0-.001 0-.002 0h-.001c-.001 0-.001 0-.002 0h-.001c-.001 0-.001 0-.002 0h-.001c-.001 0-.001 0-.002 0h-.001c-.001 0-.001 0-.002 0h-.001c-.001 0-.002 0-.002 0-.001 0-.001 0-.002 0h-.001c-.001 0-.001 0-.002 0h-.001c-.001 0-.001 0-.002 0h-.001c-.001 0-.001 0-.002 0 0 0-.001 0-.002 0h-.001c-.001 0-.001 0-.002 0h-.001c-.001 0-.001 0-.002 0h-.001c-.001 0-.001 0-.002 0 0 0-.001 0-.002 0h-.001c-.001 0-.001 0-.002 0h-.001c-.001 0-.001 0-.002 0h-.001c-.001 0-.001 0-.002 0s-.001 0-.002 0h-.001c-.001 0-.001 0-.002 0h-.001c-.001 0-.001 0-.002 0 0 0-.001 0-.002 0h-.001c-.001 0-.001 0-.002 0h-.001c-.001 0-.001 0-.002 0h-.001c-.001 0-.002 0-.002 0-.001 0-.001 0-.002 0h-.001c-.001 0-.001 0-.002 0h-.001c-.001 0-.002 0-.002 0-.001 0-.001 0-.002 0h-.001c-.001 0-.001 0-.002 0 0 0-.001 0-.002 0h-.001c-.001 0-.001 0-.002 0h-.001c-.001 0-.001 0-.002 0s-.001 0-.002 0h-.001c-.001 0-.001 0-.002 0h-.001c-.001 0-.002 0-.002 0-.001 0-.001 0-.002 0h-.001c-.001 0-.001 0-.002 0s-.001 0-.002 0h-.001c-.001 0-.001 0-.002 0h-.001c-.001 0-.002 0-.002 0-.001 0-.001 0-.002 0h-.001c-.001 0-.001 0-.002 0s-.001 0-.002 0h-.001c-.001 0-.001 0-.002 0s-.001 0-.002 0h-.001c-.001 0-.001 0-.002 0 0 0-.001 0-.002 0h-.001c-.001 0-.001 0-.002 0 0 0-.001 0-.002 0h-.001c-.001 0-.001 0-.002 0h-.001c-.001 0-.002 0-.002 0-.001 0-.001 0-.002 0h-.001c-.001 0-.002 0-.002 0-.001 0-.001 0-.002 0h-.001c-.001 0-.002 0-.002 0-.001 0-.001 0-.002 0h-.001c-.001 0-.002 0-.002 0-.001 0-.001 0-.002 0h-.001c-.001 0-.002 0-.002 0-.001 0-.001 0-.002 0h-.001c-.001 0-.002 0-.002 0-.001 0-.001 0-.002 0 0 0-.001 0-.002 0h-.001c-.001 0-.001 0-.002 0 0 0-.001 0-.002 0h-.001v1h.001.002.002.001.002.002.002.001.002.002.001.002.002.001.002.002.001.002.002.001.002.002.001.002.001.002.002.001.002.002.001.002.002.001.002.002.001.002.002.001.002.001.002.002.001.002.002.001.002.001.002.002.001.002.001.002.002.001.002.002.001.002.001.002.002.001.002.001.002.001.002.002.001.002.001.002.002.001.002.001.002.001.002.002.001.002.001.002.001.002.002.001.002.001.002.001.002.002.001.002.001.002.001.002.001.002.001.002.002.001.002.001.002.001.002.001.002.001.002.001.002.001.002.001.002.001.002.001.002.002.001.002.001.002.001.002.001.002.001.002.001.002.001.001.002.001.002.001.002.001.002.001.002.001.002.001.002.001.002.001.002.001.002.001.001.002.001.002.001.002.001.002.001.002.001.001.002.001.002.001.002.001.002.001.001.002.001.002.001.002.001.001.002.001.002.001.002.001.001.002.001.002.001.001.002.001.002.001.001.002.001.002.001.001.002.001.002.001.001.002.001.002.001.001.002.001.001.002.001.002.001.001.002.001.001.002.001.001.002.001.002.001.001.002.001.001.002.001.001.002.001.001.002.001.001.002.001.001.002.001.001.002.001.001.002.001.001.002.001.001.002.001.001.002.001.001.001.002.001.001.002.001.001.002.001.001.001.002.001.001.002.001.001.002.001.001.001.002.001.001.001.002.001.001.002.001.001.001.002.001.001.001.002.001.001.001.002.001.001.001.002.001.001.001.002.001.001.001.002.001.001.001.002.001.001.001.001.002.001.001.001.002.001.001.001.001.002.001.001.001.001.002.001.001.001.001.002.001.001.001.001.002.001.001.001.001.002.001.001.001.001.001.002.001.001.001.001.002.001.001.001.001.001.001.002.001.001.001.001.001.002.001.001.001.001.001.001.002.001.001.001.001.001.001.002.001.001.001.001.001.001.001.002.001.001.001.001.001.001.001.001.002.001.001.001.001.001.001.001.001.001.002.001.001.001.001.001.001.001.001.001.001.002.001.001.001.001.001.001.001.001.001.001.001.001.001.002.001.001.001.001.001.001.001.001.001.001.001.001.001.001.001.001.001.001.001.001.001.002.001.001.001.001.001.001.001.001.001.001.001.001.001.001.001.001.001.001.001.001.001.001.001.001.001.001.001.001.001.001.001.001.001zm-.684 0c-.283 0-.584.006-.901.018l.038 1c.306-.012.594-.018.863-.018zm-1.382.518v8.64h1v-8.64zm.464 9.139c.341.024.671.042.989.055l.038-1c-.306-.011-.625-.029-.956-.053zm.989.055c.315.012.586.018.811.018v-1c-.208 0-.465-.006-.773-.018z"/><path clip-rule="evenodd" d="m265.5 19.5c0-1.3807 1.119-2.5 2.5-2.5h32c.115 0 .23.0079.344.0238 6.402.8891 15.875 4.1317 23.796 11.0141 8.001 6.9525 14.36 17.5809 14.36 32.9621 0 15.3986-6.38 25.3474-14.508 31.3934-8.007 5.9565-17.549 8.0176-23.957 8.1066h-.035-32c-1.381 0-2.5-1.1193-2.5-2.5s1.119-2.5 2.5-2.5h31.982c5.593-.0812 14.04-1.9219 21.026-7.1184 6.872-5.1124 12.492-13.5802 12.492-27.3816 0-13.8188-5.641-23.1071-12.64-29.1879-7.009-6.09-15.437-9.0004-21.036-9.8121h-29.324v53c0 1.3807-1.119 2.5-2.5 2.5s-2.5-1.1193-2.5-2.5zm84 0c0-1.3807 1.119-2.5 2.5-2.5h38c.129 0 .257.0099.384.0297 4.071.6333 10.111 2.5881 15.196 6.4708 5.153 3.9348 9.42 9.9453 9.42 18.4995 0 5.2283-1.42 9.436-3.806 12.7557-2.367 3.2945-5.579 5.5687-8.953 7.1365-4.525 2.1024-9.509 3.0116-13.612 3.3796l25.046 30.2282h65.632c3.01-.4818 7.486-1.9505 11.178-4.7635 3.694-2.8151 6.515-6.8859 6.515-12.7365s-2.821-9.9214-6.515-12.7365c-3.692-2.813-8.168-4.2817-11.177-4.7635h-28.808c-1.381 0-2.5-1.1193-2.5-2.5s1.119-2.5 2.5-2.5h28.759c2.363-.4786 5.845-1.7381 8.713-3.9534 2.906-2.245 5.028-5.3286 5.028-9.5466 0-11.5126-9.772-20-20-20h-32.5v53c0 1.3807-1.119 2.5-2.5 2.5s-2.5-1.1193-2.5-2.5v-55.5c0-1.3807 1.119-2.5 2.5-2.5h35c12.772 0 25 10.5126 25 25 0 6.182-3.211 10.5984-6.972 13.5034-1.138.8796-2.341 1.6336-3.547 2.2722 2.032.8876 4.109 2.0436 6.034 3.5109 4.639 3.5349 8.485 8.9641 8.485 16.7135s-3.846 13.1786-8.485 16.7135c-4.568 3.4809-9.986 5.2102-13.644 5.7585-.123.019-.247.028-.371.028h-67c-.744 0-1.45-.332-1.925-.905l-29-35c-.618-.7459-.75-1.7818-.337-2.6586.412-.8767 1.293-1.4364 2.262-1.4364 4.133 0 10.944-.4985 16.634-3.1422 2.813-1.3072 5.258-3.0955 7-5.5198 1.724-2.399 2.866-5.5663 2.866-9.838 0-6.6458-3.233-11.3019-7.455-14.5255-4.213-3.2171-9.315-4.9098-12.744-5.4745h-35.301v76c0 1.3807-1.119 2.5-2.5 2.5s-2.5-1.1193-2.5-2.5z" fill-rule="evenodd"/></g></svg>