<svg fill="none" height="42" viewBox="0 0 42 42" width="42" xmlns="http://www.w3.org/2000/svg"><path clip-rule="evenodd" d="m35.4328 4.75011v.00006l1.5124 1.51247 2.9367-2.93667c.0249-.02493.0434-.05385.0556-.08469-.0122.0308-.0307.05967-.0556.08458l-2.9366 2.93666zm4.2733-1.60008-2.7608 2.76084-1.1609-1.16081 2.7609-2.76084zm-29.4906 35.84597 1.5255-1.5254c.0243-.0243.0425-.0524.0546-.0823-.0121.03-.0303.0581-.0546.0824l-1.5255 1.5255c-.0971.0971-.25456.0971-.35166 0l-7.30449-7.3045c-.04782-.0479-.07208-.1103-.0728-.173.00075.0627.02502.1251.07281.1729l7.30449 7.3044c.09711.0971.25455.0971.35165 0zm12.746-32.18224 3.973 3.97304-16.2696 16.2696-3.69105-3.6911c-.77684-.7768-2.03634-.7768-2.81318 0l-1.83749 1.8375c-.77684.7769-.77684 2.0364 0 2.8132l.54939.5494-.01848.0182-1.52549 1.5255c-.776844.7769-.776843 2.0364 0 2.8132l1.7352 1.7352-2.481171 2.4812c-.776839.7768-.776838 2.0363.000001 2.8132l1.16081 1.1608c.77684.7768 2.03634.7768 2.81318 0l2.48117-2.4812 1.59529 1.5953c.77684.7768 2.03632.7768 2.81322 0l1.5255-1.5255.0182-.0185.9179.9179c.7768.7769 2.0364.7769 2.8132 0l1.8375-1.8374c.7768-.7769.7768-2.0364 0-2.8132l-3.9197-3.9197 16.2696-16.2696 3.6377 3.6377c.7768.7768 2.0363.7768 2.8132 0l1.8375-1.8375c.7768-.7768.7768-2.0363 0-2.8132l-.7605-.7604c.005-.0048.0099-.0096.0148-.0144.005-.0049.0099-.0097.0148-.0147l1.3568-1.3567c.7768-.7769.7768-2.03636 0-2.8132l-1.4709-1.47093 2.7608-2.76084c.7768-.77684.7768-2.03635 0-2.81319l-1.1608-1.160809c-.7769-.776839-2.0364-.776843-2.8132-.000003l-2.7608 2.760842-1.8596-1.85956c-.7768-.77684-2.0363-.776841-2.8132 0l-1.3567 1.35674c-.0098.0098-.0195.01968-.0291.02964l-.7072-.7072c-.7768-.77684-2.0363-.77684-2.8131 0l-1.8375 1.83749c-.7769.77684-.7769 2.03635 0 2.81318zm-4.0769 29.37604c-.0372-.3883-.2045-.7665-.5018-1.0639l-4.0955-4.0954 4.0954 4.0955c.2974.2974.4647.6755.5019 1.0638zm20.6462-21.0354c0-.4454-.1699-.8909-.5098-1.2308l-.9529-.9529h-.0001l.953.9531c.3399.3398.5098.7852.5098 1.2306zm.618-5.1262c-.0372-.38837-.2045-.7666-.5018-1.06398l-1.6467-1.64671-.0001.00007 1.6467 1.64676c.2974.29735.4647.67553.5019 1.06386zm1.2899-7.045c-.0372-.38829-.2045-.76646-.5019-1.06382l-1.1608-1.16081c-.6797-.6797347-1.7818-.6797381-2.4615-.000003l-2.9367 2.936663-2.0353-2.03538c-.6798-.679737-1.7818-.679738-2.4616 0l-1.3567 1.35674c-.0699.0699-.1326.14427-.1882.22218l-.8997-.89974c-.6797-.67974-1.7818-.67974-2.4615 0l-1.8375 1.83749c-.2257.22566-.3764.49787-.4523.78572.0758-.28789.2266-.56014.4523-.78584l1.8375-1.83749c.6797-.67973 1.7818-.67973 2.4615 0l.8998.89975c.0477-.06699.1007-.13135.1591-.19251.0095-.00998.0192-.01987.029-.02968l1.3567-1.35674c.6798-.679732 1.7818-.679731 2.4616 0l2.0354 2.03539 2.9366-2.936668c.6798-.6797347 1.7818-.6797314 2.4616.000003l1.1608 1.160815c.2973.29738.4646.6756.5018 1.06393zm-14.1526 7.8037-16.6212 16.6212-3.86687-3.8669c-.67974-.6798-1.7818-.6798-2.46154 0l-1.83749 1.8375c-.23366.2336-.387.5172-.46002.8164.07303-.2992.22637-.5827.46001-.8163l1.83749-1.8375c.67973-.6798 1.7818-.6798 2.46153 0l3.86689 3.8669zm-24.04684 17.7937c-.06646.0482-.13027.1018-.19085.1606l-.0185.0183-1.52549 1.5255c-.23284.2328-.38593.5152-.45925.8132.07333-.298.22642-.5803.45924-.8131l1.52549-1.5255c.06607-.0661.13614-.1257.20942-.179zm.17612 6.077-2.656927 2.6569c-.225372.2254-.376019.4972-.451943.7846.075933-.2874.226586-.5591.451929-.7845l2.656991-2.657zm8.30452-6.1946-.0001.0001 1.5125 1.5125 16.6213-16.6213h-.0001l-16.6212 16.6212zm1.5124 1.1608-1.1608-1.1608 16.2696-16.2696 1.1608 1.1608zm-11.24308 8.9215 2.48117-2.4812 1.16081 1.1608-2.48117 2.4812zm3.99357-1.3203-2.65694 2.6569c-.0971.0971-.25453.0971-.35164 0l-1.16081-1.1608c-.03944-.0394-.06286-.0888-.07026-.1401.00738.0513.03078.1008.07024.1402l1.16081 1.1608c.09711.0971.25455.0971.35165 0l2.65699-2.657zm25.12891-34.3345 7.3045 7.3045-1.3567 1.3567-7.3045-7.30446zm-26.85102 27.0997 7.30452 7.3045-1.5255 1.5255-7.30451-7.3045zm21.94492-26.42052 11.5847 11.58472-1.8375 1.8375-11.5847-11.58473zm-20.63834 21.20222 11.58474 11.5848-1.8375 1.8375-11.58473-11.5848zm33.07934-14.4833c-.0121.0299-.0303.058-.0546.0823l-1.3567 1.3568c-.0971.0971-.2546.0971-.3517 0l-7.3045-7.30452c-.0491-.04913-.0734-.1137-.0728-.17808-.0005.06435.0237.12887.0728.17796l7.3045 7.30454c.0971.0971.2546.0971.3517 0l1.3567-1.3568c.0243-.0243.0425-.0523.0546-.0822zm-14.5272-4.88143c0 .06368.0242.12736.0728.17594l11.5848 11.58469c.0971.0971.2545.0971.3516 0l1.8375-1.8375c.0228-.0227.0402-.0489.0523-.0767-.0121.0278-.0295.0539-.0523.0766l-1.8375 1.8375c-.0971.0971-.2545.0971-.3516 0l-11.5848-11.5847c-.0485-.04856-.0728-.11219-.0728-.17583zm-6.7233 30.99703c-.0091.047-.0319.092-.0683.1284l-1.8375 1.8375c-.0971.0971-.2545.0971-.3516 0l-11.58477-11.5847c-.04799-.048-.07224-.1108-.0728-.1736.00058.0628.02486.1255.07282.1734l11.58475 11.5848c.0971.0971.2545.0971.3516 0l1.8375-1.8375c.0364-.0364.0592-.0813.0683-.1283z" fill="#000" fill-rule="evenodd"/></svg>