<svg fill="none" height="37" viewBox="0 0 53 37" width="53" xmlns="http://www.w3.org/2000/svg"><path clip-rule="evenodd" d="m45.3952 3.20304 1.6163-1.74057c.327-.35221.3066-.902865-.0456-1.229921-.3522-.327055-.9029-.3066598-1.2299.045552l-1.358 1.462469h-7.0801c-.4806 0-.8703.38964-.8703.87029v4.97305h-17.5141l-1.9977-4.7244h2.3548c.4806 0 .8703-.38964.8703-.87028 0-.48065-.3897-.87029-.8703-.87029h-7.3353c-.4806 0-.8703.38964-.8703.87029 0 .48064.3897.87028.8703.87028h3.0908l1.9996 4.72901-3.5567 8.64598c-.958-.2895-1.9738-.4451-3.0256-.4451-5.76773 0-10.4434 4.6757-10.4434 10.4435 0 5.7677 4.67567 10.4434 10.4434 10.4434 5.3898 0 9.8257-4.0828 10.3842-9.3245h1.5015c.4552 1.2336 1.6413 2.1135 3.0335 2.1135 1.7852 0 3.2325-1.4472 3.2325-3.2324 0-1.1383-.5885-2.1389-1.4769-2.7146l9.7773-13.073 1.4682 5.9136c-4.0931 1.4133-7.0335 5.2999-7.0335 9.874 0 5.7677 4.6757 10.4434 10.4434 10.4434 5.7678 0 10.4435-4.6757 10.4435-10.4434 0-5.7678-4.6757-10.4435-10.4435-10.4435-.5866 0-1.1621.0484-1.7227.1415l-1.8827-7.58313v-4.86663h4.973v2.3972c-.0381.03517-.1039.08571-.2122.14266-.2848.14972-.8299.31965-1.777.31965-.4806 0-.8703.38964-.8703.87028 0 .48065.3897.87029.8703.87029 1.1416 0 1.9848-.20304 2.5869-.51957.5791-.30441 1.0063-.7593 1.1222-1.28087.0138-.06198.0207-.12529.0207-.18879v-2.61977c.1956-.02823.3772-.12252.5134-.26918zm.523-2.755742-1.4318 1.541932h-7.1885c-.3004 0-.551.21308-.609.49635.058-.28322.3086-.49624.609-.49624h6.7136.4749l1.4318-1.541928c.2336-.251581.6269-.266149.8785-.032538.1002.093052.1628.21144.1871.336122-.0242-.124722-.0869-.243156-.1871-.336236-.2516-.23361-.6449-.219043-.8785.032538zm-1.2851 2.785302v2.85951c0-.00005.0001-.00007.0001-.00012zm-7.9568 4.59996h-17.9276l-2.2079-5.22159h-.0001l2.0004 4.73096.2076.49075h17.9276zm4.4757-1.24326c-.3004 0-.551.21308-.609.49635.058-.28321.3086-.49624.609-.49624.9749 0 1.5626-.17466 1.8927-.3482.2221-.11679.3122-.22227.3452-.26896v-.00011c-.033.04669-.1231.15217-.3452.26896-.3301.17354-.9178.3482-1.8927.3482zm-1.2864 9.6271-1.9461-7.83822v-5.14558 5.14569l1.946 7.83821c.6182-.1171 1.256-.1783 1.9081-.1783 5.6304 0 10.1948 4.5644 10.1948 10.1948 0-.0001 0-.0001 0-.0001 0-5.6305-4.5643-10.1948-10.1948-10.1948-.6521 0-1.2899.0612-1.908.1783zm-1.2052.3058c-3.0808.9869-5.5238 3.3993-6.5527 6.4611 1.029-3.0618 3.4719-5.4741 6.5528-6.461zm-11.6915 7.1957c-.0701-.0449-.1422-.0869-.2162-.1259h-.0001c.9478.4999 1.5938 1.495 1.5938 2.641 0-.0001 0-.0001 0-.0001 0-1.0565-.5491-1.9848-1.3775-2.515zm-26.602781.9624c.747771-4.8935 4.974761-8.6421 10.077281-8.6421 1.1062 0 2.1713.1762 3.1687.5021l3.683-8.95299-.0001-.00004-3.6829 8.95293c-.9974-.3259-2.0625-.5021-3.1687-.5021-5.10255 0-9.32956 3.7487-10.077281 8.6422zm11.569181-23.31271c-.3198 0-.5833.2416-.6178.55226.0346-.31061.298-.55214.6178-.55214h3.6676 3.6677c.3433 0 .6216.27831.6216.62163 0-.00004 0-.00007 0-.00011 0-.34332-.2783-.62164-.6216-.62164zm20.8868 24.86531v.0001c0 4.9437 4.0078 8.9515 8.9515 8.9515 4.3259 0 7.935-3.0685 8.7697-7.1476-.8347 4.079-4.4439 7.1475-8.7697 7.1475-4.9437 0-8.9515-4.0078-8.9515-8.9515zm7.3437-8.8074c-.0001 0-.0001 0-.0001 0l2.2112 8.9063c.0031.0123.0058.0246.0081.0369-.0023-.0123-.005-.0247-.008-.037zm-7.095 8.8074c0-3.7562 2.3798-6.9572 5.7144-8.1763l2.1438 8.6346c.1158.4665.5879.7508 1.0543.635.4665-.1159.7508-.5879.635-1.0544l-2.1464-8.6451c.4245-.0637.8592-.0967 1.3017-.0967 4.8065 0 8.7029 3.8964 8.7029 8.7029 0 4.8064-3.8964 8.7028-8.7029 8.7028-4.8064 0-8.7028-3.8964-8.7028-8.7028zm-22.6274-8.7029c.8181 0 1.6094.1128 2.3595.3236l-3.41299 8.2968c-.11043.2685-.07974.5743.08182.8155.16157.2412.43274.3859.72307.3859h8.8802c-.5489 4.2778-4.2043 7.5839-8.6316 7.5839-4.80644 0-8.70283-3.8964-8.70283-8.7028 0-4.8065 3.89639-8.7029 8.70283-8.7029zm2.6941.164-3.51764 8.5511c-.01971.0479-.03313.0975-.04037.1476.00724-.0501.02066-.0997.04038-.1477zm6.1882 9.6578c-.5507 4.4157-4.3175 7.8326-8.8823 7.8326-4.94376 0-8.95148-4.0078-8.95148-8.9515 0 0-.00002 0-.00002.0001 0 4.9437 4.00772 8.9515 8.9515 8.9515 4.5649 0 8.3317-3.417 8.8823-7.8327zm-8.203-1.4919-.0001.0001h8.2647v-.0001zm3.3001-7.3689c2.6317 1.3555 4.4824 4.013 4.7016 7.1202h-7.6306zm.6643-1.6148c3.2621 1.622 5.5563 4.9001 5.7815 8.735h1.3212c.1664-.8538.6685-1.5869 1.3628-2.0569l-5.581-13.69007zm5.5444 8.9837h1.7703v.0001h-1.7703c-.1412-3.925-2.5012-7.2845-5.8634-8.8617v-.0001c3.3622 1.5773 5.7222 4.9367 5.8634 8.8617zm1.8236-.3005c.1894-.821.7176-1.5124 1.4295-1.9191 0 0 0-.0001-.0001-.0001-.0724.0414-.143.0858-.2115.1329-.6044.416-1.0478 1.0488-1.2179 1.7863zm3.0808-2.8316c-.0632.0845-.1088.177-.1373.2728l-.036-.0002c-.0535 0-.1066.0013-.1594.0038-.0083-.0281-.0181-.056-.0294-.0837l-5.5426-13.59602h15.929zm.0754.5314c-.082-.0067-.165-.0102-.2488-.0102-.0415 0-.0829.0009-.1241.0026-.084.0034-.167.0103-.2491.0205v.0002c.1223-.0153.2468-.0232.3733-.0232.0837 0 .1667.0035.2487.0103 0-.0001 0-.0001 0-.0002zm-.6218-.027c-.0019-.0728-.0168-.1464-.0459-.2177l-5.6823-13.93856h.0001l5.6822 13.93846c.0081.0199.0151.04.0211.0602.0153.0522.0234.1051.0248.1576zm.7455-.3555c-.0555.0743-.092.157-.1102.2422.0182-.0851.0547-.1678.1102-.2421l10.3217-13.80086h-.0001zm1.1195 3.3562c0 .8239-.668 1.4919-1.4919 1.4919-.824 0-1.4919-.668-1.4919-1.4919 0-.824.6679-1.492 1.4919-1.492.8239 0 1.4919.668 1.4919 1.492zm.2133.3507c-.1623.7932-.8641 1.3898-1.7052 1.3898-.9613 0-1.7406-.7793-1.7406-1.7405v.0001c0 .9613.7793 1.7405 1.7406 1.7405.8411 0 1.5429-.5967 1.7052-1.3899z" fill="#000" fill-rule="evenodd"/></svg>