<svg fill="none" height="41" viewBox="0 0 49 41" width="49" xmlns="http://www.w3.org/2000/svg"><path clip-rule="evenodd" d="m10.6604 2.61629c-.0311-.08325-.1066-.14404-.1976-.15916-.0911-.01513-.1836.01776-.2422.0861l-7.47894 8.71717c-.06296.0734-.07606.1749-.03365.2607.0424.0858.13272.1406.23192.1406h10.73897c.0835 0 .1617-.0389.2098-.1042.048-.0653.0599-.1489.0318-.2241zm11.4089 33.11251c.0791.091.2147.115.3226.0571.1078-.0578.1572-.181.1175-.293l-7.8658-22.1915c-.0354-.0996-.1331-.1667-.243-.1667h-11.44127c-.09952 0-.19007.0551-.2323.1414-.04223.0862-.02853.188.03515.2612zm.4965-33.86129c.0592-.07422.0693-.17414.026-.25782s-.1324-.13664-.2299-.13664h-10.1298c-.0835 0-.1617.03885-.2098.10415-.0481.06531-.0599.14889-.0318.22409l3.2339 8.64731c.0317.0847.1093.146.2022.1598.0929.0139.1863-.0221.2433-.0936zm-6.4862 10.56169c-.0519.065-.0665.1504-.039.2278l8.69 24.5166c.0357.1007.1349.1679.246.1667.111-.0013.2086-.0708.2418-.1723l7.7507-23.7145c.0244-.0745.0102-.1557-.0381-.2187-.0484-.0629-.1251-.1001-.2067-.1001h-12.5856c-.425 0-.7696-.3297-.7696-.7365s.3446-.7365.7696-.7365h11.8554c.0985 0 .1882-.054.231-.1388.0428-.0849.0311-.1857-.0302-.2595l-7.5418-9.08148c-.0492-.05927-.1242-.09349-.2033-.09275-.0792.00075-.1535.03637-.2015.09656zm11.305 23.0457c-.0369.1128.0154.2347.1245.2901s.2439.0286.3209-.0638l18.4703-22.1679c.0614-.0737.0733-.1746.0305-.2596-.0427-.085-.1326-.139-.2311-.139h-11.225c-.1122 0-.2114.0698-.2449.1723zm18.6578-23.8132c.0995 0 .19-.0551.2323-.1413.0422-.0862.0286-.188-.0351-.2612l-7.5464-8.68446c-.0597-.06873-.1537-.10096-.2455-.08416-.0917.01681-.1666.08-.1956.16497l-2.9613 8.68445c-.0255.0748-.012.1567.0363.2203.0482.0637.1254.1014.2076.1014zm-9.1159-9.86698c.0255-.07476.012-.15669-.0363-.22034-.0482-.06365-.1255-.10133-.2076-.10133h-10.1204c-.0985 0-.1883.05394-.2311.13881-.0428.08486-.031.18568.0302.25945l7.1746 8.63929c.0587.0707.1533.1048.2463.0888.0929-.016.1691-.0795.1984-.1654zm-26.7465-1.525568c.1462-.1703912.3645-.269152.5949-.269152h27.322c.2287 0 .4455.0973278.5917.265599l10.1335 11.661701c.2334.2685.2376.657.01.9301l-23.2173 27.8653c-.1442.1731-.3622.2749-.5936.2773-.2313.0023-.4515-.0951-.5996-.2653l-24.243429-27.8652c-.236289-.2716-.2377005-.6655-.003363-.9387z" fill="#000" fill-rule="evenodd"/></svg>