<svg fill="none" height="41" viewBox="0 0 43 41" width="43" xmlns="http://www.w3.org/2000/svg"><path clip-rule="evenodd" d="m16.75 1.94083h-12c-1.51878 0-2.75 1.19479-2.75 2.66864v31.78103c0 1.4739 1.23122 2.6687 2.75 2.6687h12c1.5188 0 2.75-1.1948 2.75-2.6687v-.9704h-10.75c-2.62335 0-4.75-2.0637-4.75-4.6094v-3.1539c0-2.5457 2.12665-4.6095 4.75-4.6095h10.75v-18.43783c0-1.47385-1.2312-2.66864-2.75-2.66864zm4.75 21.10647v-18.43783c0-2.54574-2.1266-4.60947-4.75-4.60947h-12c-2.62335 0-4.75 2.06373-4.75 4.60947v31.78103c0 2.5458 2.12665 4.6095 4.75 4.6095h12c2.6234 0 4.75-2.0637 4.75-4.6095v-.9704h16.75c2.6234 0 4.75-2.0637 4.75-4.6094v-3.1539c0-2.5457-2.1266-4.6095-4.75-4.6095zm-16.375-13.82836c.75939 0 1.375-.5974 1.375-1.33432 0-.73693-.61561-1.33432-1.375-1.33432s-1.375.59739-1.375 1.33432c0 .73692.61561 1.33432 1.375 1.33432zm0 .97036c1.31168 0 2.375-1.03182 2.375-2.30468 0-1.27287-1.06332-2.30474-2.375-2.30474s-2.375 1.03187-2.375 2.30474c0 1.27286 1.06332 2.30468 2.375 2.30468zm0 4.8521c.75939 0 1.375-.5974 1.375-1.3343s-.61561-1.3343-1.375-1.3343-1.375.5974-1.375 1.3343.61561 1.3343 1.375 1.3343zm0 .9704c1.31168 0 2.375-1.0318 2.375-2.3047s-1.06332-2.3047-2.375-2.3047-2.375 1.0318-2.375 2.3047 1.06332 2.3047 2.375 2.3047zm1.375 3.5178c0 .7369-.61561 1.3343-1.375 1.3343s-1.375-.5974-1.375-1.3343.61561-1.3343 1.375-1.3343 1.375.5974 1.375 1.3343zm1 0c0 1.2729-1.06332 2.3047-2.375 2.3047s-2.375-1.0318-2.375-2.3047 1.06332-2.3047 2.375-2.3047 2.375 1.0318 2.375 2.3047zm3.375-10.31066c.7594 0 1.375-.5974 1.375-1.33432 0-.73693-.6156-1.33432-1.375-1.33432s-1.375.59739-1.375 1.33432c0 .73692.6156 1.33432 1.375 1.33432zm0 .97036c1.3117 0 2.375-1.03182 2.375-2.30468 0-1.27287-1.0633-2.30474-2.375-2.30474-1.31168 0-2.375 1.03187-2.375 2.30474 0 1.27286 1.06332 2.30468 2.375 2.30468zm1.375 3.5178c0 .7369-.6156 1.3343-1.375 1.3343s-1.375-.5974-1.375-1.3343.6156-1.3343 1.375-1.3343 1.375.5974 1.375 1.3343zm1 0c0 1.2729-1.0633 2.3047-2.375 2.3047-1.31168 0-2.375-1.0318-2.375-2.3047s1.06332-2.3047 2.375-2.3047c1.3117 0 2.375 1.0318 2.375 2.3047zm-2.375 7.1568c.7594 0 1.375-.5974 1.375-1.3343s-.6156-1.3343-1.375-1.3343-1.375.5974-1.375 1.3343.6156 1.3343 1.375 1.3343zm0 .9704c1.3117 0 2.375-1.0318 2.375-2.3047s-1.0633-2.3047-2.375-2.3047c-1.31168 0-2.375 1.0318-2.375 2.3047s1.06332 2.3047 2.375 2.3047zm7.125-13.94968c0 .73692-.6156 1.33432-1.375 1.33432s-1.375-.5974-1.375-1.33432c0-.73693.6156-1.33432 1.375-1.33432s1.375.59739 1.375 1.33432zm1 0c0 1.27286-1.0633 2.30468-2.375 2.30468s-2.375-1.03182-2.375-2.30468c0-1.27287 1.0633-2.30474 2.375-2.30474s2.375 1.03187 2.375 2.30474zm-2.375 7.15678c.7594 0 1.375-.5974 1.375-1.3343s-.6156-1.3343-1.375-1.3343-1.375.5974-1.375 1.3343.6156 1.3343 1.375 1.3343zm0 .9704c1.3117 0 2.375-1.0318 2.375-2.3047s-1.0633-2.3047-2.375-2.3047-2.375 1.0318-2.375 2.3047 1.0633 2.3047 2.375 2.3047zm1.375 3.5178c0 .7369-.6156 1.3343-1.375 1.3343s-1.375-.5974-1.375-1.3343.6156-1.3343 1.375-1.3343 1.375.5974 1.375 1.3343zm1 0c0 1.2729-1.0633 2.3047-2.375 2.3047s-2.375-1.0318-2.375-2.3047 1.0633-2.3047 2.375-2.3047 2.375 1.0318 2.375 2.3047zm22 11.2811v-3.1539c0-1.4738-1.2312-2.6686-2.75-2.6686h-29.5c-1.51878 0-2.75 1.1948-2.75 2.6686v3.1539c0 1.4738 1.23122 2.6686 2.75 2.6686h29.5c1.5188 0 2.75-1.1948 2.75-2.6686zm-28.75-1.577c0 1.0049-.8395 1.8196-1.875 1.8196-1.03553 0-1.875-.8147-1.875-1.8196s.83947-1.8195 1.875-1.8195c1.0355 0 1.875.8146 1.875 1.8195zm1.25 0c0 1.6749-1.3991 3.0326-3.125 3.0326-1.72589 0-3.125-1.3577-3.125-3.0326 0-1.6748 1.39911-3.0325 3.125-3.0325 1.7259 0 3.125 1.3577 3.125 3.0325zm23.25-1.0917h-17.25c-.4142 0-.75.3259-.75.7278v1.4556c0 .402.3358.7279.75.7279h17.25c.4142 0 .75-.3259.75-.7279v-1.4556c0-.4019-.3358-.7278-.75-.7278zm-17.25-1.213c-1.1046 0-2 .8689-2 1.9408v1.4556c0 1.0719.8954 1.9409 2 1.9409h17.25c1.1046 0 2-.869 2-1.9409v-1.4556c0-1.0719-.8954-1.9408-2-1.9408z" fill="#000" fill-rule="evenodd"/></svg>