<svg fill="none" height="45" viewBox="0 0 30 45" width="30" xmlns="http://www.w3.org/2000/svg"><path clip-rule="evenodd" d="m20.3572 27.9539c0-.2917.1745-.5539.4383-.6786 4.5963-2.1739 7.7759-6.8533 7.7759-12.2753 0-3.8192-1.5776-7.27-4.1167-9.73617-.2793-.2713-.3145-.71376-.0637-1.01161.2576-.30583.7171-.34218 1.0053-.06503 2.8378 2.72913 4.6037 6.56471 4.6037 10.81281 0 5.8423-3.34 10.9044-8.2147 13.3812v9.6545h-.002c-.0947 3.7638-3.1755 6.9643-6.962 6.9643-3.768 0-6.66234-3.1692-6.78399-6.9089h-.0016v-.0554-.1786-5-4.5684c-1.01412-.5325-1.95979-1.1778-2.82038-1.9191-.30475-.2625-.30966-.7268-.02525-1.0112.27373-.2737.71433-.2784 1.0089-.0272.85952.7329 1.81164 1.3604 2.83636 1.8626.25881.1269.42901.3866.42901.6748 0 .15-.00257.2831-.00753.401h.00747v3.8733h3.27511l-1.5833-8.0749c-.3587-.193-.7539-.4925-1.0638-.9104-.2052-.2767-.36898-.6011-.45997-.9686-.5533.2627-1.18645.448-1.82555.422-.6195-.0252-1.23972-.2508-1.75178-.7757-.49854-.5111-.84478-1.2543-1.04011-2.2309-.06765-.3383-.09035-.657-.06883-.9546-.55358-.3186-1.11625-.8505-1.5537-1.4778-.60549-.8683-1.05871-2.042-.88593-3.3378.24836-1.8628 1.42562-2.8674 2.42999-3.3311-.04713-.66206.01062-1.47067.31537-2.19989.20774-.49712.5389-.97614 1.04642-1.32839.51058-.35436 1.15059-.54625 1.9162-.54625.46856 0 .90018.07094 1.28806.20484.11867-.28755.28358-.58265.50553-.85598.5195-.63975 1.3344-1.13457 2.4921-1.13457 1.0905 0 1.8432.45217 2.3215 1.00236.4782-.55019 1.231-1.00236 2.3214-1.00236 1.1578 0 1.9727.49482 2.4922 1.13457.2219.27333.3868.56843.5055.85598.3879-.1339.8195-.20484 1.288-.20484.7656 0 1.4057.19189 1.9162.54625.5076.35225.8387.83127 1.0465 1.32839.3047.72922.3625 1.53783.3153 2.19989 1.0044.4637 2.1816 1.4683 2.43 3.3311.1728 1.2958-.2804 2.4695-.8859 3.3378-.4375.6273-1.0001 1.1592-1.5537 1.4778.0215.2976-.0012.6163-.0688.9546-.1954.9766-.5416 1.7198-1.0402 2.2309-.512.5249-1.1322.7505-1.7517.7757-.6391.026-1.2723-.1593-1.8256-.422-.091.3675-.2548.6919-.46.9686-.3099.4179-.7051.7174-1.0637.9104l-1.5833 8.0749h3.4529v-3.9286h.0052c-.0031-.0793-.0047-.1659-.0047-.2604zm-4.9092 4.189 1.5313-7.8097c-.9177-.0618-1.6546-.438-2.1577-.8338-.5032.3958-1.2401.772-2.1577.8338l1.5313 7.8097zm.9806 6.4285h3.5227c-.347 2.5434-2.5116 4.6429-5.13 4.6429-2.6185 0-4.6287-2.0995-4.95569-4.6429h3.52729c.3944 0 .7142-.3198.7142-.7143 0-.3944-.3198-.7142-.7142-.7142h-3.92861v-3.5715h10.71431v3.5715h-3.75c-.3945 0-.7143.3198-.7143.7142 0 .3945.3198.7143.7143.7143zm5.5495-35.2138c.3135.1883.7205.13206.9561-.14765.2739-.3253.2074-.81743-.156-1.03827-2.268-1.378091-4.9304-2.17168-7.7782-2.17168-8.28427 0-15 6.71573-15 15 0 3.3558 1.10201 6.4543 2.96389 8.9532.25256.339.74503.361 1.04393.0621.2602-.2602.27977-.6739.0614-.9701-1.65974-2.2512-2.64065-5.0337-2.64065-8.0452 0-7.49529 6.07614-13.57143 13.57143-13.57143 2.5518 0 4.9391.70427 6.9781 1.92903zm-12.76311 9.6182c2.43381-1.0647 3.08601-3.95347 1.52561-5.56107.0672-.23458.1873-.50385.3764-.7368.2659-.32752.6831-.6065 1.3831-.6065.6885 0 1.0686.28366 1.2946.57333.1208.15482.2031.32022.2542.46175.0416.11508.054.18959.0576.21165v.00327 7.76887c-.1045.3213-.5233.9811-1.6064.9811-.4816 0-.7992-.2357-1.0356-.6069-.2523-.3961-.3704-.8983-.394-1.2295-.028-.3935-.3697-.6898-.7632-.6618-.39345.028-.68975.3697-.66176.7632.03572.5022.20289 1.25.61396 1.8955.427.6705 1.1508 1.2681 2.2406 1.2681.6508 0 1.1813-.1494 1.6064-.3778v5.1103c-.3487.3388-1.1052.8088-2.1289.6469-.2205-.0918-.5254-.2863-.7378-.5727-.2087-.2814-.3449-.6676-.1927-1.2259.0816-.2991-.0391-.6167-.2987-.7861s-.5989-.1521-.83981.043c-.57371.4644-1.38574.8727-2.04379.8459-.29565-.012-.55711-.11-.78721-.3459-.24363-.2497-.50006-.7045-.66187-1.5135-.10769-.5384-.02095-.8513.09146-1.0395.11766-.1971.3235-.3578.62773-.4761.63813-.2482 1.47306-.2159 1.83316-.1439.38683.0774.76314-.1735.8405-.5603.07737-.3869-.1735-.7632-.56033-.8405-.53275-.1066-1.66211-.1636-2.63111.2132-.41327.1608-.83277.4147-1.15149.8097-.27941-.1995-.60858-.5119-.9015-.932-.46337-.6645-.75461-1.4848-.64167-2.3318.20012-1.501 1.27019-2.1565 1.9908-2.3654.10137-.0294.1893-.0476.2593-.0576.39052-.0558.66188-.4176.60609-.8082-.03657-.2559-.2046-.4607-.42602-.5557-.01481-.45465.04053-.95919.21725-1.38206.12559-.30053.30336-.53939.54286-.70562.23645-.1641.58156-.29128 1.10166-.29128.5974 0 1.0244.16483 1.316.38834.93809.71905.92589 2.62802-.88801 3.42152-.36142.1582-.52622.5793-.3681.9407s.57928.5262.94069.3681zm6.32161 9.2567v-5.1103c.4251.2284.9556.3778 1.6064.3778 1.0899 0 1.8136-.5976 2.2406-1.2681.4111-.6455.5783-1.3933.614-1.8955.028-.3935-.2683-.7352-.6618-.7632s-.7352.2683-.7632.6618c-.0235.3312-.1417.8334-.394 1.2295-.2364.3712-.554.6069-1.0356.6069-1.083 0-1.5018-.6598-1.6064-.9811v-7.76887-.00327c.0036-.02206.0161-.09657.0576-.21165.0512-.14153.1334-.30693.2542-.46175.226-.28967.6061-.57333 1.2946-.57333.7 0 1.1172.27898 1.3831.6065.1892.23295.3092.50222.3764.7368-1.5604 1.6076-.9081 4.49637 1.5256 5.56107.3615.1581.7826-.0067.9407-.3681.1582-.3614-.0066-.7825-.3681-.9407-1.8138-.7935-1.8261-2.70247-.888-3.42152.2916-.22351.7186-.38834 1.316-.38834.5201 0 .8652.12718 1.1017.29128.2395.16623.4173.40509.5429.70562.1767.42287.232.92741.2172 1.38206-.2214.095-.3894.2998-.426.5557-.0558.3906.2155.7524.6061.8082.07.01.1579.0282.2593.0576.7206.2089 1.7907.8644 1.9908 2.3654.1129.847-.1783 1.6673-.6417 2.3318-.2929.4201-.6221.7325-.9015.932-.3187-.395-.7382-.6489-1.1515-.8097-.969-.3768-2.0983-.3198-2.6311-.2132-.3868.0773-.6377.4536-.5603.8405.0773.3868.4536.6377.8405.5603.3601-.072 1.195-.1043 1.8331.1439.3043.1183.5101.279.6278.4761.1124.1882.1991.5011.0914 1.0395-.1618.809-.4182 1.2638-.6618 1.5135-.2301.2359-.4916.3339-.7873.3459-.658.0268-1.47-.3815-2.0437-.8459-.241-.1951-.5803-.2124-.8399-.043s-.3803.487-.2987.7861c.1523.5583.016.9445-.1926 1.2259-.2125.2864-.5174.4809-.7379.5727-1.0236.1619-1.7801-.3081-2.1289-.6469z" fill="#000" fill-rule="evenodd"/></svg>