<svg fill="none" height="45" viewBox="0 0 39 45" width="39" xmlns="http://www.w3.org/2000/svg"><path clip-rule="evenodd" d="m4.47134 2h30.05736c1.3719 0 2.484 1.11929 2.484 2.5v4.75h-35.02544v-4.75c0-1.38071 1.11213-2.5 2.48408-2.5zm-2.48408 9.25v24.5c0 1.3807 1.11213 2.5 2.48408 2.5h15.15286 14.9045c1.3719 0 2.484-1.1193 2.484-2.5v-24.5zm17.63694 27c-7.2711 0-13.1656-5.9322-13.1656-13.25s5.8945-13.25 13.1656-13.25 13.1656 5.9322 13.1656 13.25-5.8945 13.25-13.1656 13.25zm-19.6242-2.5c0 1.9594 1.24422 3.6262 2.98089 4.244v1.256c0 2.0711 1.66826 3.75 3.72612 3.75h25.83439c2.0579 0 3.7261-1.6789 3.7261-3.75v-1.353c1.6057-.6827 2.7325-2.2824 2.7325-4.147v-31.25c0-2.48529-2.0019-4.5-4.4713-4.5h-30.05736c-2.46946 0-4.47134 2.01471-4.47134 4.5zm4.96815 5.5v-1h29.31215v1c0 .9665-.7785 1.75-1.7389 1.75h-25.83439c-.96034 0-1.73886-.7835-1.73886-1.75zm14.65605-4.5c6.4481 0 11.6752-5.2607 11.6752-11.75s-5.2271-11.75-11.6752-11.75c-6.448 0-11.67516 5.2607-11.67516 11.75s5.22716 11.75 11.67516 11.75zm-2.8777-12.68c1.458-1.9915 4.0891-2.8691 7.5974-2.2734v6.9534c0 .5523.445 1 .9937 1h.9899c-1.4839 2.1172-3.9332 3.5-6.7033 3.5-4.1575 0-7.5921-3.1149-8.1255-7.1523.6077.0455 1.3304.0282 2.066-.1181 1.1208-.2228 2.3407-.7608 3.1818-1.9096zm-5.3096.5166c.214-4.3643 3.7977-7.8366 8.1873-7.8366 2.8392 0 5.3413 1.4526 6.8124 3.6596-.2727.0562-.7211.1009-1.4641-.0228-4.0102-.7786-7.4567.1037-9.4259 2.7934-.55.7512-1.3795 1.1506-2.2707 1.3279-.663.1317-1.3218.1317-1.839.0785zm15.7311-2.8202-.0457.0137c-.0854.0252-.1928.0554-.2957.0792-.3608.0831-.836.1398-1.489.0847v6.806h1.5902c.15-.2952.2828-.6006.397-.915v-5.67c-.0488-.1345-.1012-.2674-.1568-.3986zm1.1505 6.9836v.5561c-1.5801 3.2251-4.8798 5.4439-8.6943 5.4439-5.3505 0-9.68789-4.3652-9.68789-9.75s4.33739-9.75 9.68789-9.75c3.8145 0 7.1142 2.2188 8.6943 5.4439v.8061zm-20.61786-23c0 .55228-.44484 1-.99363 1s-.99363-.44772-.99363-1 .44484-1 .99363-1 .99363.44772.99363 1zm1.49044 0c0 1.38071-1.11213 2.5-2.48407 2.5-1.37195 0-2.48408-1.11929-2.48408-2.5s1.11213-2.5 2.48408-2.5c1.37194 0 2.48407 1.11929 2.48407 2.5zm19.62422 0c0 1.38071-1.1121 2.5-2.4841 2.5-1.3719 0-2.4841-1.11929-2.4841-2.5s1.1122-2.5 2.4841-2.5c1.372 0 2.4841 1.11929 2.4841 2.5zm3.4777 2.5c1.3719 0 2.4841-1.11929 2.4841-2.5s-1.1122-2.5-2.4841-2.5-2.4841 1.11929-2.4841 2.5 1.1122 2.5 2.4841 2.5z" fill="#000" fill-rule="evenodd"/></svg>