<svg fill="none" height="39" viewBox="0 0 31 39" width="31" xmlns="http://www.w3.org/2000/svg"><path clip-rule="evenodd" d="m28.505 19.1056-.0118.0429-.0098.0435c-1.2232 5.3889-4.6347 9.903-7.8756 13.1349-1.6061 1.6016-3.1338 2.8521-4.2567 3.6995-.2797.2111-.5336.3967-.7566.556-.1837-.1248-.3881-.2668-.6105-.4257-1.0486-.7493-2.4881-1.869-4.0301-3.3366-3.10227-2.9524-6.51619-7.2136-8.10604-12.6029l-.01677-.0568-.02007-.0558c-.51381-1.4275-.79476-2.9689-.79476-4.5804 0-7.45849 6.03688-13.50479 13.48374-13.50479 7.4469 0 13.4837 6.0463 13.4837 13.50479 0 1.2427-.167 2.4431-.4787 3.5814zm-27.590763 1.6838c3.452963 11.7048 14.711863 18.2106 14.711863 18.2106s12.1371-7.5254 14.8234-19.3603c.3589-1.3107.5505-2.6907.5505-4.1155 0-8.57378-6.9396-15.5242-15.5-15.5242-8.56041 0-15.5 6.95042-15.5 15.5242 0 1.8483.322508 3.6212.914237 5.2652zm14.585763 4.2008c5.2198 0 9.4512-4.2381 9.4512-9.466s-4.2314-9.46598-9.4512-9.46598-9.45122 4.23808-9.45122 9.46598 4.23142 9.466 9.45122 9.466zm0 2.2718c6.4725 0 11.7195-5.2552 11.7195-11.7378 0-6.48261-5.247-11.73781-11.7195-11.73781-6.47251 0-11.71951 5.2552-11.71951 11.73781 0 6.4826 5.247 11.7378 11.71951 11.7378zm0-15.7357-.8526 1.4232c-.3022.5043-.8088.8517-1.3876.9513l-1.084.1865.9717 1.2111c.3304.4118.4865.9369.4348 1.4626l-.1247 1.2703 1.3895-.4763c.4232-.1451.8826-.1451 1.3058 0l1.3077.4482-.1545-1.1776c-.0738-.562.0917-1.1291.4559-1.5629l.9964-1.1867-1.0182-.1752c-.5788-.0996-1.0854-.447-1.3876-.9513zm4.3858 1.2069-1.8896-.3251c-.1447-.0249-.2714-.1117-.3469-.2378l-1.7171-2.8663c-.1958-.32681-.6687-.32681-.8644 0l-1.7171 2.8663c-.0755.1261-.2022.2129-.3469.2378l-2.7721.4769c-.3787.0652-.54826.5138-.30755.8138l2.04455 2.5483c.0826.1029.1216.2342.1087.3656l-.2783 2.8329c-.0359.3656.3178.646.6649.5271l2.8728-.9848c.1058-.0363.2206-.0363.3264 0l2.8455.9754c.3539.1213.7117-.172.663-.5434l-.3663-2.7917c-.0185-.1405.0229-.2823.1139-.3907l1.5655-1.8645.0071-.0084.5549-.6608c.2505-.2984.0832-.7565-.3005-.8225l-.8496-.1462-.0108-.0019z" fill="#000" fill-rule="evenodd"/></svg>