<svg fill="none" height="47" viewBox="0 0 46 47" width="46" xmlns="http://www.w3.org/2000/svg"><path d="m2.10837 3.67591v39.77479c0 .6174.24484.9498.51778 1.1464.3012.2168.67928.2945.92311.2945h15.96064c.306 0 .5541.2481.5541.5542s-.2481.5542-.5541.5542h-15.96064c-.42119 0-1.04065-.1218-1.57073-.5035-.55835-.402-.97853-1.0671-.97853-2.0458v-39.7906c0-.00972.00026-.01943.00077-.02913.02286-.43432.17556-1.07141.57511-1.6152.41764-.56842 1.09496-1.01577 2.08422-1.01577h17.8448c.687 0 1.3405.24339 1.8193.75899.4768.51343.73 1.24194.73 2.12278v39.55223c.0166.2498.1138.63.3383.9353.2109.2867.5407.5223 1.1026.5223h17.5739c.2629-.0507.6467-.1865.959-.4259.3153-.2418.5311-.5636.5311-1.015v-39.77476c-.0167-.26798-.1196-.6757-.3607-1.0039-.2271-.30904-.5842-.56367-1.191-.56367h-14.0764c-.306 0-.5542-.24811-.5542-.55418s.2482-.55419.5542-.55419h14.0764c.9892 0 1.6666.44735 2.0842 1.01577.3996.54379.5523 1.18088.5751 1.6152.0005.0097.0008.01941.0008.02913v39.7906c0 .8787-.4492 1.499-.9652 1.8946-.502.3849-1.0906.5801-1.493.6472-.0301.005-.0606.0075-.0911.0075h-17.6231c-.9455 0-1.5948-.4294-1.9954-.974-.3826-.5202-.53-1.129-.553-1.5445-.0005-.0079-.0007-.0158-.0008-.0237-.0001-.0023-.0001-.0047-.0001-.0071v-39.56893c0-.67088-.1901-1.10616-.4338-1.36859-.2417-.26026-.5857-.40481-1.0071-.40481h-17.8448c-.6068 0-.96396.25463-1.19102.56367-.24114.32819-.34399.73589-.36071 1.00387zm4.76601 4.97187c0-.30607.24812-.55418.55419-.55418h10.08623c.306 0 .5542.24811.5542.55418s-.2482.55419-.5542.55419h-10.08623c-.30607 0-.55419-.24812-.55419-.55419zm21.83502 0c0-.30607.2481-.55418.5541-.55418h10.0863c.306 0 .5541.24811.5541.55418s-.2481.55419-.5541.55419h-10.0863c-.306 0-.5541-.24812-.5541-.55419zm-21.83502 5.76352c0-.306.24812-.5542.55419-.5542h10.08623c.306 0 .5542.2482.5542.5542 0 .3061-.2482.5542-.5542.5542h-10.08623c-.30607 0-.55419-.2481-.55419-.5542zm21.83502 0c0-.306.2481-.5542.5541-.5542h10.0863c.306 0 .5541.2482.5541.5542 0 .3061-.2481.5542-.5541.5542h-10.0863c-.306 0-.5541-.2481-.5541-.5542zm-20.94832 9.1995c.30607 0 .55419.2482.55419.5542v2.5493c0 .3061-.24812.5542-.55419.5542s-.55418-.2481-.55418-.5542v-2.5493c0-.306.24811-.5542.55418-.5542zm21.83502 0c.306 0 .5541.2482.5541.5542v2.5493c0 .3061-.2481.5542-.5541.5542-.3061 0-.5542-.2481-.5542-.5542v-2.5493c0-.306.2481-.5542.5542-.5542zm-20.94832 14.7414c0-.3061.24812-.5542.55419-.5542h6.53943c.306 0 .5542.2481.5542.5542s-.2482.5542-.5542.5542h-6.53943c-.30607 0-.55419-.2481-.55419-.5542zm21.72412 0c0-.3061.2481-.5542.5542-.5542h6.7611c.3061 0 .5542.2481.5542.5542s-.2481.5542-.5542.5542h-6.7611c-.3061 0-.5542-.2481-.5542-.5542z" style="fill-rule:evenodd;clip-rule:evenodd;fill:#000;stroke:#000;stroke-width:.5;stroke-linecap:round;stroke-linejoin:round"/></svg>