<svg fill="none" height="46" viewBox="0 0 51 46" width="51" xmlns="http://www.w3.org/2000/svg"><path clip-rule="evenodd" d="m39.2948.201128c.2518.188451.3998.483242.3998.796171v4.341511c.6426.09574 1.3858.25796 2.0983.50929 1.0461.36893 2.3133 1.02979 2.842 2.2291.0629.14255.2233.33563.5721.54642.343.20726.7971.38817 1.3227.53644 1.0516.29668 2.2331.41994 2.9887.43912.4612.01174.8551.33368.9552.78062.1681.7505.5264 2.6149.5264 3.8315 0 .599-.2911 1.0968-.5791 1.4521-.2977.3674-.6808.6922-1.0593.9655-.7591.5482-1.6479.9944-2.241 1.2434-.1239.052-.257.0788-.3915.0788h-4.2163c-.1377 1.7708-.3566 4.1033-.6345 6.2333-.1648 1.2624-.3523 2.4699-.5594 3.4531-.1034.4909-.2147.9413-.3353 1.3218-.1067.3368-.2422.6911-.4259.9735-.7728 1.4455-.8224 3.4704-.4628 5.5685.3557 2.0754 1.0796 4.0378 1.6317 5.1958.0668.0467.234.1396.5638.2133.6514.1312 1.1979.3989 1.6031.8153.4092.4205.6058.9224.6743 1.4003.1301.9066-.1835 1.8043-.4658 2.3392-.174.3297-.5186.5358-.8937.5345-4.9614-.0171-12.3906-.0376-18.554-.0436-3.082-.0029-5.8461-.0023-7.8267.0042-.5339.0017-1.0102.0039-1.4199.0066-.1463.0009-.284.0019-.4129.003-.1799.0015-.3426.003-.4868.0048-.2697.0032-.4691.0068-.5956.0107l-.0351.0011-.0274.0011c-.1721.0272-.3535.0104-.5272-.0578-4.23943-1.6633-6.32172-5.479-6.8649-9.3707-1.16207-.362-2.72012-1.0824-4.0213-2.4072-1.38803-1.4133-2.4365-3.4691-2.4365-6.3526 0-4.3714 2.38461-7.2303 5.17735-8.9878 2.75772-1.7354 5.97285-2.4478 7.93265-2.6025.4795-.0378.9188.2668 1.0478.7267s-.0884.946-.5187 1.1594c-2.4556 1.2185-4.22836 3.623-5.16035 6.2589-.58564 1.6563-.81019 3.3184-.70487 4.7419.20063-.276.41757-.5456.6458-.8078.92685-1.065 2.11122-2.0898 3.36142-3.0244 2.5007-1.8692 5.3691-3.4542 7.2565-4.3481.5009-.2373 1.1008-.0266 1.3398.4704.2391.4971.0268 1.0924-.4741 1.3296-1.7972.8513-4.5439 2.3704-6.9129 4.1413-1.1847.8855-2.2488 1.8147-3.04965 2.7349-.81264.9337-1.28474 1.7794-1.41465 2.4974-.03846.2128-.07176.4273-.09986.6433-.00116.2687-.00803.5658-.02778.8661-.01638.2498-.0422.5187-.08372.7958-.01963 3.9388 1.69186 7.9717 5.54196 9.5971.1461-.0043.3589-.008.6271-.0112.3084-.0037.6975-.0068 1.1566-.0094.3537-.002.7489-.0037 1.1806-.0052 1.985-.0065 4.7526-.0071 7.8352-.0041 1.6894.0016 3.4738.0044 5.2764.0078-.2282-1.1627-.8613-1.9936-1.742-2.5797-1.1169-.7433-2.6906-1.1244-4.4492-1.1244h-.0086-.0009-.0026l-.0103-.0001-.0409-.0003-.1579-.0013-.1869-.0014-.3954-.0027c-.1785-.0012-.3819-.0025-.6046-.0037-.1628-.0009-.3359-.0018-.5173-.0027-.2556-.0012-.5276-.0024-.8102-.0033-1.5181-.0052-3.3301-.0052-4.5328.0154-.5549.0095-1.0125-.4292-1.0221-.9799-.0096-.5508.4325-1.0048.9875-1.0143 1.2259-.021 3.0567-.021 4.5743-.0158.3456.0012.6754.0027.9787.0042.2693.0013.5177.0027.7378.0041-.1235-2.6453-1.0875-4.2233-2.1707-5.1395-1.251-1.0579-2.7745-1.3326-3.7312-1.2181-.5509.066-1.0516-.3238-1.118-.8706-.0665-.5468.3262-1.0436.8772-1.1096 1.472-.1763 3.5662.2347 5.2756 1.6802 1.5907 1.3453 2.7613 3.51 2.8803 6.7013 1.6641.1232 3.2736.5648 4.5676 1.4259 1.4141.941 2.4019 2.355 2.6592 4.2405 1.2963.0028 2.5871.0059 3.8438.0092l.0033-.0141c.0303-.1328.0492-.3276.0192-.5837-.0596-.5087-.3155-1.277-1.0814-2.2605l-.0037-.0048c-1.6026-2.084-2.404-4.786-2.7792-7.2368-.377-2.463-.3399-4.7814-.1844-6.192.0603-.5475.5565-.9429 1.1082-.883s.9501.5523.8897 1.0998c-.1376 1.2489-.1758 3.3933.1736 5.6756.3511 2.2937 1.0775 4.6186 2.3881 6.3241 1.2257 1.5751 1.6009 3.0047 1.5008 4.081 1.6807.0047 3.266.0097 4.6798.0144.0533-.2095.0763-.4202.0511-.5957-.0204-.1423-.0672-.231-.1303-.2959-.0647-.0664-.2153-.1783-.5636-.2473l-.0112-.0024-.0097-.002c-.5586-.1232-.9961-.3164-1.3246-.5534-.2655-.1917-.5242-.4613-.6485-.7975-.6153-1.3007-1.3899-3.416-1.7767-5.6729-.3869-2.2575-.4195-4.8489.6979-6.8916l.0092-.0163c.0048-.0085.0098-.0169.0149-.0252.0063-.0105.0128-.0207.0195-.0308.0044-.0066.0088-.0131.0133-.0196.0235-.0336.0977-.1745.198-.491.0933-.2948.1892-.6756.2852-1.1317.1918-.9108.3717-2.061.5335-3.3012.3233-2.4772.5666-5.2488.6913-7.0431.0363-.5229.4744-.9286 1.0025-.9286h4.9401c.4845-.2172 1.1281-.5562 1.6601-.9404.3019-.2181.5313-.4246.6758-.6029.1085-.1338.1313-.2042.1353-.2167-.0023-.7254-.1725-1.8257-.3282-2.649-.7981-.0674-1.7672-.211-2.6818-.469-.627-.1769-1.2673-.4183-1.8185-.7515-.5454-.3296-1.0791-.79512-1.368-1.45044-.1747-.39639-.7289-.8159-1.6738-1.14916-.8881-.31329-1.8722-.46181-2.4909-.499-.5304-.0319-.9442-.46809-.9442-.99546v-3.70128c-1.4815.89423-3.2073 2.74849-3.1406 5.92441.0576 2.74093-1.3387 5.21573-2.9611 7.13213-1.6331 1.9291-3.6007 3.419-4.9378 4.2153-.476.2834-1.0933.1302-1.3788-.3421-.2856-.4723-.1313-1.0849.3446-1.3682 1.1752-.6997 2.9635-2.052 4.4332-3.788 1.4803-1.7486 2.5335-3.7616 2.4906-5.80762-.113-5.38115 3.8352-7.87984 5.8788-8.4593168.3032-.0859476.6295-.0256869.8812.1627648zm-32.88369 31.971072-.00005-.0027-.00111-.0622-.00165-.1018c-.99051-2.2966-.83963-5.4454.17395-8.312.5768-1.6312 1.45562-3.2374 2.63363-4.605-.99364.3489-2.01371.8106-2.96215 1.4074-2.37848 1.4968-4.24388 3.7906-4.24388 7.3034 0 2.3522.83582 3.9116 1.86589 4.9604.74609.7596 1.61823 1.2743 2.4043 1.6094.01154-.0579.02227-.1167.03214-.1765.00798-.5343.04337-1.0619.10452-1.5773-.00055-.1567-.00316-.3046-.00559-.4431zm7.38999 13.8178c-.0012.0001-.0003 0 .0032-.0003zm9.8147-25.421c0 .5508-.4499.9973-1.0049.9973-.5551 0-1.005-.4465-1.005-.9973s.4499-.9973 1.005-.9973c.555 0 1.0049.4465 1.0049.9973zm16.1637-8.8566c.4466-.0605.7155-.0311.8395.0315.0384.0194.0511.0355.0623.0604.0164.0366.0454.1354.0221.3436-.0383.3421.2101.6503.5548.6883.3448.038.6553-.2085.6936-.5506.0396-.3529.0109-.6903-.1231-.9888-.1393-.3101-.37-.5277-.6404-.6641-.4936-.2491-1.104-.2197-1.5786-.1555-.3437.0465-.5843.3607-.5374.7018s.3635.5799.7072.5334z" fill="#000" fill-rule="evenodd"/></svg>