<svg fill="none" height="40" viewBox="0 0 45 40" width="45" xmlns="http://www.w3.org/2000/svg"><path clip-rule="evenodd" d="m17.7141 1.71254c-2.1454 0-3.1057 1.56743-3.3446 2.42987v3.31936h16.847v-3.42507c0-.06481.0075-.1294.0222-.19254.2994-1.28127 1.7267-3.84416 5.0567-3.84416 2.0792 0 3.3989 1.01999 4.1539 2.28757.724 1.21529.925 2.63571.925 3.58399 0 .4729-.3883.85627-.8672.85627s-.8671-.38337-.8671-.85627c0-.76426-.1707-1.85148-.6855-2.7157-.4836-.81194-1.2698-1.44332-2.6591-1.44332-2.1455 0-3.1058 1.56743-3.3446 2.42987v25.86299c.2112-.1762.4166-.3882.6114-.6388.442-.5684.7853-1.2852.9898-2.0883h1.9098c.2044.8031.5478 1.5199.9897 2.0883.7305.9394 1.6084 1.3368 2.391 1.3368s1.6605-.3974 2.391-1.3368c.4419-.5684.7853-1.2852.9897-2.0883h1.7768c-.2359 1.1748-.7125 2.2586-1.391 3.1312-.9989 1.2847-2.3538 2.0064-3.7665 2.0064s-2.7676-.7217-3.7665-2.0064c-.2093-.2691-.3994-.5584-.5691-.8642-.1698.3058-.3599.5951-.5692.8642-.9989 1.2847-2.3537 2.0064-3.7664 2.0064-1.4128 0-2.7676-.7217-3.7665-2.0064-.2093-.2691-.3994-.5584-.5692-.8642-.1697.3058-.3598.5951-.5691.8642-.9989 1.2847-2.3538 2.0064-3.7665 2.0064s-2.7676-.7217-3.7665-2.0064c-.2093-.2691-.3994-.5584-.5691-.8642-.1698.3058-.3598.5951-.5692.8642-.9989 1.2847-2.3537 2.0064-3.7665 2.0064-1.4127 0-2.7675-.7217-3.7664-2.0064-.20935-.2691-.39944-.5584-.56918-.8642-.16973.3058-.35982.5951-.56913.8642-.99894 1.2847-2.35378 2.0064-3.76649 2.0064s-2.76756-.7217-3.7665-2.0064c-.67853-.8726-1.155095-1.9564-1.391-3.1312h1.77676c.20444.8031.54783 1.5199.98977 2.0883.73048.9394 1.60833 1.3368 2.39097 1.3368s1.66049-.3974 2.39097-1.3368c.44194-.5684.78532-1.2852.98976-2.0883h1.90977c.2045.8031.5478 1.5199.9898 2.0883.3716.4779.7814.8156 1.1975 1.032v-26.3619c0-.06481.0074-.1294.0222-.19254.2994-1.28127 1.7267-3.84416 5.0566-3.84416 2.0792 0 3.3989 1.01999 4.154 2.28757.7239 1.21529.9249 2.63571.9249 3.58399 0 .4729-.3882.85627-.8671.85627s-.8671-.38337-.8671-.85627c0-.76426-.1707-1.85148-.6855-2.7157-.4837-.81194-1.2699-1.44332-2.6592-1.44332zm-3.3446 28.92866c.63-.1444 1.2843-.5469 1.8502-1.2746.4194-.5394.75-1.2124.9574-1.966h-2.8076zm4.7822-3.2406c.2073.7536.538 1.4266.9573 1.966.7305.9394 1.6084 1.3368 2.391 1.3368s1.6605-.3974 2.391-1.3368c.4193-.5394.75-1.2124.9573-1.966zm8.6712 0c.2074.7536.538 1.4266.9574 1.966.7305.9394 1.6083 1.3368 2.391 1.3368.015 0 .0301-.0002.0452-.0005v-3.3023zm-13.4534-13.7003v-4.52599h16.847v4.52599zm0 6.3609v-4.6484h16.847v4.6484zm0 5.6269v-3.9144h16.847v3.9144zm-14.3695 9.1743c.235905 1.1748.71247 2.2586 1.391 3.1312.99894 1.2847 2.35379 2.0064 3.7665 2.0064s2.76755-.7217 3.76649-2.0064c.20931-.2691.3994-.5584.56913-.8642.16974.3058.35983.5951.56918.8642.9989 1.2847 2.3537 2.0064 3.7664 2.0064 1.4128 0 2.7676-.7217 3.7665-2.0064.2094-.2691.3994-.5584.5692-.8642.1697.3058.3598.5951.5691.8642.9989 1.2847 2.3538 2.0064 3.7665 2.0064s2.7676-.7217 3.7665-2.0064c.2093-.2691.3994-.5584.5691-.8642.1698.3058.3599.5951.5692.8642.9989 1.2847 2.3537 2.0064 3.7665 2.0064 1.4127 0 2.7675-.7217 3.7664-2.0064.2093-.2691.3994-.5584.5692-.8642.1697.3058.3598.5951.5691.8642.9989 1.2847 2.3538 2.0064 3.7665 2.0064s2.7676-.7217 3.7665-2.0064c.6785-.8726 1.1551-1.9564 1.391-3.1312h-1.7768c-.2044.8031-.5478 1.5199-.9897 2.0883-.7305.9394-1.6084 1.3368-2.391 1.3368s-1.6605-.3974-2.391-1.3368c-.4419-.5684-.7853-1.2852-.9897-2.0883h-1.9098c-.2045.8031-.5478 1.5199-.9898 2.0883-.7305.9394-1.6083 1.3368-2.3909 1.3368-.7827 0-1.6605-.3974-2.391-1.3368-.442-.5684-.7853-1.2852-.9898-2.0883h-1.9098c-.2044.8031-.5478 1.5199-.9897 2.0883-.7305.9394-1.6084 1.3368-2.391 1.3368s-1.6605-.3974-2.391-1.3368c-.4419-.5684-.7853-1.2852-.9897-2.0883h-1.9098c-.2045.8031-.5478 1.5199-.9898 2.0883-.7305.9394-1.6083 1.3368-2.391 1.3368-.7826 0-1.6604-.3974-2.3909-1.3368-.442-.5684-.7853-1.2852-.9898-2.0883h-1.90977c-.20444.8031-.54782 1.5199-.98976 2.0883-.73048.9394-1.60833 1.3368-2.39097 1.3368s-1.66049-.3974-2.39097-1.3368c-.44194-.5684-.78533-1.2852-.98977-2.0883z" fill="#000" fill-rule="evenodd"/></svg>