<svg fill="none" height="45" viewBox="0 0 28 45" width="28" xmlns="http://www.w3.org/2000/svg"><path clip-rule="evenodd" d="m15.9003 27.0291c0-.752.4765-1.4214 1.1871-1.6676 2.8308-.9804 4.9975-2.5106 6.5009-4.4257 1.9571-2.4929 2.657-5.477 2.3511-8.3132-.6055-5.61315-5.2102-10.85789-12.0244-10.85789-3.7173 0-6.84484 1.69646-8.97279 4.00311-2.09671 2.27278-3.36872 5.30208-3.15382 8.16738.082 1.0934 1.03484 1.9133 2.12822 1.8313 1.09337-.082 1.91325-1.0348 1.83125-2.1282-.11555-1.5406.59256-3.5303 2.11275-5.17818 1.48694-1.61182 3.59909-2.72483 6.05439-2.72483 4.5222 0 7.6592 3.44278 8.0767 7.31311.2044 1.8949-.2622 3.8251-1.5265 5.4356-1.2612 1.6065-3.44 3.0487-6.9262 3.721-.9342.1802-1.6093.9979-1.6093 1.9494v8.3824c0 1.0964.8888 1.9853 1.9853 1.9853 1.0964 0 1.9853-.8889 1.9853-1.9853zm1.7647 0c3.1093-1.077 5.5733-2.7896 7.3114-5.0036 2.2652-2.8854 3.0685-6.3379 2.7175-9.5922-.6886-6.3838-5.9425-12.4333-13.7789-12.4333-4.27868 0-7.85745 1.95624-10.26986 4.57124-2.35241 2.54996-3.875617 6.04126-3.6165123 9.49596.1548953 2.0653 1.9546923 3.614 4.0199623 3.4591s3.61393-1.9547 3.45903-4.02c-.07178-.957.39036-2.4841 1.65005-3.8496 1.19973-1.30044 2.85983-2.1567 4.75733-2.1567 3.5239 0 5.9906 2.6637 6.3222 5.7377.159 1.4745-.2026 2.937-1.1601 4.1566-.9516 1.2122-2.7216 2.4703-5.8722 3.078-1.7648.3403-3.0399 1.8849-3.0399 3.6821v8.3824c0 2.071 1.6789 3.75 3.75 3.75s3.75-1.679 3.75-3.75zm-3.7498-3.8673c.4873 0 .8823.395.8823.8823v.8824c0 .4873-.395.8823-.8823.8823-.4874 0-.8824-.395-.8824-.8823v-.8824c0-.4873.395-.8823.8824-.8823zm0 3.1985c.4873 0 .8823.395.8823.8823v5.1839c0 .4873-.395.8823-.8823.8823-.4874 0-.8824-.395-.8824-.8823v-5.1839c0-.4873.395-.8823.8824-.8823zm1.9852 15c0 1.0355-.8394 1.875-1.875 1.875-1.0355 0-1.875-.8395-1.875-1.875s.8395-1.875 1.875-1.875c1.0356 0 1.875.8395 1.875 1.875zm1.7648 0c0 2.0101-1.6296 3.6397-3.6398 3.6397-2.0101 0-3.6397-1.6296-3.6397-3.6397 0-2.0102 1.6296-3.6397 3.6397-3.6397 2.0102 0 3.6398 1.6295 3.6398 3.6397z" fill="#000" fill-rule="evenodd"/></svg>