<svg fill="none" height="204" viewBox="0 0 194 204" width="194" xmlns="http://www.w3.org/2000/svg"><path clip-rule="evenodd" d="m121.5 39.7c13.2-29.6 16.9-37.4 18.3-38.5 1.1-.8 6.1-1.2 16.7-1.2 13.3 0 15.4.2 16.8 1.8.9 1 2.8 4.4 4.2 7.5 1.4 3.2 2.5 6.4 2.5 7.1 0 .8-.7 1.7-1.6 2-.9.4-2.2.2-2.9-.4s-2.3-3.5-3.6-6.5l-2.4-5.5h-13.1-13.1l-8.7 19.3c-4.7 10.6-8.6 19.8-8.6 20.5 0 .9 7 1.2 30.5 1.2 18.7 0 30.5-.4 30.5-1 0-.5-1.8-5-4-10.1-2.3-5.1-3.9-9.8-3.6-10.6.3-.7 1.5-1.3 2.6-1.3 1.6 0 3 2 6.6 9.7 2.4 5.3 4.7 10.7 5 11.9.4 1.6-.2 3-2 4.8-2.3 2.4-3.1 2.6-12.4 2.6-6.416 0-8.674 0-9.632 1.1159-.52.6061-.657 1.5412-.868 2.9841-.3 2.2-1.3 4.9-2.2 5.9s-3 2.2-4.6 2.5c-.32.0772-.604.1458-.857.2756-2.043 1.0476-2.043 6.0788-2.043 51.7244 0 45.803 0 50.711 2.206 52.091.265.166.562.28.894.409 1.7.7 3.5 2.4 4 3.7s.9 4 .9 5.9c0 2.9.4 3.4 2.3 3.4 1.2 0 3.7.9 5.5 2s4.1 3.4 5.2 5.2 2 4.6 2 6.1c0 1.6-1 3.8-2.5 5.2-2.4 2.5-2.5 2.5-22.8 2.5-19.2 0-20.6-.1-23.1-2.1-1.9-1.5-2.6-3-2.6-5.6 0-2 .9-5 2-6.8s3.6-4 5.4-4.9c1.9-.9 4.3-1.6 5.5-1.6 1.8 0 2.1-.6 2.1-4.1 0-2.2.5-4.9 1.1-6 .5-1.1 2.1-2.4 3.5-2.9.209-.087.4-.167.575-.274 1.825-1.117 1.825-5.216 1.825-52.226 0-46.3775 0-50.9905-1.826-51.8875-.201-.0991-.425-.1528-.674-.2125-1.4-.3-3.4-1.8-4.5-3.1-1.1-1.4-2-4.1-2-5.9 0-1.1395 0-1.8971-.358-2.4008-.709-.9992-2.826-.9992-9.142-.9992-5.2 0-10.6-.5-12-1.2-1.4-.6-2.8-2.2-3.1-3.5-.4-1.5.4-4.7 2.1-8.6zm39.671 19.1352c.432-.4693.505-1.2697.629-2.6352.119-1.2733.191-2.0399-.15-2.5015-.516-.6985-1.977-.6985-5.65-.6985s-5.134 0-5.65.6985c-.341.4616-.269 1.2282-.15 2.5015.124 1.3655.197 2.1659.629 2.6352.613.6648 1.947.6648 5.171.6648s4.558 0 5.171-.6648zm-.591 123.6088c.437-.499.362-1.446.22-3.244-.3-3.5-.5-3.7-3.8-4-2-.2-3.9 0-4.3.4s-.7 2.2-.7 4.1c0 3.3.1 3.3 4.6 3.3 2.371 0 3.493 0 3.98-.556zm15.22 13.456c.1-.9-.6-2.7-1.7-4-1.8-2.3-2.5-2.4-17-2.7-15-.3-15.1-.3-17.6 2.2-1.4 1.4-2.5 3.4-2.5 4.6 0 2 .4 2 19.2 1.8 16.7-.3 19.3-.5 19.6-1.9zm-148.2-124.4c1.5-1 3.9-2.1 5.3-2.6 1.4-.4 19.1-.7 39.2-.6h.0001.0001.0001c31.6747.1736 35.8617.1965 39.0947 1.9641.493.2693.963.579 1.505.9359 2.2 1.4 4.7 4.2 5.6 6.1 1.4 2.9 1.7 7 1.7 24.5v21l7 .4c6 .3 7.3.7 10 3.3 1.7 1.6 3.5 4.6 4.1 6.8.8 3.2.7 4.5-1.1 8.1-1.2 2.7-3.3 5-5.4 6.1-.935.522-1.613.901-2.112 1.444-1.318 1.431-1.398 4.003-1.688 13.356-.208 8.959-.272 11.696-1.531 13.671-.554.869-1.339 1.59-2.469 2.629-2.7 2.4-4.7 3.4-7.1 3.4-1.9 0-3.6.2-3.8.5-.3.2-.1 4.3.4 9 .8 7.6.8 8.8-.8 10.5-1.3 1.5-3.1 2-6.5 2-4.1 0-5.1-.4-7.1-2.9-1.2-1.6-3.4-6.4-4.8-10.7l-2.6-7.9h-24.5-24.5l-3 9.1c-1.6 5.1-3.6 9.9-4.4 10.8-.9 1-3 1.6-6.1 1.6-3.4 0-5.2-.5-6.5-2-1.6-1.8-1.7-2.8-.8-10.2.6-4.6.8-8.6.6-9.1-.2-.4-1.9-.7-3.7-.7-1.9 0-4.5-.9-6.1-2.2-1.5-1.2-3.4-3.6-4.1-5.4-.9-2.2-1.4-7.3-1.4-14.4 0-10.7-.1-11.1-2.3-11.9-1.3-.5-3.6-2.4-5-4.1-2.1-2.5-2.7-4.2-2.7-7.9 0-3.4.6-5.6 2.1-7.5 1.1-1.4 3.4-3.3 4.9-4.1 1.6-.8 5.4-1.5 8.4-1.5h5.5l.3-8.8.0025-.072c.2975-8.429.3045-8.628 2.7975-8.628 2.4929 0 2.5.199 2.7974 8.528l.0026.072.0009.027c.2991 8.573.3027 8.675 3.6991 10.973 1.9 1.3 3.9 3.4 4.4 4.7.6 1.3 1.1 4.8 1.1 7.8 0 3.22 0 4.588.6272 4.999.4637.303 1.2701.084 2.6728-.299 1.7-.4 15.6-.8 30.7-.8s29.2.3 31.3.7c1.591.301 2.498.473 3.015.101.685-.492.685-1.938.685-5.301 0-5.2.4-6.4 3.1-9.5 1.7-1.9 3.7-3.5 4.5-3.5 1.2 0 1.4-3.7 1.4-21.3s-.3-21.6-1.6-23.5c-.8-1.2-2.8-2.9-4.4-3.7-2.4-1.2-8.7-1.5-37-1.5-26.3 0-34.8.3-37.3 1.3-1.8.8-3.9 2.2-4.7 3.2-1 1.2-1.7 4.9-2 10.9-.5 8.9-.6 9.1-3 9.1-2.493 0-2.5-.1989-2.7975-8.6284l-.0025-.0716c-.2-7.1.1-9.4 1.7-12.6 1.1-2.1 3.2-4.7 4.7-5.7zm3.4 77.7c-.5-15.7-.6-16.5-2.9-18.3-1.8-1.5-3.9-1.9-10.2-1.9-6.6 0-8.2.3-9.9 2-1.1 1.1-2 3.2-2 4.8 0 1.5.7 3.8 1.6 5 .8 1.2 2.4 2.2 3.4 2.2s2.5.3 3.4.6c1.4.5 1.6 2.8 1.6 14.5 0 12.6.2 14.1 2 15.9 1.9 1.9 3.3 2 52.5 2s50.6-.1 52.5-2c1.8-1.8 2-3.3 2-15.3 0-9 .4-13.7 1.2-14.5.7-.7 2.2-1.2 3.3-1.2 1.2 0 2.9-.8 3.8-1.8 1-1 1.7-3.5 1.7-5.5 0-5.2-2.6-6.7-12-6.7-5.2 0-8.2.5-9.8 1.6-2.1 1.5-2.2 2.1-2.2 17.3 0 12.2-.3 16.1-1.4 17-.9.8-12.2 1-39.7.9l-38.4-.3zm72.9 2.5c-.7-1.5-2.5-2.9-4.9-3.6s-13.1-1.1-29.6-1c-14.3 0-26.9.4-28 .9-1.2.5-2.9 1.9-3.8 3.2-.9 1.2-1.6 3.7-1.6 5.5v3.3h34.5c28.8395 0 33.571 0 34.348-1.752.152-.344.152-.756.152-1.248 0-1.6-.5-4-1.1-5.3zm-67.3 38.9c1.3-3.8 2.1-7.3 1.8-7.8-.3-.4-1.6-.8-2.9-.8s-2.8.8-3.3 1.7c-.5 1-1.2 4.6-1.5 8.1-.5 5.9-.4 6.3 1.5 6 1.6-.2 2.6-2 4.4-7.2zm73.8.6c-.3-3.7-.7-7.3-1-8-.2-.6-1.6-1.2-3.2-1.2s-3.1.3-3.4.6c-.4.3.5 3.9 1.9 8 1.9 5.8 2.9 7.4 4.4 7.4 1.8 0 1.9-.5 1.3-6.8zm-58.0636-101.9153v-2.3632c0-.5109.7695-.9215 1.5907-.9215s1.4461.4106 1.4461.8485v2.4362h2.7053c.5109 0 .9215.7694.9215 1.5907 0 .8212-.4106 1.4461-.8485 1.4461h-2.7782v2.757c0 .511-.7695.9215-1.5907.9215s-1.4461-.4105-1.4461-.8485v-2.83h-2.415c-.5109 0-.9215-.7695-.9215-1.5907 0-.8213.4106-1.4461.8485-1.4461zm0 23.6373v2.363h-2.4879c-.4379 0-.8485.625-.8485 1.446s.4106 1.59.9215 1.59h2.415v2.83c0 .438.6249.849 1.4461.849s1.5907-.411 1.5907-.922v-2.757h2.7782c.4379 0 .8485-.624.8485-1.446 0-.821-.4106-1.59-.9215-1.59h-2.7053v-2.436c0-.438-.6249-.849-1.4461-.849s-1.5907.411-1.5907.922zm33-23.6373v-2.3632c0-.5109.7695-.9215 1.5907-.9215.8213 0 1.4461.4106 1.4461.8485v2.4362h2.7053c.5109 0 .9215.7694.9215 1.5907 0 .8212-.4106 1.4461-.8485 1.4461h-2.7782v2.757c0 .511-.7694.9215-1.5907.9215-.8212 0-1.4461-.4105-1.4461-.8485v-2.83h-2.415c-.5109 0-.9215-.7695-.9215-1.5907 0-.8213.4106-1.4461.8485-1.4461zm0 23.6373v2.363h-2.4879c-.4379 0-.8485.625-.8485 1.446s.4106 1.59.9215 1.59h2.415v2.83c0 .438.6249.849 1.4461.849.8213 0 1.5907-.411 1.5907-.922v-2.757h2.7782c.4379 0 .8485-.624.8485-1.446 0-.821-.4106-1.59-.9215-1.59h-2.7053v-2.436c0-.438-.6248-.849-1.4461-.849-.8212 0-1.5907.411-1.5907.922z" fill="#000" fill-rule="evenodd"/></svg>