<svg fill="none" height="44" viewBox="0 0 42 44" width="42" xmlns="http://www.w3.org/2000/svg"><path clip-rule="evenodd" d="m26.3424 8.56275c2.8618-6.38432 3.664-8.066672 3.9676-8.303926.2385-.1725495 1.3225-.258824 3.6207-.258824 2.8836 0 3.3389.0431372 3.6424.388235.1951.215687.6071.949015.9106 1.617645.3035.6902.542 1.38039.542 1.53138 0 .17254-.1518.36666-.3469.43137-.1951.08627-.477.04313-.6287-.08628-.1518-.12941-.4987-.7549-.7805-1.40196l-.5204-1.18627h-2.8402-2.8402l-1.8862 4.16274c-1.019 2.28628-1.8646 4.27059-1.8646 4.42157 0 .19407 1.5177.25887 6.6127.25887 4.0543 0 6.6127-.0863 6.6127-.21573 0-.10784-.3903-1.07843-.8673-2.17843-.4986-1.1-.8455-2.11373-.7805-2.28628.0651-.15098.3252-.28039.5637-.28039.3469 0 .6505.43137 1.431 2.09216.5203 1.14313 1.019 2.30784 1.084 2.56666.0867.34511-.0433.64711-.4336 1.03531-.4987.5176-.6721.5608-2.6884.5608-1.3911 0-1.8806 0-2.0883.2407-.1128.1307-.1425.3324-.1882.6436-.0651.4745-.2819 1.0568-.477 1.2725s-.6504.4745-.9973.5393c-.0693.0166-.131.0314-.1859.0594-.4429.226-.4429 1.3111-.4429 11.1562 0 9.8791 0 10.9377.4784 11.2353.0574.0358.1217.0605.1937.0883.3686.1509.7589.5176.8673.798s.1951.8628.1951 1.2726c0 .6254.0867.7333.4987.7333.2601 0 .8021.1941 1.1924.4314.3903.2372.8889.7333 1.1274 1.1215.2385.3883.4336.9922.4336 1.3157 0 .3451-.2168.8196-.542 1.1216-.5203.5392-.542.5392-4.9433.5392-4.1627 0-4.4662-.0216-5.0082-.4529-.412-.3236-.5638-.6471-.5638-1.2079 0-.4314.1952-1.0784.4337-1.4667.2385-.3882.7805-.8627 1.1707-1.0568.412-.1941.9323-.3451 1.1925-.3451.3902 0 .4553-.1294.4553-.8843 0-.4745.1084-1.0569.2385-1.2941.1084-.2373.4553-.5177.7588-.6255.0454-.0188.0868-.036.1246-.059.3958-.2412.3958-1.1252.3958-11.2646 0-10.0029 0-10.9979-.3959-11.1914-.0437-.0214-.0923-.0329-.1462-.0458-.3035-.0647-.7371-.3883-.9756-.6686-.2385-.302-.4336-.8844-.4336-1.2726 0-.2458 0-.4092-.0776-.5178-.1538-.2155-.6127-.2155-1.9821-.2155-1.1274 0-2.2982-.1079-2.6017-.2589-.3036-.1294-.6071-.4745-.6721-.7549-.0868-.3235.0867-1.01368.4553-1.85485zm8.601 4.12715c.0937-.1012.1095-.2738.1364-.5683.0259-.2747.0414-.44-.0325-.5396-.1119-.1506-.4287-.1506-1.225-.1506s-1.1132 0-1.225.1506c-.074.0996-.0584.2649-.0325.5396.0269.2945.0427.4671.1364.5683.1328.1434.422.1434 1.1211.1434.699 0 .9883 0 1.1211-.1434zm-.1282 26.6608c.0948-.1077.0785-.312.0478-.6997-.0651-.7549-.1084-.7981-.8239-.8628-.4336-.0431-.8456 0-.9323.0863s-.1518.4745-.1518.8843c0 .7118.0217.7118.9974.7118.5141 0 .7573 0 .8628-.1199zm3.2999 2.9022c.0217-.1941-.1301-.5823-.3686-.8627-.3902-.4961-.542-.5177-3.6857-.5824-3.2522-.0647-3.2738-.0647-3.8159.4746-.3035.3019-.542.7333-.542.9921 0 .4314.0867.4314 4.1627.3882 3.6208-.0647 4.1845-.1078 4.2495-.4098zm-32.13116-26.8313c.32522-.2157.84556-.453 1.14909-.5608.30354-.0863 4.14107-.151 8.49897-.1294 6.8675.0374 7.7752.0424 8.4762.4236.1068.0581.2087.1249.3262.2019.477.3019 1.019.9058 1.2142 1.3156.3035.6255.3685 1.5099.3685 5.2844v4.5294l1.5177.0862c1.3009.0648 1.5827.151 2.1681.7118.3686.3451.7588.9922.8889 1.4667.1735.6902.1518.9706-.2385 1.747-.2601.5824-.7154 1.0785-1.1707 1.3157-.2027.1127-.3496.1944-.458.3114-.2857.3087-.303.8634-.3659 2.8808v.0001c-.0452 1.9323-.059 2.5226-.3319 2.9486-.1201.1874-.2903.3429-.5354.567-.5853.5176-1.019.7333-1.5393.7333-.4119 0-.7805.0431-.8239.1078-.065.0432-.0217.9275.0867 1.9412.1735 1.6392.1735 1.8981-.1734 2.2647-.2819.3236-.6721.4314-1.4093.4314-.8889 0-1.1057-.0863-1.5393-.6255-.2602-.3451-.7372-1.3804-1.0407-2.3078l-.5637-1.704h-5.3118-5.31187l-.65043 1.9628c-.34689 1.1-.78051 2.1353-.95396 2.3294-.19513.2157-.65043.3451-1.32254.3451-.73715 0-1.12741-.1078-1.40926-.4314-.34689-.3882-.36857-.6039-.17345-2.2.13009-.9921.17345-1.8549.13009-1.9627-.04336-.0863-.41194-.151-.80219-.151-.41194 0-.97565-.1941-1.32254-.4745-.32522-.2588-.73716-.7765-.88892-1.1647-.19513-.4745-.30354-1.5745-.30354-3.1059 0-2.3078-.02168-2.3941-.49866-2.5667-.28185-.1078-.780511-.5176-1.084044-.8843-.4553-.5392-.585386-.9059-.585386-1.7039 0-.7333.130086-1.2078.4553-1.6176.23849-.302.73715-.7118 1.06237-.8844.34689-.1725 1.17077-.3235 1.8212-.3235h1.19245l.06504-1.898.00055-.0155c.0645-1.8181.06602-1.861.60652-1.861.54048 0 .54202.0429.60651 1.8395l.00055.0154.00021.0058c.06484 1.8492.06561 1.8712.80199 2.3668.41194.2803.84556.7333.95396 1.0137.13009.2804.23849 1.0353.23849 1.6823 0 .6945 0 .9897.13598 1.0782.10053.0655.27538.0181.57949-.0644.36858-.0863 3.38219-.1726 6.65609-.1726 3.2738 0 6.3308.0647 6.7861.151.3449.0649.5416.1019.6536.0218.1486-.1061.1486-.418.1486-1.1434 0-1.1215.0867-1.3804.6721-2.049.3686-.4098.8022-.7549.9756-.7549.2602 0 .3036-.798.3036-4.5941s-.0651-4.6588-.3469-5.0686c-.1735-.2589-.6071-.6255-.954-.7981-.5203-.2588-1.8862-.3235-8.0219-.3235-5.70212 0-7.545.0647-8.08702.2804-.39026.1725-.84556.4745-1.019.6902-.21681.2588-.36858 1.0568-.43362 2.351-.10841 1.9196-.13009 1.9627-.65043 1.9627-.5405 0-.54202-.0429-.60652-1.861l-.00055-.0155c-.04336-1.5313.02168-2.0274.36858-2.7176.23849-.453.69379-1.0137 1.019-1.2294zm.73715 16.7588c-.1084-3.3863-.13008-3.5588-.62874-3.9471-.39026-.3235-.84556-.4098-2.21146-.4098-1.43094 0-1.77784.0647-2.14641.4314-.23849.2373-.43362.6902-.43362 1.0353 0 .3235.15176.8196.34689 1.0784.17345.2589.52034.4745.73715.4745s.54203.0647.73716.1295c.30353.1078.34689.6039.34689 3.1274 0 2.7176.04336 3.0412.43362 3.4294.41194.4098.71547.4314 11.38253.4314 10.667 0 10.9705-.0216 11.3825-.4314.3902-.3882.4336-.7118.4336-3.3 0-1.9412.0867-2.9549.2602-3.1274.1517-.151.4769-.2589.7154-.2589.2602 0 .6288-.1725.8239-.3882.2168-.2157.3686-.7549.3686-1.1863 0-1.1215-.5637-1.4451-2.6017-1.4451-1.1274 0-1.7779.1079-2.1248.3451-.4553.3236-.4769.453-.4769 3.7314 0 2.6314-.0651 3.4725-.3036 3.6667-.1951.1725-2.6451.2157-8.6073.1941l-8.3255-.0647zm15.80541.5392c-.1518-.3235-.542-.6255-1.0624-.7765-.5203-.1509-2.8402-.2372-6.4175-.2156-3.1004 0-5.8322.0862-6.07069.1941-.26017.1078-.62874.4098-.82387.6902-.19513.2588-.3469.798-.3469 1.1862v.7118h7.47996c6.2526 0 7.2785 0 7.4469-.378.033-.0741.033-.1629.033-.2691 0-.3451-.1084-.8627-.2385-1.1431zm-14.59127 8.3902c.28185-.8196.4553-1.5745.39025-1.6823-.06504-.0863-.34689-.1726-.62874-.1726-.28186 0-.60707.1726-.71547.3667-.10841.2157-.26018.9921-.32522 1.747-.1084 1.2726-.08672 1.3589.32522 1.2941.34689-.0431.5637-.4313.95396-1.5529zm16.00057.1294c-.0651-.798-.1518-1.5745-.2168-1.7255-.0434-.1294-.3469-.2588-.6938-.2588s-.6721.0647-.7372.1294c-.0867.0647.1084.8412.412 1.7255.4119 1.251.6287 1.5961.9539 1.5961.3903 0 .412-.1079.2819-1.4667zm-12.5888-21.9817v-.5097c0-.1102.1669-.1988.3449-.1988.1781 0 .3135.0886.3135.183v.5255h.5866c.1107 0 .1998.1659.1998.3431 0 .1771-.0891.3119-.184.3119h-.6023v.5946c0 .1102-.1669.1988-.3449.1988-.1781 0-.3135-.0886-.3135-.183v-.6104h-.5236c-.1108 0-.1998-.166-.1998-.3431s.089-.3119.1839-.3119zm0 5.0981v.5097h-.5394c-.0949 0-.1839.1348-.1839.3119 0 .1772.089.3431.1998.3431h.5236v.6104c0 .0945.1354.183.3135.183.178 0 .3449-.0885.3449-.1987v-.5947h.6023c.0949 0 .184-.1348.184-.3119s-.0891-.3431-.1998-.3431h-.5866v-.5254c0-.0945-.1354-.183-.3135-.183-.178 0-.3449.0885-.3449.1987zm7.1547-5.0981v-.5097c0-.1102.1669-.1988.3449-.1988.1781 0 .3135.0886.3135.183v.5255h.5866c.1108 0 .1998.1659.1998.3431 0 .1771-.089.3119-.184.3119h-.6023v.5946c0 .1102-.1669.1988-.3449.1988-.1781 0-.3135-.0886-.3135-.183v-.6104h-.5236c-.1108 0-.1998-.166-.1998-.3431s.089-.3119.184-.3119zm0 5.0981v.5097h-.5393c-.095 0-.184.1348-.184.3119 0 .1772.089.3431.1998.3431h.5236v.6104c0 .0945.1354.183.3135.183.178 0 .3449-.0885.3449-.1987v-.5947h.6023c.095 0 .184-.1348.184-.3119s-.089-.3431-.1998-.3431h-.5866v-.5254c0-.0945-.1354-.183-.3135-.183-.178 0-.3449.0885-.3449.1987z" fill="#000" fill-rule="evenodd"/></svg>