<svg width="45" height="47" viewBox="0 0 45 47" fill="none" xmlns="http://www.w3.org/2000/svg">
<mask id="path-1-outside-1_487_896" maskUnits="userSpaceOnUse" x="0" y="0" width="45" height="47" fill="black">
<rect fill="white" width="45" height="47"/>
<path fill-rule="evenodd" clip-rule="evenodd" d="M27.9696 9.75735C30.8996 3.22794 31.7209 1.50735 32.0316 1.26471C32.2758 1.08824 33.3857 1 35.7386 1C38.6908 1 39.1569 1.04412 39.4677 1.39706C39.6675 1.61765 40.0892 2.36765 40.4 3.05147C40.7107 3.75735 40.9549 4.46324 40.9549 4.61765C40.9549 4.79412 40.7995 4.99265 40.5997 5.05882C40.4 5.14706 40.1114 5.10294 39.956 4.97059C39.8006 4.83824 39.4455 4.19853 39.1569 3.53676L38.6242 2.32353H35.7164H32.8085L30.8774 6.58088C29.8341 8.91912 28.9684 10.9485 28.9684 11.1029C28.9684 11.3015 30.5222 11.3676 35.7386 11.3676C39.8894 11.3676 42.5087 11.2794 42.5087 11.1471C42.5087 11.0368 42.1091 10.0441 41.6208 8.91912C41.1103 7.79412 40.7551 6.75735 40.8217 6.58088C40.8883 6.42647 41.1547 6.29412 41.3988 6.29412C41.754 6.29412 42.0648 6.73529 42.8639 8.43382C43.3966 9.60294 43.9071 10.7941 43.9737 11.0588C44.0625 11.4118 43.9293 11.7206 43.5298 12.1176C43.0192 12.6471 42.8417 12.6912 40.7773 12.6912C39.3532 12.6912 38.852 12.6912 38.6393 12.9373C38.5239 13.071 38.4935 13.2773 38.4466 13.5956C38.38 14.0809 38.158 14.6765 37.9583 14.8971C37.7585 15.1176 37.2924 15.3824 36.9372 15.4485C36.8663 15.4655 36.8031 15.4807 36.747 15.5093C36.2935 15.7404 36.2935 16.8502 36.2935 26.9191C36.2935 37.0227 36.2935 38.1054 36.7833 38.4098C36.842 38.4463 36.9079 38.4716 36.9816 38.5C37.359 38.6544 37.7585 39.0294 37.8695 39.3162C37.9805 39.6029 38.0693 40.1985 38.0693 40.6176C38.0693 41.2574 38.158 41.3676 38.5798 41.3676C38.8462 41.3676 39.4011 41.5662 39.8006 41.8088C40.2002 42.0515 40.7107 42.5588 40.9549 42.9559C41.1991 43.3529 41.3988 43.9706 41.3988 44.3015C41.3988 44.6544 41.1769 45.1397 40.8439 45.4485C40.3112 46 40.289 46 35.783 46C31.5211 46 31.2103 45.9779 30.6554 45.5368C30.2337 45.2059 30.0783 44.875 30.0783 44.3015C30.0783 43.8603 30.2781 43.1985 30.5222 42.8015C30.7664 42.4044 31.3213 41.9191 31.7209 41.7206C32.1426 41.5221 32.6754 41.3676 32.9417 41.3676C33.3413 41.3676 33.4079 41.2353 33.4079 40.4632C33.4079 39.9779 33.5188 39.3824 33.652 39.1397C33.763 38.8971 34.1182 38.6103 34.4289 38.5C34.4754 38.4808 34.5178 38.4632 34.5565 38.4397C34.9617 38.1931 34.9617 37.289 34.9617 26.9191C34.9617 16.6888 34.9617 15.6712 34.5564 15.4733C34.5116 15.4515 34.4619 15.4396 34.4067 15.4265C34.096 15.3603 33.652 15.0294 33.4079 14.7426C33.1637 14.4338 32.9639 13.8382 32.9639 13.4412C32.9639 13.1898 32.9639 13.0227 32.8845 12.9116C32.7271 12.6912 32.2572 12.6912 30.8552 12.6912C29.7009 12.6912 28.5023 12.5809 28.1915 12.4265C27.8808 12.2941 27.57 11.9412 27.5034 11.6544C27.4146 11.3235 27.5922 10.6176 27.9696 9.75735ZM36.7753 13.9783C36.8713 13.8748 36.8875 13.6983 36.915 13.3971C36.9415 13.1162 36.9575 12.9471 36.8818 12.8452C36.7672 12.6912 36.4428 12.6912 35.6276 12.6912C34.8123 12.6912 34.4879 12.6912 34.3734 12.8452C34.2977 12.9471 34.3136 13.1162 34.3401 13.3971C34.3677 13.6983 34.3838 13.8748 34.4798 13.9783C34.6158 14.125 34.9119 14.125 35.6276 14.125C36.3433 14.125 36.6394 14.125 36.7753 13.9783ZM36.6441 41.245C36.7411 41.1349 36.7245 40.926 36.693 40.5294C36.6264 39.7574 36.5821 39.7132 35.8495 39.6471C35.4056 39.6029 34.9839 39.6471 34.8951 39.7353C34.8063 39.8235 34.7397 40.2206 34.7397 40.6397C34.7397 41.3676 34.7619 41.3676 35.7608 41.3676C36.2871 41.3676 36.5361 41.3676 36.6441 41.245ZM40.0226 44.2132C40.0448 44.0147 39.8894 43.6176 39.6453 43.3309C39.2457 42.8235 39.0903 42.8015 35.8717 42.7353C32.5422 42.6691 32.52 42.6691 31.965 43.2206C31.6543 43.5294 31.4101 43.9706 31.4101 44.2353C31.4101 44.6765 31.4989 44.6765 35.672 44.6324C39.3789 44.5662 39.956 44.5221 40.0226 44.2132ZM7.12642 16.7721C7.45937 16.5515 7.99211 16.3088 8.30287 16.1985C8.61363 16.1103 12.5425 16.0441 17.0042 16.0662H17.0042H17.0042H17.0042H17.0042C24.0352 16.1045 24.9646 16.1095 25.6822 16.4994C25.7915 16.5588 25.8959 16.6272 26.0162 16.7059C26.5045 17.0147 27.0595 17.6324 27.2592 18.0515C27.57 18.6912 27.6366 19.5956 27.6366 23.4559V28.0882L29.1904 28.1765C30.5222 28.2426 30.8108 28.3309 31.4101 28.9044C31.7875 29.2574 32.187 29.9191 32.3202 30.4044C32.4978 31.1103 32.4756 31.3971 32.076 32.1912C31.8097 32.7868 31.3435 33.2941 30.8774 33.5368C30.6699 33.652 30.5194 33.7355 30.4085 33.8552C30.116 34.171 30.0983 34.7382 30.0339 36.8015V36.8015V36.8015C29.9876 38.7778 29.9735 39.3815 29.6941 39.8172C29.5711 40.0088 29.3969 40.1679 29.146 40.3971C28.5467 40.9265 28.1027 41.1471 27.57 41.1471C27.1483 41.1471 26.7709 41.1912 26.7265 41.2574C26.6599 41.3015 26.7043 42.2059 26.8153 43.2426C26.9929 44.9191 26.9929 45.1838 26.6377 45.5588C26.3492 45.8897 25.9496 46 25.1949 46C24.2848 46 24.0629 45.9118 23.6189 45.3603C23.3525 45.0074 22.8642 43.9485 22.5534 43L21.9763 41.2574H16.538H11.0997L10.4338 43.2647C10.0786 44.3897 9.6347 45.4485 9.45712 45.6471C9.25734 45.8676 8.7912 46 8.10309 46C7.34839 46 6.94884 45.8897 6.66028 45.5588C6.30512 45.1618 6.28292 44.9412 6.4827 43.3088C6.61588 42.2941 6.66028 41.4118 6.61588 41.3015C6.57149 41.2132 6.19414 41.1471 5.79459 41.1471C5.37284 41.1471 4.79571 40.9485 4.44056 40.6618C4.1076 40.3971 3.68586 39.8676 3.53048 39.4706C3.3307 38.9853 3.21972 37.8603 3.21972 36.2941C3.21972 33.9338 3.19752 33.8456 2.70918 33.6691C2.42062 33.5588 1.91008 33.1397 1.59932 32.7647C1.13318 32.2132 1 31.8382 1 31.0221C1 30.2721 1.13318 29.7868 1.46614 29.3676C1.71031 29.0588 2.22084 28.6397 2.5538 28.4632C2.90896 28.2868 3.75245 28.1324 4.41836 28.1324H5.63921L5.7058 26.1912L5.70636 26.1754C5.77239 24.3159 5.77395 24.2721 6.32732 24.2721C6.88067 24.2721 6.88224 24.3159 6.94827 26.1533L6.94884 26.1691L6.94905 26.1751C7.01543 28.0662 7.01622 28.0888 7.77013 28.5956C8.19188 28.8824 8.63582 29.3456 8.74681 29.6324C8.87999 29.9191 8.99098 30.6912 8.99098 31.3529C8.99098 32.0632 8.99098 32.3651 9.1302 32.4556C9.23312 32.5226 9.41213 32.4741 9.72348 32.3897C10.1008 32.3015 13.1862 32.2132 16.538 32.2132C19.8898 32.2132 23.0196 32.2794 23.4857 32.3676C23.8389 32.434 24.0402 32.4719 24.1549 32.39C24.307 32.2814 24.307 31.9624 24.307 31.2206C24.307 30.0735 24.3958 29.8088 24.9951 29.125C25.3725 28.7059 25.8164 28.3529 25.994 28.3529C26.2604 28.3529 26.3048 27.5368 26.3048 23.6544C26.3048 19.7721 26.2382 18.8897 25.9496 18.4706C25.772 18.2059 25.3281 17.8309 24.9729 17.6544C24.4402 17.3897 23.0418 17.3235 16.76 17.3235C10.9221 17.3235 9.03537 17.3897 8.48044 17.6103C8.08089 17.7868 7.61475 18.0956 7.43718 18.3162C7.21521 18.5809 7.05983 19.3971 6.99323 20.7206C6.88225 22.6838 6.86005 22.7279 6.32732 22.7279C5.77395 22.7279 5.77239 22.6841 5.70636 20.8246L5.7058 20.8088C5.6614 19.2426 5.728 18.7353 6.08315 18.0294C6.32732 17.5662 6.79346 16.9926 7.12642 16.7721ZM7.88112 33.9118C7.77013 30.4485 7.74794 30.2721 7.2374 29.875C6.83785 29.5441 6.37171 29.4559 4.97329 29.4559C3.50828 29.4559 3.15312 29.5221 2.77577 29.8971C2.5316 30.1397 2.33183 30.6029 2.33183 30.9559C2.33183 31.2868 2.48721 31.7941 2.68698 32.0588C2.86456 32.3235 3.21972 32.5441 3.44169 32.5441C3.66366 32.5441 3.99662 32.6103 4.19639 32.6765C4.50715 32.7868 4.55155 33.2941 4.55155 35.875C4.55155 38.6544 4.59594 38.9853 4.99549 39.3824C5.41724 39.8015 5.728 39.8235 16.649 39.8235C27.57 39.8235 27.8808 39.8015 28.3025 39.3824C28.7021 38.9853 28.7465 38.6544 28.7465 36.0074C28.7465 34.0221 28.8352 32.9853 29.0128 32.8088C29.1682 32.6544 29.5012 32.5441 29.7453 32.5441C30.0117 32.5441 30.389 32.3676 30.5888 32.1471C30.8108 31.9265 30.9662 31.375 30.9662 30.9338C30.9662 29.7868 30.389 29.4559 28.3025 29.4559C27.1483 29.4559 26.4823 29.5662 26.1272 29.8088C25.661 30.1397 25.6388 30.2721 25.6388 33.625C25.6388 36.3162 25.5723 37.1765 25.3281 37.375C25.1283 37.5515 22.62 37.5956 16.5158 37.5735L7.99211 37.5074L7.88112 33.9118ZM24.0629 34.4632C23.9075 34.1324 23.5079 33.8235 22.9752 33.6691C22.4425 33.5147 20.0674 33.4265 16.4048 33.4485C13.2306 33.4485 10.4338 33.5368 10.1896 33.6471C9.92326 33.7574 9.54591 34.0662 9.34613 34.3529C9.14636 34.6176 8.99098 35.1691 8.99098 35.5662V36.2941H16.649C23.0505 36.2941 24.1009 36.2941 24.2732 35.9076C24.307 35.8317 24.307 35.7409 24.307 35.6324C24.307 35.2794 24.196 34.75 24.0629 34.4632ZM9.12416 43.0441C9.41272 42.2059 9.5903 41.4338 9.52371 41.3235C9.45712 41.2353 9.16856 41.1471 8.87999 41.1471C8.59143 41.1471 8.25847 41.3235 8.14749 41.5221C8.0365 41.7426 7.88112 42.5368 7.81453 43.3088C7.70354 44.6103 7.72574 44.6985 8.14749 44.6324C8.50264 44.5882 8.72461 44.1912 9.12416 43.0441ZM25.5057 43.1765C25.4391 42.3603 25.3503 41.5662 25.2837 41.4118C25.2393 41.2794 24.9285 41.1471 24.5734 41.1471C24.2182 41.1471 23.8853 41.2132 23.8187 41.2794C23.7299 41.3456 23.9297 42.1397 24.2404 43.0441C24.6622 44.3235 24.8841 44.6765 25.2171 44.6765C25.6167 44.6765 25.6388 44.5662 25.5057 43.1765ZM12.6172 20.6952V20.1739C12.6172 20.0612 12.788 19.9706 12.9703 19.9706C13.1526 19.9706 13.2913 20.0612 13.2913 20.1578V20.6952H13.8918C14.0052 20.6952 14.0963 20.8649 14.0963 21.046C14.0963 21.2272 14.0052 21.365 13.908 21.365H13.2913V21.9732C13.2913 22.0859 13.1205 22.1765 12.9382 22.1765C12.7559 22.1765 12.6172 22.0859 12.6172 21.9893V21.365H12.0812C11.9677 21.365 11.8766 21.1953 11.8766 21.0141C11.8766 20.833 11.9677 20.6952 12.065 20.6952H12.6172ZM12.6172 25.9092V26.4304H12.065C11.9677 26.4304 11.8766 26.5683 11.8766 26.7494C11.8766 26.9306 11.9677 27.1003 12.0812 27.1003H12.6172V27.7246C12.6172 27.8212 12.7559 27.9118 12.9382 27.9118C13.1205 27.9118 13.2913 27.8212 13.2913 27.7085V27.1003H13.908C14.0052 27.1003 14.0963 26.9625 14.0963 26.7813C14.0963 26.6002 14.0052 26.4304 13.8918 26.4304H13.2913V25.8931C13.2913 25.7965 13.1526 25.7059 12.9703 25.7059C12.788 25.7059 12.6172 25.7965 12.6172 25.9092ZM19.9423 20.6952V20.1739C19.9423 20.0612 20.1131 19.9706 20.2954 19.9706C20.4776 19.9706 20.6163 20.0612 20.6163 20.1578V20.6952H21.2168C21.3303 20.6952 21.4214 20.8649 21.4214 21.046C21.4214 21.2272 21.3303 21.365 21.233 21.365H20.6164V21.9732C20.6164 22.0859 20.4456 22.1765 20.2633 22.1765C20.081 22.1765 19.9423 22.0859 19.9423 21.9893V21.365H19.4062C19.2928 21.365 19.2017 21.1953 19.2017 21.0141C19.2017 20.833 19.2928 20.6952 19.39 20.6952H19.9423ZM19.9423 25.9092V26.4304H19.39C19.2928 26.4304 19.2017 26.5683 19.2017 26.7494C19.2017 26.9306 19.2928 27.1003 19.4062 27.1003H19.9423V27.7246C19.9423 27.8212 20.081 27.9118 20.2633 27.9118C20.4456 27.9118 20.6164 27.8212 20.6164 27.7085V27.1003H21.233C21.3303 27.1003 21.4214 26.9625 21.4214 26.7813C21.4214 26.6002 21.3303 26.4304 21.2168 26.4304H20.6163V25.8931C20.6163 25.7965 20.4776 25.7059 20.2954 25.7059C20.1131 25.7059 19.9423 25.7965 19.9423 25.9092Z"/>
</mask>
<path fill-rule="evenodd" clip-rule="evenodd" d="M27.9696 9.75735C30.8996 3.22794 31.7209 1.50735 32.0316 1.26471C32.2758 1.08824 33.3857 1 35.7386 1C38.6908 1 39.1569 1.04412 39.4677 1.39706C39.6675 1.61765 40.0892 2.36765 40.4 3.05147C40.7107 3.75735 40.9549 4.46324 40.9549 4.61765C40.9549 4.79412 40.7995 4.99265 40.5997 5.05882C40.4 5.14706 40.1114 5.10294 39.956 4.97059C39.8006 4.83824 39.4455 4.19853 39.1569 3.53676L38.6242 2.32353H35.7164H32.8085L30.8774 6.58088C29.8341 8.91912 28.9684 10.9485 28.9684 11.1029C28.9684 11.3015 30.5222 11.3676 35.7386 11.3676C39.8894 11.3676 42.5087 11.2794 42.5087 11.1471C42.5087 11.0368 42.1091 10.0441 41.6208 8.91912C41.1103 7.79412 40.7551 6.75735 40.8217 6.58088C40.8883 6.42647 41.1547 6.29412 41.3988 6.29412C41.754 6.29412 42.0648 6.73529 42.8639 8.43382C43.3966 9.60294 43.9071 10.7941 43.9737 11.0588C44.0625 11.4118 43.9293 11.7206 43.5298 12.1176C43.0192 12.6471 42.8417 12.6912 40.7773 12.6912C39.3532 12.6912 38.852 12.6912 38.6393 12.9373C38.5239 13.071 38.4935 13.2773 38.4466 13.5956C38.38 14.0809 38.158 14.6765 37.9583 14.8971C37.7585 15.1176 37.2924 15.3824 36.9372 15.4485C36.8663 15.4655 36.8031 15.4807 36.747 15.5093C36.2935 15.7404 36.2935 16.8502 36.2935 26.9191C36.2935 37.0227 36.2935 38.1054 36.7833 38.4098C36.842 38.4463 36.9079 38.4716 36.9816 38.5C37.359 38.6544 37.7585 39.0294 37.8695 39.3162C37.9805 39.6029 38.0693 40.1985 38.0693 40.6176C38.0693 41.2574 38.158 41.3676 38.5798 41.3676C38.8462 41.3676 39.4011 41.5662 39.8006 41.8088C40.2002 42.0515 40.7107 42.5588 40.9549 42.9559C41.1991 43.3529 41.3988 43.9706 41.3988 44.3015C41.3988 44.6544 41.1769 45.1397 40.8439 45.4485C40.3112 46 40.289 46 35.783 46C31.5211 46 31.2103 45.9779 30.6554 45.5368C30.2337 45.2059 30.0783 44.875 30.0783 44.3015C30.0783 43.8603 30.2781 43.1985 30.5222 42.8015C30.7664 42.4044 31.3213 41.9191 31.7209 41.7206C32.1426 41.5221 32.6754 41.3676 32.9417 41.3676C33.3413 41.3676 33.4079 41.2353 33.4079 40.4632C33.4079 39.9779 33.5188 39.3824 33.652 39.1397C33.763 38.8971 34.1182 38.6103 34.4289 38.5C34.4754 38.4808 34.5178 38.4632 34.5565 38.4397C34.9617 38.1931 34.9617 37.289 34.9617 26.9191C34.9617 16.6888 34.9617 15.6712 34.5564 15.4733C34.5116 15.4515 34.4619 15.4396 34.4067 15.4265C34.096 15.3603 33.652 15.0294 33.4079 14.7426C33.1637 14.4338 32.9639 13.8382 32.9639 13.4412C32.9639 13.1898 32.9639 13.0227 32.8845 12.9116C32.7271 12.6912 32.2572 12.6912 30.8552 12.6912C29.7009 12.6912 28.5023 12.5809 28.1915 12.4265C27.8808 12.2941 27.57 11.9412 27.5034 11.6544C27.4146 11.3235 27.5922 10.6176 27.9696 9.75735ZM36.7753 13.9783C36.8713 13.8748 36.8875 13.6983 36.915 13.3971C36.9415 13.1162 36.9575 12.9471 36.8818 12.8452C36.7672 12.6912 36.4428 12.6912 35.6276 12.6912C34.8123 12.6912 34.4879 12.6912 34.3734 12.8452C34.2977 12.9471 34.3136 13.1162 34.3401 13.3971C34.3677 13.6983 34.3838 13.8748 34.4798 13.9783C34.6158 14.125 34.9119 14.125 35.6276 14.125C36.3433 14.125 36.6394 14.125 36.7753 13.9783ZM36.6441 41.245C36.7411 41.1349 36.7245 40.926 36.693 40.5294C36.6264 39.7574 36.5821 39.7132 35.8495 39.6471C35.4056 39.6029 34.9839 39.6471 34.8951 39.7353C34.8063 39.8235 34.7397 40.2206 34.7397 40.6397C34.7397 41.3676 34.7619 41.3676 35.7608 41.3676C36.2871 41.3676 36.5361 41.3676 36.6441 41.245ZM40.0226 44.2132C40.0448 44.0147 39.8894 43.6176 39.6453 43.3309C39.2457 42.8235 39.0903 42.8015 35.8717 42.7353C32.5422 42.6691 32.52 42.6691 31.965 43.2206C31.6543 43.5294 31.4101 43.9706 31.4101 44.2353C31.4101 44.6765 31.4989 44.6765 35.672 44.6324C39.3789 44.5662 39.956 44.5221 40.0226 44.2132ZM7.12642 16.7721C7.45937 16.5515 7.99211 16.3088 8.30287 16.1985C8.61363 16.1103 12.5425 16.0441 17.0042 16.0662H17.0042H17.0042H17.0042H17.0042C24.0352 16.1045 24.9646 16.1095 25.6822 16.4994C25.7915 16.5588 25.8959 16.6272 26.0162 16.7059C26.5045 17.0147 27.0595 17.6324 27.2592 18.0515C27.57 18.6912 27.6366 19.5956 27.6366 23.4559V28.0882L29.1904 28.1765C30.5222 28.2426 30.8108 28.3309 31.4101 28.9044C31.7875 29.2574 32.187 29.9191 32.3202 30.4044C32.4978 31.1103 32.4756 31.3971 32.076 32.1912C31.8097 32.7868 31.3435 33.2941 30.8774 33.5368C30.6699 33.652 30.5194 33.7355 30.4085 33.8552C30.116 34.171 30.0983 34.7382 30.0339 36.8015V36.8015V36.8015C29.9876 38.7778 29.9735 39.3815 29.6941 39.8172C29.5711 40.0088 29.3969 40.1679 29.146 40.3971C28.5467 40.9265 28.1027 41.1471 27.57 41.1471C27.1483 41.1471 26.7709 41.1912 26.7265 41.2574C26.6599 41.3015 26.7043 42.2059 26.8153 43.2426C26.9929 44.9191 26.9929 45.1838 26.6377 45.5588C26.3492 45.8897 25.9496 46 25.1949 46C24.2848 46 24.0629 45.9118 23.6189 45.3603C23.3525 45.0074 22.8642 43.9485 22.5534 43L21.9763 41.2574H16.538H11.0997L10.4338 43.2647C10.0786 44.3897 9.6347 45.4485 9.45712 45.6471C9.25734 45.8676 8.7912 46 8.10309 46C7.34839 46 6.94884 45.8897 6.66028 45.5588C6.30512 45.1618 6.28292 44.9412 6.4827 43.3088C6.61588 42.2941 6.66028 41.4118 6.61588 41.3015C6.57149 41.2132 6.19414 41.1471 5.79459 41.1471C5.37284 41.1471 4.79571 40.9485 4.44056 40.6618C4.1076 40.3971 3.68586 39.8676 3.53048 39.4706C3.3307 38.9853 3.21972 37.8603 3.21972 36.2941C3.21972 33.9338 3.19752 33.8456 2.70918 33.6691C2.42062 33.5588 1.91008 33.1397 1.59932 32.7647C1.13318 32.2132 1 31.8382 1 31.0221C1 30.2721 1.13318 29.7868 1.46614 29.3676C1.71031 29.0588 2.22084 28.6397 2.5538 28.4632C2.90896 28.2868 3.75245 28.1324 4.41836 28.1324H5.63921L5.7058 26.1912L5.70636 26.1754C5.77239 24.3159 5.77395 24.2721 6.32732 24.2721C6.88067 24.2721 6.88224 24.3159 6.94827 26.1533L6.94884 26.1691L6.94905 26.1751C7.01543 28.0662 7.01622 28.0888 7.77013 28.5956C8.19188 28.8824 8.63582 29.3456 8.74681 29.6324C8.87999 29.9191 8.99098 30.6912 8.99098 31.3529C8.99098 32.0632 8.99098 32.3651 9.1302 32.4556C9.23312 32.5226 9.41213 32.4741 9.72348 32.3897C10.1008 32.3015 13.1862 32.2132 16.538 32.2132C19.8898 32.2132 23.0196 32.2794 23.4857 32.3676C23.8389 32.434 24.0402 32.4719 24.1549 32.39C24.307 32.2814 24.307 31.9624 24.307 31.2206C24.307 30.0735 24.3958 29.8088 24.9951 29.125C25.3725 28.7059 25.8164 28.3529 25.994 28.3529C26.2604 28.3529 26.3048 27.5368 26.3048 23.6544C26.3048 19.7721 26.2382 18.8897 25.9496 18.4706C25.772 18.2059 25.3281 17.8309 24.9729 17.6544C24.4402 17.3897 23.0418 17.3235 16.76 17.3235C10.9221 17.3235 9.03537 17.3897 8.48044 17.6103C8.08089 17.7868 7.61475 18.0956 7.43718 18.3162C7.21521 18.5809 7.05983 19.3971 6.99323 20.7206C6.88225 22.6838 6.86005 22.7279 6.32732 22.7279C5.77395 22.7279 5.77239 22.6841 5.70636 20.8246L5.7058 20.8088C5.6614 19.2426 5.728 18.7353 6.08315 18.0294C6.32732 17.5662 6.79346 16.9926 7.12642 16.7721ZM7.88112 33.9118C7.77013 30.4485 7.74794 30.2721 7.2374 29.875C6.83785 29.5441 6.37171 29.4559 4.97329 29.4559C3.50828 29.4559 3.15312 29.5221 2.77577 29.8971C2.5316 30.1397 2.33183 30.6029 2.33183 30.9559C2.33183 31.2868 2.48721 31.7941 2.68698 32.0588C2.86456 32.3235 3.21972 32.5441 3.44169 32.5441C3.66366 32.5441 3.99662 32.6103 4.19639 32.6765C4.50715 32.7868 4.55155 33.2941 4.55155 35.875C4.55155 38.6544 4.59594 38.9853 4.99549 39.3824C5.41724 39.8015 5.728 39.8235 16.649 39.8235C27.57 39.8235 27.8808 39.8015 28.3025 39.3824C28.7021 38.9853 28.7465 38.6544 28.7465 36.0074C28.7465 34.0221 28.8352 32.9853 29.0128 32.8088C29.1682 32.6544 29.5012 32.5441 29.7453 32.5441C30.0117 32.5441 30.389 32.3676 30.5888 32.1471C30.8108 31.9265 30.9662 31.375 30.9662 30.9338C30.9662 29.7868 30.389 29.4559 28.3025 29.4559C27.1483 29.4559 26.4823 29.5662 26.1272 29.8088C25.661 30.1397 25.6388 30.2721 25.6388 33.625C25.6388 36.3162 25.5723 37.1765 25.3281 37.375C25.1283 37.5515 22.62 37.5956 16.5158 37.5735L7.99211 37.5074L7.88112 33.9118ZM24.0629 34.4632C23.9075 34.1324 23.5079 33.8235 22.9752 33.6691C22.4425 33.5147 20.0674 33.4265 16.4048 33.4485C13.2306 33.4485 10.4338 33.5368 10.1896 33.6471C9.92326 33.7574 9.54591 34.0662 9.34613 34.3529C9.14636 34.6176 8.99098 35.1691 8.99098 35.5662V36.2941H16.649C23.0505 36.2941 24.1009 36.2941 24.2732 35.9076C24.307 35.8317 24.307 35.7409 24.307 35.6324C24.307 35.2794 24.196 34.75 24.0629 34.4632ZM9.12416 43.0441C9.41272 42.2059 9.5903 41.4338 9.52371 41.3235C9.45712 41.2353 9.16856 41.1471 8.87999 41.1471C8.59143 41.1471 8.25847 41.3235 8.14749 41.5221C8.0365 41.7426 7.88112 42.5368 7.81453 43.3088C7.70354 44.6103 7.72574 44.6985 8.14749 44.6324C8.50264 44.5882 8.72461 44.1912 9.12416 43.0441ZM25.5057 43.1765C25.4391 42.3603 25.3503 41.5662 25.2837 41.4118C25.2393 41.2794 24.9285 41.1471 24.5734 41.1471C24.2182 41.1471 23.8853 41.2132 23.8187 41.2794C23.7299 41.3456 23.9297 42.1397 24.2404 43.0441C24.6622 44.3235 24.8841 44.6765 25.2171 44.6765C25.6167 44.6765 25.6388 44.5662 25.5057 43.1765ZM12.6172 20.6952V20.1739C12.6172 20.0612 12.788 19.9706 12.9703 19.9706C13.1526 19.9706 13.2913 20.0612 13.2913 20.1578V20.6952H13.8918C14.0052 20.6952 14.0963 20.8649 14.0963 21.046C14.0963 21.2272 14.0052 21.365 13.908 21.365H13.2913V21.9732C13.2913 22.0859 13.1205 22.1765 12.9382 22.1765C12.7559 22.1765 12.6172 22.0859 12.6172 21.9893V21.365H12.0812C11.9677 21.365 11.8766 21.1953 11.8766 21.0141C11.8766 20.833 11.9677 20.6952 12.065 20.6952H12.6172ZM12.6172 25.9092V26.4304H12.065C11.9677 26.4304 11.8766 26.5683 11.8766 26.7494C11.8766 26.9306 11.9677 27.1003 12.0812 27.1003H12.6172V27.7246C12.6172 27.8212 12.7559 27.9118 12.9382 27.9118C13.1205 27.9118 13.2913 27.8212 13.2913 27.7085V27.1003H13.908C14.0052 27.1003 14.0963 26.9625 14.0963 26.7813C14.0963 26.6002 14.0052 26.4304 13.8918 26.4304H13.2913V25.8931C13.2913 25.7965 13.1526 25.7059 12.9703 25.7059C12.788 25.7059 12.6172 25.7965 12.6172 25.9092ZM19.9423 20.6952V20.1739C19.9423 20.0612 20.1131 19.9706 20.2954 19.9706C20.4776 19.9706 20.6163 20.0612 20.6163 20.1578V20.6952H21.2168C21.3303 20.6952 21.4214 20.8649 21.4214 21.046C21.4214 21.2272 21.3303 21.365 21.233 21.365H20.6164V21.9732C20.6164 22.0859 20.4456 22.1765 20.2633 22.1765C20.081 22.1765 19.9423 22.0859 19.9423 21.9893V21.365H19.4062C19.2928 21.365 19.2017 21.1953 19.2017 21.0141C19.2017 20.833 19.2928 20.6952 19.39 20.6952H19.9423ZM19.9423 25.9092V26.4304H19.39C19.2928 26.4304 19.2017 26.5683 19.2017 26.7494C19.2017 26.9306 19.2928 27.1003 19.4062 27.1003H19.9423V27.7246C19.9423 27.8212 20.081 27.9118 20.2633 27.9118C20.4456 27.9118 20.6164 27.8212 20.6164 27.7085V27.1003H21.233C21.3303 27.1003 21.4214 26.9625 21.4214 26.7813C21.4214 26.6002 21.3303 26.4304 21.2168 26.4304H20.6163V25.8931C20.6163 25.7965 20.4776 25.7059 20.2954 25.7059C20.1131 25.7059 19.9423 25.7965 19.9423 25.9092Z" fill="black"/>
<path fill-rule="evenodd" clip-rule="evenodd" d="M27.9696 9.75735C30.8996 3.22794 31.7209 1.50735 32.0316 1.26471C32.2758 1.08824 33.3857 1 35.7386 1C38.6908 1 39.1569 1.04412 39.4677 1.39706C39.6675 1.61765 40.0892 2.36765 40.4 3.05147C40.7107 3.75735 40.9549 4.46324 40.9549 4.61765C40.9549 4.79412 40.7995 4.99265 40.5997 5.05882C40.4 5.14706 40.1114 5.10294 39.956 4.97059C39.8006 4.83824 39.4455 4.19853 39.1569 3.53676L38.6242 2.32353H35.7164H32.8085L30.8774 6.58088C29.8341 8.91912 28.9684 10.9485 28.9684 11.1029C28.9684 11.3015 30.5222 11.3676 35.7386 11.3676C39.8894 11.3676 42.5087 11.2794 42.5087 11.1471C42.5087 11.0368 42.1091 10.0441 41.6208 8.91912C41.1103 7.79412 40.7551 6.75735 40.8217 6.58088C40.8883 6.42647 41.1547 6.29412 41.3988 6.29412C41.754 6.29412 42.0648 6.73529 42.8639 8.43382C43.3966 9.60294 43.9071 10.7941 43.9737 11.0588C44.0625 11.4118 43.9293 11.7206 43.5298 12.1176C43.0192 12.6471 42.8417 12.6912 40.7773 12.6912C39.3532 12.6912 38.852 12.6912 38.6393 12.9373C38.5239 13.071 38.4935 13.2773 38.4466 13.5956C38.38 14.0809 38.158 14.6765 37.9583 14.8971C37.7585 15.1176 37.2924 15.3824 36.9372 15.4485C36.8663 15.4655 36.8031 15.4807 36.747 15.5093C36.2935 15.7404 36.2935 16.8502 36.2935 26.9191C36.2935 37.0227 36.2935 38.1054 36.7833 38.4098C36.842 38.4463 36.9079 38.4716 36.9816 38.5C37.359 38.6544 37.7585 39.0294 37.8695 39.3162C37.9805 39.6029 38.0693 40.1985 38.0693 40.6176C38.0693 41.2574 38.158 41.3676 38.5798 41.3676C38.8462 41.3676 39.4011 41.5662 39.8006 41.8088C40.2002 42.0515 40.7107 42.5588 40.9549 42.9559C41.1991 43.3529 41.3988 43.9706 41.3988 44.3015C41.3988 44.6544 41.1769 45.1397 40.8439 45.4485C40.3112 46 40.289 46 35.783 46C31.5211 46 31.2103 45.9779 30.6554 45.5368C30.2337 45.2059 30.0783 44.875 30.0783 44.3015C30.0783 43.8603 30.2781 43.1985 30.5222 42.8015C30.7664 42.4044 31.3213 41.9191 31.7209 41.7206C32.1426 41.5221 32.6754 41.3676 32.9417 41.3676C33.3413 41.3676 33.4079 41.2353 33.4079 40.4632C33.4079 39.9779 33.5188 39.3824 33.652 39.1397C33.763 38.8971 34.1182 38.6103 34.4289 38.5C34.4754 38.4808 34.5178 38.4632 34.5565 38.4397C34.9617 38.1931 34.9617 37.289 34.9617 26.9191C34.9617 16.6888 34.9617 15.6712 34.5564 15.4733C34.5116 15.4515 34.4619 15.4396 34.4067 15.4265C34.096 15.3603 33.652 15.0294 33.4079 14.7426C33.1637 14.4338 32.9639 13.8382 32.9639 13.4412C32.9639 13.1898 32.9639 13.0227 32.8845 12.9116C32.7271 12.6912 32.2572 12.6912 30.8552 12.6912C29.7009 12.6912 28.5023 12.5809 28.1915 12.4265C27.8808 12.2941 27.57 11.9412 27.5034 11.6544C27.4146 11.3235 27.5922 10.6176 27.9696 9.75735ZM36.7753 13.9783C36.8713 13.8748 36.8875 13.6983 36.915 13.3971C36.9415 13.1162 36.9575 12.9471 36.8818 12.8452C36.7672 12.6912 36.4428 12.6912 35.6276 12.6912C34.8123 12.6912 34.4879 12.6912 34.3734 12.8452C34.2977 12.9471 34.3136 13.1162 34.3401 13.3971C34.3677 13.6983 34.3838 13.8748 34.4798 13.9783C34.6158 14.125 34.9119 14.125 35.6276 14.125C36.3433 14.125 36.6394 14.125 36.7753 13.9783ZM36.6441 41.245C36.7411 41.1349 36.7245 40.926 36.693 40.5294C36.6264 39.7574 36.5821 39.7132 35.8495 39.6471C35.4056 39.6029 34.9839 39.6471 34.8951 39.7353C34.8063 39.8235 34.7397 40.2206 34.7397 40.6397C34.7397 41.3676 34.7619 41.3676 35.7608 41.3676C36.2871 41.3676 36.5361 41.3676 36.6441 41.245ZM40.0226 44.2132C40.0448 44.0147 39.8894 43.6176 39.6453 43.3309C39.2457 42.8235 39.0903 42.8015 35.8717 42.7353C32.5422 42.6691 32.52 42.6691 31.965 43.2206C31.6543 43.5294 31.4101 43.9706 31.4101 44.2353C31.4101 44.6765 31.4989 44.6765 35.672 44.6324C39.3789 44.5662 39.956 44.5221 40.0226 44.2132ZM7.12642 16.7721C7.45937 16.5515 7.99211 16.3088 8.30287 16.1985C8.61363 16.1103 12.5425 16.0441 17.0042 16.0662H17.0042H17.0042H17.0042H17.0042C24.0352 16.1045 24.9646 16.1095 25.6822 16.4994C25.7915 16.5588 25.8959 16.6272 26.0162 16.7059C26.5045 17.0147 27.0595 17.6324 27.2592 18.0515C27.57 18.6912 27.6366 19.5956 27.6366 23.4559V28.0882L29.1904 28.1765C30.5222 28.2426 30.8108 28.3309 31.4101 28.9044C31.7875 29.2574 32.187 29.9191 32.3202 30.4044C32.4978 31.1103 32.4756 31.3971 32.076 32.1912C31.8097 32.7868 31.3435 33.2941 30.8774 33.5368C30.6699 33.652 30.5194 33.7355 30.4085 33.8552C30.116 34.171 30.0983 34.7382 30.0339 36.8015V36.8015V36.8015C29.9876 38.7778 29.9735 39.3815 29.6941 39.8172C29.5711 40.0088 29.3969 40.1679 29.146 40.3971C28.5467 40.9265 28.1027 41.1471 27.57 41.1471C27.1483 41.1471 26.7709 41.1912 26.7265 41.2574C26.6599 41.3015 26.7043 42.2059 26.8153 43.2426C26.9929 44.9191 26.9929 45.1838 26.6377 45.5588C26.3492 45.8897 25.9496 46 25.1949 46C24.2848 46 24.0629 45.9118 23.6189 45.3603C23.3525 45.0074 22.8642 43.9485 22.5534 43L21.9763 41.2574H16.538H11.0997L10.4338 43.2647C10.0786 44.3897 9.6347 45.4485 9.45712 45.6471C9.25734 45.8676 8.7912 46 8.10309 46C7.34839 46 6.94884 45.8897 6.66028 45.5588C6.30512 45.1618 6.28292 44.9412 6.4827 43.3088C6.61588 42.2941 6.66028 41.4118 6.61588 41.3015C6.57149 41.2132 6.19414 41.1471 5.79459 41.1471C5.37284 41.1471 4.79571 40.9485 4.44056 40.6618C4.1076 40.3971 3.68586 39.8676 3.53048 39.4706C3.3307 38.9853 3.21972 37.8603 3.21972 36.2941C3.21972 33.9338 3.19752 33.8456 2.70918 33.6691C2.42062 33.5588 1.91008 33.1397 1.59932 32.7647C1.13318 32.2132 1 31.8382 1 31.0221C1 30.2721 1.13318 29.7868 1.46614 29.3676C1.71031 29.0588 2.22084 28.6397 2.5538 28.4632C2.90896 28.2868 3.75245 28.1324 4.41836 28.1324H5.63921L5.7058 26.1912L5.70636 26.1754C5.77239 24.3159 5.77395 24.2721 6.32732 24.2721C6.88067 24.2721 6.88224 24.3159 6.94827 26.1533L6.94884 26.1691L6.94905 26.1751C7.01543 28.0662 7.01622 28.0888 7.77013 28.5956C8.19188 28.8824 8.63582 29.3456 8.74681 29.6324C8.87999 29.9191 8.99098 30.6912 8.99098 31.3529C8.99098 32.0632 8.99098 32.3651 9.1302 32.4556C9.23312 32.5226 9.41213 32.4741 9.72348 32.3897C10.1008 32.3015 13.1862 32.2132 16.538 32.2132C19.8898 32.2132 23.0196 32.2794 23.4857 32.3676C23.8389 32.434 24.0402 32.4719 24.1549 32.39C24.307 32.2814 24.307 31.9624 24.307 31.2206C24.307 30.0735 24.3958 29.8088 24.9951 29.125C25.3725 28.7059 25.8164 28.3529 25.994 28.3529C26.2604 28.3529 26.3048 27.5368 26.3048 23.6544C26.3048 19.7721 26.2382 18.8897 25.9496 18.4706C25.772 18.2059 25.3281 17.8309 24.9729 17.6544C24.4402 17.3897 23.0418 17.3235 16.76 17.3235C10.9221 17.3235 9.03537 17.3897 8.48044 17.6103C8.08089 17.7868 7.61475 18.0956 7.43718 18.3162C7.21521 18.5809 7.05983 19.3971 6.99323 20.7206C6.88225 22.6838 6.86005 22.7279 6.32732 22.7279C5.77395 22.7279 5.77239 22.6841 5.70636 20.8246L5.7058 20.8088C5.6614 19.2426 5.728 18.7353 6.08315 18.0294C6.32732 17.5662 6.79346 16.9926 7.12642 16.7721ZM7.88112 33.9118C7.77013 30.4485 7.74794 30.2721 7.2374 29.875C6.83785 29.5441 6.37171 29.4559 4.97329 29.4559C3.50828 29.4559 3.15312 29.5221 2.77577 29.8971C2.5316 30.1397 2.33183 30.6029 2.33183 30.9559C2.33183 31.2868 2.48721 31.7941 2.68698 32.0588C2.86456 32.3235 3.21972 32.5441 3.44169 32.5441C3.66366 32.5441 3.99662 32.6103 4.19639 32.6765C4.50715 32.7868 4.55155 33.2941 4.55155 35.875C4.55155 38.6544 4.59594 38.9853 4.99549 39.3824C5.41724 39.8015 5.728 39.8235 16.649 39.8235C27.57 39.8235 27.8808 39.8015 28.3025 39.3824C28.7021 38.9853 28.7465 38.6544 28.7465 36.0074C28.7465 34.0221 28.8352 32.9853 29.0128 32.8088C29.1682 32.6544 29.5012 32.5441 29.7453 32.5441C30.0117 32.5441 30.389 32.3676 30.5888 32.1471C30.8108 31.9265 30.9662 31.375 30.9662 30.9338C30.9662 29.7868 30.389 29.4559 28.3025 29.4559C27.1483 29.4559 26.4823 29.5662 26.1272 29.8088C25.661 30.1397 25.6388 30.2721 25.6388 33.625C25.6388 36.3162 25.5723 37.1765 25.3281 37.375C25.1283 37.5515 22.62 37.5956 16.5158 37.5735L7.99211 37.5074L7.88112 33.9118ZM24.0629 34.4632C23.9075 34.1324 23.5079 33.8235 22.9752 33.6691C22.4425 33.5147 20.0674 33.4265 16.4048 33.4485C13.2306 33.4485 10.4338 33.5368 10.1896 33.6471C9.92326 33.7574 9.54591 34.0662 9.34613 34.3529C9.14636 34.6176 8.99098 35.1691 8.99098 35.5662V36.2941H16.649C23.0505 36.2941 24.1009 36.2941 24.2732 35.9076C24.307 35.8317 24.307 35.7409 24.307 35.6324C24.307 35.2794 24.196 34.75 24.0629 34.4632ZM9.12416 43.0441C9.41272 42.2059 9.5903 41.4338 9.52371 41.3235C9.45712 41.2353 9.16856 41.1471 8.87999 41.1471C8.59143 41.1471 8.25847 41.3235 8.14749 41.5221C8.0365 41.7426 7.88112 42.5368 7.81453 43.3088C7.70354 44.6103 7.72574 44.6985 8.14749 44.6324C8.50264 44.5882 8.72461 44.1912 9.12416 43.0441ZM25.5057 43.1765C25.4391 42.3603 25.3503 41.5662 25.2837 41.4118C25.2393 41.2794 24.9285 41.1471 24.5734 41.1471C24.2182 41.1471 23.8853 41.2132 23.8187 41.2794C23.7299 41.3456 23.9297 42.1397 24.2404 43.0441C24.6622 44.3235 24.8841 44.6765 25.2171 44.6765C25.6167 44.6765 25.6388 44.5662 25.5057 43.1765ZM12.6172 20.6952V20.1739C12.6172 20.0612 12.788 19.9706 12.9703 19.9706C13.1526 19.9706 13.2913 20.0612 13.2913 20.1578V20.6952H13.8918C14.0052 20.6952 14.0963 20.8649 14.0963 21.046C14.0963 21.2272 14.0052 21.365 13.908 21.365H13.2913V21.9732C13.2913 22.0859 13.1205 22.1765 12.9382 22.1765C12.7559 22.1765 12.6172 22.0859 12.6172 21.9893V21.365H12.0812C11.9677 21.365 11.8766 21.1953 11.8766 21.0141C11.8766 20.833 11.9677 20.6952 12.065 20.6952H12.6172ZM12.6172 25.9092V26.4304H12.065C11.9677 26.4304 11.8766 26.5683 11.8766 26.7494C11.8766 26.9306 11.9677 27.1003 12.0812 27.1003H12.6172V27.7246C12.6172 27.8212 12.7559 27.9118 12.9382 27.9118C13.1205 27.9118 13.2913 27.8212 13.2913 27.7085V27.1003H13.908C14.0052 27.1003 14.0963 26.9625 14.0963 26.7813C14.0963 26.6002 14.0052 26.4304 13.8918 26.4304H13.2913V25.8931C13.2913 25.7965 13.1526 25.7059 12.9703 25.7059C12.788 25.7059 12.6172 25.7965 12.6172 25.9092ZM19.9423 20.6952V20.1739C19.9423 20.0612 20.1131 19.9706 20.2954 19.9706C20.4776 19.9706 20.6163 20.0612 20.6163 20.1578V20.6952H21.2168C21.3303 20.6952 21.4214 20.8649 21.4214 21.046C21.4214 21.2272 21.3303 21.365 21.233 21.365H20.6164V21.9732C20.6164 22.0859 20.4456 22.1765 20.2633 22.1765C20.081 22.1765 19.9423 22.0859 19.9423 21.9893V21.365H19.4062C19.2928 21.365 19.2017 21.1953 19.2017 21.0141C19.2017 20.833 19.2928 20.6952 19.39 20.6952H19.9423ZM19.9423 25.9092V26.4304H19.39C19.2928 26.4304 19.2017 26.5683 19.2017 26.7494C19.2017 26.9306 19.2928 27.1003 19.4062 27.1003H19.9423V27.7246C19.9423 27.8212 20.081 27.9118 20.2633 27.9118C20.4456 27.9118 20.6164 27.8212 20.6164 27.7085V27.1003H21.233C21.3303 27.1003 21.4214 26.9625 21.4214 26.7813C21.4214 26.6002 21.3303 26.4304 21.2168 26.4304H20.6163V25.8931C20.6163 25.7965 20.4776 25.7059 20.2954 25.7059C20.1131 25.7059 19.9423 25.7965 19.9423 25.9092Z" stroke="black" stroke-width="0.4" stroke-linejoin="round" mask="url(#path-1-outside-1_487_896)"/>
</svg>
