<svg fill="none" height="47" viewBox="0 0 45 47" width="45" xmlns="http://www.w3.org/2000/svg" xmlns:xlink="http://www.w3.org/1999/xlink"><mask id="a" fill="#000" height="47" maskUnits="userSpaceOnUse" width="45" x="0" y="0"><path d="m0 0h45v47h-45z" fill="#fff"/><path clip-rule="evenodd" d="m27.9696 9.75735c2.93-6.52941 3.7513-8.25 4.062-8.49264.2442-.17647 1.3541-.26471 3.707-.26471 2.9522 0 3.4183.04412 3.7291.39706.1998.22059.6215.97059.9323 1.65441.3107.70588.5549 1.41177.5549 1.56618 0 .17647-.1554.375-.3552.44117-.1997.08824-.4883.04412-.6437-.08823s-.5105-.77206-.7991-1.43383l-.5327-1.21323h-2.9078-2.9079l-1.9311 4.25735c-1.0433 2.33824-1.909 4.36762-1.909 4.52202 0 .1986 1.5538.2647 6.7702.2647 4.1508 0 6.7701-.0882 6.7701-.2205 0-.1103-.3996-1.103-.8879-2.22798-.5105-1.125-.8657-2.16177-.7991-2.33824.0666-.15441.333-.28676.5771-.28676.3552 0 .666.44117 1.4651 2.1397.5327 1.16912 1.0432 2.36028 1.1098 2.62498.0888.353-.0444.6618-.4439 1.0588-.5106.5295-.6881.5736-2.7525.5736-1.4241 0-1.9253 0-2.138.2461-.1154.1337-.1458.34-.1927.6583-.0666.4853-.2886 1.0809-.4883 1.3015-.1998.2205-.6659.4853-1.0211.5514-.0709.017-.1341.0322-.1902.0608-.4535.2311-.4535 1.3409-.4535 11.4098 0 10.1036 0 11.1863.4898 11.4907.0587.0365.1246.0618.1983.0902.3774.1544.7769.5294.8879.8162.111.2867.1998.8823.1998 1.3014 0 .6398.0887.75.5105.75.2664 0 .8213.1986 1.2208.4412.3996.2427.9101.75 1.1543 1.1471.2442.397.4439 1.0147.4439 1.3456 0 .3529-.2219.8382-.5549 1.147-.5327.5515-.5549.5515-5.0609.5515-4.2619 0-4.5727-.0221-5.1276-.4632-.4217-.3309-.5771-.6618-.5771-1.2353 0-.4412.1998-1.103.4439-1.5.2442-.3971.7991-.8824 1.1987-1.0809.4217-.1985.9545-.353 1.2208-.353.3996 0 .4662-.1323.4662-.9044 0-.4853.1109-1.0808.2441-1.3235.111-.2426.4662-.5294.7769-.6397.0465-.0192.0889-.0368.1276-.0603.4052-.2466.4052-1.1507.4052-11.5206 0-10.2303 0-11.2479-.4053-11.4458-.0448-.0218-.0945-.0337-.1497-.0468-.3107-.0662-.7547-.3971-.9988-.6839-.2442-.3088-.444-.9044-.444-1.3014 0-.2514 0-.4185-.0794-.5296-.1574-.2204-.6273-.2204-2.0293-.2204-1.1543 0-2.3529-.1103-2.6637-.2647-.3107-.1324-.6215-.4853-.6881-.7721-.0888-.3309.0888-1.0368.4662-1.89705zm8.8057 4.22095c.096-.1035.1122-.28.1397-.5812.0265-.2809.0425-.45-.0332-.5519-.1146-.154-.439-.154-1.2542-.154-.8153 0-1.1397 0-1.2542.154-.0757.1019-.0598.271-.0333.5519.0276.3012.0437.4777.1397.5812.136.1467.4321.1467 1.1478.1467s1.0118 0 1.1477-.1467zm-.1312 27.2667c.097-.1101.0804-.319.0489-.7156-.0666-.772-.1109-.8162-.8435-.8823-.4439-.0442-.8656 0-.9544.0882s-.1554.4853-.1554.9044c0 .7279.0222.7279 1.0211.7279.5263 0 .7753 0 .8833-.1226zm3.3785 2.9682c.0222-.1985-.1332-.5956-.3773-.8823-.3996-.5074-.555-.5294-3.7736-.5956-3.3295-.0662-3.3517-.0662-3.9067.4853-.3107.3088-.5549.75-.5549 1.0147 0 .4412.0888.4412 4.2619.3971 3.7069-.0662 4.284-.1103 4.3506-.4192zm-32.89618-27.4411c.33295-.2206.86569-.4633 1.17645-.5736.31076-.0882 4.23963-.1544 8.70133-.1323 7.031.0383 7.9604.0433 8.678.4332.1093.0594.2137.1278.334.2065.4883.3088 1.0433.9265 1.243 1.3456.3108.6397.3774 1.5441.3774 5.4044v4.6323l1.5538.0883c1.3318.0661 1.6204.1544 2.2197.7279.3774.353.7769 1.0147.9101 1.5.1776.7059.1554.9927-.2442 1.7868-.2663.5956-.7325 1.1029-1.1986 1.3456-.2075.1152-.358.1987-.4689.3184-.2925.3158-.3102.883-.3746 2.9463-.0463 1.9763-.0604 2.58-.3398 3.0157-.123.1916-.2972.3507-.5481.5799-.5993.5294-1.0433.75-1.576.75-.4217 0-.7991.0441-.8435.1103-.0666.0441-.0222.9485.0888 1.9852.1776 1.6765.1776 1.9412-.1776 2.3162-.2885.3309-.6881.4412-1.4428.4412-.9101 0-1.132-.0882-1.576-.6397-.2664-.3529-.7547-1.4118-1.0655-2.3603l-.5771-1.7426h-5.4383-5.4383l-.6659 2.0073c-.3552 1.125-.7991 2.1838-.97668 2.3824-.19978.2205-.66592.3529-1.35403.3529-.7547 0-1.15425-.1103-1.44281-.4412-.35516-.397-.37736-.6176-.17758-2.25.13318-1.0147.17758-1.897.13318-2.0073-.04439-.0883-.42174-.1544-.82129-.1544-.42175 0-.99888-.1986-1.35403-.4853-.33296-.2647-.7547-.7942-.91008-1.1912-.19978-.4853-.31076-1.6103-.31076-3.1765 0-2.3603-.0222-2.4485-.51054-2.625-.28856-.1103-.7991-.5294-1.10986-.9044-.46614-.5515-.59932-.9265-.59932-1.7426 0-.75.13318-1.2353.46614-1.6545.24417-.3088.7547-.7279 1.08766-.9044.35516-.1764 1.19865-.3308 1.86456-.3308h1.22085l.06659-1.9412.00056-.0158c.06603-1.8595.06759-1.9033.62096-1.9033.55335 0 .55492.0438.62095 1.8812l.00057.0158.00021.006c.06638 1.8911.06717 1.9137.82108 2.4205.42175.2868.86569.75.97668 1.0368.13318.2867.24417 1.0588.24417 1.7205 0 .7103 0 1.0122.13922 1.1027.10292.067.28193.0185.59328-.0659.37732-.0882 3.46272-.1765 6.81452-.1765s6.4816.0662 6.9477.1544c.3532.0664.5545.1043.6692.0224.1521-.1086.1521-.4276.1521-1.1694 0-1.1471.0888-1.4118.6881-2.0956.3774-.4191.8213-.7721.9989-.7721.2664 0 .3108-.8161.3108-4.6985 0-3.8823-.0666-4.7647-.3552-5.1838-.1776-.2647-.6215-.6397-.9767-.8162-.5327-.2647-1.9311-.3309-8.2129-.3309-5.8379 0-7.72463.0662-8.27956.2868-.39955.1765-.86569.4853-1.04326.7059-.22197.2647-.37735 1.0809-.44395 2.4044-.11098 1.9632-.13318 2.0073-.66591 2.0073-.55337 0-.55493-.0438-.62096-1.9033l-.00056-.0158c-.0444-1.5662.0222-2.0735.37735-2.7794.24417-.4632.71031-1.0368 1.04327-1.2573zm.7547 17.1397c-.11099-3.4633-.13318-3.6397-.64372-4.0368-.39955-.3309-.86569-.4191-2.26411-.4191-1.46501 0-1.82017.0662-2.19752.4412-.24417.2426-.44394.7058-.44394 1.0588 0 .3309.15538.8382.35515 1.1029.17758.2647.53274.4853.75471.4853s.55493.0662.7547.1324c.31076.1103.35516.6176.35516 3.1985 0 2.7794.04439 3.1103.44394 3.5074.42175.4191.73251.4411 11.65351.4411s11.2318-.022 11.6535-.4411c.3996-.3971.444-.728.444-3.375 0-1.9853.0887-3.0221.2663-3.1986.1554-.1544.4884-.2647.7325-.2647.2664 0 .6437-.1765.8435-.397.222-.2206.3774-.7721.3774-1.2133 0-1.147-.5772-1.4779-2.6637-1.4779-1.1542 0-1.8202.1103-2.1753.3529-.4662.3309-.4884.4633-.4884 3.8162 0 2.6912-.0665 3.5515-.3107 3.75-.1998.1765-2.7081.2206-8.8123.1985l-8.52369-.0661zm16.18178.5514c-.1554-.3308-.555-.6397-1.0877-.7941s-2.9078-.2426-6.5704-.2206c-3.1742 0-5.971.0883-6.2152.1986-.26634.1103-.64369.4191-.84347.7058-.19977.2647-.35515.8162-.35515 1.2133v.7279h7.65802c6.4015 0 7.4519 0 7.6242-.3865.0338-.0759.0338-.1667.0338-.2752 0-.353-.111-.8824-.2441-1.1692zm-14.93874 8.5809c.28856-.8382.46614-1.6103.39955-1.7206-.06659-.0882-.35515-.1764-.64372-.1764-.28856 0-.62152.1764-.7325.375-.11099.2205-.26637 1.0147-.33296 1.7867-.11099 1.3015-.08879 1.3897.33296 1.3236.35515-.0442.57712-.4412.97667-1.5883zm16.38154.1324c-.0666-.8162-.1554-1.6103-.222-1.7647-.0444-.1324-.3552-.2647-.7103-.2647-.3552 0-.6881.0661-.7547.1323-.0888.0662.111.8603.4217 1.7647.4218 1.2794.6437 1.6324.9767 1.6324.3996 0 .4217-.1103.2886-1.5zm-12.8885-22.4813v-.5213c0-.1127.1708-.2033.3531-.2033s.321.0906.321.1872v.5374h.6005c.1134 0 .2045.1697.2045.3508 0 .1812-.0911.319-.1883.319h-.6167v.6082c0 .1127-.1708.2033-.3531.2033s-.321-.0906-.321-.1872v-.6243h-.536c-.1135 0-.2046-.1697-.2046-.3509 0-.1811.0911-.3189.1884-.3189zm0 5.214v.5212h-.5522c-.0973 0-.1884.1379-.1884.319 0 .1812.0911.3509.2046.3509h.536v.6243c0 .0966.1387.1872.321.1872s.3531-.0906.3531-.2033v-.6082h.6167c.0972 0 .1883-.1378.1883-.319 0-.1811-.0911-.3509-.2045-.3509h-.6005v-.5373c0-.0966-.1387-.1872-.321-.1872s-.3531.0906-.3531.2033zm7.3251-5.214v-.5213c0-.1127.1708-.2033.3531-.2033.1822 0 .3209.0906.3209.1872v.5374h.6005c.1135 0 .2046.1697.2046.3508 0 .1812-.0911.319-.1884.319h-.6166v.6082c0 .1127-.1708.2033-.3531.2033s-.321-.0906-.321-.1872v-.6243h-.5361c-.1134 0-.2045-.1697-.2045-.3509 0-.1811.0911-.3189.1883-.3189zm0 5.214v.5212h-.5523c-.0972 0-.1883.1379-.1883.319 0 .1812.0911.3509.2045.3509h.5361v.6243c0 .0966.1387.1872.321.1872s.3531-.0906.3531-.2033v-.6082h.6166c.0973 0 .1884-.1378.1884-.319 0-.1811-.0911-.3509-.2046-.3509h-.6005v-.5373c0-.0966-.1387-.1872-.3209-.1872-.1823 0-.3531.0906-.3531.2033z" fill="#000" fill-rule="evenodd"/></mask><g clip-rule="evenodd" fill-rule="evenodd"><path d="m27.9696 9.75735c2.93-6.52941 3.7513-8.25 4.062-8.49264.2442-.17647 1.3541-.26471 3.707-.26471 2.9522 0 3.4183.04412 3.7291.39706.1998.22059.6215.97059.9323 1.65441.3107.70588.5549 1.41177.5549 1.56618 0 .17647-.1554.375-.3552.44117-.1997.08824-.4883.04412-.6437-.08823s-.5105-.77206-.7991-1.43383l-.5327-1.21323h-2.9078-2.9079l-1.9311 4.25735c-1.0433 2.33824-1.909 4.36762-1.909 4.52202 0 .1986 1.5538.2647 6.7702.2647 4.1508 0 6.7701-.0882 6.7701-.2205 0-.1103-.3996-1.103-.8879-2.22798-.5105-1.125-.8657-2.16177-.7991-2.33824.0666-.15441.333-.28676.5771-.28676.3552 0 .666.44117 1.4651 2.1397.5327 1.16912 1.0432 2.36028 1.1098 2.62498.0888.353-.0444.6618-.4439 1.0588-.5106.5295-.6881.5736-2.7525.5736-1.4241 0-1.9253 0-2.138.2461-.1154.1337-.1458.34-.1927.6583-.0666.4853-.2886 1.0809-.4883 1.3015-.1998.2205-.6659.4853-1.0211.5514-.0709.017-.1341.0322-.1902.0608-.4535.2311-.4535 1.3409-.4535 11.4098 0 10.1036 0 11.1863.4898 11.4907.0587.0365.1246.0618.1983.0902.3774.1544.7769.5294.8879.8162.111.2867.1998.8823.1998 1.3014 0 .6398.0887.75.5105.75.2664 0 .8213.1986 1.2208.4412.3996.2427.9101.75 1.1543 1.1471.2442.397.4439 1.0147.4439 1.3456 0 .3529-.2219.8382-.5549 1.147-.5327.5515-.5549.5515-5.0609.5515-4.2619 0-4.5727-.0221-5.1276-.4632-.4217-.3309-.5771-.6618-.5771-1.2353 0-.4412.1998-1.103.4439-1.5.2442-.3971.7991-.8824 1.1987-1.0809.4217-.1985.9545-.353 1.2208-.353.3996 0 .4662-.1323.4662-.9044 0-.4853.1109-1.0808.2441-1.3235.111-.2426.4662-.5294.7769-.6397.0465-.0192.0889-.0368.1276-.0603.4052-.2466.4052-1.1507.4052-11.5206 0-10.2303 0-11.2479-.4053-11.4458-.0448-.0218-.0945-.0337-.1497-.0468-.3107-.0662-.7547-.3971-.9988-.6839-.2442-.3088-.444-.9044-.444-1.3014 0-.2514 0-.4185-.0794-.5296-.1574-.2204-.6273-.2204-2.0293-.2204-1.1543 0-2.3529-.1103-2.6637-.2647-.3107-.1324-.6215-.4853-.6881-.7721-.0888-.3309.0888-1.0368.4662-1.89705zm8.8057 4.22095c.096-.1035.1122-.28.1397-.5812.0265-.2809.0425-.45-.0332-.5519-.1146-.154-.439-.154-1.2542-.154-.8153 0-1.1397 0-1.2542.154-.0757.1019-.0598.271-.0333.5519.0276.3012.0437.4777.1397.5812.136.1467.4321.1467 1.1478.1467s1.0118 0 1.1477-.1467zm-.1312 27.2667c.097-.1101.0804-.319.0489-.7156-.0666-.772-.1109-.8162-.8435-.8823-.4439-.0442-.8656 0-.9544.0882s-.1554.4853-.1554.9044c0 .7279.0222.7279 1.0211.7279.5263 0 .7753 0 .8833-.1226zm3.3785 2.9682c.0222-.1985-.1332-.5956-.3773-.8823-.3996-.5074-.555-.5294-3.7736-.5956-3.3295-.0662-3.3517-.0662-3.9067.4853-.3107.3088-.5549.75-.5549 1.0147 0 .4412.0888.4412 4.2619.3971 3.7069-.0662 4.284-.1103 4.3506-.4192zm-32.89618-27.4411c.33295-.2206.86569-.4633 1.17645-.5736.31076-.0882 4.23963-.1544 8.70133-.1323 7.031.0383 7.9604.0433 8.678.4332.1093.0594.2137.1278.334.2065.4883.3088 1.0433.9265 1.243 1.3456.3108.6397.3774 1.5441.3774 5.4044v4.6323l1.5538.0883c1.3318.0661 1.6204.1544 2.2197.7279.3774.353.7769 1.0147.9101 1.5.1776.7059.1554.9927-.2442 1.7868-.2663.5956-.7325 1.1029-1.1986 1.3456-.2075.1152-.358.1987-.4689.3184-.2925.3158-.3102.883-.3746 2.9463-.0463 1.9763-.0604 2.58-.3398 3.0157-.123.1916-.2972.3507-.5481.5799-.5993.5294-1.0433.75-1.576.75-.4217 0-.7991.0441-.8435.1103-.0666.0441-.0222.9485.0888 1.9852.1776 1.6765.1776 1.9412-.1776 2.3162-.2885.3309-.6881.4412-1.4428.4412-.9101 0-1.132-.0882-1.576-.6397-.2664-.3529-.7547-1.4118-1.0655-2.3603l-.5771-1.7426h-5.4383-5.4383l-.6659 2.0073c-.3552 1.125-.7991 2.1838-.97668 2.3824-.19978.2205-.66592.3529-1.35403.3529-.7547 0-1.15425-.1103-1.44281-.4412-.35516-.397-.37736-.6176-.17758-2.25.13318-1.0147.17758-1.897.13318-2.0073-.04439-.0883-.42174-.1544-.82129-.1544-.42175 0-.99888-.1986-1.35403-.4853-.33296-.2647-.7547-.7942-.91008-1.1912-.19978-.4853-.31076-1.6103-.31076-3.1765 0-2.3603-.0222-2.4485-.51054-2.625-.28856-.1103-.7991-.5294-1.10986-.9044-.46614-.5515-.59932-.9265-.59932-1.7426 0-.75.13318-1.2353.46614-1.6545.24417-.3088.7547-.7279 1.08766-.9044.35516-.1764 1.19865-.3308 1.86456-.3308h1.22085l.06659-1.9412.00056-.0158c.06603-1.8595.06759-1.9033.62096-1.9033.55335 0 .55492.0438.62095 1.8812l.00057.0158.00021.006c.06638 1.8911.06717 1.9137.82108 2.4205.42175.2868.86569.75.97668 1.0368.13318.2867.24417 1.0588.24417 1.7205 0 .7103 0 1.0122.13922 1.1027.10292.067.28193.0185.59328-.0659.37732-.0882 3.46272-.1765 6.81452-.1765s6.4816.0662 6.9477.1544c.3532.0664.5545.1043.6692.0224.1521-.1086.1521-.4276.1521-1.1694 0-1.1471.0888-1.4118.6881-2.0956.3774-.4191.8213-.7721.9989-.7721.2664 0 .3108-.8161.3108-4.6985 0-3.8823-.0666-4.7647-.3552-5.1838-.1776-.2647-.6215-.6397-.9767-.8162-.5327-.2647-1.9311-.3309-8.2129-.3309-5.8379 0-7.72463.0662-8.27956.2868-.39955.1765-.86569.4853-1.04326.7059-.22197.2647-.37735 1.0809-.44395 2.4044-.11098 1.9632-.13318 2.0073-.66591 2.0073-.55337 0-.55493-.0438-.62096-1.9033l-.00056-.0158c-.0444-1.5662.0222-2.0735.37735-2.7794.24417-.4632.71031-1.0368 1.04327-1.2573zm.7547 17.1397c-.11099-3.4633-.13318-3.6397-.64372-4.0368-.39955-.3309-.86569-.4191-2.26411-.4191-1.46501 0-1.82017.0662-2.19752.4412-.24417.2426-.44394.7058-.44394 1.0588 0 .3309.15538.8382.35515 1.1029.17758.2647.53274.4853.75471.4853s.55493.0662.7547.1324c.31076.1103.35516.6176.35516 3.1985 0 2.7794.04439 3.1103.44394 3.5074.42175.4191.73251.4411 11.65351.4411s11.2318-.022 11.6535-.4411c.3996-.3971.444-.728.444-3.375 0-1.9853.0887-3.0221.2663-3.1986.1554-.1544.4884-.2647.7325-.2647.2664 0 .6437-.1765.8435-.397.222-.2206.3774-.7721.3774-1.2133 0-1.147-.5772-1.4779-2.6637-1.4779-1.1542 0-1.8202.1103-2.1753.3529-.4662.3309-.4884.4633-.4884 3.8162 0 2.6912-.0665 3.5515-.3107 3.75-.1998.1765-2.7081.2206-8.8123.1985l-8.52369-.0661zm16.18178.5514c-.1554-.3308-.555-.6397-1.0877-.7941s-2.9078-.2426-6.5704-.2206c-3.1742 0-5.971.0883-6.2152.1986-.26634.1103-.64369.4191-.84347.7058-.19977.2647-.35515.8162-.35515 1.2133v.7279h7.65802c6.4015 0 7.4519 0 7.6242-.3865.0338-.0759.0338-.1667.0338-.2752 0-.353-.111-.8824-.2441-1.1692zm-14.93874 8.5809c.28856-.8382.46614-1.6103.39955-1.7206-.06659-.0882-.35515-.1764-.64372-.1764-.28856 0-.62152.1764-.7325.375-.11099.2205-.26637 1.0147-.33296 1.7867-.11099 1.3015-.08879 1.3897.33296 1.3236.35515-.0442.57712-.4412.97667-1.5883zm16.38154.1324c-.0666-.8162-.1554-1.6103-.222-1.7647-.0444-.1324-.3552-.2647-.7103-.2647-.3552 0-.6881.0661-.7547.1323-.0888.0662.111.8603.4217 1.7647.4218 1.2794.6437 1.6324.9767 1.6324.3996 0 .4217-.1103.2886-1.5zm-12.8885-22.4813v-.5213c0-.1127.1708-.2033.3531-.2033s.321.0906.321.1872v.5374h.6005c.1134 0 .2045.1697.2045.3508 0 .1812-.0911.319-.1883.319h-.6167v.6082c0 .1127-.1708.2033-.3531.2033s-.321-.0906-.321-.1872v-.6243h-.536c-.1135 0-.2046-.1697-.2046-.3509 0-.1811.0911-.3189.1884-.3189zm0 5.214v.5212h-.5522c-.0973 0-.1884.1379-.1884.319 0 .1812.0911.3509.2046.3509h.536v.6243c0 .0966.1387.1872.321.1872s.3531-.0906.3531-.2033v-.6082h.6167c.0972 0 .1883-.1378.1883-.319 0-.1811-.0911-.3509-.2045-.3509h-.6005v-.5373c0-.0966-.1387-.1872-.321-.1872s-.3531.0906-.3531.2033zm7.3251-5.214v-.5213c0-.1127.1708-.2033.3531-.2033.1822 0 .3209.0906.3209.1872v.5374h.6005c.1135 0 .2046.1697.2046.3508 0 .1812-.0911.319-.1884.319h-.6166v.6082c0 .1127-.1708.2033-.3531.2033s-.321-.0906-.321-.1872v-.6243h-.5361c-.1134 0-.2045-.1697-.2045-.3509 0-.1811.0911-.3189.1883-.3189zm0 5.214v.5212h-.5523c-.0972 0-.1883.1379-.1883.319 0 .1812.0911.3509.2045.3509h.5361v.6243c0 .0966.1387.1872.321.1872s.3531-.0906.3531-.2033v-.6082h.6166c.0973 0 .1884-.1378.1884-.319 0-.1811-.0911-.3509-.2046-.3509h-.6005v-.5373c0-.0966-.1387-.1872-.3209-.1872-.1823 0-.3531.0906-.3531.2033z" fill="#000"/><path d="m27.9696 9.75735c2.93-6.52941 3.7513-8.25 4.062-8.49264.2442-.17647 1.3541-.26471 3.707-.26471 2.9522 0 3.4183.04412 3.7291.39706.1998.22059.6215.97059.9323 1.65441.3107.70588.5549 1.41177.5549 1.56618 0 .17647-.1554.375-.3552.44117-.1997.08824-.4883.04412-.6437-.08823s-.5105-.77206-.7991-1.43383l-.5327-1.21323h-2.9078-2.9079l-1.9311 4.25735c-1.0433 2.33824-1.909 4.36762-1.909 4.52202 0 .1986 1.5538.2647 6.7702.2647 4.1508 0 6.7701-.0882 6.7701-.2205 0-.1103-.3996-1.103-.8879-2.22798-.5105-1.125-.8657-2.16177-.7991-2.33824.0666-.15441.333-.28676.5771-.28676.3552 0 .666.44117 1.4651 2.1397.5327 1.16912 1.0432 2.36028 1.1098 2.62498.0888.353-.0444.6618-.4439 1.0588-.5106.5295-.6881.5736-2.7525.5736-1.4241 0-1.9253 0-2.138.2461-.1154.1337-.1458.34-.1927.6583-.0666.4853-.2886 1.0809-.4883 1.3015-.1998.2205-.6659.4853-1.0211.5514-.0709.017-.1341.0322-.1902.0608-.4535.2311-.4535 1.3409-.4535 11.4098 0 10.1036 0 11.1863.4898 11.4907.0587.0365.1246.0618.1983.0902.3774.1544.7769.5294.8879.8162.111.2867.1998.8823.1998 1.3014 0 .6398.0887.75.5105.75.2664 0 .8213.1986 1.2208.4412.3996.2427.9101.75 1.1543 1.1471.2442.397.4439 1.0147.4439 1.3456 0 .3529-.2219.8382-.5549 1.147-.5327.5515-.5549.5515-5.0609.5515-4.2619 0-4.5727-.0221-5.1276-.4632-.4217-.3309-.5771-.6618-.5771-1.2353 0-.4412.1998-1.103.4439-1.5.2442-.3971.7991-.8824 1.1987-1.0809.4217-.1985.9545-.353 1.2208-.353.3996 0 .4662-.1323.4662-.9044 0-.4853.1109-1.0808.2441-1.3235.111-.2426.4662-.5294.7769-.6397.0465-.0192.0889-.0368.1276-.0603.4052-.2466.4052-1.1507.4052-11.5206 0-10.2303 0-11.2479-.4053-11.4458-.0448-.0218-.0945-.0337-.1497-.0468-.3107-.0662-.7547-.3971-.9988-.6839-.2442-.3088-.444-.9044-.444-1.3014 0-.2514 0-.4185-.0794-.5296-.1574-.2204-.6273-.2204-2.0293-.2204-1.1543 0-2.3529-.1103-2.6637-.2647-.3107-.1324-.6215-.4853-.6881-.7721-.0888-.3309.0888-1.0368.4662-1.89705zm8.8057 4.22095c.096-.1035.1122-.28.1397-.5812.0265-.2809.0425-.45-.0332-.5519-.1146-.154-.439-.154-1.2542-.154-.8153 0-1.1397 0-1.2542.154-.0757.1019-.0598.271-.0333.5519.0276.3012.0437.4777.1397.5812.136.1467.4321.1467 1.1478.1467s1.0118 0 1.1477-.1467zm-.1312 27.2667c.097-.1101.0804-.319.0489-.7156-.0666-.772-.1109-.8162-.8435-.8823-.4439-.0442-.8656 0-.9544.0882s-.1554.4853-.1554.9044c0 .7279.0222.7279 1.0211.7279.5263 0 .7753 0 .8833-.1226zm3.3785 2.9682c.0222-.1985-.1332-.5956-.3773-.8823-.3996-.5074-.555-.5294-3.7736-.5956-3.3295-.0662-3.3517-.0662-3.9067.4853-.3107.3088-.5549.75-.5549 1.0147 0 .4412.0888.4412 4.2619.3971 3.7069-.0662 4.284-.1103 4.3506-.4192zm-32.89618-27.4411c.33295-.2206.86569-.4633 1.17645-.5736.31076-.0882 4.23963-.1544 8.70133-.1323 7.031.0383 7.9604.0433 8.678.4332.1093.0594.2137.1278.334.2065.4883.3088 1.0433.9265 1.243 1.3456.3108.6397.3774 1.5441.3774 5.4044v4.6323l1.5538.0883c1.3318.0661 1.6204.1544 2.2197.7279.3774.353.7769 1.0147.9101 1.5.1776.7059.1554.9927-.2442 1.7868-.2663.5956-.7325 1.1029-1.1986 1.3456-.2075.1152-.358.1987-.4689.3184-.2925.3158-.3102.883-.3746 2.9463-.0463 1.9763-.0604 2.58-.3398 3.0157-.123.1916-.2972.3507-.5481.5799-.5993.5294-1.0433.75-1.576.75-.4217 0-.7991.0441-.8435.1103-.0666.0441-.0222.9485.0888 1.9852.1776 1.6765.1776 1.9412-.1776 2.3162-.2885.3309-.6881.4412-1.4428.4412-.9101 0-1.132-.0882-1.576-.6397-.2664-.3529-.7547-1.4118-1.0655-2.3603l-.5771-1.7426h-5.4383-5.4383l-.6659 2.0073c-.3552 1.125-.7991 2.1838-.97668 2.3824-.19978.2205-.66592.3529-1.35403.3529-.7547 0-1.15425-.1103-1.44281-.4412-.35516-.397-.37736-.6176-.17758-2.25.13318-1.0147.17758-1.897.13318-2.0073-.04439-.0883-.42174-.1544-.82129-.1544-.42175 0-.99888-.1986-1.35403-.4853-.33296-.2647-.7547-.7942-.91008-1.1912-.19978-.4853-.31076-1.6103-.31076-3.1765 0-2.3603-.0222-2.4485-.51054-2.625-.28856-.1103-.7991-.5294-1.10986-.9044-.46614-.5515-.59932-.9265-.59932-1.7426 0-.75.13318-1.2353.46614-1.6545.24417-.3088.7547-.7279 1.08766-.9044.35516-.1764 1.19865-.3308 1.86456-.3308h1.22085l.06659-1.9412.00056-.0158c.06603-1.8595.06759-1.9033.62096-1.9033.55335 0 .55492.0438.62095 1.8812l.00057.0158.00021.006c.06638 1.8911.06717 1.9137.82108 2.4205.42175.2868.86569.75.97668 1.0368.13318.2867.24417 1.0588.24417 1.7205 0 .7103 0 1.0122.13922 1.1027.10292.067.28193.0185.59328-.0659.37732-.0882 3.46272-.1765 6.81452-.1765s6.4816.0662 6.9477.1544c.3532.0664.5545.1043.6692.0224.1521-.1086.1521-.4276.1521-1.1694 0-1.1471.0888-1.4118.6881-2.0956.3774-.4191.8213-.7721.9989-.7721.2664 0 .3108-.8161.3108-4.6985 0-3.8823-.0666-4.7647-.3552-5.1838-.1776-.2647-.6215-.6397-.9767-.8162-.5327-.2647-1.9311-.3309-8.2129-.3309-5.8379 0-7.72463.0662-8.27956.2868-.39955.1765-.86569.4853-1.04326.7059-.22197.2647-.37735 1.0809-.44395 2.4044-.11098 1.9632-.13318 2.0073-.66591 2.0073-.55337 0-.55493-.0438-.62096-1.9033l-.00056-.0158c-.0444-1.5662.0222-2.0735.37735-2.7794.24417-.4632.71031-1.0368 1.04327-1.2573zm.7547 17.1397c-.11099-3.4633-.13318-3.6397-.64372-4.0368-.39955-.3309-.86569-.4191-2.26411-.4191-1.46501 0-1.82017.0662-2.19752.4412-.24417.2426-.44394.7058-.44394 1.0588 0 .3309.15538.8382.35515 1.1029.17758.2647.53274.4853.75471.4853s.55493.0662.7547.1324c.31076.1103.35516.6176.35516 3.1985 0 2.7794.04439 3.1103.44394 3.5074.42175.4191.73251.4411 11.65351.4411s11.2318-.022 11.6535-.4411c.3996-.3971.444-.728.444-3.375 0-1.9853.0887-3.0221.2663-3.1986.1554-.1544.4884-.2647.7325-.2647.2664 0 .6437-.1765.8435-.397.222-.2206.3774-.7721.3774-1.2133 0-1.147-.5772-1.4779-2.6637-1.4779-1.1542 0-1.8202.1103-2.1753.3529-.4662.3309-.4884.4633-.4884 3.8162 0 2.6912-.0665 3.5515-.3107 3.75-.1998.1765-2.7081.2206-8.8123.1985l-8.52369-.0661zm16.18178.5514c-.1554-.3308-.555-.6397-1.0877-.7941s-2.9078-.2426-6.5704-.2206c-3.1742 0-5.971.0883-6.2152.1986-.26634.1103-.64369.4191-.84347.7058-.19977.2647-.35515.8162-.35515 1.2133v.7279h7.65802c6.4015 0 7.4519 0 7.6242-.3865.0338-.0759.0338-.1667.0338-.2752 0-.353-.111-.8824-.2441-1.1692zm-14.93874 8.5809c.28856-.8382.46614-1.6103.39955-1.7206-.06659-.0882-.35515-.1764-.64372-.1764-.28856 0-.62152.1764-.7325.375-.11099.2205-.26637 1.0147-.33296 1.7867-.11099 1.3015-.08879 1.3897.33296 1.3236.35515-.0442.57712-.4412.97667-1.5883zm16.38154.1324c-.0666-.8162-.1554-1.6103-.222-1.7647-.0444-.1324-.3552-.2647-.7103-.2647-.3552 0-.6881.0661-.7547.1323-.0888.0662.111.8603.4217 1.7647.4218 1.2794.6437 1.6324.9767 1.6324.3996 0 .4217-.1103.2886-1.5zm-12.8885-22.4813v-.5213c0-.1127.1708-.2033.3531-.2033s.321.0906.321.1872v.5374h.6005c.1134 0 .2045.1697.2045.3508 0 .1812-.0911.319-.1883.319h-.6167v.6082c0 .1127-.1708.2033-.3531.2033s-.321-.0906-.321-.1872v-.6243h-.536c-.1135 0-.2046-.1697-.2046-.3509 0-.1811.0911-.3189.1884-.3189zm0 5.214v.5212h-.5522c-.0973 0-.1884.1379-.1884.319 0 .1812.0911.3509.2046.3509h.536v.6243c0 .0966.1387.1872.321.1872s.3531-.0906.3531-.2033v-.6082h.6167c.0972 0 .1883-.1378.1883-.319 0-.1811-.0911-.3509-.2045-.3509h-.6005v-.5373c0-.0966-.1387-.1872-.321-.1872s-.3531.0906-.3531.2033zm7.3251-5.214v-.5213c0-.1127.1708-.2033.3531-.2033.1822 0 .3209.0906.3209.1872v.5374h.6005c.1135 0 .2046.1697.2046.3508 0 .1812-.0911.319-.1884.319h-.6166v.6082c0 .1127-.1708.2033-.3531.2033s-.321-.0906-.321-.1872v-.6243h-.5361c-.1134 0-.2045-.1697-.2045-.3509 0-.1811.0911-.3189.1883-.3189zm0 5.214v.5212h-.5523c-.0972 0-.1883.1379-.1883.319 0 .1812.0911.3509.2045.3509h.5361v.6243c0 .0966.1387.1872.321.1872s.3531-.0906.3531-.2033v-.6082h.6166c.0973 0 .1884-.1378.1884-.319 0-.1811-.0911-.3509-.2046-.3509h-.6005v-.5373c0-.0966-.1387-.1872-.3209-.1872-.1823 0-.3531.0906-.3531.2033z" mask="url(#a)" stroke="#000" stroke-linejoin="round" stroke-width=".4"/></g></svg>