<svg fill="none" height="44" viewBox="0 0 43 44" width="43" xmlns="http://www.w3.org/2000/svg"><path clip-rule="evenodd" d="m9.82857 1.75h23.09713c.6785 0 1.2286.55964 1.2286 1.25v11.25c0 .6904-.5501 1.25-1.2286 1.25h-2.9486v-1.5c0-.8284-.66-1.5-1.4742-1.5h-1.2593c.0203-.2105.0307-.4243.0307-.6406 0-3.37414-2.5302-6.1094-5.6514-6.1094s-5.6515 2.73526-5.6515 6.1094c0 .2163.0104.4301.0307.6406h-1.7507c-.8142 0-1.4743.6716-1.4743 1.5v1.5h-2.94853c-.67852 0-1.22857-.5596-1.22857-1.25v-11.25c0-.69036.55005-1.25 1.22857-1.25zm23.09713 15.5h-2.9486v2.0231c.9666.0936 1.6709.4634 2.1534.9589.4701.4828.6988 1.0541.7711 1.518h.2698 7.4943c1.2892 0 2.3343 1.0633 2.3343 2.375 0 .9899-.5953 1.8384-1.4415 2.1951l1.1942 17.0104c.0122.173-.0469.3434-.1631.4704s-.2791.1991-.4496.1991h-1.2286c-.2698 0-.508-.1791-.5872-.4415l-5.1496-17.0585h-2.0032-.2457v2c0 .3452-.275.625-.6143.625h-2.3343v1.125c0 .8284-.66 1.5-1.4742 1.5h-4.4229v.25 3.25.4218l4.7729.8373c.2947.0517.51.3117.51.6159v2.9899c.6465.2516 1.1057.8888 1.1057 1.6351 0 .9665-.7701 1.75-1.72 1.75-.95 0-1.72-.7835-1.72-1.75 0-.7463.4591-1.3835 1.1057-1.6351v-2.4634l-5.8972-1.0345v3.4979c.6466.2516 1.1058.8888 1.1058 1.6351 0 .9665-.7701 1.75-1.72 1.75-.95 0-1.72-.7835-1.72-1.75 0-.7463.4591-1.3835 1.1057-1.6351v-3.4979l-5.8972 1.0345v2.4634c.6466.2516 1.1057.8888 1.1057 1.6351 0 .9665-.77 1.75-1.72 1.75-.9499 0-1.72-.7835-1.72-1.75 0-.7463.4592-1.3835 1.1058-1.6351v-2.9899c0-.3042.2152-.5642.5099-.6159l4.7729-.8373v-.4218-3.25-.25h-4.9143c-.8142 0-1.4743-.6716-1.4743-1.5v-1.125h-2.0885c-.3393 0-.6143-.2798-.6143-.625v-2h-.24573-1.88035l-5.14958 17.0585c-.07921.2624-.31742.4415-.58721.4415h-1.228571c-.170522 0-.333371-.0721-.449573-.1991-.116203-.127-.175301-.2974-.163152-.4704l1.190936-16.9639c-.90918-.3246-1.56107-1.2057-1.56107-2.2416 0-1.3117 1.0451-2.375 2.33429-2.375h7.49428.26983c.0723-.4639.301-1.0352.7711-1.518.4406-.4525 1.0663-.8002 1.9076-.9284v-2.0536h-2.94853c-1.62845 0-2.94857-1.3431-2.94857-3v-11.25c0-1.65685 1.32012-3 2.94857-3h23.09713c1.6285 0 2.9486 1.34315 2.9486 3v11.25c0 1.6569-1.3201 3-2.9486 3zm-11.3028 18h1.4742v-3.25h-2.9485v3.25zm9.6348-14.1383c.3093.3178.4226.691.4394.9093v1.229 1.75 1.5 1.375h-1.5971v-7.3258c.5691.098.9295.3282 1.1577.5625zm5.2022 5.3883h3.8796l1.1408 16.25h-.1149zm-33.6765 0-1.14081 16.25h.11491l4.90551-16.25zm8.5195 1.375v-1.375-1.5-1.75-1.229c.0168-.2183.1301-.5915.4394-.9093.2113-.217.536-.4305 1.0348-.5386v7.3019zm14.2514-16.0156c0 .2183-.0144.4321-.042.6406h-7.7788c-.0277-.2085-.0421-.4223-.0421-.6406 0-2.5091 1.8569-4.3594 3.9315-4.3594 2.0745 0 3.9314 1.8503 3.9314 4.3594zm-11.0572 2.3906h1.9234 10.4047 1.4319v15.75h-13.76zm16.2642-10.5019.003-.00023.0117-.00086c.0106-.00077.0266-.0019.0473-.00328.0415-.00275.1018-.00646.175-.01018.1473-.00748.3438-.01481.5453-.0148.1839.00001.3585.00622.4988.02101.0018.02789.0034.05819.0047.09092.0104.254.0037.58426-.0114.92213-.015.33468-.0375.66338-.0564.90937-.0094.12272-.0179.22421-.024.29477l-.0036.04173-.0035.03958-.0019.0209-.0006.00628v.00026c-.0322.34361.2155.64868.5532.68142.3378.03273.6376-.2193.6698-.56292l.0008-.00858.0021-.0231.0021-.02368.001-.01128.0045-.05121c.0064-.07397.0152-.1795.025-.30679.0195-.25401.043-.59717.0588-.94998.0156-.34962.0242-.72247.0116-1.03095-.0062-.15244-.0183-.30739-.0422-.44323-.0118-.06766-.0293-.14618-.057-.22425-.0239-.06748-.0752-.19254-.1839-.30318-.1406-.143-.3125-.20472-.4076-.23375-.1125-.03435-.2322-.05538-.3421-.06937-.2214-.02815-.4733-.03609-.6982-.0361-.2285-.00002-.4467.00824-.6065.01636-.0803.00408-.1468.00817-.1936.01127-.0234.00155-.042.00286-.0549.00379l-.0151.00112-.0043.00033-.0017.00013s-.0002.00002.0467.62127l-.0469-.62125c-.3383.02644-.5915.32687-.5655.67104.026.34413.3213.60168.6595.57529zm1.48.02724-.0012-.00042-.0027-.00103-.0035-.00144c.006.00192.0087.00306.0085.00315l-.0003-.00003zm.3159 4.84959c.3392 0 .6143.27982.6143.625v.75c0 .34517-.2751.62497-.6143.62497-.3393 0-.6143-.2798-.6143-.62497v-.75c0-.34518.275-.625.6143-.625zm-22.72863 14.62507h-7.49428c-.47497 0-.86.3918-.86.875s.38503.875.86.875h7.49428zm23.34283 0h7.4943c.475 0 .86.3918.86.875s-.385.875-.86.875h-7.4943z" fill="#000" fill-rule="evenodd"/></svg>