<svg fill="none" height="199" viewBox="0 0 468 199" width="468" xmlns="http://www.w3.org/2000/svg"><g fill="#fff"><path d="m88.46 193v-16.352h5.7275c1.984 0 3.4889.382 4.5146 1.146 1.0258.756 1.5389 1.868 1.5389 3.335 0 .802-.206 1.509-.618 2.123-.4117.606-.9845 1.052-1.7182 1.336.8385.21 1.4974.633 1.9765 1.269.4867.637.7297 1.415.7297 2.336 0 1.573-.501 2.763-1.5046 3.572-1.0032.808-2.4332 1.22-4.29 1.235zm3.3691-7.12v4.413h2.8862c.7937 0 1.4113-.187 1.8531-.561.4492-.382.6738-.906.6738-1.572 0-1.498-.7749-2.258-2.3247-2.28zm0-2.381h2.4932c1.6995-.03 2.5493-.707 2.5493-2.033 0-.741-.2171-1.272-.6514-1.594-.4267-.33-1.1043-.495-2.0327-.495h-2.3584zm24.7519 1.696c0 1.61-.284 3.021-.853 4.234s-1.386 2.148-2.449 2.807c-1.055.659-2.268.989-3.638.989-1.356 0-2.565-.326-3.628-.977-1.063-.652-1.887-1.58-2.471-2.786-.584-1.212-.879-2.605-.887-4.177v-.809c0-1.61.289-3.025.865-4.245.584-1.228 1.404-2.168 2.459-2.819 1.064-.659 2.277-.988 3.639-.988 1.363 0 2.572.329 3.628.988 1.063.651 1.883 1.591 2.459 2.819.584 1.22.876 2.632.876 4.234zm-3.414-.741c0-1.715-.307-3.018-.921-3.909s-1.49-1.336-2.628-1.336c-1.13 0-2.003.442-2.617 1.325-.613.876-.924 2.164-.932 3.863v.798c0 1.669.307 2.965.921 3.886.614.92 1.498 1.381 2.651 1.381 1.13 0 1.999-.442 2.605-1.325.607-.891.914-2.186.921-3.886zm14.847 5.177h-5.908l-1.123 3.369h-3.582l6.087-16.352h3.122l6.12 16.352h-3.582zm-4.998-2.729h4.088l-2.055-6.121zm23.011 2.044 3.706-12.298h3.751l-5.693 16.352h-3.516l-5.671-16.352h3.74zm12.59 4.054h-3.369v-16.352h3.369zm12.567-3.369h-5.908l-1.123 3.369h-3.582l6.087-16.352h3.122l6.12 16.352h-3.582zm-4.998-2.729h4.088l-2.055-6.121zm23.932 4.032c-.606.726-1.464 1.291-2.572 1.695-1.108.397-2.336.596-3.683.596-1.415 0-2.658-.307-3.729-.921-1.063-.622-1.886-1.52-2.47-2.696-.577-1.175-.873-2.556-.888-4.144v-1.111c0-1.633.274-3.044.82-4.234.554-1.198 1.348-2.112 2.381-2.741 1.041-.636 2.257-.954 3.65-.954 1.939 0 3.455.464 4.548 1.392 1.093.921 1.741 2.265 1.943 4.032h-3.279c-.15-.936-.483-1.621-1-2.055-.509-.434-1.213-.651-2.111-.651-1.145 0-2.018.43-2.617 1.291s-.902 2.141-.909 3.841v1.044c0 1.715.325 3.01.977 3.886.651.876 1.606 1.314 2.863 1.314 1.266 0 2.168-.269 2.707-.809v-2.818h-3.066v-2.482h6.435zm12.578-5.02h-6.468v4.379h7.591v2.707h-10.961v-16.352h10.939v2.729h-7.569v3.897h6.468zm7.502-9.266 4.2 11.86 4.178-11.86h4.425v16.352h-3.38v-4.47l.337-7.715-4.414 12.185h-2.314l-4.402-12.174.337 7.704v4.47h-3.369v-16.352zm34.781 16.352h-3.369v-7.008h-6.57v7.008h-3.369v-16.352h3.369v6.626h6.57v-6.626h3.369zm16.385-7.805c0 1.61-.284 3.021-.853 4.234s-1.385 2.148-2.449 2.807c-1.055.659-2.268.989-3.638.989-1.355 0-2.564-.326-3.628-.977-1.063-.652-1.886-1.58-2.47-2.786-.584-1.212-.88-2.605-.888-4.177v-.809c0-1.61.289-3.025.865-4.245.584-1.228 1.404-2.168 2.46-2.819 1.063-.659 2.276-.988 3.638-.988 1.363 0 2.572.329 3.628.988 1.063.651 1.883 1.591 2.459 2.819.584 1.22.876 2.632.876 4.234zm-3.414-.741c0-1.715-.307-3.018-.921-3.909s-1.49-1.336-2.628-1.336c-1.13 0-2.002.442-2.616 1.325-.614.876-.925 2.164-.932 3.863v.798c0 1.669.307 2.965.92 3.886.614.92 1.498 1.381 2.651 1.381 1.13 0 1.999-.442 2.605-1.325.607-.891.914-2.186.921-3.886zm10.265-7.806 4.2 11.86 4.178-11.86h4.425v16.352h-3.381v-4.47l.337-7.715-4.413 12.185h-2.314l-4.402-12.174.337 7.704v4.47h-3.37v-16.352zm25.583 9.266h-6.469v4.379h7.592v2.707h-10.961v-16.352h10.938v2.729h-7.569v3.897h6.469zm8.827 7.086v-16.352h5.031c1.438 0 2.722.326 3.852.977 1.138.644 2.026 1.565 2.662 2.763.636 1.191.955 2.546.955 4.066v.752c0 1.52-.315 2.871-.944 4.054-.621 1.183-1.501 2.1-2.639 2.752-1.138.651-2.422.981-3.852.988zm3.369-13.623v10.916h1.629c1.317 0 2.324-.43 3.021-1.291.696-.861 1.051-2.093 1.066-3.695v-.865c0-1.662-.344-2.92-1.033-3.773-.689-.861-1.696-1.292-3.021-1.292zm21.428 6.537h-6.469v4.379h7.592v2.707h-10.961v-16.352h10.938v2.729h-7.569v3.897h6.469zm11.578 2.796c0-.636-.224-1.123-.673-1.46-.45-.344-1.258-.704-2.426-1.078-1.168-.382-2.093-.756-2.774-1.123-1.857-1.003-2.785-2.355-2.785-4.054 0-.884.247-1.67.741-2.359.502-.696 1.217-1.239 2.145-1.628.936-.39 1.984-.584 3.145-.584 1.168 0 2.208.213 3.122.64.913.419 1.621 1.014 2.122 1.786.509.771.764 1.647.764 2.628h-3.369c0-.749-.236-1.329-.708-1.741-.471-.419-1.134-.629-1.988-.629-.823 0-1.463.176-1.92.528-.457.344-.685.801-.685 1.37 0 .531.266.977.797 1.336.539.36 1.329.697 2.37 1.011 1.917.577 3.313 1.292 4.189 2.145.876.854 1.314 1.917 1.314 3.19 0 1.415-.535 2.526-1.606 3.335-1.071.801-2.512 1.202-4.324 1.202-1.258 0-2.403-.229-3.436-.685-1.034-.465-1.823-1.097-2.37-1.898-.539-.802-.809-1.73-.809-2.786h3.381c0 1.805 1.078 2.707 3.234 2.707.801 0 1.426-.161 1.876-.483.449-.329.673-.786.673-1.37zm9.254 4.29h-3.369v-16.352h3.369zm16.071-2.066c-.606.726-1.464 1.291-2.572 1.695-1.108.397-2.336.596-3.683.596-1.415 0-2.658-.307-3.729-.921-1.063-.622-1.886-1.52-2.47-2.696-.577-1.175-.873-2.556-.888-4.144v-1.111c0-1.633.274-3.044.82-4.234.554-1.198 1.348-2.112 2.381-2.741 1.041-.636 2.257-.954 3.65-.954 1.939 0 3.455.464 4.548 1.392 1.093.921 1.741 2.265 1.943 4.032h-3.279c-.15-.936-.483-1.621-1-2.055-.509-.434-1.213-.651-2.111-.651-1.145 0-2.018.43-2.617 1.291s-.902 2.141-.909 3.841v1.044c0 1.715.325 3.01.977 3.886.651.876 1.606 1.314 2.864 1.314 1.265 0 2.167-.269 2.706-.809v-2.818h-3.066v-2.482h6.435zm16.037 2.066h-3.369l-6.558-10.759v10.759h-3.37v-16.352h3.37l6.569 10.782v-10.782h3.358z"/><path d="m0 99.5v-99.5c18.8 0 28.5 23 31 34.5v67.5c0 2.761 2.2338 5 4.9952 5h35.0048c19.6 0 29.833 21.667 32.5 32.5h-63.5c-22.0914 0-40-17.909-40-40z"/><path clip-rule="evenodd" d="m141 19.5c-23.748 0-43 19.2517-43 43v34c0 23.748 19.252 43 43 43h46c23.748 0 43-19.252 43-43v-34c0-23.7483-19.252-43-43-43zm0 31c-6.627 0-12 5.3726-12 12v35c0 6.627 5.373 12 12 12h46c6.627 0 12-5.373 12-12v-35c0-6.6274-5.373-12-12-12z" fill-rule="evenodd"/><path d="m238.5 58.5v80c21.2 0 29.5-31 29.5-31l3-10.5h16.5c15.2 0 28-21.6667 32.5-32.5h-51.5c0-9.6 5.667-12 8.5-12h38.5c21.2 0 30.833-22 33-33h-71c-21.539 0-39 17.4609-39 39z"/><path d="m380.5 63v74c22.8 0 29.833-21.333 30.5-32v-44c0-8 7-10.3333 10.5-10.5h17c18.4 0 27.333-19.6667 29.5-29.5h-90c-23.6 0-32.833 19.6667-34.5 29.5h24.5c9.2 0 12.167 8.3333 12.5 12.5z"/></g></svg>