<svg fill="none" height="321" viewBox="0 0 398 321" width="398" xmlns="http://www.w3.org/2000/svg"><path d="m2.5 303.5s2.45136.205 4 0c5.4237-.716 6.0437-7.602 11.5-8 6.112-.446 7.3718 8 13.5 8s7.3754-8.211 13.5-8c5.7923.199 6.7052 7.898 12.5 8 5.9602.105 7.0683-8.592 13-8 5.1296.512 5.4473 6.978 10.5 8 2.2966.465 6 .5 6 .5" stroke="#fff" stroke-linecap="round" stroke-linejoin="round" stroke-width="5"/><path d="m310 303.5s2.451.205 4 0c5.424-.716 6.044-7.602 11.5-8 6.112-.446 7.372 8 13.5 8s7.375-8.211 13.5-8c5.792.199 6.705 7.898 12.5 8 5.96.105 7.068-8.592 13-8 5.13.512 5.447 6.978 10.5 8 2.297.465 6 0 6 0" stroke="#fff" stroke-linecap="round" stroke-linejoin="round" stroke-width="5"/><g fill="#fff"><path clip-rule="evenodd" d="m121.5.5c-1.381 0-2.5 1.11929-2.5 2.5s1.119 2.5 2.5 2.5c3.633 0 5.922 1.18922 7.409 2.50018 1.312 1.15665 2.101 2.50082 2.575 3.49982h-5.484c-1.043 0-2.621.2275-4.034 1.0187-1.531.8575-2.966 2.4723-2.966 4.9813 0 1.3807 1.119 2.5 2.5 2.5s2.5-1.1193 2.5-2.5c0-.2264.052-.3113.076-.3463.037-.0563.127-.1571.333-.2724.462-.2588 1.134-.3813 1.591-.3813h8.016l2.388 4.6438h-9.404c-.054 0-.108.0018-.162.0053-1.274.0825-3.128.5317-4.735 1.6878-1.714 1.2329-3.103 3.2595-3.103 6.1631 0 1.3807 1.119 2.5 2.5 2.5s2.5-1.1193 2.5-2.5c0-1.0964.445-1.6886 1.022-2.1041.658-.4727 1.509-.7025 2.071-.7521h11.881l2.497 4.8562h-11.471c-.069 0-.139.0029-.208.0086-1.321.1101-3.264.586-4.952 1.7398-1.782 1.2171-3.34 3.2588-3.34 6.2516 0 1.3807 1.119 2.5 2.5 2.5s2.5-1.1193 2.5-2.5c0-1.0072.442-1.6322 1.16-2.1234.777-.5304 1.777-.8042 2.457-.8766h13.924l2.571 5h-9.112c-1.201 0-2.999.2492-4.688 1.0314-1.716.7948-3.593 2.2856-4.237 4.8623-.335 1.3394.479 2.6968 1.819 3.0317 1.339.3348 2.696-.4796 3.031-1.8191.156-.6233.613-1.1325 1.488-1.5377.902-.4178 1.955-.5686 2.587-.5686h11.682l1.028 2h-8.21c-1.381 0-2.5 1.1193-2.5 2.5 0 .2322.032.4571.091.6704-.931.3637-1.591 1.2696-1.591 2.3296 0 1.3807 1.119 2.5 2.5 2.5h13.823l9.55 18.5775-56.486-37.6576c-1.981-1.3206-5.264-2.9028-8.8217-3.3733-3.6169-.4784-7.8373.1793-10.9634 3.8264-.8986 1.0483-.7772 2.6266.2711 3.5251 1.0483.8986 2.6266.7772 3.5251-.2711 1.6739-1.9529 3.9535-2.4619 6.5116-2.1236.9879.1307 1.9688.3856 2.8893.7067-.9976.6724-2.0136 1.4174-2.9609 2.2059-1.1769.9797-2.3261 2.0906-3.201 3.2757-.8443 1.1437-1.6371 2.6304-1.6371 4.3083 0 1.3807 1.1193 2.5 2.5 2.5s2.5-1.1193 2.5-2.5c0-.1221.0822-.5563.6597-1.3386.547-.7409 1.3663-1.5613 2.3773-2.4024 1.541-1.283 3.345-2.4654 4.842-3.3351l3.997 2.6649c-1.758.9564-3.626 2.171-5.345 3.631-3.235 2.7485-6.2785 6.6674-6.5279 11.6554-.0689 1.3789.9931 2.5527 2.3719 2.6217 1.379.0689 2.553-.9931 2.622-2.3721.15-3.012 2.024-5.7598 4.772-8.0946 2.266-1.925 4.896-3.3655 6.928-4.2274l5.04 3.3597c-2.615 1.2361-5.505 2.8492-8.097 4.764-4.043 2.9861-8.14 7.2803-8.14 12.5735 0 1.3807 1.119 2.5 2.5 2.5s2.5-1.1193 2.5-2.5c0-2.7068 2.236-5.6903 6.11-8.5515 3.261-2.4087 7.142-4.3258 10.073-5.4887l4.545 3.0303c-1.975.6099-4.061 1.4441-6.049 2.5464-4.273 2.3684-8.422 6.1716-9.626 11.9536-.282 1.3517.585 2.6757 1.937 2.9573s2.676-.5858 2.957-1.9375c.796-3.818 3.577-6.6165 7.156-8.6003 3.196-1.7716 6.767-2.7366 9.329-3.1169l1.756 1.1704c-2.429 1.1486-5.079 2.6626-7.467 4.5093-3.945 3.0505-7.721 7.4463-7.721 13.0276 0 1.3807 1.119 2.5 2.5 2.5s2.5-1.1193 2.5-2.5c0-3.2187 2.224-6.3229 5.779-9.0724 3.035-2.3471 6.646-4.1182 9.378-5.1517l3.994 2.6628c-1.624.8906-3.352 1.9832-4.961 3.2476-3.042 2.3909-6.167 5.7953-6.672 10.0165-.164 1.3709.814 2.6154 2.185 2.7795s2.615-.8142 2.779-2.1851c.261-2.1788 2.032-4.506 4.798-6.6796 2.199-1.7282 4.709-3.108 6.66-3.9863l18.673 12.4488c.948.6317 2.202.5432 3.052-.2152.849-.7584 1.079-1.9951.558-3.0079l-36.461-70.92464c-.579-1.33544-1.758-3.66504-4.046-5.68254-2.388-2.10571-5.849-3.74982-10.716-3.74982zm67 31.5c-1.381 0-2.5 1.1193-2.5 2.5v3.5h-3c-1.381 0-2.5 1.1193-2.5 2.5v3c0 1.3807 1.119 2.5 2.5 2.5h3v9c0 1.3807 1.119 2.5 2.5 2.5h1.186l33.636 24.5h-34.822c-1.381 0-2.5 1.1193-2.5 2.5s1.119 2.5 2.5 2.5h41.5v25.5c0 1.381 1.119 2.5 2.5 2.5s2.5-1.119 2.5-2.5v-21.8496l27.121 17.9346c1.152.762 2.703.446 3.464-.706.762-1.152.446-2.703-.706-3.464l-29.879-19.759v-.156c0-1.3807-1.119-2.5-2.5-2.5h-.686l-36.82-26.8198c.004-.0595.006-.1196.006-.1802v-9h1.5c1.381 0 2.5-1.1193 2.5-2.5v-3c0-1.3807-1.119-2.5-2.5-2.5h-1.5v-3.5c0-1.3807-1.119-2.5-2.5-2.5zm-38.5 55c0-1.3807-1.119-2.5-2.5-2.5s-2.5 1.1193-2.5 2.5v78.5h-4v-20.5c0-.908-.492-1.744-1.286-2.185l-9-5c-.795-.442-1.768-.417-2.539.065l-8 5c-.731.457-1.175 1.258-1.175 2.12v20.5h-5.5v-51c0-1.066-.667-1.976-1.606-2.335l21.51-14.5963c1.142-.7753 1.44-2.3299.665-3.4725-.776-1.1425-2.33-1.4402-3.473-.6649l-28 18.9997c-.908.617-1.308 1.754-.986 2.803.323 1.05 1.292 1.766 2.39 1.766h4.5v51c0 1.381 1.119 2.5 2.5 2.5h81c1.381 0 2.5-1.119 2.5-2.5s-1.119-2.5-2.5-2.5h-14.5v-31.105c1.348-3.944 5.958-10.895 14.5-10.895 2.878 0 4.577.602 5.723 1.33 1.191.755 2.018 1.783 3.005 3.14.085.117.172.238.262.362.879 1.22 1.991 2.763 3.572 3.949 1.865 1.398 4.222 2.219 7.438 2.219 3.22 0 5.656-.82 7.68-2.111 1.714-1.093 3.091-2.513 4.262-3.721v-.001c.139-.143.275-.283.408-.42 1.323-1.353 2.519-2.486 4.086-3.323 1.528-.817 3.553-1.424 6.564-1.424 3.019 0 4.83.61 6.064 1.357 1.275.772 2.16 1.815 3.208 3.172.088.113.178.231.27.351.94 1.226 2.117 2.762 3.777 3.94 1.934 1.373 4.364 2.18 7.681 2.18 3.318 0 5.859-.805 7.97-2.078 1.954-1.177 3.459-2.719 4.73-4.02l.15-.155c1.365-1.396 2.506-2.53 3.946-3.367 1.373-.799 3.124-1.38 5.704-1.38 1.381 0 2.5-1.119 2.5-2.5s-1.119-2.5-2.5-2.5c-3.42 0-6.044.794-8.218 2.058-2.103 1.223-3.679 2.835-5 4.187l-.007.008c-1.386 1.418-2.496 2.549-3.886 3.387-1.311.79-2.957 1.36-5.389 1.36-2.433 0-3.816-.568-4.788-1.258-1.018-.722-1.75-1.672-2.783-3.01l-.201-.261c-1.077-1.393-2.442-3.1-4.574-4.391-2.171-1.315-4.923-2.08-8.654-2.08-3.739 0-6.589.768-8.921 2.014-2.292 1.225-3.94 2.842-5.304 4.239-.135.137-.265.271-.393.403l-.003.002c-1.233 1.267-2.195 2.255-3.387 3.015-1.211.772-2.712 1.327-4.992 1.327-2.284 0-3.552-.554-4.438-1.219-.944-.708-1.62-1.64-2.591-2.978l-.199-.273c-1.013-1.393-2.311-3.115-4.37-4.422-2.104-1.335-4.78-2.108-8.402-2.108-12.006 0-17.913 9.967-19.389 14.765-.074.238-.111.486-.111.735v31.5h-22.5zm-14 59.471v19.029h-12v-19.114l5.575-3.485zm23.5-51.471c-1.381 0-2.5 1.1193-2.5 2.5v17c0 1.381 1.119 2.5 2.5 2.5v.5c0 1.381 1.119 2.5 2.5 2.5h8.5c1.381 0 2.5-1.119 2.5-2.5v-.5h.5c1.381 0 2.5-1.119 2.5-2.5v-17c0-1.3807-1.119-2.5-2.5-2.5zm2.5 17h9v-12h-9zm45-17c-1.381 0-2.5 1.1193-2.5 2.5v15c0 1.381 1.119 2.5 2.5 2.5s2.5-1.119 2.5-2.5v-12.5h9v12.5c0 1.381 1.119 2.5 2.5 2.5s2.5-1.119 2.5-2.5v-15c0-1.3807-1.119-2.5-2.5-2.5zm-80.5 30.5v-10.536c.199-.446.546-1.037 1.029-1.533.584-.6 1.226-.931 1.971-.931.774 0 1.531.358 2.255 1.025.551.509.977 1.104 1.245 1.571v10.404zm11.5 2.5c0 1.381-1.119 2.5-2.5 2.5v.5c0 1.381-1.119 2.5-2.5 2.5h-6c-1.381 0-2.5-1.119-2.5-2.5v-.5h-.5c-1.381 0-2.5-1.119-2.5-2.5v-13.5c0-.269.043-.536.128-.791.352-1.054 1.106-2.52 2.318-3.765 1.241-1.275 3.099-2.444 5.554-2.444 2.426 0 4.336 1.142 5.645 2.35 1.297 1.196 2.185 2.613 2.64 3.635.142.319.215.665.215 1.015zm132.56 15.416c2.021-2.939 5.523-3.875 9.34-3.433 1.878.218 3.695.766 5.184 1.467 1.541.725 2.509 1.507 2.916 2.05 1.491 1.988 3.821 3.687 5.913 4.96 2.14 1.303 4.291 2.314 5.659 2.861 1.281.513 2.736-.111 3.249-1.393.513-1.281-.111-2.736-1.393-3.249-1.132-.453-3.031-1.342-4.916-2.49-1.933-1.176-3.603-2.477-4.512-3.689-1.093-1.457-2.875-2.675-4.787-3.575-1.964-.924-4.304-1.626-6.738-1.908-4.808-.558-10.556.506-14.035 5.567-2.315 3.367-5.772 5.133-8.97 5.494-3.294.372-5.796-.747-6.861-2.42-2.131-3.349-6.698-6.689-11.792-8.015-5.247-1.365-11.421-.664-16.186 4.696-5.937 6.68-10.366 5.748-11.013 5.425-1.235-.618-2.737-.117-3.354 1.118-.618 1.235-.117 2.737 1.118 3.354 3.353 1.677 10.124 1.145 16.987-6.575 3.235-3.64 7.311-4.189 11.189-3.179 4.031 1.049 7.464 3.709 8.833 5.86 2.435 3.827 7.183 5.208 11.639 4.705 4.552-.514 9.345-2.998 12.53-7.631zm-.292 17.352c3.067-3.067 5.309-4.505 6.743-5.121.714-.306 1.167-.383 1.383-.394l.019-.001c1.106.535 2.466.186 3.167-.865.766-1.149.456-2.701-.693-3.467-.852-.568-1.863-.709-2.763-.66-.939.051-1.974.316-3.085.793-2.216.951-4.974 2.846-8.307 6.179-3.806 3.806-6.685 5.126-9.314 5.081-2.733-.047-5.919-1.568-10.318-5.234-4.891-4.076-9.543-5.528-13.866-5.065-4.237.454-7.713 2.703-10.406 5.128-2.62 2.357-5.071 4.538-7.688 5.344-1.211.372-2.411.426-3.68.033-1.298-.403-2.851-1.332-4.639-3.232-6.966-7.401-14.49-8.129-17.965-7.203-1.334.356-2.127 1.726-1.772 3.06.356 1.334 1.726 2.127 3.06 1.772 1.525-.407 7.201-.402 13.035 5.797 2.212 2.35 4.471 3.859 6.799 4.581 2.356.731 4.593.598 6.632-.03 3.73-1.147 6.921-4.024 9.277-6.148l.285-.258c2.307-2.075 4.831-3.576 7.594-3.872 2.677-.287 6.025.511 10.134 3.935 4.601 3.834 8.915 6.313 13.432 6.391 4.621.08 8.742-2.35 12.936-6.544zm8.246-5.514s-.006 0-.018-.002c.012.001.018.001.018.002zm-39.006 16.629c1.51-1.299 3.802-1.174 5.095.341 1.215 1.425 1.096 3.56-.321 4.785-16.566 14.325-38.162 22.991-61.782 22.991-20.572 0-39.609-6.574-55.125-17.735-1.659-1.194-1.855-3.561-.478-5.072 1.232-1.35 3.289-1.524 4.776-.461 14.327 10.242 31.873 16.268 50.827 16.268 21.776 0 41.695-7.955 57.008-21.117zm30.492-66.383c0 2.011 1.756 3.606 3.747 3.322l.376-.054c1.638-.234 2.877-1.613 2.877-3.268 0-52.1909-42.309-94.5-94.5-94.5-10.428 0-20.461 1.6889-29.841 4.8082-1.786.5941-2.71 2.5377-2.115 4.3239.627 1.8812 2.69 2.858 4.573 2.238 8.614-2.8358 17.82-4.3701 27.383-4.3701 48.325 0 87.5 39.1751 87.5 87.5zm-177.1688-29.9101c.6404-1.9207 2.8122-2.8155 4.6574-1.9821 1.6828.7599 2.4816 2.6914 1.9028 4.4447-2.8494 8.6327-4.3914 17.86-4.3914 27.4475 0 12.623 2.6728 24.621 7.483 35.46.685 1.542.249 3.366-1.102 4.379-1.7576 1.318-4.2842.727-5.1818-1.279-5.2691-11.775-8.1992-24.825-8.1992-38.56 0-10.4533 1.6973-20.5101 4.8312-29.9101z" fill-rule="evenodd"/><g stroke="#fff"><path d="m107.146 240.768-7.7719-15.909-.1371-.281h-.3122-10.5703-.8579l.4228.747 13.0406 23.019-13.394 23.408-.4282.748h.8622 10.6992.3085l.1384-.276 8.1259-16.191 8.157 16.192.139.275h.308 10.57.862l-.428-.748-13.393-23.407 13.072-23.02.424-.747h-.859-10.635-.31l-.138.278z"/><path d="m79.7723 272.135.1022.365h.3793 9.5391.6859l-.2099-.653-15.082-46.922-.1116-.347h-.3644-8.2178-.3624l-.1128.344-15.372 46.922-.2148.656h.6899 9.5391.3782l.1029-.364 2.6685-9.433h13.3255zm-5.0426-18.134h-8.4118l4.2616-14.93z"/><path d="m22.6373 224.83-.1194-.33h-.3507-16.1672-.5v.5 47 .5h.5 11.9517.5v-.5-13.913h.0001l-.0003-.013-.4834-18.357 6.8858 16.976.1266.312h.3367 6.4391.3281l.1306-.301 7.8244-18.041-.213 8.42-.2779 10.992h-.0002v.012 13.913.5h.5 11.9517.5v-.5-47-.5h-.5-16.1672-.3348l-.1275.31-6.7805 16.461z"/></g><path d="m160.016 236.956c-1.237-.851-2.726-1.527-4.466-2.03-1.701-.541-3.654-.812-5.858-.812-2.088 0-3.886.329-5.394.986-1.469.657-2.668 1.585-3.596 2.784s-1.624 2.649-2.088 4.35c-.425 1.663-.638 3.519-.638 5.568 0 4.679.986 8.217 2.958 10.614 2.011 2.397 4.891 3.596 8.642 3.596 2.32 0 4.427-.348 6.322-1.044 1.933-.696 3.519-1.547 4.756-2.552l1.74 5.742c-1.547.928-3.422 1.759-5.626 2.494-2.165.696-4.621 1.044-7.366 1.044-3.171 0-5.916-.522-8.236-1.566s-4.253-2.455-5.8-4.234c-1.508-1.779-2.629-3.828-3.364-6.148-.735-2.359-1.102-4.853-1.102-7.482 0-2.745.406-5.317 1.218-7.714s2.011-4.485 3.596-6.264c1.624-1.817 3.615-3.248 5.974-4.292 2.397-1.044 5.181-1.566 8.352-1.566 2.088 0 4.176.232 6.264.696 2.088.425 3.886 1.025 5.394 1.798zm36.826 30.044h-7.25l-4.35-11.136h-14.442l-3.944 11.136h-6.96l14.848-38.28h5.742zm-24.186-16.356h10.498l-5.51-14.094zm33.404 0c-.425 0-.87 0-1.334 0-.425 0-.889-.019-1.392-.058v16.414h-6.67v-38.28c.619-.039 1.315-.077 2.088-.116.812-.039 1.624-.058 2.436-.058.812-.039 1.566-.058 2.262-.058.735-.039 1.315-.058 1.74-.058 4.949 0 8.719.947 11.31 2.842 2.591 1.856 3.886 4.582 3.886 8.178 0 2.281-.561 4.331-1.682 6.148s-2.997 3.171-5.626 4.06l14.036 17.342h-7.714zm-.29-16.646c-.309 0-.677 0-1.102 0s-.87.019-1.334.058v11.02h3.596c2.088 0 3.673-.522 4.756-1.566s1.624-2.533 1.624-4.466c0-1.74-.541-3.016-1.624-3.828-1.044-.812-3.016-1.218-5.916-1.218zm46.426 22.852v-28.13h6.67v38.28h-8.178l-16.82-28.072v28.072h-6.67v-38.28h8.178zm30.489-7.25h-11.6v11.6h16.646v5.8h-23.316v-38.28h22.156v5.8h-15.486v9.28h11.6zm14.459 17.4h-6.67v-38.28h6.67zm14.965-16.356c-.425 0-.87 0-1.334 0-.425 0-.889-.019-1.392-.058v16.414h-6.67v-38.28c.619-.039 1.315-.077 2.088-.116.812-.039 1.624-.058 2.436-.058.812-.039 1.566-.058 2.262-.058.735-.039 1.315-.058 1.74-.058 4.95 0 8.72.947 11.31 2.842 2.591 1.856 3.886 4.582 3.886 8.178 0 2.281-.56 4.331-1.682 6.148-1.121 1.817-2.996 3.171-5.626 4.06l14.036 17.342h-7.714zm-.29-16.646c-.309 0-.676 0-1.102 0-.425 0-.87.019-1.334.058v11.02h3.596c2.088 0 3.674-.522 4.756-1.566 1.083-1.044 1.624-2.533 1.624-4.466 0-1.74-.541-3.016-1.624-3.828-1.044-.812-3.016-1.218-5.916-1.218zm37.276-5.568c3.016 0 5.684.522 8.004 1.566s4.272 2.475 5.858 4.292c1.585 1.779 2.784 3.847 3.596 6.206s1.218 4.833 1.218 7.424c0 2.552-.406 5.027-1.218 7.424-.774 2.359-1.972 4.466-3.596 6.322-1.586 1.817-3.577 3.287-5.974 4.408-2.359 1.083-5.124 1.624-8.294 1.624-3.094 0-5.781-.522-8.062-1.566-2.282-1.044-4.176-2.455-5.684-4.234s-2.649-3.828-3.422-6.148c-.735-2.359-1.102-4.833-1.102-7.424 0-2.745.406-5.317 1.218-7.714.85-2.436 2.068-4.543 3.654-6.322 1.585-1.817 3.538-3.248 5.858-4.292s4.968-1.566 7.946-1.566zm-.29 33.582c2.126 0 3.924-.348 5.394-1.044 1.508-.735 2.745-1.721 3.712-2.958.966-1.276 1.662-2.765 2.088-4.466.464-1.701.696-3.519.696-5.452 0-2.088-.232-3.983-.696-5.684s-1.18-3.171-2.146-4.408c-.967-1.237-2.204-2.185-3.712-2.842-1.47-.696-3.21-1.044-5.22-1.044-2.05 0-3.809.348-5.278 1.044-1.431.657-2.61 1.585-3.538 2.784-.89 1.199-1.547 2.629-1.972 4.292-.387 1.663-.58 3.499-.58 5.51 0 4.717.966 8.275 2.9 10.672 1.933 2.397 4.717 3.596 8.352 3.596zm27.155-24.07c0 .812.174 1.508.522 2.088.386.58.908 1.083 1.566 1.508.657.425 1.43.831 2.32 1.218.928.348 1.952.715 3.074 1.102 1.392.503 2.764 1.083 4.118 1.74 1.392.619 2.629 1.411 3.712 2.378 1.121.928 2.03 2.088 2.726 3.48s1.044 3.074 1.044 5.046c0 2.088-.387 3.847-1.16 5.278-.735 1.431-1.74 2.591-3.016 3.48-1.276.851-2.746 1.469-4.408 1.856-1.663.387-3.384.58-5.162.58-2.552 0-4.95-.309-7.192-.928-2.204-.619-4.099-1.373-5.684-2.262l1.74-6.264c1.469 1.121 3.093 2.049 4.872 2.784 1.817.735 3.886 1.102 6.206 1.102 2.474 0 4.272-.425 5.394-1.276 1.121-.889 1.682-2.069 1.682-3.538 0-1.121-.271-2.069-.812-2.842-.542-.812-1.218-1.489-2.03-2.03-.812-.58-1.682-1.044-2.61-1.392-.89-.348-1.682-.638-2.378-.87-1.238-.387-2.494-.851-3.77-1.392s-2.456-1.237-3.538-2.088c-1.083-.889-1.972-1.991-2.668-3.306-.658-1.315-.986-2.958-.986-4.93 0-1.856.309-3.422.928-4.698.657-1.276 1.527-2.301 2.61-3.074 1.121-.812 2.416-1.392 3.886-1.74 1.508-.348 3.132-.522 4.872-.522 2.126 0 4.176.213 6.148.638 2.01.425 3.692.947 5.046 1.566l-1.566 6.148c-.696-.464-1.45-.87-2.262-1.218s-1.663-.638-2.552-.87c-.851-.232-1.721-.406-2.61-.522-.851-.155-1.663-.232-2.436-.232-1.74 0-3.113.329-4.118.986-1.006.657-1.508 1.663-1.508 3.016z"/><path d="m114.88 290.96c0 .56.12 1.04.36 1.44.267.4.627.747 1.08 1.04s.987.573 1.6.84c.64.24 1.347.493 2.12.76.96.347 1.907.747 2.84 1.2.96.427 1.813.973 2.56 1.64.773.64 1.4 1.44 1.88 2.4s.72 2.12.72 3.48c0 1.44-.267 2.653-.8 3.64-.507.987-1.2 1.787-2.08 2.4-.88.587-1.893 1.013-3.04 1.28s-2.333.4-3.56.4c-1.76 0-3.413-.213-4.96-.64-1.52-.427-2.827-.947-3.92-1.56l1.2-4.32c1.013.773 2.133 1.413 3.36 1.92 1.253.507 2.68.76 4.28.76 1.707 0 2.947-.293 3.72-.88.773-.613 1.16-1.427 1.16-2.44 0-.773-.187-1.427-.56-1.96-.373-.56-.84-1.027-1.4-1.4-.56-.4-1.16-.72-1.8-.96-.613-.24-1.16-.44-1.64-.6-.853-.267-1.72-.587-2.6-.96s-1.693-.853-2.44-1.44c-.747-.613-1.36-1.373-1.84-2.28-.453-.907-.68-2.04-.68-3.4 0-1.28.213-2.36.64-3.24.453-.88 1.053-1.587 1.8-2.12.773-.56 1.667-.96 2.68-1.2 1.04-.24 2.16-.36 3.36-.36 1.467 0 2.88.147 4.24.44 1.387.293 2.547.653 3.48 1.08l-1.08 4.24c-.48-.32-1-.6-1.56-.84s-1.147-.44-1.76-.6c-.587-.16-1.187-.28-1.8-.36-.587-.107-1.147-.16-1.68-.16-1.2 0-2.147.227-2.84.68s-1.04 1.147-1.04 2.08zm35.04 9.8c0 2.427.56 4.173 1.68 5.24 1.12 1.04 2.68 1.56 4.68 1.56s3.56-.52 4.68-1.56c1.146-1.067 1.72-2.813 1.72-5.24v-16.16h4.4v17.12c0 1.307-.214 2.547-.64 3.72-.427 1.173-1.094 2.213-2 3.12-.88.88-2.027 1.587-3.44 2.12-1.387.507-3.04.76-4.96.76s-3.56-.253-4.92-.76c-1.36-.533-2.48-1.24-3.36-2.12-.854-.907-1.48-1.947-1.88-3.12-.374-1.173-.56-2.413-.56-3.72v-17.12h4.6zm40.883 10.24h-4.6v-26.4h4.6zm36.64-22.4h-7.64v22.4h-4.6v-22.4h-7.64v-4h19.88zm29.363 10.4h-8v8h11.48v4h-16.08v-26.4h15.28v4h-10.68v6.4h8zm24.332-8.04c0 .56.12 1.04.36 1.44.266.4.626.747 1.08 1.04.453.293.986.573 1.6.84.64.24 1.346.493 2.12.76.96.347 1.906.747 2.84 1.2.96.427 1.813.973 2.56 1.64.773.64 1.4 1.44 1.88 2.4s.72 2.12.72 3.48c0 1.44-.267 2.653-.8 3.64-.507.987-1.2 1.787-2.08 2.4-.88.587-1.894 1.013-3.04 1.28-1.147.267-2.334.4-3.56.4-1.76 0-3.414-.213-4.96-.64-1.52-.427-2.827-.947-3.92-1.56l1.2-4.32c1.013.773 2.133 1.413 3.36 1.92 1.253.507 2.68.76 4.28.76 1.706 0 2.946-.293 3.72-.88.773-.613 1.16-1.427 1.16-2.44 0-.773-.187-1.427-.56-1.96-.374-.56-.84-1.027-1.4-1.4-.56-.4-1.16-.72-1.8-.96-.614-.24-1.16-.44-1.64-.6-.854-.267-1.72-.587-2.6-.96s-1.694-.853-2.44-1.44c-.747-.613-1.36-1.373-1.84-2.28-.454-.907-.68-2.04-.68-3.4 0-1.28.213-2.36.64-3.24.453-.88 1.053-1.587 1.8-2.12.773-.56 1.666-.96 2.68-1.2 1.04-.24 2.16-.36 3.36-.36 1.466 0 2.88.147 4.24.44 1.386.293 2.546.653 3.48 1.08l-1.08 4.24c-.48-.32-1-.6-1.56-.84s-1.147-.44-1.76-.6c-.587-.16-1.187-.28-1.8-.36-.587-.107-1.147-.16-1.68-.16-1.2 0-2.147.227-2.84.68-.694.453-1.04 1.147-1.04 2.08z"/></g></svg>